<svg width="135" height="132" viewBox="0 0 135 132" fill="none" xmlns="http://www.w3.org/2000/svg">
<rect width="135" height="132" fill="#E5E5E5"/>
<g id="SnapChat">
<path id="Vector" style="mix-blend-mode:multiply" d="M8.59771 87.7661C8.90535 82.3316 7.50682 76.9368 4.59771 72.3361C3.97771 71.3361 3.43771 70.2061 2.86771 69.1361C0.917924 65.6419 0.133243 61.6169 0.627711 57.6461C1.38013 50.7523 3.16334 44.0105 5.91771 37.6461C8.91771 31.0561 14.1677 26.9861 21.0077 24.9161C23.155 24.3093 25.3956 24.1025 27.6177 24.3061C30.5677 24.5261 33.5177 24.8061 36.4577 25.0861C42.2482 25.6061 48.0822 24.8482 53.5477 22.8661C57.7088 21.4935 61.7275 19.7219 65.5477 17.5761C70.2085 14.8323 75.4657 13.2606 80.8677 12.9961C88.4377 12.6461 95.9677 12.7861 103.218 15.3461C112.058 18.4661 119.738 23.3461 124.998 31.2761C131.068 40.4761 133.348 50.4261 130.048 61.2761C129.151 64.1118 127.8 66.7832 126.048 69.1861C121.773 75.1796 118.834 82.02 117.428 89.2461C117.061 91.0962 116.574 92.9201 115.968 94.7061C111.768 107.036 103.038 114.566 90.7377 118.136C88.1073 118.902 85.3433 119.095 82.6318 118.704C79.9203 118.312 77.3241 117.345 75.0177 115.866C73.5571 115.029 72.1569 114.09 70.8277 113.056C66.1177 109.216 60.8277 108.396 55.0477 109.736C50.9877 110.676 46.9277 111.646 42.8577 112.556C36.2564 114.114 29.3373 113.63 23.0177 111.166C15.7677 108.366 10.9177 103.296 9.01771 95.6261C8.54213 93.0349 8.40098 90.3933 8.59771 87.7661V87.7661Z" fill="url(#paint0_linear)"/>
<path id="Vector_2" style="mix-blend-mode:multiply" d="M42.4677 23.8563C41.2518 23.9132 40.0378 23.7086 38.9077 23.2563C38.3945 23.0822 37.9229 22.804 37.5224 22.4389C37.1219 22.0739 36.8012 21.6299 36.5806 21.135C36.3599 20.6401 36.2439 20.1049 36.24 19.5631C36.236 19.0212 36.3442 18.4844 36.5577 17.9863C36.9441 16.83 37.6906 15.8278 38.6877 15.1263C40.1877 14.1454 41.943 13.6272 43.7352 13.6361C45.5274 13.645 47.2775 14.1806 48.7677 15.1763C49.3706 15.6123 49.889 16.1545 50.2977 16.7763C50.6399 17.1989 50.8822 17.6933 51.0066 18.2226C51.1309 18.752 51.1341 19.3026 51.0158 19.8333C50.8975 20.3641 50.6609 20.8613 50.3236 21.2877C49.9862 21.7142 49.5569 22.059 49.0677 22.2963C47.0444 23.3911 44.7669 23.9294 42.4677 23.8563V23.8563Z" fill="url(#paint1_linear)"/>
<path id="Vector_3" style="mix-blend-mode:multiply" d="M96.8676 9.20624C100.387 13.353 105.114 16.2968 110.388 17.6263C111.558 17.9463 112.698 18.3562 113.848 18.7362C117.674 19.9177 121.025 22.285 123.418 25.4963C127.642 31.0034 131.013 37.1152 133.418 43.6263C135.808 50.4563 134.828 57.0262 131.308 63.2562C130.18 65.1778 128.705 66.8732 126.958 68.2562C124.678 70.1362 122.358 71.9763 120.028 73.8063C115.487 77.432 111.797 82.0095 109.218 87.2163C107.168 91.0804 105.493 95.1322 104.218 99.3162C102.736 104.521 100.011 109.288 96.2776 113.206C91.0576 118.696 85.5176 123.796 78.5076 126.956C69.9576 130.816 61.0676 132.626 51.7676 130.496C41.0076 128.046 32.4876 122.436 27.3876 112.326C26.0717 109.665 25.1969 106.808 24.7976 103.866C23.7399 96.5793 21.1349 89.603 17.1576 83.4063C16.157 81.801 15.265 80.1306 14.4876 78.4063C8.9976 66.5963 10.1076 55.1162 16.4876 44.0362C17.8594 41.6642 19.723 39.6132 21.9532 38.0212C24.1834 36.4292 26.7286 35.333 29.4176 34.8063C31.0614 34.3995 32.7324 34.1121 34.4176 33.9462C40.4776 33.4662 44.8776 30.3862 48.1176 25.4262C50.4076 21.9362 52.6676 18.4263 54.9776 14.9663C58.6756 9.28043 64.0101 4.84894 70.2776 2.25623C77.4476 -0.743769 84.4676 -0.423761 91.1176 3.82624C93.2612 5.36049 95.1944 7.16925 96.8676 9.20624Z" fill="url(#paint2_linear)"/>
<path id="Vector_4" style="mix-blend-mode:multiply" d="M116.537 78.8062C117.382 77.9315 118.405 77.2493 119.537 76.8062C120.029 76.5772 120.563 76.4521 121.105 76.4388C121.647 76.4255 122.186 76.5243 122.688 76.7289C123.19 76.9335 123.645 77.2397 124.023 77.6281C124.402 78.0165 124.696 78.4788 124.887 78.9862C125.406 80.0934 125.557 81.3373 125.317 82.5362C124.913 84.281 124.004 85.8683 122.705 87.1005C121.405 88.3327 119.771 89.1554 118.007 89.4662C117.271 89.5633 116.523 89.5294 115.797 89.3662C115.258 89.2979 114.74 89.1084 114.284 88.8119C113.828 88.5155 113.445 88.1198 113.163 87.6543C112.881 87.1889 112.708 86.6658 112.657 86.1241C112.606 85.5824 112.678 85.0362 112.867 84.5262C113.562 82.3278 114.829 80.3537 116.537 78.8062Z" fill="url(#paint3_linear)"/>
<path id="Vector_5" fill-rule="evenodd" clip-rule="evenodd" d="M98.0676 81.9262V81.8562H97.9976C97.3498 81.4867 96.6425 81.2329 95.9076 81.1062V81.1062C92.5169 79.9383 89.5625 77.7652 87.4376 74.8762C86.2072 73.3227 85.1977 71.6064 84.4376 69.7762V69.7762C84.2806 69.4273 84.2079 69.0464 84.2253 68.6643C84.2427 68.2821 84.3496 67.9094 84.5376 67.5762H84.6076C85.3775 66.6772 86.3865 66.015 87.5176 65.6662V65.6662C88.973 65.2783 90.3341 64.5978 91.5176 63.6662V63.6662C91.7942 63.493 92.0053 63.2326 92.1176 62.9262C92.1422 62.83 92.1757 62.7363 92.2176 62.6462C92.3001 62.2881 92.2651 61.9129 92.1176 61.5762V61.5762C91.8075 61.0153 91.3376 60.5593 90.7676 60.2662V60.2662C90.0215 59.8877 89.1579 59.8124 88.3576 60.0562V60.0562C87.6896 60.3451 86.9871 60.5467 86.2676 60.6562C86.2676 60.6562 86.2676 60.7262 86.2676 60.7262C85.4683 60.8725 84.6471 60.8487 83.8576 60.6562C83.8624 60.477 83.8387 60.2981 83.7876 60.1262V60.1262C83.7876 58.7062 83.8876 57.2262 83.8876 55.6262C84.0402 53.2432 83.9934 50.8515 83.7476 48.4762V48.4062C82.8654 44.335 80.457 40.7564 77.0176 38.4062C74.5695 36.739 71.7224 35.752 68.7676 35.5462C67.7717 35.4303 66.7702 35.3703 65.7676 35.3662C61.7411 35.3199 57.8092 36.5873 54.5676 38.9762C52.1507 40.8329 50.2587 43.2867 49.0776 46.0962V46.0962C47.9476 48.9262 48.0776 52.0062 48.2276 54.8062C48.2276 56.7562 48.4776 58.6662 48.3376 60.5462C48.3376 60.5462 48.3376 60.5462 48.2676 60.6462C47.3374 60.7877 46.3896 60.764 45.4676 60.5762V60.5762C44.7876 60.4762 44.1576 60.1862 43.3376 59.9762H43.2676C42.9078 59.8811 42.5304 59.8733 42.1669 59.9533C41.8034 60.0333 41.4643 60.1989 41.1776 60.4362V60.4362C40.809 60.5982 40.492 60.8582 40.261 61.188C40.03 61.5177 39.894 61.9045 39.8676 62.3062C39.8507 62.3514 39.8507 62.4011 39.8676 62.4462V62.4462C39.9593 62.9076 40.2107 63.3218 40.5776 63.6162C40.7959 63.8295 41.0454 64.0082 41.3176 64.1462V64.2162C42.7672 65.0021 44.2914 65.6419 45.8676 66.1262V66.1262C46.3275 66.2652 46.7482 66.5106 47.0957 66.8424C47.4431 67.1742 47.7076 67.5832 47.8676 68.0362C48.0345 69.2174 47.7565 70.4185 47.0876 71.4062V71.4062C45.5404 74.509 43.2275 77.1661 40.3676 79.1262C38.8552 80.1304 37.1904 80.8835 35.4376 81.3562V81.3562C35.0476 81.5362 34.1576 81.6062 33.6676 82.4162C33.6352 82.4434 33.6088 82.477 33.5899 82.5148C33.5709 82.5527 33.56 82.594 33.5576 82.6362C33.4929 82.8656 33.4846 83.1072 33.5334 83.3405C33.5821 83.5738 33.6865 83.7919 33.8376 83.9762C34.0491 84.2349 34.3155 84.4433 34.6176 84.5862C36.057 85.3322 37.596 85.8676 39.1876 86.1762V86.1762C40.1574 86.3562 41.1157 86.5933 42.0576 86.8862C42.0576 86.9562 42.1976 87.2062 42.3776 87.6662C42.6576 88.4762 42.7676 89.4662 43.0876 90.4562C43.1358 90.5884 43.2157 90.7068 43.3203 90.801C43.4249 90.8951 43.551 90.9622 43.6876 90.9962C44.0527 91.0957 44.4408 91.0675 44.7876 90.9162C47.3076 90.5262 49.7876 90.1362 52.0176 90.7062C54.4276 91.3062 56.4476 92.9362 58.8176 94.3562C60.3944 95.5022 62.2551 96.194 64.1976 96.3562V96.3562C65.735 96.4249 67.2753 96.3881 68.8076 96.2462V96.2462C70.0866 96.1262 71.3213 95.7157 72.4176 95.0462L72.4876 94.9762C74.9276 93.6262 77.0576 91.9262 79.4876 90.8662C80.4162 90.6549 81.3653 90.5476 82.3176 90.5462V90.5462C84.2961 90.5073 86.2748 90.6143 88.2376 90.8662H88.4476C88.7064 90.8289 88.9436 90.7014 89.1176 90.5062C89.2576 90.3362 89.2576 90.1562 89.3276 90.0462C89.3976 89.9362 89.4376 89.8062 89.3276 89.9462C89.3976 89.9462 89.3976 89.8362 89.4376 89.8062C89.6123 88.7741 89.9859 87.7858 90.5376 86.8962C90.883 86.6071 91.3289 86.4668 91.7776 86.5062H91.8676C93.4654 86.2325 95.0305 85.7935 96.5376 85.1962C96.5376 85.1262 96.5376 85.1262 96.6176 85.1262C97.3383 84.9003 97.9777 84.4694 98.4576 83.8862V83.8862C98.5699 83.7409 98.6502 83.5735 98.6931 83.395C98.736 83.2164 98.7406 83.0308 98.7066 82.8503C98.6726 82.6699 98.6007 82.4987 98.4958 82.348C98.3908 82.1974 98.2551 82.0706 98.0976 81.9762L98.0676 81.9262Z" fill="white"/>
</g>
<defs>
<linearGradient id="paint0_linear" x1="0.517711" y1="65.8661" x2="131.588" y2="65.8661" gradientUnits="userSpaceOnUse">
<stop stop-color="#FF9E00"/>
<stop offset="0.54" stop-color="#FFEB28"/>
<stop offset="1" stop-color="#FFFFAA"/>
</linearGradient>
<linearGradient id="paint1_linear" x1="1097.41" y1="3451.19" x2="1317.67" y2="3451.19" gradientUnits="userSpaceOnUse">
<stop stop-color="#FF9E00"/>
<stop offset="0.54" stop-color="#FFEB28"/>
<stop offset="1" stop-color="#FFFFAA"/>
</linearGradient>
<linearGradient id="paint2_linear" x1="-163378" y1="27453.2" x2="-175100" y2="38667.1" gradientUnits="userSpaceOnUse">
<stop stop-color="#FF9E00"/>
<stop offset="0.54" stop-color="#FFEB28"/>
<stop offset="1" stop-color="#FFFFAA"/>
</linearGradient>
<linearGradient id="paint3_linear" x1="-15635.7" y1="3463.41" x2="-15772.7" y2="3594.5" gradientUnits="userSpaceOnUse">
<stop stop-color="#FF9E00"/>
<stop offset="0.54" stop-color="#FFEB28"/>
<stop offset="1" stop-color="#FFFFAA"/>
</linearGradient>
</defs>
</svg>
