<svg width="110" height="110" viewBox="0 0 110 110" fill="none"
     xmlns="http://www.w3.org/2000/svg">
    <rect width="110" height="110" fill="#E5E5E5"/>
    <g id="Frame 1">
        <g clip-path="url(#clip0)">
            <rect x="-45" y="-82" width="355" height="289" fill="#ACA7A7"/>
            <g id="snapChat">
                <path id="circle1"
                      d="M94.0374 64.2137C99.126 42.6539 85.7735 21.0511 64.2137 15.9626C42.6539 10.874 21.0512 24.2266 15.9626 45.7863C10.874 67.3461 24.2266 88.9489 45.7863 94.0374C67.3461 99.126 88.9489 85.7735 94.0374 64.2137Z"
                      stroke="#FEFB01" stroke-width="4" stroke-miterlimit="10"/>
                <path id="circle"
                      d="M94.0374 64.2137C99.126 42.6539 85.7735 21.0511 64.2137 15.9626C42.6539 10.874 21.0512 24.2266 15.9626 45.7863C10.874 67.3461 24.2266 88.9489 45.7863 94.0374C67.3461 99.126 88.9489 85.7735 94.0374 64.2137Z"
                      stroke="#FEFB01" stroke-width="4" stroke-miterlimit="10"/>
                <path id="ghost"
                      d="M27.165 69.6523V68.7823C27.4836 68.3431 27.9479 68.0312 28.475 67.9023C33.045 66.9923 36.095 64.0923 38.395 60.2723C40.335 57.0623 40.025 56.3223 36.455 55.0623C36.255 54.9923 36.045 54.9323 35.845 54.8423C35.0564 54.5669 34.3196 54.1613 33.665 53.6423C32.075 52.2523 33.015 50.2523 34.905 49.7923C36.275 49.4623 37.475 50.3523 38.815 50.5123C39.705 50.6323 40.065 50.3323 39.955 49.3723C39.7018 46.9241 39.6483 44.4593 39.795 42.0023C39.8538 39.8319 40.4779 37.7143 41.6056 35.8588C42.7332 34.0033 44.3255 32.4741 46.225 31.4223C48.8245 29.7614 51.843 28.8747 54.9277 28.8659C58.0125 28.857 61.036 29.7264 63.645 31.3723C65.4037 32.3316 66.9042 33.702 68.0187 35.3666C69.1331 37.0313 69.8283 38.9408 70.045 40.9323C70.32 43.7055 70.32 46.4991 70.045 49.2723C69.955 50.4823 70.195 50.7023 71.395 50.4223C72.875 50.0823 74.115 49.3123 75.655 49.9923C76.0736 50.1446 76.4396 50.4142 76.7091 50.7688C76.9787 51.1235 77.1404 51.5482 77.175 51.9923C77.1543 52.3014 77.0688 52.6027 76.924 52.8766C76.7793 53.1506 76.5786 53.391 76.335 53.5823C75.5793 54.1559 74.7348 54.6017 73.835 54.9023C73.165 55.1723 72.465 55.3823 71.835 55.6823C70.485 56.3223 70.105 57.1523 70.735 58.4823C72.915 63.1023 76.125 66.6023 81.315 67.8223C81.9207 67.9233 82.4647 68.2525 82.835 68.7423V69.6123C82.5868 70.0755 82.2497 70.4853 81.8431 70.8182C81.4364 71.151 80.9681 71.4005 80.465 71.5523C79.4762 72.0057 78.4242 72.3058 77.345 72.4423C77.0247 72.4206 76.7034 72.4642 76.4005 72.5704C76.0976 72.6766 75.8194 72.8432 75.5828 73.0601C75.3462 73.2771 75.1562 73.5398 75.0242 73.8324C74.8922 74.125 74.821 74.4414 74.815 74.7623C74.595 76.2523 74.155 76.4623 72.635 76.3323C72.275 76.3323 71.915 76.2423 71.565 76.1823C68.565 75.6523 65.795 75.9523 63.345 77.9223C62.8597 78.287 62.352 78.621 61.825 78.9223C57.655 81.6323 53.395 81.9223 49.045 79.4023C47.855 78.7123 46.725 77.9123 45.575 77.1623C44.6321 76.5563 43.5665 76.167 42.455 76.0223C40.6886 75.8929 38.9129 76.0005 37.175 76.3423C36.265 76.4423 35.395 76.1823 35.345 75.2523C35.225 73.0023 33.845 72.4523 31.955 72.2523C31.0606 72.1128 30.1914 71.8433 29.375 71.4523C28.4347 71.1581 27.6435 70.5136 27.165 69.6523Z"
                      fill="#FEFB01"/>
                <g id="fins">
                    <path d="M31.1494 5.45221C32.9936 4.56313 34.8891 3.77556 36.8274 3.09489L41.9133 15.3732C39.9611 16.02 38.0633 16.8089 36.2353 17.7305L31.1494 5.45221Z"
                          fill="#FEFB01"/>
                    <path d="M13.9977 18.3449C15.3694 16.8132 16.8228 15.3637 18.349 14.0017L27.747 23.3998C26.1972 24.7341 24.7418 26.1849 23.3958 27.743L13.9977 18.3449Z"
                          fill="#FEFB01"/>
                    <path d="M3.09711 36.8283C3.77883 34.8735 4.5634 32.9777 5.44312 31.1456L17.7226 36.2319C16.8122 38.0439 16.0257 39.9408 15.3764 41.9145L3.09711 36.8283Z"
                          fill="#FEFB01"/>
                    <path d="M0.0839983 58.0739C-0.0288799 56.0418 -0.0288063 53.9899 0.0891491 51.9261H13.3813C13.226 53.9939 13.2272 56.0478 13.3762 58.0739H0.0839983Z"
                          fill="#FEFB01"/>
                    <path d="M5.4522 78.8506C4.56312 77.0064 3.77555 75.1108 3.09488 73.1726L15.3732 68.0867C16.02 70.0389 16.8088 71.9367 17.7304 73.7647L5.4522 78.8506Z"
                          fill="#FEFB01"/>
                    <path d="M18.3449 96.0023C16.8132 94.6306 15.3638 93.1773 14.0018 91.6511L23.3998 82.2531C24.7341 83.8028 26.1849 85.2582 27.743 86.6042L18.3449 96.0023Z"
                          fill="#FEFB01"/>
                    <path d="M36.8283 106.903C34.8735 106.221 32.9777 105.437 31.1457 104.557L36.232 92.2775C38.0439 93.1878 39.9408 93.9743 41.9146 94.6236L36.8283 106.903Z"
                          fill="#FEFB01"/>
                    <path d="M58.074 109.916C56.0418 110.029 53.9899 110.029 51.9261 109.911V96.6187C53.994 96.774 56.0479 96.7729 58.074 96.6238V109.916Z"
                          fill="#FEFB01"/>
                    <path d="M78.8506 104.548C77.0065 105.437 75.1109 106.224 73.1726 106.905L68.0867 94.6268C70.039 93.98 71.9367 93.1912 73.7648 92.2696L78.8506 104.548Z"
                          fill="#FEFB01"/>
                    <path d="M96.0023 91.6551C94.6306 93.1868 93.1773 94.6363 91.6511 95.9983L82.2531 86.6002C83.8028 85.2659 85.2582 83.8151 86.6042 82.257L96.0023 91.6551Z"
                          fill="#FEFB01"/>
                    <path d="M106.903 73.1716C106.221 75.1264 105.437 77.0223 104.557 78.8543L92.2775 73.768C93.1878 71.9561 93.9743 70.0592 94.6237 68.0854L106.903 73.1716Z"
                          fill="#FEFB01"/>
                    <path d="M109.916 51.9261C110.029 53.9582 110.029 56.0101 109.911 58.0739H96.6187C96.774 56.006 96.7728 53.9522 96.6238 51.9261H109.916Z"
                          fill="#FEFB01"/>
                    <path d="M104.548 31.1494C105.437 32.9935 106.224 34.8891 106.905 36.8274L94.6268 41.9132C93.98 39.961 93.1911 38.0633 92.2695 36.2352L104.548 31.1494Z"
                          fill="#FEFB01"/>
                    <path d="M91.6551 13.9977C93.1868 15.3694 94.6363 16.8227 95.9983 18.349L86.6002 27.747C85.2659 26.1972 83.8151 24.7418 82.257 23.3958L91.6551 13.9977Z"
                          fill="#FEFB01"/>
                    <path d="M73.1717 3.0971C75.1265 3.77882 77.0223 4.56339 78.8544 5.4431L73.768 17.7225C71.9561 16.8122 70.0592 16.0257 68.0854 15.3764L73.1717 3.0971Z"
                          fill="#FEFB01"/>
                    <path d="M58.074 0.0891526C56.0101 -0.0288028 53.9582 -0.0288856 51.9261 0.0840017V13.3762C53.9522 13.2272 56.0061 13.226 58.074 13.3813V0.0891526Z"
                          fill="#FEFB01"/>
                </g>
                <g id="outline">
                    <mask id="path-7-outside-1" maskUnits="userSpaceOnUse"
                          x="25.165" y="26.8783" width="60" height="57"
                          fill="black">
                        <rect fill="white" x="25.165" y="26.8783" width="60"
                              height="57"/>
                        <path fill-rule="evenodd" clip-rule="evenodd"
                              d="M26.165 69.8971V68.4453L26.3555 68.1827C26.8132 67.5516 27.4802 67.1035 28.2376 66.9184L28.2585 66.9133L28.2797 66.909C32.4825 66.0722 35.3274 63.416 37.5383 59.744L37.5392 59.7425C38.0176 58.9509 38.3154 58.3746 38.4671 57.9353C38.6172 57.5007 38.5806 57.3243 38.5549 57.2559C38.5283 57.1848 38.4356 57.0233 38.0303 56.785C37.6226 56.5453 37.0154 56.2956 36.134 55.9969L36.1246 55.9937C36.0967 55.9839 36.0595 55.9716 36.0157 55.9571C35.8739 55.9102 35.6633 55.8407 35.4774 55.7605C34.5976 55.4485 33.7754 54.9934 33.0438 54.4134L33.0249 54.3985L33.0068 54.3827C31.9202 53.4327 31.6156 52.1536 32.043 51.0069C32.4478 49.9206 33.4499 49.1047 34.6685 48.8082L34.6708 48.8076C35.6303 48.5765 36.4911 48.7878 37.1718 49.0023C37.3796 49.0677 37.5653 49.1306 37.7369 49.1886C38.1863 49.3406 38.5382 49.4596 38.9336 49.5068L38.9411 49.5077L38.9486 49.5088C38.9543 49.5095 38.96 49.5103 38.9655 49.511C38.9643 49.499 38.963 49.4865 38.9615 49.4736L38.9603 49.4627C38.702 46.9658 38.647 44.452 38.7958 41.9462C38.8621 39.6076 39.5358 37.3263 40.751 35.3269C41.9638 33.3313 43.6741 31.6852 45.7143 30.5496C48.473 28.8047 51.6704 27.8783 54.935 27.8783C58.1986 27.8783 61.395 28.8041 64.1531 30.5479C66.0408 31.5836 67.6517 33.0583 68.8496 34.8478C70.0538 36.6465 70.805 38.7098 71.0391 40.8616L71.0402 40.8711C71.3212 43.7057 71.3216 46.5611 71.0414 49.3958C71.0383 49.4384 71.0357 49.4783 71.0338 49.5158C71.0753 49.507 71.1199 49.4971 71.1678 49.486L71.1711 49.4852C71.4964 49.4104 71.8139 49.3109 72.169 49.1994L72.1756 49.1974C72.5155 49.0907 72.8973 48.9708 73.2893 48.8853C74.1028 48.7078 75.0182 48.6643 76.0291 49.102C76.6147 49.3218 77.1265 49.7028 77.5053 50.2012C77.891 50.7087 78.1224 51.3166 78.172 51.9521L78.1776 52.0244L78.1728 52.0968C78.1426 52.5457 78.0184 52.9833 77.8082 53.3812C77.598 53.7791 77.3066 54.1283 76.9527 54.4062L76.9461 54.4114L76.9395 54.4164C76.105 55.0497 75.1733 55.5435 74.1808 55.8785C73.9166 55.9843 73.6444 56.083 73.3921 56.1745C73.314 56.2028 73.2378 56.2305 73.1643 56.2574C72.8319 56.3793 72.5358 56.4937 72.2649 56.6227L72.2579 56.626C71.6763 56.8974 71.5146 57.1215 71.4689 57.2339C71.4324 57.3237 71.3841 57.5542 71.6387 58.0917L71.6394 58.0931C73.732 62.5279 76.7312 65.745 81.5151 66.8795C82.3588 67.0294 83.1154 67.4924 83.6327 68.1767L83.835 68.4443V69.8909L83.7164 70.1122C83.4061 70.6911 82.9848 71.2033 82.4765 71.6194C81.9864 72.0206 81.4248 72.3248 80.8216 72.5162C79.758 72.9966 78.6285 73.3154 77.4705 73.4619L77.3676 73.4749L77.2642 73.4665C77.0796 73.4516 76.8939 73.4742 76.7182 73.5331C76.5426 73.5919 76.3807 73.6858 76.2424 73.809C76.1041 73.9322 75.9922 74.0821 75.9135 74.2498C75.8347 74.4175 75.7908 74.5994 75.7844 74.7845L75.7825 74.8405L75.7743 74.8959C75.6637 75.6448 75.4608 76.4828 74.7445 76.9695C74.3942 77.2074 74.0084 77.3002 73.651 77.3343C73.3117 77.3667 72.9401 77.3511 72.5584 77.3194C72.1905 77.3134 71.8018 77.2384 71.5385 77.1876C71.4723 77.1749 71.4141 77.1636 71.366 77.1554L71.361 77.1546C68.5403 76.6562 66.0955 76.9572 63.9416 78.6891L63.9289 78.6994L63.9157 78.7092C63.4047 79.0933 62.8705 79.4454 62.3161 79.7637C60.1208 81.1857 57.8513 82.0046 55.5176 82.11C53.1712 82.2161 50.831 81.5975 48.5137 80.2551C47.648 79.7531 46.7973 79.1844 45.9809 78.6387C45.6484 78.4164 45.3215 78.1979 45.0015 77.9892C44.1914 77.4691 43.2771 77.1332 42.3232 77.005C40.6553 76.8853 38.9788 76.9882 37.338 77.311L37.2964 77.3192L37.2542 77.3238C36.6985 77.3849 36.0363 77.3535 35.4603 77.0655C34.8144 76.7425 34.3615 76.1319 34.3164 75.2935C34.2682 74.3884 33.9888 73.9981 33.6867 73.7733C33.3183 73.499 32.7324 73.3308 31.8198 73.2342L31.7952 73.2317L31.7708 73.2278C30.8015 73.0766 29.8588 72.7875 28.9715 72.3694C27.8292 71.9814 26.8721 71.1804 26.2892 70.1224L26.165 69.8971Z"/>
                    </mask>
                    <path fill-rule="evenodd" clip-rule="evenodd"
                          d="M26.165 69.8971V68.4453L26.3555 68.1827C26.8132 67.5516 27.4802 67.1035 28.2376 66.9184L28.2585 66.9133L28.2797 66.909C32.4825 66.0722 35.3274 63.416 37.5383 59.744L37.5392 59.7425C38.0176 58.9509 38.3154 58.3746 38.4671 57.9353C38.6172 57.5007 38.5806 57.3243 38.5549 57.2559C38.5283 57.1848 38.4356 57.0233 38.0303 56.785C37.6226 56.5453 37.0154 56.2956 36.134 55.9969L36.1246 55.9937C36.0967 55.9839 36.0595 55.9716 36.0157 55.9571C35.8739 55.9102 35.6633 55.8407 35.4774 55.7605C34.5976 55.4485 33.7754 54.9934 33.0438 54.4134L33.0249 54.3985L33.0068 54.3827C31.9202 53.4327 31.6156 52.1536 32.043 51.0069C32.4478 49.9206 33.4499 49.1047 34.6685 48.8082L34.6708 48.8076C35.6303 48.5765 36.4911 48.7878 37.1718 49.0023C37.3796 49.0677 37.5653 49.1306 37.7369 49.1886C38.1863 49.3406 38.5382 49.4596 38.9336 49.5068L38.9411 49.5077L38.9486 49.5088C38.9543 49.5095 38.96 49.5103 38.9655 49.511C38.9643 49.499 38.963 49.4865 38.9615 49.4736L38.9603 49.4627C38.702 46.9658 38.647 44.452 38.7958 41.9462C38.8621 39.6076 39.5358 37.3263 40.751 35.3269C41.9638 33.3313 43.6741 31.6852 45.7143 30.5496C48.473 28.8047 51.6704 27.8783 54.935 27.8783C58.1986 27.8783 61.395 28.8041 64.1531 30.5479C66.0408 31.5836 67.6517 33.0583 68.8496 34.8478C70.0538 36.6465 70.805 38.7098 71.0391 40.8616L71.0402 40.8711C71.3212 43.7057 71.3216 46.5611 71.0414 49.3958C71.0383 49.4384 71.0357 49.4783 71.0338 49.5158C71.0753 49.507 71.1199 49.4971 71.1678 49.486L71.1711 49.4852C71.4964 49.4104 71.8139 49.3109 72.169 49.1994L72.1756 49.1974C72.5155 49.0907 72.8973 48.9708 73.2893 48.8853C74.1028 48.7078 75.0182 48.6643 76.0291 49.102C76.6147 49.3218 77.1265 49.7028 77.5053 50.2012C77.891 50.7087 78.1224 51.3166 78.172 51.9521L78.1776 52.0244L78.1728 52.0968C78.1426 52.5457 78.0184 52.9833 77.8082 53.3812C77.598 53.7791 77.3066 54.1283 76.9527 54.4062L76.9461 54.4114L76.9395 54.4164C76.105 55.0497 75.1733 55.5435 74.1808 55.8785C73.9166 55.9843 73.6444 56.083 73.3921 56.1745C73.314 56.2028 73.2378 56.2305 73.1643 56.2574C72.8319 56.3793 72.5358 56.4937 72.2649 56.6227L72.2579 56.626C71.6763 56.8974 71.5146 57.1215 71.4689 57.2339C71.4324 57.3237 71.3841 57.5542 71.6387 58.0917L71.6394 58.0931C73.732 62.5279 76.7312 65.745 81.5151 66.8795C82.3588 67.0294 83.1154 67.4924 83.6327 68.1767L83.835 68.4443V69.8909L83.7164 70.1122C83.4061 70.6911 82.9848 71.2033 82.4765 71.6194C81.9864 72.0206 81.4248 72.3248 80.8216 72.5162C79.758 72.9966 78.6285 73.3154 77.4705 73.4619L77.3676 73.4749L77.2642 73.4665C77.0796 73.4516 76.8939 73.4742 76.7182 73.5331C76.5426 73.5919 76.3807 73.6858 76.2424 73.809C76.1041 73.9322 75.9922 74.0821 75.9135 74.2498C75.8347 74.4175 75.7908 74.5994 75.7844 74.7845L75.7825 74.8405L75.7743 74.8959C75.6637 75.6448 75.4608 76.4828 74.7445 76.9695C74.3942 77.2074 74.0084 77.3002 73.651 77.3343C73.3117 77.3667 72.9401 77.3511 72.5584 77.3194C72.1905 77.3134 71.8018 77.2384 71.5385 77.1876C71.4723 77.1749 71.4141 77.1636 71.366 77.1554L71.361 77.1546C68.5403 76.6562 66.0955 76.9572 63.9416 78.6891L63.9289 78.6994L63.9157 78.7092C63.4047 79.0933 62.8705 79.4454 62.3161 79.7637C60.1208 81.1857 57.8513 82.0046 55.5176 82.11C53.1712 82.2161 50.831 81.5975 48.5137 80.2551C47.648 79.7531 46.7973 79.1844 45.9809 78.6387C45.6484 78.4164 45.3215 78.1979 45.0015 77.9892C44.1914 77.4691 43.2771 77.1332 42.3232 77.005C40.6553 76.8853 38.9788 76.9882 37.338 77.311L37.2964 77.3192L37.2542 77.3238C36.6985 77.3849 36.0363 77.3535 35.4603 77.0655C34.8144 76.7425 34.3615 76.1319 34.3164 75.2935C34.2682 74.3884 33.9888 73.9981 33.6867 73.7733C33.3183 73.499 32.7324 73.3308 31.8198 73.2342L31.7952 73.2317L31.7708 73.2278C30.8015 73.0766 29.8588 72.7875 28.9715 72.3694C27.8292 71.9814 26.8721 71.1804 26.2892 70.1224L26.165 69.8971Z"
                          stroke="#FEFB01" stroke-width="2"
                          mask="url(#path-7-outside-1)"/>
                </g>
                <path id="skirt"
                      d="M71.4441 64.4618C73.2635 66.6926 75.5615 68.5014 78.5028 69.6105C78.0536 69.7569 77.6041 69.8755 77.1682 69.9421C76.6188 69.934 76.0712 70.0189 75.5487 70.194C74.9244 70.4032 74.349 70.7369 73.8573 71.1748C73.3656 71.6128 72.9678 72.1458 72.6879 72.7419C72.5351 73.0674 72.4192 73.4081 72.3417 73.7574C72.2008 73.7365 72.0571 73.7122 71.9063 73.6863C68.4735 73.081 64.9064 73.3748 61.7265 75.9127C59.8317 77.3283 57.5626 78.491 55.3023 78.5931C53.7135 78.6649 52.0306 78.2601 50.2117 77.2066C49.6175 76.8621 49.0487 76.4899 48.4743 76.1122L48.406 76.0673C47.8574 75.7066 47.3017 75.3412 46.7302 75.0053C45.5352 74.3029 44.2433 73.7123 42.6903 73.5102L42.6206 73.5012L42.5505 73.496C40.8776 73.3734 39.1973 73.4396 37.5412 73.6928C37.2501 72.5981 36.6636 71.648 35.719 70.945C34.5788 70.0965 33.2184 69.8526 32.1994 69.7406C31.9613 69.7014 31.7282 69.6469 31.4972 69.58C34.3621 68.4909 36.6105 66.6668 38.4239 64.4618"
                      stroke="black" stroke-linecap="round"
                      stroke-linejoin="round"/>
            </g>
        </g>
    </g>
    <defs>
        <clipPath id="clip0">
            <rect x="-45" y="-82" width="355" height="289" fill="white"/>
        </clipPath>
    </defs>
</svg>
