<svg width="74" height="57" viewBox="0 0 74 57" fill="none"
     xmlns="http://www.w3.org/2000/svg">
    <rect width="74" height="57" fill="#E5E5E5"/>
    <g id="Frame 2">
        <rect x="-78" y="-66" width="556" height="596" fill="#7A7A7A"/>
        <g id="sunCloudRain">
            <g id="sun">
                <path id="Vector"
                      d="M39.1638 21.3653C39.1638 23.98 38.3884 26.5359 36.9358 28.71C35.4832 30.884 33.4185 32.5784 31.0028 33.579C28.5872 34.5796 25.9291 34.8414 23.3647 34.3313C20.8002 33.8212 18.4447 32.5621 16.5958 30.7133C14.747 28.8644 13.4879 26.5089 12.9778 23.9444C12.4677 21.38 12.7295 18.7219 13.7301 16.3063C14.7307 13.8906 16.4251 11.8259 18.5991 10.3733C20.7731 8.92067 23.3291 8.14533 25.9438 8.14533C27.6802 8.14401 29.3999 8.48506 31.0044 9.14896C32.6089 9.81286 34.0668 10.7866 35.2946 12.0144C36.5225 13.2423 37.4962 14.7002 38.1601 16.3047C38.824 17.9092 39.1651 19.6289 39.1638 21.3653Z"
                      fill="#FFC800"/>
                <path id="Vector_2"
                      d="M39.1638 21.3653C39.1638 23.1009 38.8218 24.8195 38.1573 26.4229C37.4928 28.0262 36.5189 29.4829 35.2911 30.7097C34.0634 31.9365 32.606 32.9094 31.0021 33.5726C29.3982 34.2359 27.6794 34.5766 25.9438 34.5753C22.5019 34.4806 19.2327 33.0468 16.8317 30.5788C14.4307 28.1109 13.0873 24.8035 13.0873 21.3603C13.0873 17.9171 14.4307 14.6098 16.8317 12.1418C19.2327 9.67384 22.5019 8.24002 25.9438 8.14532C29.4499 8.14532 32.8125 9.53814 35.2917 12.0174C37.771 14.4966 39.1638 17.8592 39.1638 21.3653Z"
                      fill="#FFC800"/>
                <path id="Vector_3"
                      d="M25.9438 34.5753V8.14532C27.7098 8.09674 29.4676 8.40261 31.1134 9.04488C32.7592 9.68715 34.2596 10.6528 35.5259 11.8847C36.7922 13.1166 37.7987 14.5899 38.486 16.2174C39.1732 17.8449 39.5273 19.5936 39.5273 21.3603C39.5273 23.127 39.1732 24.8757 38.486 26.5033C37.7987 28.1308 36.7922 29.604 35.5259 30.8359C34.2596 32.0679 32.7592 33.0335 31.1134 33.6758C29.4676 34.318 27.7098 34.6239 25.9438 34.5753Z"
                      fill="#FFDC00"/>
                <g id="sunRays">
                    <g id="Group">
                        <path id="Vector_4"
                              d="M37.314 30.7197C38.4034 29.4164 39.2594 27.9346 39.844 26.3397C41.4914 27.8853 42.8851 29.6806 43.974 31.6597C41.7186 31.6956 39.4714 31.3784 37.314 30.7197Z"
                              fill="#FFC800"/>
                        <path id="Vector_5"
                              d="M31.114 35.0497C31.9188 34.7657 32.6954 34.4075 33.434 33.9797C34.1719 33.5551 34.8713 33.0665 35.524 32.5197C36.165 34.6874 36.4752 36.9394 36.444 39.1997C34.4649 38.098 32.6672 36.6982 31.114 35.0497Z"
                              fill="#FFC800"/>
                        <path id="Vector_6"
                              d="M23.5568 35.7338C24.9737 35.9792 26.4185 36.0197 27.8468 35.8538C28.3168 35.7938 28.6268 35.7238 28.6268 35.7238C28.1091 37.9167 27.2521 40.0154 26.0868 41.9438C24.9311 40.0153 24.0779 37.9209 23.5568 35.7338Z"
                              fill="#FFC800"/>
                        <path id="Vector_7"
                              d="M16.7168 32.5237C18.0169 33.6202 19.4994 34.4799 21.0968 35.0637C19.5559 36.712 17.7637 38.1059 15.7868 39.1937C15.7435 36.9353 16.0574 34.6842 16.7168 32.5237Z"
                              fill="#FFC800"/>
                        <path id="Vector_8"
                              d="M12.4069 26.3237C12.692 27.1249 13.0502 27.8982 13.4769 28.6337C13.9016 29.3717 14.3901 30.0711 14.9369 30.7237C12.7692 31.3648 10.5172 31.675 8.2569 31.6437C9.36227 29.6701 10.7616 27.8762 12.4069 26.3237Z"
                              fill="#FFC800"/>
                        <path id="Vector_9"
                              d="M11.7269 18.8038C11.575 19.6417 11.5047 20.4923 11.5169 21.3438C11.5177 21.9249 11.5477 22.5056 11.6069 23.0838C11.6669 23.5638 11.7369 23.8738 11.7369 23.8738C9.53661 23.3545 7.43114 22.4941 5.49689 21.3238C7.43182 20.1688 9.53314 19.3189 11.7269 18.8038Z"
                              fill="#FFC800"/>
                        <path id="Vector_10"
                              d="M14.9368 11.9437C14.7523 12.1327 14.588 12.3405 14.4468 12.5637C13.5893 13.7059 12.9146 14.9743 12.4468 16.3237C10.7924 14.7821 9.39482 12.9862 8.30682 11.0037C10.5523 10.9694 12.7894 11.2865 14.9368 11.9437Z"
                              fill="#FFC800"/>
                        <path id="Vector_11"
                              d="M21.1369 7.6337C19.5354 8.21269 18.0466 9.06535 16.7369 10.1537C16.096 7.98939 15.7859 5.74068 15.8169 3.4837C17.7897 4.59036 19.5833 5.98958 21.1369 7.6337Z"
                              fill="#FFC800"/>
                        <path id="Vector_12"
                              d="M28.6669 6.94376C27.2578 6.71896 25.8249 6.68532 24.4069 6.84376C23.9369 6.91376 23.6269 6.98376 23.6269 6.98376C24.1375 4.77914 24.9948 2.66955 26.1669 0.733765C27.307 2.66665 28.1498 4.76009 28.6669 6.94376Z"
                              fill="#FFC800"/>
                        <path id="Vector_13"
                              d="M35.524 10.1597C34.2259 9.06034 32.7429 8.20031 31.144 7.61975C32.6805 5.9749 34.4655 4.58129 36.434 3.48975C36.4841 5.74715 36.177 7.99827 35.524 10.1597Z"
                              fill="#FFC800"/>
                        <path id="Vector_14"
                              d="M39.864 16.3597C39.5774 15.556 39.2193 14.7795 38.7941 14.0397C38.3634 13.2961 37.8752 12.5873 37.334 11.9197C39.4994 11.2849 41.7478 10.9782 44.0041 11.0097C42.9029 12.9923 41.5069 14.7962 39.864 16.3597Z"
                              fill="#FFC800"/>
                        <path id="Vector_15"
                              d="M40.524 23.9197C40.6711 23.0812 40.7414 22.231 40.734 21.3797C40.734 20.7397 40.654 20.1097 40.644 19.6297C40.634 19.1497 40.514 18.8497 40.514 18.8497C42.7127 19.369 44.8177 20.2258 46.754 21.3897C44.8208 22.5505 42.7191 23.404 40.524 23.9197Z"
                              fill="#FFC800"/>
                    </g>
                    <g id="Group_2">
                        <path id="Vector_16"
                              d="M43.9468 31.6737C41.6916 31.7176 39.4437 31.4037 37.2868 30.7437C38.3797 29.4429 39.236 27.9604 39.8168 26.3637C41.4642 27.9055 42.858 29.6975 43.9468 31.6737Z"
                              fill="#FFC800"/>
                        <path id="Vector_17"
                              d="M36.4069 39.2238C34.4314 38.1211 32.6371 36.7215 31.0869 35.0738C31.8908 34.7918 32.6674 34.437 33.4069 34.0138C34.142 33.5809 34.8409 33.0893 35.4969 32.5438C36.1287 34.7132 36.4353 36.9644 36.4069 39.2238Z"
                              fill="#FFC800"/>
                        <path id="Vector_18"
                              d="M28.643 35.7668C28.1345 37.9626 27.2769 40.0626 26.103 41.9868C24.948 40.0518 24.0981 37.9505 23.583 35.7568C24.4222 35.8704 25.2666 35.9405 26.113 35.9668C27.023 35.9668 27.303 35.8868 27.873 35.8868C28.443 35.8868 28.643 35.7668 28.643 35.7668Z"
                              fill="#FFC800"/>
                        <path id="Vector_19"
                              d="M16.733 32.5668C18.0331 33.6633 19.5156 34.523 21.113 35.1068C19.572 36.7551 17.7799 38.149 15.803 39.2368C15.7597 36.9784 16.0736 34.7273 16.733 32.5668Z"
                              fill="#FFC800"/>
                        <path id="Vector_20"
                              d="M12.423 26.3668C12.7081 27.168 13.0663 27.9412 13.493 28.6768C13.9177 29.4148 14.4062 30.1142 14.953 30.7668C12.7853 31.4079 10.5333 31.7181 8.27301 31.6868C9.37838 29.7132 10.7777 27.9193 12.423 26.3668Z"
                              fill="#FFC800"/>
                        <path id="Vector_21"
                              d="M11.743 18.8469C11.5911 19.6848 11.5208 20.5354 11.533 21.3869C11.5338 21.968 11.5638 22.5487 11.623 23.1269C11.683 23.6069 11.753 23.9169 11.753 23.9169C9.55272 23.3976 7.44725 22.5372 5.513 21.3669C7.44793 20.2119 9.54926 19.3619 11.743 18.8469Z"
                              fill="#FFC800"/>
                        <path id="Vector_22"
                              d="M14.953 11.9868C14.7685 12.1758 14.6042 12.3836 14.463 12.6068C13.6055 13.749 12.9308 15.0174 12.463 16.3668C10.8086 14.8252 9.411 13.0292 8.323 11.0468C10.5685 11.0125 12.8056 11.3296 14.953 11.9868Z"
                              fill="#FFC800"/>
                        <path id="Vector_23"
                              d="M21.153 7.67686C19.5515 8.25584 18.0627 9.1085 16.753 10.1969C16.1122 8.03254 15.802 5.78383 15.833 3.52686C17.8058 4.63352 19.5995 6.03273 21.153 7.67686Z"
                              fill="#FFC800"/>
                        <path id="Vector_24"
                              d="M28.683 6.98677C27.8271 6.8734 26.966 6.80331 26.103 6.77678C25.223 6.77678 24.943 6.86677 24.393 6.87677C23.843 6.88677 23.603 7.00677 23.603 7.00677C24.1151 4.83098 24.9583 2.7467 26.103 0.826775V0.756775C27.2728 2.69115 28.1427 4.79168 28.683 6.98677Z"
                              fill="#FFC800"/>
                        <path id="Vector_25"
                              d="M35.4969 10.1837C34.1988 9.08427 32.7158 8.22423 31.1169 7.64367C32.6555 6.00113 34.4401 4.60782 36.4069 3.51367C36.4619 5.77135 36.1547 8.02325 35.4969 10.1837Z"
                              fill="#FFC800"/>
                        <path id="Vector_26"
                              d="M43.9868 11.0637C42.8734 13.032 41.4749 14.8247 39.8368 16.3837C39.5502 15.58 39.1921 14.8035 38.7668 14.0637C38.3374 13.3193 37.8492 12.6104 37.3068 11.9437C39.4759 11.3131 41.7284 11.0164 43.9868 11.0637Z"
                              fill="#FFC800"/>
                        <path id="Vector_27"
                              d="M40.7069 21.3637C40.7069 20.7237 40.6269 20.1037 40.6169 19.6137C40.6069 19.1237 40.4869 18.8337 40.4869 18.8337C42.683 19.3512 44.785 20.2081 46.7169 21.3737C44.7906 22.5501 42.6917 23.4173 40.4969 23.9437C40.6464 23.092 40.7167 22.2283 40.7069 21.3637Z"
                              fill="#FFC800"/>
                    </g>
                    <path id="Vector_28"
                          d="M28.6831 6.98685C27.8272 6.87348 26.9661 6.80339 26.1031 6.77686V0.846855V0.776855C27.2711 2.70503 28.1409 4.79868 28.6831 6.98685Z"
                          fill="#FFDC00"/>
                    <path id="Vector_29"
                          d="M27.8631 35.9068C28.3331 35.8368 28.6431 35.7668 28.6431 35.7668C28.1346 37.9627 27.277 40.0627 26.1031 41.9868V35.9868C27.0131 35.9868 27.2931 35.9068 27.8631 35.9068Z"
                          fill="#FFDC00"/>
                    <path id="Vector_30"
                          d="M35.5031 32.5869C36.1383 34.7558 36.4483 37.007 36.4231 39.2669C34.4476 38.1642 32.6533 36.7646 31.1031 35.1169C31.9071 34.8349 32.6836 34.48 33.4231 34.0569C34.1548 33.6235 34.8504 33.1319 35.5031 32.5869Z"
                          fill="#FFDC00"/>
                    <path id="Vector_31"
                          d="M35.5131 10.2268C34.2151 9.12742 32.732 8.26739 31.1331 7.68682C32.6717 6.04428 34.4564 4.65097 36.4231 3.55682C36.4782 5.8145 36.1709 8.06641 35.5131 10.2268Z"
                          fill="#FFDC00"/>
                    <path id="Vector_32"
                          d="M43.963 31.7169C41.7078 31.7608 39.4599 31.4469 37.303 30.7869C38.396 29.486 39.2523 28.0036 39.833 26.4069C41.4804 27.9486 42.8742 29.7407 43.963 31.7169Z"
                          fill="#FFDC00"/>
                    <path id="Vector_33"
                          d="M38.7831 14.1068C38.3536 13.3624 37.8654 12.6535 37.3231 11.9868C39.4906 11.3461 41.7431 11.0392 44.0031 11.0768C42.8896 13.0451 41.4912 14.8378 39.8531 16.3968C39.5648 15.6033 39.2067 14.837 38.7831 14.1068Z"
                          fill="#FFDC00"/>
                    <path id="Vector_34"
                          d="M40.723 21.4068C40.723 20.7668 40.643 20.1468 40.633 19.6568C40.623 19.1668 40.503 18.8768 40.503 18.8768C42.6991 19.3943 44.8011 20.2513 46.733 21.4168C44.8067 22.5932 42.7079 23.4604 40.513 23.9868C40.6625 23.1352 40.7328 22.2715 40.723 21.4068Z"
                          fill="#FFDC00"/>
                </g>
                <path id="Vector_35"
                      d="M37.7038 21.3653H36.2438C36.2425 20.0145 35.975 18.6772 35.4565 17.4298C34.938 16.1824 34.1788 15.0495 33.2222 14.0957C32.2657 13.1419 31.1305 12.386 29.8816 11.8712C28.6327 11.3563 27.2946 11.0927 25.9438 11.0953V9.59534C29.0637 9.59799 32.0548 10.8392 34.26 13.0462C36.4651 15.2532 37.7038 18.2455 37.7038 21.3653Z"
                      fill="white"/>
            </g>
            <path id="Vector_36"
                  d="M73.2953 39.1005C73.2847 42.1524 72.0656 45.0759 69.9047 47.2311C67.7439 49.3863 64.8172 50.5978 61.7653 50.6005H43.3053V11.8505C43.6553 11.8505 43.9953 11.8505 44.3053 11.8505C48.3817 11.8505 52.2911 13.4698 55.1735 16.3522C58.056 19.2347 59.6753 23.1441 59.6753 27.2205C59.6753 27.4105 59.6753 27.6005 59.6753 27.7905C60.3584 27.6664 61.051 27.6028 61.7453 27.6005C63.259 27.5965 64.7586 27.8909 66.1584 28.4668C67.5582 29.0428 68.8308 29.8889 69.9035 30.9569C70.9761 32.0249 71.8278 33.2938 72.4098 34.6912C72.9918 36.0885 73.2927 37.5868 73.2953 39.1005Z"
                  fill="#00B4D2"/>
            <path id="Vector_37"
                  d="M55.9953 27.2205H54.4953C54.4953 24.5206 53.4228 21.9312 51.5136 20.0221C49.6045 18.113 47.0152 17.0405 44.3153 17.0405C43.9953 17.0405 43.6853 17.0405 43.3753 17.0405L43.2353 15.5505C43.5941 15.5139 43.9546 15.4972 44.3153 15.5005C45.8521 15.5018 47.3736 15.8061 48.7927 16.3961C50.2118 16.986 51.5007 17.85 52.5855 18.9385C53.6704 20.0271 54.5299 21.3189 55.115 22.74C55.7001 24.1611 55.9992 25.6836 55.9953 27.2205Z"
                  fill="white"/>
            <g id="bigRainDrops">
                <g id="bigRainDrop">
                    <path id="Vector_38"
                          d="M58.3064 49.2416C58.3064 51.1645 57.5425 53.0085 56.1829 54.3682C54.8233 55.7278 52.9792 56.4916 51.0564 56.4916C49.1336 56.4916 47.2895 55.7278 45.9299 54.3682C44.5702 53.0085 43.8064 51.1645 43.8064 49.2416C43.8064 45.2416 51.0564 34.9916 51.0564 34.9916C51.0564 34.9916 58.3064 45.2416 58.3064 49.2416Z"
                          fill="#96DCF0"/>
                    <path id="Vector_39"
                          d="M58.3064 49.2416C58.3038 51.1636 57.5391 53.0062 56.18 54.3652C54.8209 55.7243 52.9784 56.489 51.0564 56.4916V34.9916C51.0564 34.9916 58.3064 45.2416 58.3064 49.2416Z"
                          fill="#A0E6FA"/>
                    <path id="Vector_40"
                          d="M51.0564 54.4916V53.4916C52.1828 53.489 53.2622 53.0404 54.0587 52.2439C54.8551 51.4475 55.3038 50.368 55.3064 49.2416H56.3064C56.3038 50.6332 55.7498 51.967 54.7658 52.951C53.7818 53.935 52.448 54.489 51.0564 54.4916Z"
                          fill="white"/>
                </g>
                <g id="bigRainDrop_2">
                    <path id="Vector_41"
                          d="M23.1036 48.5748C23.1036 50.4976 22.3398 52.3416 20.9801 53.7013C19.6205 55.0609 17.7765 55.8248 15.8536 55.8248C13.9308 55.8248 12.0868 55.0609 10.7271 53.7013C9.36747 52.3416 8.60364 50.4976 8.60364 48.5748C8.60364 44.5748 15.8536 34.3248 15.8536 34.3248C15.8536 34.3248 23.1036 44.5748 23.1036 48.5748Z"
                          fill="#96DCF0"/>
                    <path id="Vector_42"
                          d="M23.1036 48.5748C23.101 50.4968 22.3363 52.3393 20.9772 53.6984C19.6182 55.0574 17.7756 55.8221 15.8536 55.8248V34.3248C15.8536 34.3248 23.1036 44.5748 23.1036 48.5748Z"
                          fill="#A0E6FA"/>
                    <path id="Vector_43"
                          d="M15.8536 53.8248V52.8248C16.98 52.8221 18.0595 52.3735 18.8559 51.577C19.6524 50.7806 20.101 49.7011 20.1036 48.5748H21.1036C21.101 49.9663 20.547 51.3002 19.563 52.2842C18.579 53.2682 17.2452 53.8221 15.8536 53.8248Z"
                          fill="white"/>
                </g>
                <g id="bigRainDrop_3">
                    <path id="Vector_44"
                          d="M33.0979 48.6932C33.0979 50.6161 32.334 52.4601 30.9744 53.8198C29.6148 55.1794 27.7707 55.9432 25.8479 55.9432C23.9251 55.9432 22.081 55.1794 20.7214 53.8198C19.3617 52.4601 18.5979 50.6161 18.5979 48.6932C18.5979 44.6932 25.8479 34.4432 25.8479 34.4432C25.8479 34.4432 33.0979 44.6932 33.0979 48.6932Z"
                          fill="#96DCF0"/>
                    <path id="Vector_45"
                          d="M33.0979 48.6932C33.0953 50.6152 32.3306 52.4578 30.9715 53.8168C29.6124 55.1759 27.7699 55.9406 25.8479 55.9432V34.4432C25.8479 34.4432 33.0979 44.6932 33.0979 48.6932Z"
                          fill="#A0E6FA"/>
                    <path id="Vector_46"
                          d="M25.8479 53.9432V52.9432C26.9743 52.9406 28.0537 52.492 28.8502 51.6955C29.6466 50.8991 30.0953 49.8196 30.0979 48.6932H31.0979C31.0953 50.0848 30.5413 51.4186 29.5573 52.4026C28.5733 53.3866 27.2395 53.9406 25.8479 53.9432Z"
                          fill="white"/>
                </g>
                <g id="bigRainDrop_4">
                    <path id="Vector_47"
                          d="M71.0471 49.2098C71.0471 51.1326 70.2832 52.9767 68.9236 54.3363C67.5639 55.6959 65.7199 56.4598 63.7971 56.4598C61.8742 56.4598 60.0302 55.6959 58.6705 54.3363C57.3109 52.9767 56.5471 51.1326 56.5471 49.2098C56.5471 45.2098 63.7971 34.9598 63.7971 34.9598C63.7971 34.9598 71.0471 45.2098 71.0471 49.2098Z"
                          fill="#96DCF0"/>
                    <path id="Vector_48"
                          d="M71.0471 49.2098C71.0444 51.1318 70.2797 52.9743 68.9207 54.3334C67.5616 55.6924 65.7191 56.4571 63.7971 56.4598V34.9598C63.7971 34.9598 71.0471 45.2098 71.0471 49.2098Z"
                          fill="#A0E6FA"/>
                    <path id="Vector_49"
                          d="M63.7971 54.4598V53.4598C64.9234 53.4571 66.0029 53.0085 66.7993 52.2121C67.5958 51.4156 68.0444 50.3361 68.0471 49.2098H69.0471C69.0444 50.6014 68.4904 51.9352 67.5064 52.9192C66.5224 53.9032 65.1886 54.4571 63.7971 54.4598Z"
                          fill="white"/>
                </g>
                <g id="bigRainDrop_5">
                    <path id="Vector_50"
                          d="M27.066 49.0283C27.066 50.9511 26.3022 52.7952 24.9426 54.1548C23.5829 55.5145 21.7389 56.2783 19.816 56.2783C17.8932 56.2783 16.0492 55.5145 14.6895 54.1548C13.3299 52.7952 12.566 50.9511 12.566 49.0283C12.566 45.0283 19.816 34.7783 19.816 34.7783C19.816 34.7783 27.066 45.0283 27.066 49.0283Z"
                          fill="#96DCF0"/>
                    <path id="Vector_51"
                          d="M27.066 49.0283C27.0634 50.9503 26.2987 52.7929 24.9396 54.1519C23.5806 55.511 21.738 56.2757 19.816 56.2783V34.7783C19.816 34.7783 27.066 45.0283 27.066 49.0283Z"
                          fill="#A0E6FA"/>
                    <path id="Vector_52"
                          d="M19.816 54.2783V53.2783C20.9424 53.2757 22.0219 52.8271 22.8183 52.0306C23.6148 51.2341 24.0634 50.1547 24.066 49.0283H25.066C25.0634 50.4199 24.5094 51.7537 23.5254 52.7377C22.5414 53.7217 21.2076 54.2757 19.816 54.2783Z"
                          fill="white"/>
                </g>
            </g>
            <g id="smallRainDrops">
                <g id="smallRainDrop">
                    <path id="Vector_53"
                          d="M38.8753 50.8306C38.8268 51.7486 38.428 52.6131 37.761 53.2458C37.094 53.8785 36.2097 54.2312 35.2903 54.2312C34.371 54.2312 33.4867 53.8785 32.8197 53.2458C32.1527 52.6131 31.7538 51.7486 31.7053 50.8306C31.7053 48.8306 35.2953 43.8306 35.2953 43.8306C35.2953 43.8306 38.8753 48.8506 38.8753 50.8306Z"
                          fill="#96DCF0"/>
                    <path id="Vector_54"
                          d="M38.8753 50.8305C38.8753 51.78 38.4981 52.6906 37.8267 53.362C37.1554 54.0333 36.2448 54.4105 35.2953 54.4105V43.7805C35.2953 43.7805 38.8753 48.8505 38.8753 50.8305Z"
                          fill="#A0E6FA"/>
                </g>
                <g id="smallRainDrop_2">
                    <path id="Vector_55"
                          d="M7.631 49.6168C7.58249 50.5349 7.18363 51.3993 6.51663 52.032C5.84963 52.6647 4.96534 53.0174 4.04601 53.0174C3.12667 53.0174 2.24236 52.6647 1.57536 52.032C0.908365 51.3993 0.509502 50.5349 0.460999 49.6168C0.460999 47.6168 4.05099 42.6168 4.05099 42.6168C4.05099 42.6168 7.631 47.6368 7.631 49.6168Z"
                          fill="#96DCF0"/>
                    <path id="Vector_56"
                          d="M7.63097 49.6168C7.63097 50.5663 7.25379 51.4768 6.58241 52.1482C5.91103 52.8196 5.00044 53.1968 4.05096 53.1968V42.5668C4.05096 42.5668 7.63097 47.6368 7.63097 49.6168Z"
                          fill="#A0E6FA"/>
                </g>
                <g id="smallRainDrop_3">
                    <path id="Vector_57"
                          d="M44.1317 48.869C44.0832 49.7871 43.6843 50.6515 43.0173 51.2842C42.3503 51.9169 41.466 52.2696 40.5467 52.2696C39.6273 52.2696 38.743 51.9169 38.076 51.2842C37.409 50.6515 37.0102 49.7871 36.9617 48.869C36.9617 46.869 40.5517 41.869 40.5517 41.869C40.5517 41.869 44.1317 46.889 44.1317 48.869Z"
                          fill="#96DCF0"/>
                    <path id="Vector_58"
                          d="M44.1316 48.869C44.1316 49.8184 43.7545 50.729 43.0831 51.4004C42.4117 52.0718 41.5011 52.449 40.5516 52.449V41.819C40.5516 41.819 44.1316 46.889 44.1316 48.869Z"
                          fill="#A0E6FA"/>
                </g>
                <g id="smallRainDrop_4">
                    <path id="Vector_59"
                          d="M60.6514 52.5299C60.6029 53.448 60.2041 54.3124 59.5371 54.9451C58.8701 55.5778 57.9858 55.9305 57.0665 55.9305C56.1471 55.9305 55.2628 55.5778 54.5958 54.9451C53.9288 54.3124 53.5299 53.448 53.4814 52.5299C53.4814 50.5299 57.0714 45.5299 57.0714 45.5299C57.0714 45.5299 60.6514 50.5499 60.6514 52.5299Z"
                          fill="#96DCF0"/>
                    <path id="Vector_60"
                          d="M60.6514 52.5299C60.6514 53.4793 60.2742 54.3899 59.6029 55.0613C58.9315 55.7327 58.0209 56.1099 57.0714 56.1099V45.4799C57.0714 45.4799 60.6514 50.5499 60.6514 52.5299Z"
                          fill="#A0E6FA"/>
                </g>
            </g>
            <path id="cloud"
                  d="M73.2953 39.1005C73.2847 42.1524 72.0656 45.0759 69.9048 47.2312C67.7439 49.3864 64.8173 50.5979 61.7653 50.6005H13.5453C12.0212 50.593 10.519 50.2373 9.15345 49.5605C7.78788 48.8837 6.5951 47.9036 5.66621 46.6953C4.73732 45.487 4.0969 44.0823 3.79391 42.5887C3.49091 41.095 3.53334 39.5518 3.91796 38.077C4.30258 36.6023 5.01921 35.2349 6.0131 34.0795C7.00699 32.924 8.25183 32.011 9.65253 31.4103C11.0532 30.8095 12.5727 30.5369 14.0949 30.6132C15.6171 30.6895 17.1017 31.1127 18.4353 31.8505C18.1903 31.1806 18.0618 30.4738 18.0553 29.7605C18.0379 28.4646 18.4336 27.1968 19.1852 26.141C19.9367 25.0851 21.005 24.2961 22.2352 23.8882C23.4654 23.4804 24.7935 23.475 26.027 23.8728C27.2604 24.2705 28.3352 25.0508 29.0953 26.1005C29.3498 22.4024 30.9339 18.9213 33.555 16.3002C36.1761 13.6791 39.6572 12.095 43.3553 11.8405C43.7053 11.8405 44.0453 11.8405 44.3553 11.8405C48.4317 11.8405 52.3411 13.4598 55.2235 16.3423C58.106 19.2247 59.7253 23.1341 59.7253 27.2105C59.7253 27.4005 59.7253 27.5905 59.7253 27.7805C60.4084 27.6565 61.1011 27.5929 61.7953 27.5905C64.8454 27.5958 67.7689 28.8105 69.9247 30.9682C72.0805 33.1259 73.2927 36.0504 73.2953 39.1005Z"
                  fill="#00AAC8"/>
        </g>
    </g>
</svg>
