<svg width="142" height="140" viewBox="0 0 142 140" fill="none"
     xmlns="http://www.w3.org/2000/svg">

    <g id="twitter">
        <rect x="0.60022" width="141.399" height="140" rx="12" fill="#6EBEDF"/>
        <path id="bird"
              d="M69.3729 60.0746C72.956 49.5806 77.3353 42.78 82.3739 37.8501C86.1339 34.1706 88.074 33.0031 85.8674 37.0537C86.8421 36.3207 88.2453 35.3454 89.3332 34.8244C95.4303 32.1252 94.9979 34.3879 90.797 36.8134C102.261 32.9647 101.864 37.8657 89.7381 40.3068C99.6527 40.4821 110.193 46.4019 113.226 58.9938C113.645 60.7365 113.143 60.5709 115.045 60.8866C119.151 61.5686 123.014 61.5267 126.78 60.4043C126.373 63.0094 122.706 64.7021 116.984 65.8204C114.865 66.2344 114.43 66.1256 116.971 66.6619C120.099 67.3221 123.599 67.493 127.3 67.3303C124.417 70.4433 119.823 72.0351 114.14 72.1003C110.586 84.279 102.464 93.0001 92.1849 98.474C68.05 111.328 32.9174 109.463 15.3 86.1024C26.8601 94.6142 43.9863 96.4892 56.7059 84.6252C48.3735 84.6269 46.2157 78.7717 52.8216 75.6086C46.5657 75.5486 42.589 73.6921 40.255 70.3296C39.3686 69.0532 39.3596 68.9552 40.8047 67.9753C42.3944 66.8973 44.5598 66.4179 46.7969 66.2565C40.3225 64.5177 36.3631 61.3429 34.9924 57.0863C34.5387 55.6784 34.4681 55.7498 35.9952 55.3861C37.4877 55.0308 39.4091 54.8411 41.1318 54.7615C36.0468 51.8671 33.0077 48.3201 32.2341 44.3984C31.5045 40.6971 32.2556 41.6468 35.2102 42.7072C48.4147 47.4477 61.5787 52.5381 69.3729 60.0746Z"
              fill="white"/>
        <g id="outline">
            <mask id="path-3-inside-1" fill="white">
                <path d="M36.2239 39.8873C47.6296 43.9821 59.6329 48.5291 68.0486 54.9951C71.4669 46.3866 75.5557 40.3278 80.2757 35.7096C81.2427 34.7633 82.1327 33.9388 82.8955 33.303C83.537 32.7683 84.4365 32.0614 85.3383 31.7354L85.3395 31.735C85.5701 31.6516 86.9724 31.1448 88.3047 32.0032C89.8315 31.337 91.1472 30.8868 92.215 30.7027C92.7387 30.6124 93.4697 30.5359 94.2244 30.701C94.8929 30.8472 95.9751 31.3097 96.5565 32.4254C96.7362 32.4121 96.9104 32.4028 97.079 32.3974C97.9258 32.3708 98.9686 32.4296 99.9047 32.8411C100.399 33.0586 101.053 33.4581 101.538 34.1839C102.068 34.977 102.214 35.8876 102.07 36.7178C101.83 38.1004 100.856 39.0045 100.325 39.4392L100.296 39.4625L100.271 39.4829C107.46 42.4531 113.695 48.5187 116.074 58.0157C119.639 58.5505 122.855 58.4476 125.924 57.5329C126.91 57.2388 127.979 57.4714 128.754 58.149C129.53 58.8266 129.903 59.8545 129.744 60.8719C129.519 62.3131 128.829 63.4716 127.927 64.4001C128.835 64.5944 129.619 65.2041 130.022 66.0727C130.533 67.1764 130.327 68.4797 129.501 69.3722C126.298 72.8314 121.636 74.5853 116.367 75.0054C112.27 86.9893 103.904 95.6359 93.595 101.126C68.6029 114.436 31.684 112.813 12.9049 87.9124C12.008 86.7232 12.1195 85.0561 13.1666 83.9969C14.2138 82.9377 15.8795 82.8071 17.0789 83.6902C26.3145 90.4906 39.1363 92.562 49.8256 86.1033C48.2615 85.258 47.037 84.0475 46.3825 82.4366C45.7604 80.9053 45.8079 79.2939 46.3938 77.8258C42.7052 76.8526 39.8143 74.9595 37.7906 72.0439L37.7692 72.0132C37.5795 71.7402 37.2935 71.3287 37.0853 70.916C36.8587 70.4668 36.4733 69.5447 36.7259 68.3991C36.9664 67.3083 37.6545 66.6368 37.9957 66.3347C38.1491 66.1989 38.3165 66.0669 38.4839 65.9427C35.4125 63.9546 33.2033 61.3206 32.1369 58.0095C32.1246 57.9716 32.1103 57.9278 32.0945 57.8795L32.094 57.8781L32.0933 57.8761L32.093 57.875L32.0929 57.8749C32.0116 57.6267 31.8924 57.2636 31.8234 56.9718L31.8208 56.9605C31.7518 56.6693 31.4802 55.5238 32.1472 54.3582C32.6004 53.5664 33.2686 53.151 33.7283 52.9401C31.4398 50.6231 29.8792 47.965 29.2908 44.9823C29.114 44.0855 28.9504 43.1316 28.9776 42.3262C28.9911 41.9253 29.0561 41.2052 29.4661 40.4817C29.9733 39.5868 30.8172 39.0151 31.7552 38.8285C32.5084 38.6787 33.1583 38.8097 33.4819 38.8879C33.848 38.9763 34.1977 39.1026 34.4618 39.2029C34.7379 39.3079 34.9562 39.3959 35.1689 39.4817C35.4785 39.6066 35.7766 39.7268 36.2239 39.8873Z"/>
            </mask>
            <path d="M36.2239 39.8873C47.6296 43.9821 59.6329 48.5291 68.0486 54.9951C71.4669 46.3866 75.5557 40.3278 80.2757 35.7096C81.2427 34.7633 82.1327 33.9388 82.8955 33.303C83.537 32.7683 84.4365 32.0614 85.3383 31.7354L85.3395 31.735C85.5701 31.6516 86.9724 31.1448 88.3047 32.0032C89.8315 31.337 91.1472 30.8868 92.215 30.7027C92.7387 30.6124 93.4697 30.5359 94.2244 30.701C94.8929 30.8472 95.9751 31.3097 96.5565 32.4254C96.7362 32.4121 96.9104 32.4028 97.079 32.3974C97.9258 32.3708 98.9686 32.4296 99.9047 32.8411C100.399 33.0586 101.053 33.4581 101.538 34.1839C102.068 34.977 102.214 35.8876 102.07 36.7178C101.83 38.1004 100.856 39.0045 100.325 39.4392L100.296 39.4625L100.271 39.4829C107.46 42.4531 113.695 48.5187 116.074 58.0157C119.639 58.5505 122.855 58.4476 125.924 57.5329C126.91 57.2388 127.979 57.4714 128.754 58.149C129.53 58.8266 129.903 59.8545 129.744 60.8719C129.519 62.3131 128.829 63.4716 127.927 64.4001C128.835 64.5944 129.619 65.2041 130.022 66.0727C130.533 67.1764 130.327 68.4797 129.501 69.3722C126.298 72.8314 121.636 74.5853 116.367 75.0054C112.27 86.9893 103.904 95.6359 93.595 101.126C68.6029 114.436 31.684 112.813 12.9049 87.9124C12.008 86.7232 12.1195 85.0561 13.1666 83.9969C14.2138 82.9377 15.8795 82.8071 17.0789 83.6902C26.3145 90.4906 39.1363 92.562 49.8256 86.1033C48.2615 85.258 47.037 84.0475 46.3825 82.4366C45.7604 80.9053 45.8079 79.2939 46.3938 77.8258C42.7052 76.8526 39.8143 74.9595 37.7906 72.0439L37.7692 72.0132C37.5795 71.7402 37.2935 71.3287 37.0853 70.916C36.8587 70.4668 36.4733 69.5447 36.7259 68.3991C36.9664 67.3083 37.6545 66.6368 37.9957 66.3347C38.1491 66.1989 38.3165 66.0669 38.4839 65.9427C35.4125 63.9546 33.2033 61.3206 32.1369 58.0095C32.1246 57.9716 32.1103 57.9278 32.0945 57.8795L32.094 57.8781L32.0933 57.8761L32.093 57.875L32.0929 57.8749C32.0116 57.6267 31.8924 57.2636 31.8234 56.9718L31.8208 56.9605C31.7518 56.6693 31.4802 55.5238 32.1472 54.3582C32.6004 53.5664 33.2686 53.151 33.7283 52.9401C31.4398 50.6231 29.8792 47.965 29.2908 44.9823C29.114 44.0855 28.9504 43.1316 28.9776 42.3262C28.9911 41.9253 29.0561 41.2052 29.4661 40.4817C29.9733 39.5868 30.8172 39.0151 31.7552 38.8285C32.5084 38.6787 33.1583 38.8097 33.4819 38.8879C33.848 38.9763 34.1977 39.1026 34.4618 39.2029C34.7379 39.3079 34.9562 39.3959 35.1689 39.4817C35.4785 39.6066 35.7766 39.7268 36.2239 39.8873Z"
                  stroke="black" stroke-width="2" stroke-miterlimit="5.75877"
                  stroke-linecap="round" mask="url(#path-3-inside-1)"/>
        </g>
    </g>
</svg>
