<svg width="95" height="95" viewBox="0 0 95 95" fill="none" xmlns="http://www.w3.org/2000/svg">
<rect width="95" height="95" fill="#E5E5E5"/>
<g id="youtubeIcon">
<path id="youTubeRoundedBorder" d="M72.7455 40.7174C72.7455 37.8318 71.5992 35.0645 69.5588 33.0241C67.5184 30.9837 64.751 29.8374 61.8655 29.8374H33.6255C30.7399 29.8374 27.9726 30.9837 25.9322 33.0241C23.8918 35.0645 22.7455 37.8318 22.7455 40.7174V53.9574C22.7455 56.8429 23.8918 59.6103 25.9322 61.6507C27.9726 63.6911 30.7399 64.8374 33.6255 64.8374H61.8655C64.751 64.8374 67.5184 63.6911 69.5588 61.6507C71.5992 59.6103 72.7455 56.8429 72.7455 53.9574V40.7174ZM54.9355 48.0074L43.6755 54.1774C43.1855 54.4474 42.7455 54.0874 42.7455 53.5374V40.8374C42.7455 40.2774 43.1955 39.9174 43.6855 40.1974L55.0255 46.6974C55.1411 46.768 55.2351 46.8689 55.2973 46.9892C55.3595 47.1095 55.3875 47.2446 55.3782 47.3797C55.3689 47.5148 55.3227 47.6448 55.2446 47.7555C55.1666 47.8662 55.0597 47.9533 54.9355 48.0074Z" fill="#FF0000"/>
<path id="playButton" d="M43.6262 54.1744L54.8862 48.0044C55.0104 47.9503 55.1173 47.8632 55.1954 47.7525C55.2734 47.6418 55.3197 47.5118 55.3289 47.3767C55.3382 47.2416 55.3102 47.1065 55.2481 46.9862C55.1859 46.8659 55.0919 46.765 54.9763 46.6944L43.6362 40.1944C43.1462 39.9144 42.6962 40.2744 42.6962 40.8344V53.5344C42.6962 54.0844 43.1362 54.4444 43.6262 54.1744Z" fill="white"/>
<path id="insideGear" d="M59.3749 60.0089C59.7847 59.6255 60.3258 59.4152 60.886 59.4216C61.2407 59.4355 61.5934 59.3624 61.9136 59.2086C62.2338 59.0548 62.5118 58.8249 62.7235 58.539C62.9353 58.253 63.0743 57.9196 63.1286 57.5675C63.183 57.2155 63.1509 56.8555 63.0353 56.5186C62.8643 55.984 62.9048 55.4038 63.1483 54.8983C63.3919 54.3928 63.8199 54.0007 64.3436 53.8032C64.6649 53.6811 64.9528 53.4844 65.1838 53.2294C65.4149 52.9743 65.5827 52.6681 65.6734 52.3356C65.7641 52.0031 65.7752 51.6538 65.7057 51.3162C65.6363 50.9785 65.4883 50.6622 65.2739 50.3929C64.921 49.9562 64.7492 49.3999 64.7943 48.8394C64.8394 48.279 65.0979 47.7575 65.516 47.3833C65.7739 47.1527 65.9734 46.864 66.0982 46.5408C66.223 46.2176 66.2695 45.8693 66.2338 45.5246C66.1981 45.1799 66.0813 44.8486 65.893 44.5581C65.7047 44.2675 65.4503 44.0261 65.1507 43.8536C64.6657 43.573 64.307 43.1159 64.1488 42.577C63.9906 42.0381 64.0452 41.4588 64.3011 40.9592C64.4586 40.6508 64.5407 40.3093 64.5408 39.9628C64.5409 39.6163 64.459 39.2747 64.3018 38.9663C64.1446 38.6578 63.9166 38.3912 63.6365 38.1885C63.3565 37.9858 63.0325 37.8528 62.6913 37.8004C62.137 37.7167 61.6362 37.422 61.2929 36.9774C60.9496 36.5329 60.7901 35.9726 60.8477 35.4132C60.8827 35.0684 60.8357 34.7202 60.7105 34.3972C60.5854 34.0742 60.3857 33.7856 60.1278 33.5551C59.8699 33.3246 59.5612 33.1587 59.2271 33.0712C58.8929 32.9837 58.5429 32.9769 58.2056 33.0515C57.6589 33.1742 57.0861 33.0805 56.6066 32.7898C56.127 32.4992 55.7778 32.034 55.6315 31.4913C55.5409 31.1566 55.3722 30.8484 55.1394 30.592C54.9066 30.3357 54.6164 30.1385 54.2927 30.0169C53.9691 29.8953 53.6212 29.8527 53.2779 29.8927C52.9346 29.9326 52.6057 30.0539 52.3183 30.2466C51.8523 30.5639 51.2816 30.6871 50.7268 30.5901C50.1719 30.493 49.6764 30.1834 49.3449 29.7265C49.1397 29.4472 48.8713 29.221 48.5617 29.0664C48.2522 28.9118 47.9105 28.8334 47.5648 28.8375C47.2191 28.8417 46.8793 28.9284 46.5736 29.0904C46.2679 29.2523 46.0049 29.485 45.8065 29.7691C45.4838 30.2352 44.9932 30.5572 44.4384 30.667C43.8835 30.7767 43.3079 30.6657 42.8331 30.3574C42.5413 30.1715 42.2097 30.0579 41.8656 30.026C41.5214 29.994 41.1747 30.0447 40.8539 30.1738C40.5332 30.3029 40.2476 30.5067 40.0208 30.7684C39.794 31.0301 39.6325 31.3422 39.5496 31.6789C39.415 32.2267 39.0747 32.7011 38.5997 33.003C38.1248 33.3049 37.5519 33.4109 37.0009 33.2988C36.6623 33.2303 36.3123 33.2437 35.9798 33.338C35.6474 33.4323 35.3421 33.6047 35.0893 33.8409C34.8365 34.0772 34.6433 34.3704 34.5259 34.6965C34.4085 35.0225 34.3701 35.3719 34.4141 35.7158C34.4837 36.2743 34.3369 36.8382 34.0041 37.2912C33.6714 37.7441 33.1779 38.0516 32.6258 38.1499C32.2855 38.2094 31.9643 38.3492 31.6887 38.558C31.413 38.7668 31.1909 39.0384 31.0406 39.3504C30.8903 39.6625 30.8163 40.0059 30.8245 40.3524C30.8328 40.6988 30.9231 41.0383 31.0881 41.3428C31.3534 41.8379 31.4194 42.4163 31.2724 42.9588C31.1254 43.5013 30.7767 43.9665 30.298 44.2586C30.0023 44.4374 29.7533 44.6842 29.5715 44.9788C29.3897 45.2733 29.2803 45.607 29.2525 45.9523C29.2247 46.2976 29.2792 46.6446 29.4115 46.9646C29.5438 47.2846 29.7502 47.5684 30.0134 47.7925C30.4396 48.1578 30.7094 48.6735 30.7672 49.233C30.8249 49.7924 30.666 50.3527 30.3235 50.7979C30.1106 51.0722 29.9659 51.3936 29.9016 51.7353C29.8372 52.0771 29.855 52.4292 29.9534 52.7627C30.0519 53.0961 30.2281 53.4012 30.4675 53.6526C30.707 53.904 31.0027 54.0944 31.3302 54.2081C31.8589 54.3932 32.2964 54.7753 32.5518 55.2754C32.8073 55.7754 32.8612 56.3549 32.7022 56.8938C32.6037 57.2261 32.5853 57.5772 32.6486 57.918C32.7119 58.2589 32.8551 58.5797 33.0663 58.8542C33.2775 59.1286 33.5506 59.3486 33.8633 59.4962C34.1759 59.6438 34.519 59.7147 34.8643 59.703C35.4242 59.6836 35.9701 59.8814 36.3885 60.2553C36.807 60.6291 37.0659 61.1504 37.1114 61.7108C37.1395 62.0563 37.249 62.3902 37.4309 62.6849C37.6129 62.9796 37.8621 63.2267 38.1579 63.4058C38.4537 63.5848 38.7877 63.6907 39.1324 63.7147C39.477 63.7387 39.8224 63.6801 40.14 63.5438C40.6561 63.3244 41.2365 63.3122 41.7613 63.5098C42.2861 63.7073 42.7154 64.0994 42.9605 64.6053C43.1113 64.9171 43.3337 65.1884 43.6095 65.397C43.8852 65.6055 44.2064 65.7453 44.5466 65.8049C44.8868 65.8644 45.2362 65.842 45.566 65.7394C45.8958 65.6368 46.1967 65.457 46.4437 65.2149C46.8472 64.837 47.3785 64.6268 47.9304 64.6268C48.4823 64.6268 49.0136 64.837 49.4171 65.2149C49.6711 65.4574 49.9797 65.635 50.3166 65.7325C50.6535 65.8301 51.0088 65.8448 51.3526 65.7754C51.6964 65.706 52.0184 65.5545 52.2915 65.3338C52.5646 65.113 52.7806 64.8295 52.9215 64.5072C53.1526 63.995 53.5718 63.592 54.0917 63.3824C54.6117 63.1727 55.1922 63.1725 55.7122 63.3819C56.0322 63.5083 56.3774 63.5569 56.7197 63.5238C57.0619 63.4907 57.3915 63.3768 57.6815 63.1914C57.9715 63.0059 58.2137 62.7543 58.3882 62.4569C58.5627 62.1596 58.6646 61.825 58.6856 61.4806C58.7184 60.9194 58.9652 60.3923 59.3749 60.0089Z" fill="#FF0000" fill-opacity="0.87"/>
<path id="outsideCircle" d="M76.1075 75.6994C91.7715 60.0355 91.7714 34.6393 76.1075 18.9753C60.4436 3.31142 35.0473 3.31141 19.3834 18.9753C3.71949 34.6393 3.7195 60.0355 19.3834 75.6994C35.0474 91.3634 60.4436 91.3634 76.1075 75.6994Z" stroke="#FF0000" stroke-width="4" stroke-miterlimit="10"/>
<path id="outsidePointers" fill-rule="evenodd" clip-rule="evenodd" d="M78.8763 75.6957L85.8904 75.7774L83.7625 69.1744C82.3718 71.464 80.7431 73.6496 78.8763 75.6957ZM73.5812 80.5961C71.3724 82.3163 69.0317 83.7858 66.5974 85.0046L73.1705 87.6373L73.5812 80.5961ZM59.9738 87.6414C57.3054 88.4485 54.5728 88.9851 51.8189 89.2511L57.0304 94.1074L59.9738 87.6414ZM44.7171 89.339C41.9657 89.1418 39.23 88.6756 36.5528 87.9402L39.6305 94.3074L44.7171 89.339ZM29.8085 85.4488C27.366 84.2994 25.0113 82.9023 22.7819 81.2573L23.3504 88.2074L29.8085 85.4488ZM17.2772 76.4055C15.39 74.4292 13.7323 72.3144 12.3041 70.0948L10.3605 76.6474L17.2772 76.4055ZM8.80106 63.3845C7.79895 60.9496 7.03476 58.4399 6.5085 55.8909L2.43047 61.1674L8.80106 63.3845ZM5.64306 48.1388C5.59479 45.5868 5.77712 43.0313 6.19005 40.5061L0.620468 43.8674L5.64306 48.1388ZM8.24124 32.7249C9.09581 30.4101 10.1606 28.1554 11.4355 25.9902L5.19048 27.0874L8.24124 32.7249ZM16.3054 19.3217C16.84 18.7229 17.3945 18.1358 17.9692 17.5611C19.1391 16.3913 20.3606 15.3047 21.6265 14.3012L15.5105 13.0874L16.3054 19.3217ZM28.7023 9.76652C30.8709 8.66685 33.1148 7.76698 35.4067 7.06693L30.1905 3.75734L28.7023 9.76652ZM43.6979 5.42119C46.1012 5.19048 48.5205 5.16576 50.9273 5.34703L47.2505 0.367386L43.6979 5.42119ZM59.2198 6.81298C61.5412 7.46797 63.8173 8.32589 66.0202 9.38675L64.3805 3.36739L59.2198 6.81298ZM73.1164 13.7219C74.6504 14.8827 76.123 16.1624 77.5217 17.5611C77.8938 17.9332 78.2574 18.3104 78.6126 18.6927L79.2704 12.3474L73.1164 13.7219ZM87.0345 62.5199L93.4604 60.1174L89.1851 54.8424C88.7152 57.4499 87.9984 60.0216 87.0345 62.5199ZM89.8554 47.2451L94.8705 42.7774L89.1213 39.4866C89.605 42.0485 89.8497 44.6466 89.8554 47.2451ZM86.9413 31.9154L89.9104 26.1074L83.5426 25.1426C84.8918 27.3143 86.0247 29.5822 86.9413 31.9154Z" fill="#FF0000" fill-opacity="0.74"/>
</g>
</svg>
