<svg width="1000" height="181" viewBox="0 0 1000 181" fill="none" xmlns="http://www.w3.org/2000/svg">
<rect width="1000" height="181" fill="#E5E5E5"/>
<g id="animateAlongPath">
<path id="path" d="M24.6012 68.3519C15.9425 107.2 62.5982 126.405 101.374 135.382C159.072 148.739 171.541 57.2785 230.757 56.271C279.528 55.4411 296.368 108.145 345.118 106.497C402.625 104.553 411.978 20.9289 469.192 27.0337C524.905 32.9782 521.013 105.249 573.052 126.014C667.806 163.824 715.055 35.9544 817.019 32.6101C867.503 30.9542 925.959 2.667 945.275 49.3392C960.875 87.0315 932.544 115.048 906.241 146.229C827.64 239.405 665.992 8.21342 611.39 43.7628C556.788 79.3122 518.292 127.01 444.099 145.532C323.597 175.613 238.005 89.5355 136.701 63.9771C35.3971 38.4188 34.1323 25.5901 24.6012 68.3519Z" stroke="black"/>
<g id="JavaScript">
<g id="path5157" opacity="0.986">
<mask id="path-4-inside-1" fill="white">
<path d="M9.76815 78.2441L9.74756 71.9229C9.74756 71.9229 16.2541 73.7554 19.9397 74.7025L20.0015 47.0705H25.252V82.4239L9.76815 78.2441Z"/>
</mask>
<path d="M9.76815 78.2441L9.74756 71.9229C9.74756 71.9229 16.2541 73.7554 19.9397 74.7025L20.0015 47.0705H25.252V82.4239L9.76815 78.2441Z" stroke="white" stroke-width="8" mask="url(#path-4-inside-1)"/>
</g>
<path id="path5117" d="M27.2476 40.0705H48.7476L44.7476 86.0705L26.7476 91.0313L27.2476 40.0705ZM43.158 78.533L44.5787 61.2578L34.0777 62.4315V53.207L45.2788 53.1659L45.7318 46.8653L28.8272 46.9476L29.0537 69.8851L39.2664 68.135L39.1223 73.2413L28.8272 75.9798L28.9301 82.2393L43.158 78.533Z" fill="#FBD63D"/>
<g id="path5113">
<mask id="path-6-inside-2" fill="white">
<path d="M5.64804 89.5169L0.747559 35.5705L53.541 35.5911L48.6817 89.4758L27.1031 95.5705L5.64804 89.5169ZM44.7476 86.0705L48.8052 40.368H27.1854L27.2476 90.5705L44.7476 86.0705ZM25.1676 47.1422H19.9171L19.8553 74.7949L9.66314 72.0152L9.68373 78.3364L25.1676 82.5163V47.1422Z"/>
</mask>
<path d="M5.64804 89.5169L0.747559 35.5705L53.541 35.5911L48.6817 89.4758L27.1031 95.5705L5.64804 89.5169ZM44.7476 86.0705L48.8052 40.368H27.1854L27.2476 90.5705L44.7476 86.0705ZM25.1676 47.1422H19.9171L19.8553 74.7949L9.66314 72.0152L9.68373 78.3364L25.1676 82.5163V47.1422Z" fill="#D2B731" stroke="#D2B731" stroke-width="8" mask="url(#path-6-inside-2)"/>
</g>
<path id="Vector 1" d="M45.7354 46.9205L45.2803 53.1867L34.067 53.2037L34.0543 62.4618L44.5902 61.2385L43.1443 78.5839L28.9296 82.2298L28.8474 75.9997L39.1567 73.247L39.3012 68.0701L29.0893 69.9156L28.8488 46.9608L45.7354 46.9205Z" fill="white"/>
</g>
</g>
</svg>
