<svg width="233" height="241" viewBox="0 0 233 241" fill="none" xmlns="http://www.w3.org/2000/svg">
<g id="Calendar" filter="url(#filter0_d)">
<rect id="border" x="5.60249" y="1.5" width="221.142" height="230" rx="5.5" stroke="#292929" stroke-width="3"/>
<rect id="Rectangle 7" x="7.95282" y="4.67475" width="216.002" height="223.65" rx="7" fill="url(#paint0_linear)"/>
<g id="components">
<g id="mainSection">
<g id="Group 1">
<g id="calendarBackground">
<g clip-path="url(#clip0)">
<g id="Mask Group">
<mask id="mask0" mask-type="alpha" maskUnits="userSpaceOnUse" x="20" y="45" width="190" height="172">
<rect id="Rectangle 5" x="20.1737" y="45.1067" width="189.56" height="171.732" fill="white"/>
</mask>
<g mask="url(#mask0)">
<circle id="backgroundCircle" cx="114.954" cy="130.973" r="102" fill="url(#paint1_linear)"/>
</g>
</g>
<g id="CloudNSun" opacity="0.01">
<path d="M108.463 68.1097C107.777 68.1097 107.22 68.6402 107.22 69.2946V89.1268C107.22 89.5756 107.61 89.9351 108.081 89.9202L108.198 89.9166L108.373 89.9118C108.544 89.9073 108.716 89.9037 108.887 89.901C109.342 89.8938 109.707 89.5403 109.707 89.1068V69.2946C109.707 68.6402 109.15 68.1097 108.463 68.1097Z" fill="#292929"/>
<path d="M133.511 72.8909C132.875 72.6379 132.143 72.9265 131.881 73.5344L129.455 79.1519L124.283 91.1322C124.097 91.5614 124.333 92.0501 124.796 92.1955C124.87 92.2189 124.944 92.2424 125.018 92.2661L125.135 92.3036L125.146 92.3073L125.339 92.3698C125.413 92.3941 125.487 92.4186 125.561 92.4433C125.977 92.5815 126.434 92.386 126.601 91.9979L134.183 74.4372C134.444 73.8333 134.144 73.1422 133.511 72.8909Z" fill="#292929"/>
<path d="M140.629 100.609C140.25 100.306 140.224 99.7595 140.572 99.4253L153.728 86.8046C154.216 86.3362 155.011 86.3362 155.499 86.8046C155.983 87.2686 155.983 88.0176 155.499 88.4816L142.378 101.07C142.071 101.364 141.576 101.382 141.247 101.11C141.042 100.941 140.836 100.774 140.629 100.609Z" fill="#292929"/>
<path d="M170.26 107.727C169.996 107.116 169.261 106.826 168.621 107.08L152.835 113.353C152.375 113.536 152.18 114.055 152.413 114.474C152.457 114.551 152.5 114.629 152.543 114.707L152.636 114.877L152.718 115.03L152.789 115.162C152.987 115.532 153.45 115.694 153.853 115.534L169.584 109.283C170.221 109.03 170.523 108.335 170.26 107.727Z" fill="#292929"/>
<path fill-rule="evenodd" clip-rule="evenodd" d="M141.667 129.397L141.663 129.398L140.591 129.671L140.587 129.672C134.65 131.342 129.471 135.42 125.905 141.054C125.603 141.53 125.018 141.779 124.444 141.668C123.645 141.515 122.823 141.435 121.985 141.435C116.792 141.435 112.112 144.527 109.397 149.398C109.139 149.861 108.615 150.139 108.064 150.098C107.363 150.045 106.654 150.019 105.938 150.019C98.7336 150.019 92.1862 152.716 87.3324 157.117L87.3304 157.119L86.5429 157.862L86.541 157.864C82.1297 162.203 79.2871 168.016 78.8916 174.46C78.8588 174.993 78.4924 175.462 77.9603 175.639C73.7961 177.023 70.8075 180.82 70.8075 185.285C70.8075 190.924 75.5718 195.492 81.4448 195.492C91.4703 195.492 100.98 195.48 110.491 195.468H110.509C129.523 195.443 148.539 195.419 171.677 195.492C176.378 195.507 181.157 192.998 184.77 189.166C188.381 185.337 190.794 180.219 190.794 175.071C190.794 164.991 183.18 156.616 173.172 154.951C172.575 154.852 172.115 154.391 172.033 153.822C170.942 146.231 167.424 139.68 162.491 135.193L162.488 135.19L161.254 134.135L161.251 134.132C160.04 133.161 158.757 132.307 157.414 131.585L157.41 131.584L156.254 131.002L156.25 131C153.27 129.602 150.025 128.836 146.644 128.836C144.944 128.836 143.279 129.029 141.667 129.397ZM95.8784 157.373C95.6807 156.945 95.1255 156.752 94.6891 157.006C87.5827 161.131 82.7023 168.431 82.1853 176.855L82.1711 177.086C82.1431 177.542 82.5237 177.927 83.003 177.927C83.4444 177.927 83.8091 177.599 83.8349 177.179L83.8491 176.948C84.3326 169.07 88.8944 162.242 95.5383 158.379C95.8931 158.172 96.0522 157.749 95.8784 157.373ZM130.973 143.352C135.566 137.044 142.327 133.204 149.706 133.204C153.962 133.204 158.035 134.501 161.599 136.809C162.31 137.27 161.92 138.252 161.113 138.252C160.937 138.252 160.766 138.2 160.623 138.108C157.316 135.978 153.571 134.799 149.706 134.799C142.821 134.799 136.403 138.46 132.059 144.658C131.738 145.116 130.987 145.038 130.802 144.5C130.669 144.115 130.728 143.689 130.973 143.352Z" fill="#292929"/>
<path d="M162.922 133.404C162.534 133.074 162.443 132.546 162.605 132.08C162.766 131.615 163.154 131.279 163.658 131.279H174.299C174.992 131.279 175.553 131.813 175.553 132.473C175.553 133.133 174.992 133.668 174.299 133.668H163.63C163.374 133.668 163.119 133.572 162.922 133.404Z" fill="#292929"/>
<path d="M75.6758 132.867C75.6758 115.71 90.1734 101.804 108.053 101.804C122.018 101.804 133.92 110.287 138.462 122.177C139.094 123.831 138.808 125.485 137.953 126.976C137.096 128.472 135.67 129.795 134.054 130.758C130.987 132.587 128.26 135.062 126.009 138.023C125.104 139.215 123.563 139.84 121.985 139.84C116.777 139.84 112.142 142.562 109.099 146.799C108.381 147.799 107.199 148.423 105.938 148.423C100.86 148.423 96.0881 149.686 91.9467 151.902C90.2081 152.833 88.2037 153.348 86.3574 153.25C84.5167 153.152 82.843 152.447 81.7195 150.943C77.9153 145.851 75.6758 139.61 75.6758 132.867Z" fill="#292929"/>
<path d="M71.2626 165.917C71.6084 165.585 72.1792 165.61 72.4918 165.97C72.6004 166.095 72.7098 166.22 72.8197 166.344C72.8844 166.417 72.9493 166.49 73.0144 166.563C73.3003 166.882 73.2817 167.356 72.9715 167.654L61.7986 178.372C61.3103 178.841 60.5152 178.841 60.0269 178.372C59.5433 177.908 59.5433 177.159 60.0269 176.695L71.2626 165.917Z" fill="#292929"/>
<path d="M63.4116 149.837C63.2684 149.386 62.7471 149.151 62.2903 149.333L46.2079 155.723C45.5718 155.976 45.2696 156.671 45.5318 157.279C45.7958 157.89 46.5313 158.181 47.1718 157.926L63.1743 151.567C63.5794 151.406 63.7877 150.976 63.6538 150.578C63.571 150.332 63.4902 150.085 63.4116 149.837Z" fill="#292929"/>
<path d="M61.5033 132.287L61.5109 132.204L61.5157 132.151C61.5591 131.682 61.1715 131.279 60.6776 131.279H41.8069C41.1169 131.279 40.5571 131.81 40.5532 132.466V132.473C40.5532 133.133 41.1145 133.668 41.8069 133.668H60.6129C61.0536 133.668 61.4194 133.343 61.4508 132.924C61.4634 132.757 61.4769 132.59 61.4912 132.424L61.5033 132.287Z" fill="#292929"/>
<path d="M45.8407 107.74C45.5875 108.344 45.8899 109.032 46.5218 109.283L64.9978 116.625C65.4053 116.787 65.8741 116.618 66.0678 116.241L66.3221 116.348L66.0714 116.234C66.1443 116.088 66.2179 115.943 66.2923 115.798L66.3667 115.654L66.4273 115.538C66.6452 115.121 66.4474 114.615 65.9962 114.436L47.4857 107.08C46.8453 106.826 46.1098 107.116 45.8458 107.728L45.8407 107.74Z" fill="#292929"/>
<path d="M60.607 86.8047C61.0952 86.3363 61.8903 86.3363 62.3786 86.8046L77.0759 100.904C77.4132 101.228 77.401 101.754 77.049 102.063C76.8505 102.237 76.6537 102.413 76.4583 102.59C76.1315 102.887 75.6157 102.88 75.2977 102.575L60.607 88.4816C60.1233 88.0176 60.1233 87.2686 60.607 86.8047Z" fill="#292929"/>
<path d="M91.7923 93.18C92.2251 93.0144 92.4332 92.5442 92.2557 92.1332L84.2253 73.5344C83.9629 72.9265 83.2316 72.6379 82.5949 72.8909C81.9624 73.1422 81.662 73.8333 81.9227 74.4372L89.957 93.0451C90.1323 93.451 90.6211 93.643 91.0457 93.4727C91.2935 93.3732 91.5422 93.2756 91.7923 93.18Z" fill="#292929"/>
<path fill-rule="evenodd" clip-rule="evenodd" d="M23.4515 41.9132C19.156 41.9132 15.6737 45.2316 15.6737 49.325V214.501C15.6737 218.595 19.156 221.913 23.4515 221.913H207.896C212.191 221.913 215.674 218.595 215.674 214.501V49.325C215.674 45.2316 212.191 41.9132 207.896 41.9132H23.4515ZM108.463 66.5143C106.856 66.5143 105.553 67.7559 105.553 69.2875V89.1342C105.553 90.4806 106.723 91.5594 108.136 91.5147C108.395 91.5065 108.655 91.5003 108.915 91.4961C110.279 91.4744 111.373 90.4143 111.373 89.1139V69.2875C111.373 67.7559 110.07 66.5143 108.463 66.5143ZM130.341 72.925C130.955 71.5026 132.666 70.8274 134.155 71.4193C135.635 72.0074 136.338 73.6244 135.728 75.0372L128.139 92.612C127.636 93.7781 126.264 94.3658 125.014 93.9502L124.826 93.8879L124.717 93.8525L124.568 93.8043L124.445 93.765L124.275 93.7111C122.891 93.2757 122.185 91.8127 122.74 90.5283L130.341 72.925ZM152.543 85.6828C153.684 84.5878 155.543 84.5878 156.684 85.6828C157.815 86.7676 157.815 88.5187 156.684 89.6034L143.557 102.197C142.634 103.082 141.149 103.136 140.158 102.318C139.961 102.155 139.762 101.994 139.562 101.834C138.43 100.931 138.351 99.2974 139.392 98.299L152.543 85.6828ZM171.803 107.123C171.186 105.694 169.468 105.016 167.972 105.611L152.2 111.878C150.829 112.423 150.246 113.973 150.943 115.224C151.065 115.444 151.186 115.666 151.305 115.888C151.899 116.998 153.289 117.486 154.496 117.006L170.223 110.756C171.709 110.166 172.415 108.542 171.803 107.123ZM74.0091 132.867C74.0091 114.832 89.2493 100.209 108.053 100.209C123.324 100.209 136.244 109.853 140.56 123.136C141.354 125.58 143.935 127.241 146.644 127.241C149.774 127.241 152.781 127.845 155.582 128.956C156.693 129.397 157.858 129.683 159.039 129.683H174.292C175.909 129.683 177.22 130.932 177.22 132.473C177.22 134.014 175.909 135.263 174.292 135.263H173.166C171.63 135.263 170.395 136.195 169.723 137.492C169.05 138.791 168.968 140.414 169.704 141.73C170.915 143.895 171.903 146.241 172.629 148.726C173.432 151.476 175.707 153.669 178.487 154.803C186.701 158.155 192.461 165.968 192.461 175.071C192.461 183.863 187.088 191.452 179.319 194.981C177.539 195.789 175.202 196.315 172.84 196.647C170.473 196.981 168.062 197.122 166.122 197.155C146.135 197.485 87.724 197.213 81.1889 197.085C74.5099 196.954 69.1408 191.72 69.1408 185.285C69.1408 181.937 70.5946 178.914 72.9294 176.766C75.1807 174.695 77.2775 172.268 78 169.435C78.5754 167.178 79.44 165.031 80.554 163.031C82.5688 159.413 82.4202 154.744 80 151.374C76.2213 146.114 74.0091 139.738 74.0091 132.867ZM73.5602 165.12L73.7744 164.951C72.8354 163.868 71.121 163.794 70.0822 164.79L58.8418 175.574C57.7111 176.658 57.7111 178.409 58.8418 179.494C59.9833 180.589 61.8422 180.589 62.9836 179.494L74.151 168.781C75.077 167.892 75.1327 166.476 74.279 165.524L73.5602 165.12ZM61.6455 147.862C63.0147 147.318 64.5772 148.021 65.0064 149.374L65.0492 149.508L65.0785 149.599L65.1149 149.711L65.1519 149.824L65.1829 149.918L65.2206 150.031L65.2402 150.089C65.6403 151.279 65.0182 152.562 63.8085 153.043L47.8207 159.396C46.3245 159.99 44.6063 159.312 43.9896 157.883C43.377 156.465 44.0829 154.841 45.5689 154.25L61.6455 147.862ZM38.8865 132.473C38.8865 130.932 40.1974 129.683 41.8143 129.683H60.6694C62.1463 129.683 63.3056 130.89 63.1759 132.291L63.1629 132.435L63.1496 132.586C63.1432 132.662 63.1369 132.737 63.1308 132.813C63.1247 132.888 63.1189 132.963 63.1133 133.039C63.0191 134.292 61.9247 135.263 60.606 135.263H41.8143C40.1974 135.263 38.8865 134.014 38.8865 132.473ZM48.1344 105.611C46.6383 105.016 44.9202 105.694 44.3035 107.123C43.6908 108.542 44.3967 110.166 45.8828 110.756L64.3545 118.096C65.5843 118.585 67.0003 118.069 67.5743 116.923C67.653 116.766 67.7327 116.609 67.8133 116.453C67.848 116.386 67.883 116.319 67.918 116.252C68.5687 115.006 67.9778 113.496 66.6303 112.96L48.1344 105.611ZM78.1757 103.238C79.2271 102.315 79.2636 100.744 78.256 99.7777L63.5636 85.6828C62.4222 84.5878 60.5633 84.5878 59.4218 85.6828C58.2911 86.7676 58.2911 88.5187 59.4219 89.6034L74.1181 103.702C75.0738 104.619 76.6233 104.639 77.6051 103.748C77.7938 103.577 77.984 103.407 78.1757 103.238ZM81.951 71.4193C83.4407 70.8274 85.1514 71.5026 85.7656 72.9251L93.7981 91.5285C94.3292 92.7588 93.7062 94.1658 92.4107 94.6614C92.1697 94.7537 91.9294 94.8479 91.6902 94.9439C90.4146 95.4559 88.9455 94.879 88.4188 93.6592L80.3784 75.0373C79.7683 73.6244 80.4712 72.0074 81.951 71.4193Z" fill="#292929"/>
</g>
<g id="CloudsNRain">
<path fill-rule="evenodd" clip-rule="evenodd" d="M97.8856 95.7883C97.8856 95.798 97.8814 95.8073 97.8741 95.8137L97.227 96.3801C95.7636 97.6611 94.0432 98.6541 92.1543 99.2718C91.7729 99.3965 91.5031 99.737 91.4688 100.137C90.827 107.611 84.5548 113.479 76.9132 113.479C72.4857 113.479 68.5191 111.511 65.8384 108.398C65.3944 107.883 64.5764 107.951 64.2246 108.534C61.6649 112.772 57.0171 115.602 51.7092 115.602C43.804 115.602 37.365 109.323 37.1076 101.481C37.0962 101.136 36.9079 100.821 36.6093 100.648C32.2433 98.1199 29.3101 93.4001 29.3101 87.9964C29.3101 80.3234 35.2257 74.0313 42.7442 73.4333C43.1052 73.4045 43.4225 73.1828 43.5736 72.8537C46.8933 65.6236 54.1961 60.606 62.6687 60.606C70.5406 60.606 77.4022 64.9369 80.9987 71.3506C81.2435 71.7872 81.7734 71.9755 82.2388 71.7914C83.8998 71.1345 85.711 70.7731 87.6091 70.7731C95.6777 70.7731 102.219 77.314 102.219 85.3827C102.219 89.3025 100.676 92.8599 98.1633 95.4847L97.895 95.7649C97.889 95.7712 97.8856 95.7796 97.8856 95.7883ZM32.6388 88.8272C32.4531 88.8272 32.302 88.6759 32.3077 88.4903C32.4745 83.0307 36.6806 78.5878 42.0388 78.0489C42.058 78.0469 42.0757 78.0369 42.087 78.0213C42.113 77.9857 42.1655 77.984 42.1936 78.0179L42.5322 78.4254C42.5721 78.4734 42.5808 78.5401 42.5548 78.5968C42.5303 78.6501 42.4788 78.6861 42.4203 78.6908L42.3185 78.6989C37.1996 79.106 33.1493 83.3076 32.9805 88.4904C32.9745 88.676 32.8245 88.8272 32.6388 88.8272ZM93.4144 91.3853C95.1506 89.5261 96.2401 87.0542 96.3232 84.3296C96.3289 84.144 96.1778 83.9932 95.9921 83.9932C95.8064 83.9932 95.6564 84.144 95.6504 84.3296C95.5661 86.9224 94.5106 89.2692 92.8353 91.019L92.754 91.104C92.7463 91.1121 92.742 91.1227 92.742 91.1339C92.742 91.1463 92.7366 91.1582 92.7273 91.1664L92.1843 91.6416C91.1668 92.5323 89.9703 93.2229 88.6561 93.6527L88.5457 93.6889C88.4844 93.7089 88.4411 93.7636 88.4356 93.8278C88.4297 93.8969 88.4687 93.9619 88.5324 93.9892L88.8478 94.1241C88.9937 94.1864 89.1579 94.1927 89.3063 94.1369C90.3062 93.761 91.2356 93.2417 92.0695 92.6041L93.4144 91.3853ZM51.6593 111.472C51.6593 111.658 51.8099 111.809 51.9955 111.803C55.5646 111.694 58.699 109.859 60.5923 107.105C60.663 107.003 60.7142 106.888 60.7466 106.767L60.8725 106.299C60.8934 106.221 60.8745 106.138 60.822 106.077C60.714 105.952 60.5152 105.969 60.4298 106.11L60.3633 106.22C58.6379 109.077 55.5469 111.015 51.9955 111.13C51.8099 111.136 51.6593 111.286 51.6593 111.472Z" fill="#292929"/>
<path fill-rule="evenodd" clip-rule="evenodd" d="M169.893 111.884L169.357 111.542L169.355 111.538L169.353 111.535L168.94 111.237C168.512 110.929 168.097 110.604 167.695 110.265C167.33 109.957 166.798 109.95 166.425 110.248C162.749 113.184 158.09 114.939 153.018 114.939C144.632 114.939 137.366 110.138 133.821 103.13C133.558 102.611 132.909 102.425 132.411 102.726C130.753 103.728 128.81 104.305 126.729 104.305C120.654 104.305 115.729 99.38 115.729 93.3049C115.729 88.3764 118.971 84.2025 123.441 82.8044C123.941 82.6483 124.235 82.1336 124.117 81.624C123.863 80.5312 123.729 79.3918 123.729 78.2197C123.729 69.9354 130.445 63.2197 138.729 63.2197C143.126 63.2197 147.08 65.1101 149.825 68.1254C150.248 68.5901 150.989 68.554 151.365 68.0504C154.74 63.5298 160.128 60.606 166.2 60.606C174.552 60.606 181.614 66.1413 183.912 73.7458C184.02 74.1035 184.319 74.3712 184.686 74.4396C194.204 76.2112 201.41 84.5615 201.41 94.5927C201.41 105.915 192.232 115.093 180.91 115.093C176.853 115.093 173.074 113.915 169.893 111.884ZM129.2 79.8501C129.014 79.8501 128.863 79.6989 128.869 79.5133C129.035 74.0536 133.242 69.6107 138.6 69.0718C138.619 69.0699 138.637 69.0599 138.648 69.0443C138.674 69.0086 138.726 69.007 138.755 69.0408L139.093 69.4484C139.133 69.4964 139.142 69.563 139.116 69.6197C139.091 69.6731 139.04 69.7091 138.981 69.7137L138.879 69.7218C133.761 70.1289 129.71 74.3306 129.541 79.5133C129.535 79.6989 129.385 79.8501 129.2 79.8501ZM187.269 102.837C189.005 100.978 190.094 98.5063 190.177 95.7817C190.183 95.5961 190.032 95.4454 189.846 95.4454C189.661 95.4454 189.511 95.5961 189.505 95.7817C189.42 98.3746 188.365 100.721 186.69 102.471L186.608 102.556C186.6 102.564 186.596 102.575 186.596 102.586C186.596 102.598 186.591 102.61 186.581 102.619L186.038 103.094C185.021 103.984 183.824 104.675 182.51 105.105L182.4 105.141C182.339 105.161 182.295 105.216 182.29 105.28C182.284 105.349 182.323 105.414 182.387 105.441L182.702 105.576C182.848 105.639 183.012 105.645 183.16 105.589C184.16 105.213 185.09 104.694 185.924 104.056L187.269 102.837Z" fill="#292929"/>
<path fill-rule="evenodd" clip-rule="evenodd" d="M22.6737 41.9132C18.8078 41.9132 15.6737 45.0473 15.6737 48.9132V214.913C15.6737 218.779 18.8078 221.913 22.6737 221.913H208.674C212.54 221.913 215.674 218.779 215.674 214.913V48.9132C215.674 45.0473 212.54 41.9132 208.674 41.9132H22.6737ZM43.9669 68.2152C42.5769 70.1531 40.5294 71.5579 38.2859 72.3668C31.8853 74.6742 27.3101 80.8006 27.3101 87.9964C27.3101 92.6568 29.2298 96.8683 32.3196 99.8839C33.9315 101.457 35.127 103.46 35.7538 105.623C37.7588 112.543 44.1431 117.602 51.7092 117.602C54.3288 117.602 56.8066 116.995 59.0098 115.915C62.8789 114.019 68.0785 113.586 72.2117 114.804C73.7024 115.243 75.2803 115.479 76.9132 115.479C85.0493 115.479 91.8184 109.63 93.2458 101.906C93.353 101.326 93.7481 100.832 94.2881 100.595C95.4488 100.084 96.8856 100.871 96.8856 102.139V102.251C96.8856 103.08 97.5572 103.751 98.3856 103.751C99.2141 103.751 99.8856 103.08 99.8856 102.251V98.576C99.8856 97.2858 100.396 96.062 101.145 95.0113C103.08 92.2955 104.219 88.9714 104.219 85.3827C104.219 76.2094 96.7824 68.7731 87.6091 68.7731C84.4558 68.7731 81.2142 67.6417 78.9929 65.4037C74.8267 61.2064 69.0517 58.606 62.6687 58.606C54.9607 58.606 48.1397 62.3977 43.9669 68.2152ZM156.214 61.1988C159.169 59.5476 162.574 58.606 166.2 58.606C173.829 58.606 180.483 62.7729 184.013 68.9536C185.241 71.1024 187.163 72.8311 189.452 73.7712C197.643 77.1349 203.41 85.1895 203.41 94.5927C203.41 107.019 193.337 117.093 180.91 117.093C178.586 117.093 176.344 116.74 174.234 116.085C172.412 115.52 170.355 116.77 170.355 118.677V119.705C170.355 120.533 169.683 121.205 168.855 121.205C168.027 121.205 167.355 120.533 167.355 119.705V112.713C167.355 112.612 167.307 112.517 167.227 112.455C167.112 112.367 166.952 112.365 166.834 112.451C162.956 115.273 158.181 116.939 153.018 116.939C147.687 116.939 142.772 115.164 138.83 112.174C138.731 112.099 138.486 112.266 138.476 112.389L137.826 120.296C137.781 120.846 137.298 121.255 136.748 121.21C136.197 121.165 135.788 120.682 135.833 120.132L136.483 112.225C136.528 111.675 137.011 111.265 137.561 111.31C137.595 111.313 137.627 111.317 137.66 111.323C137.693 111.329 137.721 111.279 137.695 111.256C135.929 109.736 134.391 107.958 133.141 105.98C132.78 105.409 132.051 105.188 131.421 105.432C129.965 105.996 128.382 106.305 126.729 106.305C119.549 106.305 113.729 100.485 113.729 93.3049C113.729 88.8633 115.956 84.9434 119.353 82.5987C120.786 81.6103 121.729 79.9598 121.729 78.2197C121.729 68.8309 129.34 61.2197 138.729 61.2197C140.621 61.2197 142.441 61.529 144.141 62.0995C147.978 63.3873 152.681 63.1732 156.214 61.1988ZM48.7899 126.826C48.8352 126.275 48.4256 125.792 47.8752 125.747C47.3248 125.702 46.8419 126.111 46.7966 126.662L46.1466 134.568C46.1013 135.119 46.5108 135.602 47.0613 135.647C47.6117 135.692 48.0946 135.283 48.1398 134.732L48.7899 126.826ZM111.983 163.183C112.533 163.228 112.943 163.711 112.898 164.261L112.247 172.168C112.202 172.718 111.719 173.128 111.169 173.083C110.618 173.037 110.209 172.554 110.254 172.004L110.904 164.097C110.949 163.547 111.432 163.137 111.983 163.183ZM146.476 136.759C146.521 136.208 146.112 135.726 145.561 135.68C145.011 135.635 144.528 136.045 144.483 136.595L143.833 144.502C143.788 145.052 144.197 145.535 144.747 145.58C145.298 145.625 145.781 145.216 145.826 144.666L146.476 136.759ZM33.2992 157.048C33.8496 157.093 34.2592 157.576 34.2139 158.126L33.0668 172.079C33.0215 172.63 32.5386 173.039 31.9882 172.994C31.4378 172.949 31.0282 172.466 31.0735 171.915L32.2207 157.962C32.2659 157.412 32.7488 157.002 33.2992 157.048ZM57.0116 182.496C57.0569 181.946 56.6474 181.463 56.0969 181.418C55.5465 181.372 55.0636 181.782 55.0184 182.332L53.8712 196.285C53.8259 196.836 54.2355 197.319 54.7859 197.364C55.3363 197.409 55.8192 197 55.8645 196.449L57.0116 182.496ZM72.5329 136.346C73.0833 136.392 73.4928 136.874 73.4475 137.425L72.3004 151.378C72.2551 151.928 71.7722 152.338 71.2218 152.292C70.6714 152.247 70.2619 151.764 70.3071 151.214L71.4543 137.261C71.4995 136.711 71.9824 136.301 72.5329 136.346ZM96.2453 161.795C96.2905 161.244 95.881 160.761 95.3306 160.716C94.7802 160.671 94.2973 161.081 94.252 161.631L93.1049 175.584C93.0596 176.134 93.4691 176.617 94.0195 176.662C94.57 176.708 95.0529 176.298 95.0982 175.748L96.2453 161.795ZM127.983 124.012C128.533 124.057 128.943 124.54 128.897 125.09L128.247 132.997C128.202 133.547 127.719 133.957 127.169 133.912C126.618 133.866 126.209 133.384 126.254 132.833L126.904 124.926C126.949 124.376 127.432 123.966 127.983 124.012ZM190.014 127.68C190.564 127.726 190.974 128.208 190.929 128.759L190.279 136.666C190.233 137.216 189.751 137.625 189.2 137.58C188.65 137.535 188.24 137.052 188.285 136.502L188.936 128.595C188.981 128.045 189.464 127.635 190.014 127.68ZM71.7756 196.366C71.8209 195.816 71.4113 195.333 70.8609 195.287C70.3105 195.242 69.8276 195.652 69.7824 196.202L69.1323 204.109C69.0871 204.659 69.4965 205.142 70.047 205.187C70.5974 205.233 71.0803 204.823 71.1256 204.273L71.7756 196.366ZM77.752 149.048C78.3024 149.093 78.7119 149.576 78.6666 150.126L77.5195 164.079C77.4743 164.63 76.9913 165.039 76.4409 164.994C75.8905 164.949 75.481 164.466 75.5263 163.915L76.6734 149.962C76.7186 149.412 77.2016 149.002 77.752 149.048ZM101.464 174.496C101.51 173.946 101.1 173.463 100.55 173.418C99.9993 173.372 99.5164 173.782 99.4711 174.332L98.324 188.285C98.2787 188.836 98.6882 189.319 99.2387 189.364C99.7891 189.409 100.272 189 100.317 188.449L101.464 174.496ZM116.985 128.346C117.536 128.392 117.945 128.874 117.9 129.425L116.753 143.378C116.707 143.928 116.225 144.338 115.674 144.292C115.124 144.247 114.714 143.764 114.759 143.214L115.907 129.261C115.952 128.711 116.435 128.301 116.985 128.346ZM97.8836 127.029C97.9288 126.478 97.5193 125.995 96.9689 125.95C96.4185 125.905 95.9356 126.314 95.8903 126.865L94.7432 140.818C94.6979 141.368 95.1074 141.851 95.6579 141.896C96.2083 141.941 96.6912 141.532 96.7365 140.982L97.8836 127.029ZM156.781 178.917C157.331 178.963 157.741 179.446 157.695 179.996L157.045 187.903C157 188.453 156.517 188.863 155.967 188.817C155.416 188.772 155.007 188.289 155.052 187.739L155.702 179.832C155.747 179.282 156.23 178.872 156.781 178.917ZM196.929 159.295C196.974 158.744 196.565 158.261 196.014 158.216C195.464 158.171 194.981 158.58 194.936 159.131L194.286 167.037C194.24 167.588 194.65 168.071 195.2 168.116C195.751 168.161 196.234 167.752 196.279 167.201L196.929 159.295ZM145.783 183.252C146.333 183.297 146.743 183.78 146.698 184.331L145.551 198.283C145.505 198.834 145.022 199.243 144.472 199.198C143.922 199.153 143.512 198.67 143.557 198.12L144.704 184.167C144.75 183.616 145.233 183.207 145.783 183.252ZM128.204 171.583C128.755 171.629 129.164 172.112 129.119 172.662L127.972 186.615C127.927 187.165 127.444 187.575 126.893 187.53C126.343 187.484 125.933 187.001 125.979 186.451L127.126 172.498C127.171 171.948 127.654 171.538 128.204 171.583ZM151.917 197.032C151.962 196.482 151.552 195.999 151.002 195.953C150.452 195.908 149.969 196.318 149.923 196.868L148.776 210.821C148.731 211.371 149.141 211.854 149.691 211.9C150.241 211.945 150.724 211.535 150.77 210.985L151.917 197.032ZM167.438 150.882C167.988 150.927 168.398 151.41 168.353 151.961L167.205 165.913C167.16 166.464 166.677 166.873 166.127 166.828C165.576 166.783 165.167 166.3 165.212 165.75L166.359 151.797C166.405 151.246 166.887 150.837 167.438 150.882ZM191.15 176.331C191.196 175.78 190.786 175.297 190.236 175.252C189.685 175.207 189.202 175.616 189.157 176.167L188.01 190.12C187.965 190.67 188.374 191.153 188.925 191.198C189.475 191.243 189.958 190.834 190.003 190.283L191.15 176.331Z" fill="#292929"/>
</g>
</g>
</g>
<g id="monthDays">
<g id="daysOfTheWeek">
<g id="Row">
<g id="numbers">
<g id="saturday">
<text id="text-" fill="#2950A1" xml:space="preserve" style="white-space: pre" font-family="Roboto" font-size="12" letter-spacing="0em"><tspan x="28.9249" y="56.4451">S</tspan></text>
<path id="rightBorder" d="M43.9838 46.1363L43.9874 58.4134" stroke="white" stroke-opacity="0.2" stroke-width="0.2" stroke-linecap="round"/>
</g>
<g id="monday">
<text id="text-_2" fill="#2950A1" xml:space="preserve" style="white-space: pre" font-family="Roboto" font-size="12" letter-spacing="0em"><tspan x="55.2491" y="56.4451">M</tspan></text>
<path id="rightBorder_2" d="M71.9838 46.1363L71.9874 58.4134" stroke="white" stroke-opacity="0.2" stroke-width="0.2" stroke-linecap="round"/>
</g>
<g id="tuesday">
<text id="text-_3" fill="#2950A1" xml:space="preserve" style="white-space: pre" font-family="Roboto" font-size="12" letter-spacing="0em"><tspan x="81.878" y="56.4451">Tu</tspan></text>
<path id="rightBorder_3" d="M99.9838 46.1363L99.9874 58.4134" stroke="white" stroke-opacity="0.2" stroke-width="0.2" stroke-linecap="round"/>
</g>
<g id="wednesday">
<text id="text-_4" fill="#2950A1" xml:space="preserve" style="white-space: pre" font-family="Roboto" font-size="12" letter-spacing="0em"><tspan x="111.161" y="56.4451">W</tspan></text>
<path id="rightBorder_4" d="M127.984 46.1363L127.987 58.4134" stroke="white" stroke-opacity="0.2" stroke-width="0.2" stroke-linecap="round"/>
</g>
<g id="thursday">
<text id="text-_5" fill="#2950A1" xml:space="preserve" style="white-space: pre" font-family="Roboto" font-size="12" letter-spacing="0em"><tspan x="137.603" y="56.4451">Th</tspan></text>
<path id="rightBorder_5" d="M155.984 46.1363L155.987 58.4134" stroke="white" stroke-opacity="0.2" stroke-width="0.2" stroke-linecap="round"/>
</g>
<g id="friday">
<text id="text-_6" fill="#2950A1" xml:space="preserve" style="white-space: pre" font-family="Roboto" font-size="12" letter-spacing="0em"><tspan x="169.171" y="56.4451">F</tspan></text>
<path id="rightBorder_6" d="M183.984 46.1363L183.987 58.4134" stroke="white" stroke-opacity="0.2" stroke-width="0.2" stroke-linecap="round"/>
</g>
<g id="saturday_2">
<text id="text-_7" fill="#2950A1" xml:space="preserve" style="white-space: pre" font-family="Roboto" font-size="12" letter-spacing="0em"><tspan x="196.925" y="56.4451">S</tspan></text>
</g>
</g>
<path id="borderBottom" d="M36.0592 65.4132L201.059 65.3687" stroke="white" stroke-opacity="0.2" stroke-width="0.2" stroke-linecap="round" stroke-linejoin="round"/>
</g>
</g>
<g id="Row_2">
<g id="numbers_2">
<g id="Number-00">
<g id="circleBackground">
<circle cx="32.4874" cy="78.3708" r="9.69184" fill="#00A3FF" style="mix-blend-mode:hard-light"/>
</g>
<text id="text-_8" fill="white" xml:space="preserve" style="white-space: pre" font-family="Roboto" font-size="12" letter-spacing="0em"><tspan x="25.7491" y="82.4451">00</tspan></text>
<path id="rightBorder_7" d="M43.9838 72.1364L43.9874 84.4134" stroke="white" stroke-opacity="0.2" stroke-width="0.2" stroke-linecap="round"/>
</g>
<g id="Number-01">
<g id="circleBackground_2">
<circle cx="60.4874" cy="78.3708" r="9.69184" fill="#00A3FF" style="mix-blend-mode:hard-light"/>
</g>
<text id="text-_9" fill="white" xml:space="preserve" style="white-space: pre" font-family="Roboto" font-size="12" letter-spacing="0em"><tspan x="53.7491" y="82.4451">00</tspan></text>
<path id="rightBorder_8" d="M71.9838 72.1364L71.9874 84.4134" stroke="white" stroke-opacity="0.2" stroke-width="0.2" stroke-linecap="round"/>
</g>
<g id="Number-02">
<g id="circleBackground_3">
<circle cx="88.4874" cy="78.3708" r="9.69184" fill="#00A3FF" style="mix-blend-mode:hard-light"/>
</g>
<text id="text-_10" fill="white" xml:space="preserve" style="white-space: pre" font-family="Roboto" font-size="12" letter-spacing="0em"><tspan x="81.7491" y="82.4451">00</tspan></text>
<path id="rightBorder_9" d="M99.9838 72.1364L99.9874 84.4134" stroke="white" stroke-opacity="0.2" stroke-width="0.2" stroke-linecap="round"/>
</g>
<g id="Number-03">
<g id="circleBackground_4">
<circle cx="116.487" cy="78.3708" r="9.69184" fill="#00A3FF" style="mix-blend-mode:hard-light"/>
</g>
<text id="text-_11" fill="white" xml:space="preserve" style="white-space: pre" font-family="Roboto" font-size="12" letter-spacing="0em"><tspan x="109.749" y="82.4451">00</tspan></text>
<path id="rightBorder_10" d="M127.984 72.1364L127.987 84.4134" stroke="white" stroke-opacity="0.2" stroke-width="0.2" stroke-linecap="round"/>
</g>
<g id="Number-04">
<g id="circleBackground_5">
<circle cx="144.487" cy="78.3708" r="9.69184" fill="#00A3FF" style="mix-blend-mode:hard-light"/>
</g>
<text id="text-_12" fill="white" xml:space="preserve" style="white-space: pre" font-family="Roboto" font-size="12" letter-spacing="0em"><tspan x="137.749" y="82.4451">00</tspan></text>
<path id="rightBorder_11" d="M155.984 72.1364L155.987 84.4134" stroke="white" stroke-opacity="0.2" stroke-width="0.2" stroke-linecap="round"/>
</g>
<g id="Number-05">
<g id="circleBackground_6">
<circle cx="172.487" cy="78.3708" r="9.69184" fill="#00A3FF" style="mix-blend-mode:hard-light"/>
</g>
<text id="text-_13" fill="white" xml:space="preserve" style="white-space: pre" font-family="Roboto" font-size="12" letter-spacing="0em"><tspan x="165.749" y="82.4451">00</tspan></text>
<path id="rightBorder_12" d="M183.984 72.1364L183.987 84.4134" stroke="white" stroke-opacity="0.2" stroke-width="0.2" stroke-linecap="round"/>
</g>
<g id="Number-06">
<g id="circleBackground_7">
<circle cx="200.487" cy="78.3708" r="9.69184" fill="#00A3FF" style="mix-blend-mode:hard-light"/>
</g>
<text id="text-_14" fill="white" xml:space="preserve" style="white-space: pre" font-family="Roboto" font-size="12" letter-spacing="0em"><tspan x="193.749" y="82.4451">00</tspan></text>
</g>
</g>
<path id="borderBottom_2" d="M36.0592 91.4132L201.059 91.3687" stroke="white" stroke-opacity="0.2" stroke-width="0.2" stroke-linecap="round" stroke-linejoin="round"/>
</g>
<g id="Row_3">
<g id="numbers_3">
<g id="Number-10">
<g id="circleBackground_8">
<circle cx="32.4874" cy="104.371" r="9.69184" fill="#00A3FF" style="mix-blend-mode:hard-light"/>
</g>
<text id="text-_15" fill="white" xml:space="preserve" style="white-space: pre" font-family="Roboto" font-size="12" letter-spacing="0em"><tspan x="25.7491" y="108.445">00</tspan></text>
<path id="rightBorder_13" d="M43.9838 98.1364L43.9874 110.413" stroke="white" stroke-opacity="0.2" stroke-width="0.2" stroke-linecap="round"/>
</g>
<g id="Number-11">
<g id="circleBackground_9">
<circle cx="60.4874" cy="104.371" r="9.69184" fill="#00A3FF" style="mix-blend-mode:hard-light"/>
</g>
<text id="text-_16" fill="white" xml:space="preserve" style="white-space: pre" font-family="Roboto" font-size="12" letter-spacing="0em"><tspan x="53.7491" y="108.445">00</tspan></text>
<path id="rightBorder_14" d="M71.9838 98.1364L71.9874 110.413" stroke="white" stroke-opacity="0.2" stroke-width="0.2" stroke-linecap="round"/>
</g>
<g id="Number-12">
<g id="circleBackground_10">
<circle cx="88.4874" cy="104.371" r="9.69184" fill="#00A3FF" style="mix-blend-mode:hard-light"/>
</g>
<text id="text-_17" fill="white" xml:space="preserve" style="white-space: pre" font-family="Roboto" font-size="12" letter-spacing="0em"><tspan x="81.7491" y="108.445">00</tspan></text>
<path id="rightBorder_15" d="M99.9838 98.1364L99.9874 110.413" stroke="white" stroke-opacity="0.2" stroke-width="0.2" stroke-linecap="round"/>
</g>
<g id="Number-13">
<g id="circleBackground_11">
<circle cx="116.487" cy="104.371" r="9.69184" fill="#00A3FF" style="mix-blend-mode:hard-light"/>
</g>
<text id="text-_18" fill="white" xml:space="preserve" style="white-space: pre" font-family="Roboto" font-size="12" letter-spacing="0em"><tspan x="109.749" y="108.445">00</tspan></text>
<path id="rightBorder_16" d="M127.984 98.1364L127.987 110.413" stroke="white" stroke-opacity="0.2" stroke-width="0.2" stroke-linecap="round"/>
</g>
<g id="Number-14">
<g id="circleBackground_12">
<circle cx="144.487" cy="104.371" r="9.69184" fill="#00A3FF" style="mix-blend-mode:hard-light"/>
</g>
<text id="text-_19" fill="white" xml:space="preserve" style="white-space: pre" font-family="Roboto" font-size="12" letter-spacing="0em"><tspan x="137.749" y="108.445">00</tspan></text>
<path id="rightBorder_17" d="M155.984 98.1364L155.987 110.413" stroke="white" stroke-opacity="0.2" stroke-width="0.2" stroke-linecap="round"/>
</g>
<g id="Number-15">
<g id="circleBackground_13">
<circle cx="172.487" cy="104.371" r="9.69184" fill="#00A3FF" style="mix-blend-mode:hard-light"/>
</g>
<text id="text-_20" fill="white" xml:space="preserve" style="white-space: pre" font-family="Roboto" font-size="12" letter-spacing="0em"><tspan x="165.749" y="108.445">00</tspan></text>
<path id="rightBorder_18" d="M183.984 98.1364L183.987 110.413" stroke="white" stroke-opacity="0.2" stroke-width="0.2" stroke-linecap="round"/>
</g>
<g id="Number-16">
<g id="circleBackground_14">
<circle cx="200.487" cy="104.371" r="9.69184" fill="#00A3FF" style="mix-blend-mode:hard-light"/>
</g>
<text id="text-_21" fill="white" xml:space="preserve" style="white-space: pre" font-family="Roboto" font-size="12" letter-spacing="0em"><tspan x="193.749" y="108.445">00</tspan></text>
</g>
</g>
<path id="borderBottom_3" d="M36.0592 117.413L201.059 117.369" stroke="white" stroke-opacity="0.2" stroke-width="0.2" stroke-linecap="round" stroke-linejoin="round"/>
</g>
<g id="Row_4">
<g id="numbers_4">
<g id="Number-20">
<g id="circleBackground_15">
<circle cx="32.4874" cy="130.371" r="9.69184" fill="#00A3FF" style="mix-blend-mode:hard-light"/>
</g>
<text id="text-_22" fill="white" xml:space="preserve" style="white-space: pre" font-family="Roboto" font-size="12" letter-spacing="0em"><tspan x="25.7491" y="134.445">00</tspan></text>
<path id="rightBorder_19" d="M43.9838 124.136L43.9874 136.413" stroke="white" stroke-opacity="0.2" stroke-width="0.2" stroke-linecap="round"/>
</g>
<g id="Number-21">
<g id="circleBackground_16">
<circle cx="60.4874" cy="130.371" r="9.69184" fill="#00A3FF" style="mix-blend-mode:hard-light"/>
</g>
<text id="text-_23" fill="white" xml:space="preserve" style="white-space: pre" font-family="Roboto" font-size="12" letter-spacing="0em"><tspan x="53.7491" y="134.445">00</tspan></text>
<path id="rightBorder_20" d="M71.9838 124.136L71.9874 136.413" stroke="white" stroke-opacity="0.2" stroke-width="0.2" stroke-linecap="round"/>
</g>
<g id="Number-22">
<g id="circleBackground_17">
<circle cx="88.4874" cy="130.371" r="9.69184" fill="#00A3FF" style="mix-blend-mode:hard-light"/>
</g>
<text id="text-_24" fill="white" xml:space="preserve" style="white-space: pre" font-family="Roboto" font-size="12" letter-spacing="0em"><tspan x="81.7491" y="134.445">00</tspan></text>
<path id="rightBorder_21" d="M99.9838 124.136L99.9874 136.413" stroke="white" stroke-opacity="0.2" stroke-width="0.2" stroke-linecap="round"/>
</g>
<g id="Number-23">
<g id="circleBackground_18">
<circle cx="116.487" cy="130.371" r="9.69184" fill="#00A3FF" style="mix-blend-mode:hard-light"/>
</g>
<text id="text-_25" fill="white" xml:space="preserve" style="white-space: pre" font-family="Roboto" font-size="12" letter-spacing="0em"><tspan x="109.749" y="134.445">00</tspan></text>
<path id="rightBorder_22" d="M127.984 124.136L127.987 136.413" stroke="white" stroke-opacity="0.2" stroke-width="0.2" stroke-linecap="round"/>
</g>
<g id="Number-24">
<g id="circleBackground_19">
<circle cx="144.487" cy="130.371" r="9.69184" fill="#00A3FF" style="mix-blend-mode:hard-light"/>
</g>
<text id="text-_26" fill="white" xml:space="preserve" style="white-space: pre" font-family="Roboto" font-size="12" letter-spacing="0em"><tspan x="137.749" y="134.445">00</tspan></text>
<path id="rightBorder_23" d="M155.984 124.136L155.987 136.413" stroke="white" stroke-opacity="0.2" stroke-width="0.2" stroke-linecap="round"/>
</g>
<g id="Number-25">
<g id="circleBackground_20">
<circle cx="172.487" cy="130.371" r="9.69184" fill="#00A3FF" style="mix-blend-mode:hard-light"/>
</g>
<text id="text-_27" fill="white" xml:space="preserve" style="white-space: pre" font-family="Roboto" font-size="12" letter-spacing="0em"><tspan x="165.749" y="134.445">00</tspan></text>
<path id="rightBorder_24" d="M183.984 124.136L183.987 136.413" stroke="white" stroke-opacity="0.2" stroke-width="0.2" stroke-linecap="round"/>
</g>
<g id="Number-26">
<g id="circleBackground_21">
<circle cx="200.487" cy="130.371" r="9.69184" fill="#00A3FF" style="mix-blend-mode:hard-light"/>
</g>
<text id="text-_28" fill="white" xml:space="preserve" style="white-space: pre" font-family="Roboto" font-size="12" letter-spacing="0em"><tspan x="193.749" y="134.445">00</tspan></text>
</g>
</g>
<path id="borderBottom_4" d="M36.0592 143.413L201.059 143.369" stroke="white" stroke-opacity="0.2" stroke-width="0.2" stroke-linecap="round" stroke-linejoin="round"/>
</g>
<g id="Row_5">
<g id="numbers_5">
<g id="Number-30">
<g id="circleBackground_22">
<circle cx="32.4874" cy="156.371" r="9.69184" fill="#00A3FF" style="mix-blend-mode:hard-light"/>
</g>
<text id="text-_29" fill="white" xml:space="preserve" style="white-space: pre" font-family="Roboto" font-size="12" letter-spacing="0em"><tspan x="25.7491" y="160.445">00</tspan></text>
<path id="rightBorder_25" d="M43.9838 150.136L43.9874 162.413" stroke="white" stroke-opacity="0.2" stroke-width="0.2" stroke-linecap="round"/>
</g>
<g id="Number-31">
<g id="circleBackground_23">
<circle cx="60.4874" cy="156.371" r="9.69184" fill="#00A3FF" style="mix-blend-mode:hard-light"/>
</g>
<text id="text-_30" fill="white" xml:space="preserve" style="white-space: pre" font-family="Roboto" font-size="12" letter-spacing="0em"><tspan x="53.7491" y="160.445">00</tspan></text>
<path id="rightBorder_26" d="M71.9838 150.136L71.9874 162.413" stroke="white" stroke-opacity="0.2" stroke-width="0.2" stroke-linecap="round"/>
</g>
<g id="Number-32">
<g id="circleBackground_24">
<circle cx="88.4874" cy="156.371" r="9.69184" fill="#00A3FF" style="mix-blend-mode:hard-light"/>
</g>
<text id="text-_31" fill="white" xml:space="preserve" style="white-space: pre" font-family="Roboto" font-size="12" letter-spacing="0em"><tspan x="81.7491" y="160.445">00</tspan></text>
<path id="rightBorder_27" d="M99.9838 150.136L99.9874 162.413" stroke="white" stroke-opacity="0.2" stroke-width="0.2" stroke-linecap="round"/>
</g>
<g id="Number-33">
<g id="circleBackground_25">
<circle cx="116.487" cy="156.371" r="9.69184" fill="#00A3FF" style="mix-blend-mode:hard-light"/>
</g>
<text id="text-_32" fill="white" xml:space="preserve" style="white-space: pre" font-family="Roboto" font-size="12" letter-spacing="0em"><tspan x="109.749" y="160.445">00</tspan></text>
<path id="rightBorder_28" d="M127.984 150.136L127.987 162.413" stroke="white" stroke-opacity="0.2" stroke-width="0.2" stroke-linecap="round"/>
</g>
<g id="Number-34">
<g id="circleBackground_26">
<circle cx="144.487" cy="156.371" r="9.69184" fill="#00A3FF" style="mix-blend-mode:hard-light"/>
</g>
<text id="text-_33" fill="white" xml:space="preserve" style="white-space: pre" font-family="Roboto" font-size="12" letter-spacing="0em"><tspan x="137.749" y="160.445">00</tspan></text>
<path id="rightBorder_29" d="M155.984 150.136L155.987 162.413" stroke="white" stroke-opacity="0.2" stroke-width="0.2" stroke-linecap="round"/>
</g>
<g id="Number-35">
<g id="circleBackground_27">
<circle cx="172.487" cy="156.371" r="9.69184" fill="#00A3FF" style="mix-blend-mode:hard-light"/>
</g>
<text id="text-_34" fill="white" xml:space="preserve" style="white-space: pre" font-family="Roboto" font-size="12" letter-spacing="0em"><tspan x="165.749" y="160.445">00</tspan></text>
<path id="rightBorder_30" d="M183.984 150.136L183.987 162.413" stroke="white" stroke-opacity="0.2" stroke-width="0.2" stroke-linecap="round"/>
</g>
<g id="Number-36">
<g id="circleBackground_28">
<circle cx="200.487" cy="156.371" r="9.69184" fill="#00A3FF" style="mix-blend-mode:hard-light"/>
</g>
<text id="text-_35" fill="white" xml:space="preserve" style="white-space: pre" font-family="Roboto" font-size="12" letter-spacing="0em"><tspan x="193.749" y="160.445">00</tspan></text>
</g>
</g>
<path id="borderBottom_5" d="M36.0592 169.413L201.059 169.369" stroke="white" stroke-opacity="0.2" stroke-width="0.2" stroke-linecap="round" stroke-linejoin="round"/>
</g>
<g id="Row_6">
<g id="numbers_6">
<g id="Number-40">
<g id="circleBackground_29">
<circle cx="32.4874" cy="182.371" r="9.69184" fill="#00A3FF" style="mix-blend-mode:hard-light"/>
</g>
<text id="text-_36" fill="white" xml:space="preserve" style="white-space: pre" font-family="Roboto" font-size="12" letter-spacing="0em"><tspan x="25.7491" y="186.445">00</tspan></text>
<path id="rightBorder_31" d="M43.9838 176.136L43.9874 188.413" stroke="white" stroke-opacity="0.2" stroke-width="0.2" stroke-linecap="round"/>
</g>
<g id="Number-41">
<g id="circleBackground_30">
<circle cx="60.4874" cy="182.371" r="9.69184" fill="#00A3FF" style="mix-blend-mode:hard-light"/>
</g>
<text id="text-_37" fill="white" xml:space="preserve" style="white-space: pre" font-family="Roboto" font-size="12" letter-spacing="0em"><tspan x="53.7491" y="186.445">00</tspan></text>
<path id="rightBorder_32" d="M71.9838 176.136L71.9874 188.413" stroke="white" stroke-opacity="0.2" stroke-width="0.2" stroke-linecap="round"/>
</g>
<g id="Number-42">
<g id="circleBackground_31">
<circle cx="88.4874" cy="182.371" r="9.69184" fill="#00A3FF" style="mix-blend-mode:hard-light"/>
</g>
<text id="text-_38" fill="white" xml:space="preserve" style="white-space: pre" font-family="Roboto" font-size="12" letter-spacing="0em"><tspan x="81.7491" y="186.445">00</tspan></text>
<path id="rightBorder_33" d="M99.9838 176.136L99.9874 188.413" stroke="white" stroke-opacity="0.2" stroke-width="0.2" stroke-linecap="round"/>
</g>
<g id="Number-43">
<g id="circleBackground_32">
<circle cx="116.487" cy="182.371" r="9.69184" fill="#00A3FF" style="mix-blend-mode:hard-light"/>
</g>
<text id="text-_39" fill="white" xml:space="preserve" style="white-space: pre" font-family="Roboto" font-size="12" letter-spacing="0em"><tspan x="109.749" y="186.445">00</tspan></text>
<path id="rightBorder_34" d="M127.984 176.136L127.987 188.413" stroke="white" stroke-opacity="0.2" stroke-width="0.2" stroke-linecap="round"/>
</g>
<g id="Number-44">
<g id="circleBackground_33">
<circle cx="144.487" cy="182.371" r="9.69184" fill="#00A3FF" style="mix-blend-mode:hard-light"/>
</g>
<text id="text-_40" fill="white" xml:space="preserve" style="white-space: pre" font-family="Roboto" font-size="12" letter-spacing="0em"><tspan x="137.749" y="186.445">00</tspan></text>
<path id="rightBorder_35" d="M155.984 176.136L155.987 188.413" stroke="white" stroke-opacity="0.2" stroke-width="0.2" stroke-linecap="round"/>
</g>
<g id="Number-45">
<g id="circleBackground_34">
<circle cx="172.487" cy="182.371" r="9.69184" fill="#00A3FF" style="mix-blend-mode:hard-light"/>
</g>
<text id="text-_41" fill="white" xml:space="preserve" style="white-space: pre" font-family="Roboto" font-size="12" letter-spacing="0em"><tspan x="165.749" y="186.445">00</tspan></text>
<path id="rightBorder_36" d="M183.984 176.136L183.987 188.413" stroke="white" stroke-opacity="0.2" stroke-width="0.2" stroke-linecap="round"/>
</g>
<g id="Number-46">
<g id="circleBackground_35">
<circle cx="200.487" cy="182.371" r="9.69184" fill="#00A3FF" style="mix-blend-mode:hard-light"/>
</g>
<text id="text-_42" fill="white" xml:space="preserve" style="white-space: pre" font-family="Roboto" font-size="12" letter-spacing="0em"><tspan x="193.749" y="186.445">00</tspan></text>
</g>
</g>
<path id="borderBottom_6" d="M36.0592 195.413L201.059 195.369" stroke="white" stroke-opacity="0.2" stroke-width="0.2" stroke-linecap="round" stroke-linejoin="round"/>
</g>
<g id="Row_7">
<g id="numbers_7">
<g id="Number-50">
<g id="circleBackground_36">
<circle cx="32.4874" cy="208.371" r="9.69184" fill="#00A3FF" style="mix-blend-mode:hard-light"/>
</g>
<text id="text-_43" fill="white" xml:space="preserve" style="white-space: pre" font-family="Roboto" font-size="12" letter-spacing="0em"><tspan x="25.7491" y="212.445">00</tspan></text>
<path id="rightBorder_37" d="M43.9838 202.136L43.9874 214.413" stroke="white" stroke-opacity="0.2" stroke-width="0.2" stroke-linecap="round"/>
</g>
<g id="Number-51">
<g id="circleBackground_37">
<circle cx="60.4874" cy="208.371" r="9.69184" fill="#00A3FF" style="mix-blend-mode:hard-light"/>
</g>
<text id="text-_44" fill="white" xml:space="preserve" style="white-space: pre" font-family="Roboto" font-size="12" letter-spacing="0em"><tspan x="53.7491" y="212.445">00</tspan></text>
<path id="rightBorder_38" d="M71.9838 202.136L71.9874 214.413" stroke="white" stroke-opacity="0.2" stroke-width="0.2" stroke-linecap="round"/>
</g>
<g id="Number-52">
<g id="circleBackground_38">
<circle cx="88.4874" cy="208.371" r="9.69184" fill="#00A3FF" style="mix-blend-mode:hard-light"/>
</g>
<text id="text-_45" fill="white" xml:space="preserve" style="white-space: pre" font-family="Roboto" font-size="12" letter-spacing="0em"><tspan x="81.7491" y="212.445">00</tspan></text>
<path id="rightBorder_39" d="M99.9838 202.136L99.9874 214.413" stroke="white" stroke-opacity="0.2" stroke-width="0.2" stroke-linecap="round"/>
</g>
<g id="Number-53">
<g id="circleBackground_39">
<circle cx="116.487" cy="208.371" r="9.69184" fill="#00A3FF" style="mix-blend-mode:hard-light"/>
</g>
<text id="text-_46" fill="white" xml:space="preserve" style="white-space: pre" font-family="Roboto" font-size="12" letter-spacing="0em"><tspan x="109.749" y="212.445">00</tspan></text>
<path id="rightBorder_40" d="M127.984 202.136L127.987 214.413" stroke="white" stroke-opacity="0.2" stroke-width="0.2" stroke-linecap="round"/>
</g>
<g id="Number-54">
<g id="circleBackground_40">
<circle cx="144.487" cy="208.371" r="9.69184" fill="#00A3FF" style="mix-blend-mode:hard-light"/>
</g>
<text id="text-_47" fill="white" xml:space="preserve" style="white-space: pre" font-family="Roboto" font-size="12" letter-spacing="0em"><tspan x="137.749" y="212.445">00</tspan></text>
<path id="rightBorder_41" d="M155.984 202.136L155.987 214.413" stroke="white" stroke-opacity="0.2" stroke-width="0.2" stroke-linecap="round"/>
</g>
<g id="Number-55">
<g id="circleBackground_41">
<circle cx="172.487" cy="208.371" r="9.69184" fill="#00A3FF" style="mix-blend-mode:hard-light"/>
</g>
<text id="text-_48" fill="white" xml:space="preserve" style="white-space: pre" font-family="Roboto" font-size="12" letter-spacing="0em"><tspan x="165.749" y="212.445">00</tspan></text>
<path id="rightBorder_42" d="M183.984 202.136L183.987 214.413" stroke="white" stroke-opacity="0.2" stroke-width="0.2" stroke-linecap="round"/>
</g>
<g id="Number-56">
<g id="circleBackground_42">
<circle cx="200.487" cy="208.371" r="9.69184" fill="#00A3FF" style="mix-blend-mode:hard-light"/>
</g>
<text id="text-_49" fill="white" xml:space="preserve" style="white-space: pre" font-family="Roboto" font-size="12" letter-spacing="0em"><tspan x="193.749" y="212.445">00</tspan></text>
</g>
</g>
</g>
</g>
</g>
</g>
<g id="yearAndDrooDown">
<rect id="yearBackground" x="162.842" y="11.5438" width="52.757" height="20" rx="7" fill="#292929"/>
<g id="yearGlowBackground">
<rect x="162.842" y="11.4438" width="52.757" height="20" rx="7" fill="#00A3FF" style="mix-blend-mode:hard-light"/>
</g>
<text id="yearText" fill="white" xml:space="preserve" style="white-space: pre" font-family="Roboto" font-size="12" letter-spacing="0em"><tspan x="171.383" y="25.2898">Year</tspan></text>
<path id="yearDropDownCarret" d="M209.245 19.6593L205.763 23.2283L202.313 19.7012" stroke="white" stroke-linecap="round" stroke-linejoin="round"/>
<g id="yearDropDown">
<rect id="background" x="162.146" y="11.4203" width="54" height="83.4215" rx="7" fill="#242424"/>
<g id="years">
<g clip-path="url(#clip1)">
<g id="yearSelection">
<g clip-path="url(#clip2)">
<text id="2005" fill="white" xml:space="preserve" style="white-space: pre" font-family="Roboto" font-size="12" letter-spacing="0em"><tspan x="175.67" y="25.1541">2005</tspan></text>
<text id="2006" fill="white" xml:space="preserve" style="white-space: pre" font-family="Roboto" font-size="12" letter-spacing="0em"><tspan x="175.67" y="40.0756">2006</tspan></text>
<text id="2007" fill="white" xml:space="preserve" style="white-space: pre" font-family="Roboto" font-size="12" letter-spacing="0em"><tspan x="175.67" y="54.997">2007</tspan></text>
<text id="2008" fill="white" xml:space="preserve" style="white-space: pre" font-family="Roboto" font-size="12" letter-spacing="0em"><tspan x="175.67" y="69.9185">2008</tspan></text>
<text id="2009" fill="white" xml:space="preserve" style="white-space: pre" font-family="Roboto" font-size="12" letter-spacing="0em"><tspan x="175.67" y="84.84">2009</tspan></text>
<text id="2010" fill="white" xml:space="preserve" style="white-space: pre" font-family="Roboto" font-size="12" letter-spacing="0em"><tspan x="175.67" y="99.7614">2010</tspan></text>
</g>
</g>
</g>
</g>
</g>
</g>
<g id="monthSelection">
<rect id="monthBackground" x="15.6737" y="11.8868" width="136.016" height="20" rx="7" fill="#292929"/>
<text id="monthText" fill="white" xml:space="preserve" style="white-space: pre" font-family="Roboto" font-size="12" letter-spacing="0em"><tspan x="71.6527" y="25.2355">Mon</tspan></text>
<g id="monthButtonRight">
<g id="arrowBackgroundRight">
<rect x="120.779" y="11.8924" width="30.7944" height="20" rx="7" fill="#00A3FF" style="mix-blend-mode:hard-light"/>
</g>
<path id="monthRightArrow" d="M146.107 22.246C146.302 22.0507 146.302 21.7341 146.107 21.5389L142.925 18.3569C142.73 18.1616 142.413 18.1616 142.218 18.3569C142.023 18.5522 142.023 18.8688 142.218 19.064L145.047 21.8924L142.218 24.7209C142.023 24.9161 142.023 25.2327 142.218 25.428C142.413 25.6232 142.73 25.6232 142.925 25.428L146.107 22.246ZM131.449 22.3924H145.754V21.3924H131.449V22.3924Z" fill="white"/>
</g>
<g id="monthButtonLeft">
<g id="arrowBackgroundLeft">
<rect x="15.6737" y="11.8868" width="30.7944" height="20" rx="7" fill="#00A3FF" style="mix-blend-mode:hard-light"/>
</g>
<path id="monthLeftArrow" d="M21.2548 21.5001C21.0595 21.6954 21.0595 22.012 21.2548 22.2072L24.4368 25.3892C24.632 25.5845 24.9486 25.5845 25.1439 25.3892C25.3391 25.1939 25.3391 24.8774 25.1439 24.6821L22.3154 21.8537L25.1439 19.0252C25.3391 18.83 25.3391 18.5134 25.1439 18.3181C24.9486 18.1229 24.632 18.1229 24.4368 18.3181L21.2548 21.5001ZM35.9131 21.3537L21.6083 21.3537V22.3537L35.9131 22.3537V21.3537Z" fill="white"/>
</g>
</g>
</g>
</g>
<defs>
<filter id="filter0_d" x="0.102486" y="0" width="232.142" height="241" filterUnits="userSpaceOnUse" color-interpolation-filters="sRGB">
<feFlood flood-opacity="0" result="BackgroundImageFix"/>
<feColorMatrix in="SourceAlpha" type="matrix" values="0 0 0 0 0 0 0 0 0 0 0 0 0 0 0 0 0 0 127 0"/>
<feOffset dy="4"/>
<feGaussianBlur stdDeviation="2"/>
<feColorMatrix type="matrix" values="0 0 0 0 0 0 0 0 0 0 0 0 0 0 0 0 0 0 0.25 0"/>
<feBlend mode="normal" in2="BackgroundImageFix" result="effect1_dropShadow"/>
<feBlend mode="normal" in="SourceGraphic" in2="effect1_dropShadow" result="shape"/>
</filter>
<linearGradient id="paint0_linear" x1="12.3354" y1="4.67475" x2="223.336" y2="132.09" gradientUnits="userSpaceOnUse">
<stop stop-color="#00193F"/>
<stop offset="1" stop-color="#0065FF" stop-opacity="0.81"/>
</linearGradient>
<linearGradient id="paint1_linear" x1="198.733" y1="42.6879" x2="12.4867" y2="179.913" gradientUnits="userSpaceOnUse">
<stop stop-color="#284FD9"/>
<stop offset="1" stop-color="#5F6B98"/>
</linearGradient>
<clipPath id="clip0">
<path d="M15.6737 41.4132H216.674V222.413H15.6737V41.4132Z" fill="white"/>
</clipPath>
<clipPath id="clip1">
<rect x="166.146" y="11.1311" width="46" height="84" fill="white"/>
</clipPath>
<clipPath id="clip2">
<rect x="162.768" y="-0.86895" width="52.757" height="130.293" fill="white"/>
</clipPath>
</defs>
</svg>
