<svg width="783" height="780" viewBox="0 0 783 780" fill="none" xmlns="http://www.w3.org/2000/svg">
<g id="Frame 6">
<mask id="mask0" mask-type="alpha" maskUnits="userSpaceOnUse" x="-85" y="206" width="506" height="639">
<g id="Vector 3">
<path d="M384.292 744.057C384.292 744.057 353.847 747.155 334.304 746.688C315.19 746.232 304.426 745.112 285.585 741.867C270.695 739.302 262.352 737.521 247.891 733.144C234.042 728.953 226.489 725.862 213.183 720.178C202.956 715.809 197.196 713.349 187.409 708.067C176.736 702.308 171.1 698.44 161.024 691.692C152.312 685.857 147.4 682.59 139.172 676.091C127.432 666.817 121.228 661.073 110.824 650.322C99.2957 638.411 93.3367 631.178 83.5395 617.807C76.1059 607.662 72.3673 601.653 65.8242 590.913C58.39 578.709 54.1694 571.842 48.0566 558.926C42.5688 547.331 38.6956 538.677 35.7591 528.466C32.8226 518.255 29.5557 508.637 26.7414 495.646C23.6062 481.175 22.4909 472.9 20.9894 458.169C19.4137 442.71 18.6122 433.957 19.0663 418.424C19.5016 403.533 21.0621 391.531 23.0106 380.481C24.9591 369.432 26.1019 359.363 29.5257 346.155C32.4728 334.786 38.7143 317.52 38.7143 317.52L49.1085 291.559C49.1085 291.559 42.9201 288.877 38.9943 287.071C27.8333 281.936 10.9417 272.833 10.9417 272.833L134.951 219.78L166.73 351.16L126.254 330.616C126.254 330.616 120.167 341.335 116.79 348.466C112.222 358.111 110.206 363.78 106.623 373.832C103.819 381.698 102.365 386.156 100.06 394.182C96.4066 406.897 94.2739 414.083 92.3805 427.177C90.9508 437.063 90.8121 442.697 90.3508 452.676C89.8337 463.86 89.5712 470.161 90.0942 481.346C90.5422 490.924 90.8708 496.707 92.4092 505.791C93.9476 514.875 94.8101 519.968 96.3484 529.052C97.8868 538.136 99.3571 542.293 102.032 550.852C105.201 560.994 107.425 567.048 111.547 576.841C115.539 586.325 118.251 591.453 123.235 600.455C128.305 609.611 131.457 614.585 137.302 623.266C145.056 634.782 149.481 641.273 158.693 651.658C167.034 661.062 172.317 665.808 181.736 674.131C191.528 682.783 197.171 687.529 207.907 694.976C213.707 698.999 217.036 701.157 223.116 704.741C228.693 708.028 231.939 709.667 237.682 712.652C245.876 716.912 250.423 719.442 258.941 723.013C265.662 725.83 269.535 727.173 276.457 729.453C281.831 731.224 284.886 732.094 290.334 733.621C295.676 735.119 298.671 735.977 304.08 737.208C310.388 738.643 319.928 739.986 320.357 740.286C320.785 740.586 330.599 742.068 337.217 742.773C341.913 743.273 344.559 743.425 349.273 743.709C362.925 744.531 384.292 744.057 384.292 744.057Z" fill="#C4C4C4"/>
<path d="M134.951 219.78L10.9417 272.833C10.9417 272.833 27.8333 281.936 38.9943 287.071C42.9201 288.877 49.1085 291.559 49.1085 291.559L38.7143 317.52C38.7143 317.52 32.4728 334.786 29.5257 346.155C26.1019 359.363 24.9591 369.432 23.0106 380.481C21.0621 391.531 19.5016 403.533 19.0663 418.424C18.6122 433.957 19.4137 442.71 20.9894 458.169C22.4909 472.9 23.6062 481.175 26.7414 495.646C29.5557 508.637 32.8226 518.255 35.7591 528.466C38.6956 538.677 42.5688 547.331 48.0566 558.926C54.1694 571.842 58.39 578.709 65.8242 590.913C72.3673 601.653 76.1059 607.662 83.5395 617.807C93.3367 631.178 99.2957 638.411 110.824 650.322C121.228 661.073 127.432 666.817 139.172 676.091C147.4 682.59 152.312 685.857 161.024 691.692C171.1 698.44 176.736 702.308 187.409 708.067C197.196 713.349 202.956 715.809 213.183 720.178C226.489 725.862 234.042 728.953 247.891 733.144C262.352 737.521 270.695 739.302 285.585 741.867C304.426 745.112 315.19 746.232 334.304 746.688C353.847 747.155 384.292 744.057 384.292 744.057C384.292 744.057 362.925 744.531 349.273 743.709C344.559 743.425 341.913 743.273 337.217 742.773C330.599 742.068 320.785 740.586 320.357 740.286C319.928 739.986 310.388 738.643 304.08 737.208C298.671 735.977 295.676 735.119 290.334 733.621C284.886 732.094 281.831 731.224 276.457 729.453C269.535 727.173 265.662 725.83 258.941 723.013C250.423 719.442 245.876 716.912 237.682 712.652C231.939 709.667 228.693 708.028 223.116 704.741C217.036 701.157 213.707 698.999 207.907 694.976C197.171 687.529 191.528 682.783 181.736 674.131C172.317 665.808 167.034 661.062 158.693 651.658C149.481 641.273 145.056 634.782 137.302 623.266C131.457 614.585 128.305 609.611 123.235 600.455C118.251 591.453 115.539 586.325 111.547 576.841C107.425 567.048 105.201 560.994 102.032 550.852C99.3571 542.293 97.8868 538.136 96.3484 529.052C94.8101 519.968 93.9476 514.875 92.4092 505.791C90.8708 496.707 90.5422 490.924 90.0942 481.346C89.5712 470.161 89.8337 463.86 90.3508 452.676C90.8121 442.697 90.9508 437.063 92.3805 427.177C94.2739 414.083 96.4066 406.897 100.06 394.182C102.365 386.156 103.819 381.698 106.623 373.832C110.206 363.78 112.222 358.111 116.79 348.466C120.167 341.335 126.254 330.616 126.254 330.616L166.73 351.16M134.951 219.78C145.544 263.573 166.73 351.16 166.73 351.16M134.951 219.78L166.73 351.16" stroke="black"/>
</g>
</mask>
<g mask="url(#mask0)">
<path id="Vector" d="M0.369141 210.867L0.369141 754.818H371.767L371.767 210.867H0.369141Z" fill="url(#paint0_linear)"/>
</g>
<mask id="mask1" mask-type="alpha" maskUnits="userSpaceOnUse" x="372" y="189" width="513" height="637">
<g id="Vector 2">
<path d="M709.742 210.192C709.742 210.192 727.658 235.002 737.033 252.156C746.202 268.933 750.619 278.813 757.236 296.75C762.467 310.925 765.099 319.039 768.546 333.75C771.846 347.838 772.95 355.924 774.686 370.288C776.021 381.329 776.773 387.547 777.098 398.664C777.452 410.786 776.923 417.601 776.122 429.702C775.43 440.164 775.059 446.051 773.549 456.427C771.394 471.233 769.525 479.478 765.423 493.866C760.879 509.807 757.598 518.585 750.924 533.759C745.86 545.271 742.528 551.515 736.503 562.554C729.657 575.097 725.823 582.188 717.699 593.943C710.406 604.496 704.851 612.18 697.48 619.831C690.109 627.483 683.416 635.125 673.576 644.061C662.616 654.017 656.009 659.123 644.007 667.794C631.41 676.894 624.233 681.968 610.557 689.347C597.447 696.421 586.275 701.076 575.733 704.918C565.191 708.76 555.902 712.808 542.753 716.453C531.435 719.59 513.362 722.826 513.362 722.826L485.684 726.817C485.684 726.817 486.458 733.517 486.859 737.819C487.998 750.052 488.569 769.232 488.569 769.232L380.584 688.41L478.432 595.156L480.898 640.48C480.898 640.48 493.225 640.386 501.089 639.742C511.725 638.872 517.642 637.781 528.138 635.853C536.351 634.344 540.939 633.372 549.041 631.353C561.878 628.153 569.167 626.404 581.451 621.491C590.726 617.782 595.673 615.083 604.543 610.489C614.486 605.341 620.073 602.415 629.495 596.366C637.564 591.185 642.406 588.007 649.501 582.129C656.597 576.252 660.574 572.957 667.67 567.08C674.765 561.202 677.629 557.849 683.7 551.251C690.896 543.432 695.024 538.477 701.441 530.008C707.654 521.806 710.738 516.892 716.037 508.073C721.428 499.102 724.157 493.884 728.749 484.479C734.839 472.004 738.245 464.924 742.627 451.752C746.595 439.825 748.061 432.876 750.554 420.556C753.145 407.749 754.43 400.488 755.506 387.466C756.088 380.432 756.29 376.47 756.351 369.412C756.406 362.939 756.201 359.309 755.912 352.842C755.5 343.616 755.415 338.413 754.244 329.252C753.321 322.023 752.545 317.998 751.056 310.864C749.9 305.325 749.125 302.245 747.721 296.764C746.344 291.389 745.589 288.367 743.948 283.067C742.034 276.888 738.423 267.956 738.469 267.435C738.514 266.914 734.887 257.676 732.185 251.593C730.269 247.277 729.076 244.909 726.963 240.686C720.844 228.455 709.742 210.192 709.742 210.192Z" fill="#C4C4C4"/>
<path d="M380.584 688.41L488.569 769.232C488.569 769.232 487.998 750.052 486.859 737.819C486.458 733.517 485.684 726.817 485.684 726.817L513.362 722.826C513.362 722.826 531.435 719.59 542.753 716.453C555.902 712.808 565.191 708.76 575.733 704.918C586.275 701.076 597.447 696.421 610.557 689.347C624.233 681.968 631.41 676.894 644.007 667.794C656.009 659.123 662.616 654.017 673.576 644.061C683.416 635.125 690.109 627.483 697.48 619.831C704.851 612.18 710.406 604.496 717.699 593.943C725.823 582.188 729.657 575.097 736.503 562.554C742.528 551.515 745.86 545.271 750.924 533.759C757.598 518.585 760.879 509.807 765.423 493.866C769.525 479.478 771.394 471.233 773.549 456.427C775.059 446.051 775.43 440.164 776.122 429.702C776.923 417.601 777.452 410.786 777.098 398.664C776.773 387.547 776.021 381.329 774.686 370.288C772.95 355.924 771.846 347.838 768.546 333.75C765.099 319.039 762.467 310.925 757.236 296.75C750.619 278.813 746.202 268.933 737.033 252.156C727.658 235.002 709.742 210.192 709.742 210.192C709.742 210.192 720.844 228.455 726.963 240.686C729.076 244.909 730.269 247.277 732.185 251.593C734.887 257.676 738.514 266.914 738.469 267.435C738.423 267.956 742.034 276.888 743.948 283.067C745.589 288.367 746.344 291.389 747.721 296.764C749.125 302.245 749.9 305.325 751.056 310.864C752.545 317.998 753.321 322.023 754.244 329.252C755.415 338.413 755.5 343.616 755.912 352.842C756.201 359.309 756.406 362.939 756.351 369.412C756.29 376.47 756.088 380.432 755.506 387.466C754.43 400.488 753.145 407.749 750.554 420.556C748.061 432.876 746.595 439.825 742.627 451.752C738.245 464.924 734.839 472.004 728.749 484.479C724.157 493.884 721.428 499.102 716.037 508.073C710.738 516.892 707.654 521.806 701.441 530.008C695.024 538.477 690.896 543.432 683.7 551.251C677.629 557.849 674.765 561.202 667.67 567.08C660.574 572.957 656.597 576.252 649.501 582.129C642.406 588.007 637.564 591.185 629.495 596.366C620.073 602.415 614.486 605.341 604.543 610.489C595.673 615.083 590.726 617.782 581.451 621.491C569.167 626.404 561.878 628.153 549.041 631.353C540.939 633.372 536.351 634.344 528.138 635.853C517.642 637.781 511.725 638.872 501.089 639.742C493.225 640.386 480.898 640.48 480.898 640.48L478.432 595.156M380.584 688.41C413.2 657.325 478.432 595.156 478.432 595.156M380.584 688.41L478.432 595.156" stroke="black"/>
</g>
</mask>
<g mask="url(#mask1)">
<path id="Vector_2" d="M378.641 212.561L378.641 779.536H780.732V212.561H378.641Z" fill="url(#paint1_linear)"/>
</g>
<mask id="mask2" mask-type="alpha" maskUnits="userSpaceOnUse" x="89" y="4" width="596" height="245">
<g id="Vector 1">
<path d="M90.1748 207.836C90.1748 207.836 102.422 179.791 112.422 162.994C122.202 146.566 128.462 137.738 140.539 122.916C150.083 111.203 155.73 104.809 166.643 94.3586C177.093 84.3508 183.493 79.2879 194.977 70.4861C203.804 63.7209 208.775 59.9102 218.18 53.9761C228.437 47.5051 234.574 44.4939 245.4 39.0279C254.759 34.302 260.017 31.6274 269.718 27.6494C283.561 21.9734 291.611 19.3888 306.085 15.6016C322.121 11.4055 331.348 9.7646 347.806 7.79284C360.294 6.2968 367.364 5.98958 379.934 5.56176C394.215 5.07568 402.27 4.77003 416.523 5.78487C429.319 6.69593 438.76 7.56973 449.097 10.0239C459.434 12.4781 469.418 14.3536 482.117 18.2789C496.264 22.6516 504.02 25.7421 517.591 31.6654C531.833 37.8817 539.852 41.4802 553.162 49.5011C565.921 57.1903 575.612 64.4416 584.282 71.5635C592.952 78.6854 601.163 84.6237 610.989 94.0904C619.447 102.239 631.426 116.153 631.426 116.153L648.94 137.953C648.94 137.953 654.315 133.878 657.816 131.344C667.768 124.141 683.991 113.894 683.991 113.894L669.335 247.977L539.275 211.168L577.042 185.99C577.042 185.99 570.691 175.425 566.137 168.982C559.977 160.267 556.028 155.728 549.029 147.672C543.553 141.368 540.382 137.912 534.522 131.964C525.237 122.539 520.024 117.154 509.546 109.076C501.634 102.978 496.795 100.091 488.327 94.7908C478.837 88.8496 473.477 85.5279 463.476 80.493C454.91 76.181 449.711 73.6285 441.042 70.5094C432.373 67.3903 427.512 65.6416 418.843 62.5225C410.174 59.4034 405.83 58.6435 397.061 56.7721C386.669 54.5544 380.303 53.5203 369.747 52.304C359.525 51.1262 353.726 50.971 343.437 50.8945C332.971 50.8168 327.091 51.1208 316.658 51.9516C302.819 53.0537 294.992 53.7224 281.421 56.6498C269.134 59.3005 262.406 61.5734 250.531 65.6938C238.187 69.9769 231.282 72.564 219.523 78.2614C213.171 81.3392 209.657 83.1798 203.549 86.7181C197.948 89.963 194.927 91.9861 189.507 95.5241C181.773 100.572 177.336 103.292 170.045 108.959C164.29 113.432 161.22 116.147 155.835 121.058C151.654 124.871 149.397 127.105 145.391 131.102C141.464 135.021 139.246 137.208 135.518 141.317C131.172 146.108 125.318 153.76 124.847 153.986C124.375 154.212 118.266 162.034 114.403 167.454C111.662 171.3 110.231 173.531 107.669 177.498C100.251 188.988 90.1748 207.836 90.1748 207.836Z" fill="#C4C4C4"/>
<path d="M669.335 247.977L683.991 113.894C683.991 113.894 667.768 124.141 657.816 131.344C654.315 133.878 648.94 137.953 648.94 137.953L631.426 116.153C631.426 116.153 619.447 102.239 610.989 94.0904C601.163 84.6237 592.952 78.6854 584.282 71.5635C575.612 64.4416 565.921 57.1903 553.162 49.5011C539.852 41.4802 531.833 37.8817 517.591 31.6654C504.02 25.7421 496.264 22.6516 482.117 18.2789C469.418 14.3536 459.434 12.4781 449.097 10.0239C438.76 7.56973 429.319 6.69593 416.523 5.78487C402.27 4.77003 394.215 5.07568 379.934 5.56176C367.364 5.98958 360.294 6.2968 347.806 7.79284C331.348 9.7646 322.121 11.4055 306.085 15.6016C291.611 19.3888 283.561 21.9734 269.718 27.6494C260.017 31.6274 254.759 34.302 245.4 39.0279C234.574 44.4939 228.437 47.5051 218.18 53.9761C208.775 59.9102 203.804 63.7209 194.977 70.4861C183.493 79.2879 177.093 84.3508 166.643 94.3586C155.73 104.809 150.083 111.203 140.539 122.916C128.462 137.738 122.202 146.566 112.422 162.994C102.422 179.791 90.1748 207.836 90.1748 207.836C90.1748 207.836 100.251 188.988 107.669 177.498C110.231 173.531 111.662 171.3 114.403 167.454C118.266 162.034 124.375 154.212 124.847 153.986C125.318 153.76 131.172 146.108 135.518 141.317C139.246 137.208 141.464 135.021 145.391 131.102C149.397 127.105 151.654 124.871 155.835 121.058C161.22 116.147 164.29 113.432 170.045 108.959C177.336 103.292 181.773 100.572 189.507 95.5241C194.927 91.9861 197.948 89.963 203.549 86.7181C209.657 83.1798 213.171 81.3392 219.523 78.2614C231.282 72.564 238.187 69.9769 250.531 65.6938C262.406 61.5734 269.134 59.3005 281.421 56.6498C294.992 53.7224 302.819 53.0537 316.658 51.9516C327.091 51.1208 332.971 50.8168 343.437 50.8945C353.726 50.971 359.525 51.1262 369.747 52.304C380.303 53.5203 386.669 54.5544 397.061 56.7721C405.83 58.6435 410.174 59.4034 418.843 62.5225C427.512 65.6416 432.373 67.3903 441.042 70.5094C449.711 73.6285 454.91 76.181 463.476 80.493C473.477 85.5279 478.837 88.8496 488.327 94.7908C496.795 100.091 501.634 102.978 509.546 109.076C520.024 117.154 525.237 122.539 534.522 131.964C540.382 137.912 543.553 141.368 549.029 147.672C556.028 155.728 559.977 160.267 566.137 168.982C570.691 175.425 577.042 185.99 577.042 185.99L539.275 211.168M669.335 247.977C625.981 235.707 539.275 211.168 539.275 211.168M669.335 247.977L539.275 211.168" stroke="black"/>
</g>
</mask>
<g mask="url(#mask2)">
<g id="Vector_3" style="mix-blend-mode:multiply">
<path d="M637.303 4.11996H145.146C120.301 4.11996 100.161 11.2153 100.161 19.9679V245.353C100.161 254.106 120.301 261.201 145.146 261.201H637.303C662.147 261.201 682.288 254.106 682.288 245.353V19.9679C682.288 11.2153 662.147 4.11996 637.303 4.11996Z" fill="url(#paint2_linear)"/>
</g>
</g>
</g>
<defs>
<linearGradient id="paint0_linear" x1="-97.3691" y1="685.08" x2="285.108" y2="149.035" gradientUnits="userSpaceOnUse">
<stop stop-color="#FF87AB"/>
<stop offset="0.08" stop-color="#FF75A7"/>
<stop offset="0.37" stop-color="#FF3997"/>
<stop offset="0.5" stop-color="#FF2191"/>
<stop offset="0.57" stop-color="#F02296"/>
<stop offset="0.69" stop-color="#CA23A2"/>
<stop offset="0.86" stop-color="#8D26B6"/>
<stop offset="1" stop-color="#5528C8"/>
</linearGradient>
<linearGradient id="paint1_linear" x1="272.826" y1="706.847" x2="666.351" y2="133.987" gradientUnits="userSpaceOnUse">
<stop stop-color="#FF87AB"/>
<stop offset="0.08" stop-color="#FF75A7"/>
<stop offset="0.37" stop-color="#FF3997"/>
<stop offset="0.5" stop-color="#FF2191"/>
<stop offset="0.57" stop-color="#F02296"/>
<stop offset="0.69" stop-color="#CA23A2"/>
<stop offset="0.86" stop-color="#8D26B6"/>
<stop offset="1" stop-color="#5528C8"/>
</linearGradient>
<linearGradient id="paint2_linear" x1="47.4912" y1="31.8312" x2="222.612" y2="445.78" gradientUnits="userSpaceOnUse">
<stop stop-color="#9E43B8"/>
<stop offset="1" stop-color="#625CD9"/>
</linearGradient>
</defs>
</svg>
