<svg width="529" height="254" viewBox="0 0 529 254" fill="none" xmlns="http://www.w3.org/2000/svg">
<rect width="529" height="254" fill="#E5E5E5"/>
<g id="Git">
<g id="IconBox">
<g id="Holders">
<g id="circle">
<circle id="thin" cx="268.405" cy="128.333" r="123.5" stroke="#DE4C36" stroke-width="3" stroke-linecap="round" stroke-linejoin="round" stroke-dasharray="1 1"/>
</g>
</g>
</g>
<g id="Git_2">
<path id="Vector" d="M334.095 121.208L271.095 58.2119C267.469 54.5837 261.584 54.5837 257.954 58.2119L244.872 71.2941L261.467 87.8895C265.323 86.5864 269.746 87.4606 272.82 90.5347C275.909 93.6286 276.777 98.0887 275.442 101.958L291.436 117.952C295.305 116.619 299.77 117.481 302.86 120.577C307.179 124.894 307.179 131.892 302.86 136.212C298.54 140.533 291.542 140.533 287.219 136.212C283.971 132.96 283.168 128.189 284.813 124.186L269.897 109.271L269.896 148.522C270.977 149.056 271.965 149.762 272.82 150.613C277.139 154.93 277.139 161.928 272.82 166.252C268.5 170.571 261.499 170.571 257.184 166.252C252.865 161.928 252.865 154.931 257.184 150.613C258.219 149.578 259.45 148.758 260.804 148.2V108.584C259.448 108.03 258.217 107.21 257.184 106.171C253.912 102.903 253.125 98.1011 254.802 94.0829L238.443 77.7219L195.245 120.917C191.615 124.549 191.615 130.434 195.245 134.062L258.246 197.06C261.873 200.689 267.756 200.689 271.388 197.06L334.094 134.355C337.723 130.725 337.723 124.837 334.094 121.208" fill="#DE4C36"/>
</g>
</g>
</svg>
