<svg width="52" height="52" viewBox="0 0 52 52" fill="none" xmlns="http://www.w3.org/2000/svg">
<rect width="52" height="52" fill="#E5E5E5"/>
<g id="Group 1">
<g id="block">
<rect x="1" y="1" width="5" height="5" fill="#828282"/>
<rect x="1" y="1" width="5" height="5" stroke="#0C0A0A" stroke-width="0.5"/>
</g>
<g id="block_2">
<rect x="21" y="1" width="5" height="5" fill="#828282"/>
<rect x="21" y="1" width="5" height="5" stroke="#0C0A0A" stroke-width="0.5"/>
</g>
<g id="block_3">
<rect x="16" y="1" width="5" height="5" fill="#828282"/>
<rect x="16" y="1" width="5" height="5" stroke="#0C0A0A" stroke-width="0.5"/>
</g>
<g id="block_4">
<rect x="11" y="1" width="5" height="5" fill="#828282"/>
<rect x="11" y="1" width="5" height="5" stroke="#0C0A0A" stroke-width="0.5"/>
</g>
<g id="block_5">
<rect x="6" y="1" width="5" height="5" fill="#828282"/>
<rect x="6" y="1" width="5" height="5" stroke="#0C0A0A" stroke-width="0.5"/>
</g>
<g id="block_6">
<rect x="26" y="1" width="5" height="5" fill="#828282"/>
<rect x="26" y="1" width="5" height="5" stroke="#0C0A0A" stroke-width="0.5"/>
</g>
<g id="block_7">
<rect x="46" y="1" width="5" height="5" fill="#828282"/>
<rect x="46" y="1" width="5" height="5" stroke="#0C0A0A" stroke-width="0.5"/>
</g>
<g id="block_8">
<rect x="41" y="1" width="5" height="5" fill="#828282"/>
<rect x="41" y="1" width="5" height="5" stroke="#0C0A0A" stroke-width="0.5"/>
</g>
<g id="block_9">
<rect x="36" y="1" width="5" height="5" fill="#828282"/>
<rect x="36" y="1" width="5" height="5" stroke="#0C0A0A" stroke-width="0.5"/>
</g>
<g id="block_10">
<rect x="31" y="1" width="5" height="5" fill="#828282"/>
<rect x="31" y="1" width="5" height="5" stroke="#0C0A0A" stroke-width="0.5"/>
</g>
<g id="block_11">
<rect x="1" y="6" width="5" height="5" fill="#828282"/>
<rect x="1" y="6" width="5" height="5" stroke="#0C0A0A" stroke-width="0.5"/>
</g>
<g id="block_12">
<rect x="21" y="6" width="5" height="5" fill="#828282"/>
<rect x="21" y="6" width="5" height="5" stroke="#0C0A0A" stroke-width="0.5"/>
</g>
<g id="block_13">
<rect x="16" y="6" width="5" height="5" fill="#828282"/>
<rect x="16" y="6" width="5" height="5" stroke="#0C0A0A" stroke-width="0.5"/>
</g>
<g id="block_14">
<rect x="11" y="6" width="5" height="5" fill="#828282"/>
<rect x="11" y="6" width="5" height="5" stroke="#0C0A0A" stroke-width="0.5"/>
</g>
<g id="block_15">
<rect x="6" y="6" width="5" height="5" fill="#828282"/>
<rect x="6" y="6" width="5" height="5" stroke="#0C0A0A" stroke-width="0.5"/>
</g>
<g id="block_16">
<rect x="26" y="6" width="5" height="5" fill="#828282"/>
<rect x="26" y="6" width="5" height="5" stroke="#0C0A0A" stroke-width="0.5"/>
</g>
<g id="block_17">
<rect x="46" y="6" width="5" height="5" fill="#828282"/>
<rect x="46" y="6" width="5" height="5" stroke="#0C0A0A" stroke-width="0.5"/>
</g>
<g id="block_18">
<rect x="41" y="6" width="5" height="5" fill="#828282"/>
<rect x="41" y="6" width="5" height="5" stroke="#0C0A0A" stroke-width="0.5"/>
</g>
<g id="block_19">
<rect x="36" y="6" width="5" height="5" fill="#828282"/>
<rect x="36" y="6" width="5" height="5" stroke="#0C0A0A" stroke-width="0.5"/>
</g>
<g id="block_20">
<rect x="31" y="6" width="5" height="5" fill="#828282"/>
<rect x="31" y="6" width="5" height="5" stroke="#0C0A0A" stroke-width="0.5"/>
</g>
<g id="block_21">
<rect x="1" y="11" width="5" height="5" fill="#828282"/>
<rect x="1" y="11" width="5" height="5" stroke="#0C0A0A" stroke-width="0.5"/>
</g>
<g id="block_22">
<rect x="21" y="11" width="5" height="5" fill="#828282"/>
<rect x="21" y="11" width="5" height="5" stroke="#0C0A0A" stroke-width="0.5"/>
</g>
<g id="block_23">
<rect x="16" y="11" width="5" height="5" fill="#828282"/>
<rect x="16" y="11" width="5" height="5" stroke="#0C0A0A" stroke-width="0.5"/>
</g>
<g id="block_24">
<rect x="11" y="11" width="5" height="5" fill="#828282"/>
<rect x="11" y="11" width="5" height="5" stroke="#0C0A0A" stroke-width="0.5"/>
</g>
<g id="block_25">
<rect x="6" y="11" width="5" height="5" fill="#828282"/>
<rect x="6" y="11" width="5" height="5" stroke="#0C0A0A" stroke-width="0.5"/>
</g>
<g id="block_26">
<rect x="26" y="11" width="5" height="5" fill="#828282"/>
<rect x="26" y="11" width="5" height="5" stroke="#0C0A0A" stroke-width="0.5"/>
</g>
<g id="block_27">
<rect x="46" y="11" width="5" height="5" fill="#828282"/>
<rect x="46" y="11" width="5" height="5" stroke="#0C0A0A" stroke-width="0.5"/>
</g>
<g id="block_28">
<rect x="41" y="11" width="5" height="5" fill="#828282"/>
<rect x="41" y="11" width="5" height="5" stroke="#0C0A0A" stroke-width="0.5"/>
</g>
<g id="block_29">
<rect x="36" y="11" width="5" height="5" fill="#828282"/>
<rect x="36" y="11" width="5" height="5" stroke="#0C0A0A" stroke-width="0.5"/>
</g>
<g id="block_30">
<rect x="31" y="11" width="5" height="5" fill="#828282"/>
<rect x="31" y="11" width="5" height="5" stroke="#0C0A0A" stroke-width="0.5"/>
</g>
<g id="block_31">
<rect x="1" y="16" width="5" height="5" fill="#828282"/>
<rect x="1" y="16" width="5" height="5" stroke="#0C0A0A" stroke-width="0.5"/>
</g>
<g id="block_32">
<rect x="21" y="16" width="5" height="5" fill="#828282"/>
<rect x="21" y="16" width="5" height="5" stroke="#0C0A0A" stroke-width="0.5"/>
</g>
<g id="block_33">
<rect x="16" y="16" width="5" height="5" fill="#828282"/>
<rect x="16" y="16" width="5" height="5" stroke="#0C0A0A" stroke-width="0.5"/>
</g>
<g id="block_34">
<rect x="11" y="16" width="5" height="5" fill="#828282"/>
<rect x="11" y="16" width="5" height="5" stroke="#0C0A0A" stroke-width="0.5"/>
</g>
<g id="block_35">
<rect x="6" y="16" width="5" height="5" fill="#828282"/>
<rect x="6" y="16" width="5" height="5" stroke="#0C0A0A" stroke-width="0.5"/>
</g>
<g id="block_36">
<rect x="26" y="16" width="5" height="5" fill="#828282"/>
<rect x="26" y="16" width="5" height="5" stroke="#0C0A0A" stroke-width="0.5"/>
</g>
<g id="block_37">
<rect x="46" y="16" width="5" height="5" fill="#828282"/>
<rect x="46" y="16" width="5" height="5" stroke="#0C0A0A" stroke-width="0.5"/>
</g>
<g id="block_38">
<rect x="41" y="16" width="5" height="5" fill="#828282"/>
<rect x="41" y="16" width="5" height="5" stroke="#0C0A0A" stroke-width="0.5"/>
</g>
<g id="block_39">
<rect x="36" y="16" width="5" height="5" fill="#828282"/>
<rect x="36" y="16" width="5" height="5" stroke="#0C0A0A" stroke-width="0.5"/>
</g>
<g id="block_40">
<rect x="31" y="16" width="5" height="5" fill="#828282"/>
<rect x="31" y="16" width="5" height="5" stroke="#0C0A0A" stroke-width="0.5"/>
</g>
<g id="block_41">
<rect x="1" y="21" width="5" height="5" fill="#828282"/>
<rect x="1" y="21" width="5" height="5" stroke="#0C0A0A" stroke-width="0.5"/>
</g>
<g id="block_42">
<rect x="21" y="21" width="5" height="5" fill="#828282"/>
<rect x="21" y="21" width="5" height="5" stroke="#0C0A0A" stroke-width="0.5"/>
</g>
<g id="block_43">
<rect x="16" y="21" width="5" height="5" fill="#828282"/>
<rect x="16" y="21" width="5" height="5" stroke="#0C0A0A" stroke-width="0.5"/>
</g>
<g id="block_44">
<rect x="11" y="21" width="5" height="5" fill="#828282"/>
<rect x="11" y="21" width="5" height="5" stroke="#0C0A0A" stroke-width="0.5"/>
</g>
<g id="block_45">
<rect x="6" y="21" width="5" height="5" fill="#828282"/>
<rect x="6" y="21" width="5" height="5" stroke="#0C0A0A" stroke-width="0.5"/>
</g>
<g id="block_46">
<rect x="26" y="21" width="5" height="5" fill="#828282"/>
<rect x="26" y="21" width="5" height="5" stroke="#0C0A0A" stroke-width="0.5"/>
</g>
<g id="block_47">
<rect x="46" y="21" width="5" height="5" fill="#828282"/>
<rect x="46" y="21" width="5" height="5" stroke="#0C0A0A" stroke-width="0.5"/>
</g>
<g id="block_48">
<rect x="41" y="21" width="5" height="5" fill="#828282"/>
<rect x="41" y="21" width="5" height="5" stroke="#0C0A0A" stroke-width="0.5"/>
</g>
<g id="block_49">
<rect x="36" y="21" width="5" height="5" fill="#828282"/>
<rect x="36" y="21" width="5" height="5" stroke="#0C0A0A" stroke-width="0.5"/>
</g>
<g id="block_50">
<rect x="31" y="21" width="5" height="5" fill="#828282"/>
<rect x="31" y="21" width="5" height="5" stroke="#0C0A0A" stroke-width="0.5"/>
</g>
<g id="block_51">
<rect x="1" y="26" width="5" height="5" fill="#828282"/>
<rect x="1" y="26" width="5" height="5" stroke="#0C0A0A" stroke-width="0.5"/>
</g>
<g id="block_52">
<rect x="21" y="26" width="5" height="5" fill="#828282"/>
<rect x="21" y="26" width="5" height="5" stroke="#0C0A0A" stroke-width="0.5"/>
</g>
<g id="block_53">
<rect x="16" y="26" width="5" height="5" fill="#828282"/>
<rect x="16" y="26" width="5" height="5" stroke="#0C0A0A" stroke-width="0.5"/>
</g>
<g id="block_54">
<rect x="11" y="26" width="5" height="5" fill="#828282"/>
<rect x="11" y="26" width="5" height="5" stroke="#0C0A0A" stroke-width="0.5"/>
</g>
<g id="block_55">
<rect x="6" y="26" width="5" height="5" fill="#828282"/>
<rect x="6" y="26" width="5" height="5" stroke="#0C0A0A" stroke-width="0.5"/>
</g>
<g id="block_56">
<rect x="26" y="26" width="5" height="5" fill="#828282"/>
<rect x="26" y="26" width="5" height="5" stroke="#0C0A0A" stroke-width="0.5"/>
</g>
<g id="block_57">
<rect x="46" y="26" width="5" height="5" fill="#828282"/>
<rect x="46" y="26" width="5" height="5" stroke="#0C0A0A" stroke-width="0.5"/>
</g>
<g id="block_58">
<rect x="41" y="26" width="5" height="5" fill="#828282"/>
<rect x="41" y="26" width="5" height="5" stroke="#0C0A0A" stroke-width="0.5"/>
</g>
<g id="block_59">
<rect x="36" y="26" width="5" height="5" fill="#828282"/>
<rect x="36" y="26" width="5" height="5" stroke="#0C0A0A" stroke-width="0.5"/>
</g>
<g id="block_60">
<rect x="31" y="26" width="5" height="5" fill="#828282"/>
<rect x="31" y="26" width="5" height="5" stroke="#0C0A0A" stroke-width="0.5"/>
</g>
<g id="block_61">
<rect x="1" y="31" width="5" height="5" fill="#828282"/>
<rect x="1" y="31" width="5" height="5" stroke="#0C0A0A" stroke-width="0.5"/>
</g>
<g id="block_62">
<rect x="21" y="31" width="5" height="5" fill="#828282"/>
<rect x="21" y="31" width="5" height="5" stroke="#0C0A0A" stroke-width="0.5"/>
</g>
<g id="block_63">
<rect x="16" y="31" width="5" height="5" fill="#828282"/>
<rect x="16" y="31" width="5" height="5" stroke="#0C0A0A" stroke-width="0.5"/>
</g>
<g id="block_64">
<rect x="11" y="31" width="5" height="5" fill="#828282"/>
<rect x="11" y="31" width="5" height="5" stroke="#0C0A0A" stroke-width="0.5"/>
</g>
<g id="block_65">
<rect x="6" y="31" width="5" height="5" fill="#828282"/>
<rect x="6" y="31" width="5" height="5" stroke="#0C0A0A" stroke-width="0.5"/>
</g>
<g id="block_66">
<rect x="26" y="31" width="5" height="5" fill="#828282"/>
<rect x="26" y="31" width="5" height="5" stroke="#0C0A0A" stroke-width="0.5"/>
</g>
<g id="block_67">
<rect x="46" y="31" width="5" height="5" fill="#828282"/>
<rect x="46" y="31" width="5" height="5" stroke="#0C0A0A" stroke-width="0.5"/>
</g>
<g id="block_68">
<rect x="41" y="31" width="5" height="5" fill="#828282"/>
<rect x="41" y="31" width="5" height="5" stroke="#0C0A0A" stroke-width="0.5"/>
</g>
<g id="block_69">
<rect x="36" y="31" width="5" height="5" fill="#828282"/>
<rect x="36" y="31" width="5" height="5" stroke="#0C0A0A" stroke-width="0.5"/>
</g>
<g id="block_70">
<rect x="31" y="31" width="5" height="5" fill="#828282"/>
<rect x="31" y="31" width="5" height="5" stroke="#0C0A0A" stroke-width="0.5"/>
</g>
<g id="block_71">
<rect x="1" y="36" width="5" height="5" fill="#828282"/>
<rect x="1" y="36" width="5" height="5" stroke="#0C0A0A" stroke-width="0.5"/>
</g>
<g id="block_72">
<rect x="21" y="36" width="5" height="5" fill="#828282"/>
<rect x="21" y="36" width="5" height="5" stroke="#0C0A0A" stroke-width="0.5"/>
</g>
<g id="block_73">
<rect x="16" y="36" width="5" height="5" fill="#828282"/>
<rect x="16" y="36" width="5" height="5" stroke="#0C0A0A" stroke-width="0.5"/>
</g>
<g id="block_74">
<rect x="11" y="36" width="5" height="5" fill="#828282"/>
<rect x="11" y="36" width="5" height="5" stroke="#0C0A0A" stroke-width="0.5"/>
</g>
<g id="block_75">
<rect x="6" y="36" width="5" height="5" fill="#828282"/>
<rect x="6" y="36" width="5" height="5" stroke="#0C0A0A" stroke-width="0.5"/>
</g>
<g id="block_76">
<rect x="26" y="36" width="5" height="5" fill="#828282"/>
<rect x="26" y="36" width="5" height="5" stroke="#0C0A0A" stroke-width="0.5"/>
</g>
<g id="block_77">
<rect x="46" y="36" width="5" height="5" fill="#828282"/>
<rect x="46" y="36" width="5" height="5" stroke="#0C0A0A" stroke-width="0.5"/>
</g>
<g id="block_78">
<rect x="41" y="36" width="5" height="5" fill="#828282"/>
<rect x="41" y="36" width="5" height="5" stroke="#0C0A0A" stroke-width="0.5"/>
</g>
<g id="block_79">
<rect x="36" y="36" width="5" height="5" fill="#828282"/>
<rect x="36" y="36" width="5" height="5" stroke="#0C0A0A" stroke-width="0.5"/>
</g>
<g id="block_80">
<rect x="31" y="36" width="5" height="5" fill="#828282"/>
<rect x="31" y="36" width="5" height="5" stroke="#0C0A0A" stroke-width="0.5"/>
</g>
<g id="block_81">
<rect x="1" y="41" width="5" height="5" fill="#828282"/>
<rect x="1" y="41" width="5" height="5" stroke="#0C0A0A" stroke-width="0.5"/>
</g>
<g id="block_82">
<rect x="21" y="41" width="5" height="5" fill="#828282"/>
<rect x="21" y="41" width="5" height="5" stroke="#0C0A0A" stroke-width="0.5"/>
</g>
<g id="block_83">
<rect x="16" y="41" width="5" height="5" fill="#828282"/>
<rect x="16" y="41" width="5" height="5" stroke="#0C0A0A" stroke-width="0.5"/>
</g>
<g id="block_84">
<rect x="11" y="41" width="5" height="5" fill="#828282"/>
<rect x="11" y="41" width="5" height="5" stroke="#0C0A0A" stroke-width="0.5"/>
</g>
<g id="block_85">
<rect x="6" y="41" width="5" height="5" fill="#828282"/>
<rect x="6" y="41" width="5" height="5" stroke="#0C0A0A" stroke-width="0.5"/>
</g>
<g id="block_86">
<rect x="26" y="41" width="5" height="5" fill="#828282"/>
<rect x="26" y="41" width="5" height="5" stroke="#0C0A0A" stroke-width="0.5"/>
</g>
<g id="block_87">
<rect x="46" y="41" width="5" height="5" fill="#828282"/>
<rect x="46" y="41" width="5" height="5" stroke="#0C0A0A" stroke-width="0.5"/>
</g>
<g id="block_88">
<rect x="41" y="41" width="5" height="5" fill="#828282"/>
<rect x="41" y="41" width="5" height="5" stroke="#0C0A0A" stroke-width="0.5"/>
</g>
<g id="block_89">
<rect x="36" y="41" width="5" height="5" fill="#828282"/>
<rect x="36" y="41" width="5" height="5" stroke="#0C0A0A" stroke-width="0.5"/>
</g>
<g id="block_90">
<rect x="31" y="41" width="5" height="5" fill="#828282"/>
<rect x="31" y="41" width="5" height="5" stroke="#0C0A0A" stroke-width="0.5"/>
</g>
<g id="block_91">
<rect x="1" y="46" width="5" height="5" fill="#828282"/>
<rect x="1" y="46" width="5" height="5" stroke="#0C0A0A" stroke-width="0.5"/>
</g>
<g id="block_92">
<rect x="21" y="46" width="5" height="5" fill="#828282"/>
<rect x="21" y="46" width="5" height="5" stroke="#0C0A0A" stroke-width="0.5"/>
</g>
<g id="block_93">
<rect x="16" y="46" width="5" height="5" fill="#828282"/>
<rect x="16" y="46" width="5" height="5" stroke="#0C0A0A" stroke-width="0.5"/>
</g>
<g id="block_94">
<rect x="11" y="46" width="5" height="5" fill="#828282"/>
<rect x="11" y="46" width="5" height="5" stroke="#0C0A0A" stroke-width="0.5"/>
</g>
<g id="block_95">
<rect x="6" y="46" width="5" height="5" fill="#828282"/>
<rect x="6" y="46" width="5" height="5" stroke="#0C0A0A" stroke-width="0.5"/>
</g>
<g id="block_96">
<rect x="26" y="46" width="5" height="5" fill="#828282"/>
<rect x="26" y="46" width="5" height="5" stroke="#0C0A0A" stroke-width="0.5"/>
</g>
<g id="block_97">
<rect x="46" y="46" width="5" height="5" fill="#828282"/>
<rect x="46" y="46" width="5" height="5" stroke="#0C0A0A" stroke-width="0.5"/>
</g>
<g id="block_98">
<rect x="41" y="46" width="5" height="5" fill="#828282"/>
<rect x="41" y="46" width="5" height="5" stroke="#0C0A0A" stroke-width="0.5"/>
</g>
<g id="block_99">
<rect x="36" y="46" width="5" height="5" fill="#828282"/>
<rect x="36" y="46" width="5" height="5" stroke="#0C0A0A" stroke-width="0.5"/>
</g>
<g id="block_100">
<rect x="31" y="46" width="5" height="5" fill="#828282"/>
<rect x="31" y="46" width="5" height="5" stroke="#0C0A0A" stroke-width="0.5"/>
</g>
</g>
</svg>
