<svg width="528" height="250" viewBox="0 0 528 250" fill="none"
     xmlns="http://www.w3.org/2000/svg">

    <g id="JavaScript">
        <g id="IconBox">
            <g id="Holders">
                <g id="circle">
                    <circle id="thin" cx="268" cy="125" r="123.5"
                            stroke="url(#paint0_linear)" stroke-width="3"
                            stroke-linecap="round" stroke-linejoin="round"
                            stroke-dasharray="1 1"/>
                </g>
            </g>
        </g>
        <g id="JavaScript_2">
            <path id="path5157" opacity="0.986"
                  d="M220.921 156.684L220.869 140.881C220.869 140.881 237.136 145.462 246.35 147.83L246.504 78.75H259.631V167.133L220.921 156.684Z"
                  fill="white"/>
            <path id="path5117"
                  d="M264.619 61.25H318.369L308.369 176.25L263.369 188.652L264.619 61.25ZM304.395 157.406L307.947 114.218L281.695 117.152V94.0914L309.697 93.9885L310.83 78.2369L268.568 78.4428L269.135 135.787L294.667 131.411L294.306 144.177L268.568 151.023L268.826 166.672L304.395 157.406Z"
                  fill="#FBD63D"/>
            <g id="path5113">
                <mask id="path-8-inside-1" fill="white">
                    <path d="M210.621 184.866L198.369 50L330.353 50.0515L318.205 184.763L264.258 200L210.621 184.866ZM308.369 176.25L318.514 61.9938H264.464L264.619 187.5L308.369 176.25ZM259.419 78.9293H246.293L246.139 148.061L220.658 141.112L220.71 156.915L259.419 167.364V78.9293Z"/>
                </mask>
                <path d="M210.621 184.866L198.369 50L330.353 50.0515L318.205 184.763L264.258 200L210.621 184.866ZM308.369 176.25L318.514 61.9938H264.464L264.619 187.5L308.369 176.25ZM259.419 78.9293H246.293L246.139 148.061L220.658 141.112L220.71 156.915L259.419 167.364V78.9293Z"
                      fill="#D2B731" stroke="#D2B731" stroke-width="8"
                      mask="url(#path-8-inside-1)"/>
            </g>
            <path id="Vector 1"
                  d="M310.839 78.3752L309.701 94.0406L281.668 94.0832L281.636 117.228L307.976 114.17L304.361 157.534L268.824 166.649L268.619 151.073L294.392 144.191L294.753 131.249L269.224 135.863L268.623 78.4759L310.839 78.3752Z"
                  fill="white"/>
        </g>
    </g>
    <defs>
        <linearGradient id="paint0_linear" x1="268" y1="0" x2="268" y2="250"
                        gradientUnits="userSpaceOnUse">
            <stop stop-color="#FBD63D"/>
            <stop offset="1" stop-color="#D2B731"/>
        </linearGradient>
    </defs>
</svg>
