<svg width="1600" height="1000" viewBox="0 0 1600 1000" fill="none"
     xmlns="http://www.w3.org/2000/svg">
    <rect width="1600" height="1000" fill="#E5E5E5"/>
    <g id="MenuStages">
        <g clip-path="url(#clip0)">
            <rect width="1600" height="1000" fill="white"/>
            <g id="blueMenu">
                <path id="3"
                      d="M327.41 938.379C287.433 894.711 209.445 755.858 350.144 495.752C391.357 419.563 300.575 347.071 290.93 220.32C282.303 106.935 386.855 -6.62723 364.197 -61.3274C341.54 -116.027 245.431 -45.4137 190.732 -68.0712C136.031 -90.7289 93.8226 -90.7289 39.1224 -68.0712C-15.5774 -45.4137 -45.4237 -15.568 -68.0809 39.132C-90.7374 93.8306 -35.6013 1004.22 -12.9453 1058.92C9.71234 1113.62 419.59 1039.07 327.41 938.379Z"
                      fill="#3C586E"/>
                <path id="2"
                      d="M-42.8946 782.102C11.8026 804.757 240.027 589.303 294.724 566.648C349.426 543.992 202.801 241.054 235.069 191.411C267.762 141.115 387.24 -6.62723 364.582 -61.3274C341.924 -116.027 245.816 -45.4137 191.116 -68.0712C136.416 -90.7289 94.2072 -90.7289 39.507 -68.0712C-15.1929 -45.4137 -45.0391 -15.568 -67.6963 39.132C-90.3528 93.8306 -90.3523 136.038 -67.6963 190.736C-45.0386 245.439 -97.5975 759.445 -42.8946 782.102Z"
                      fill="#3C586E"/>
                <path id="1"
                      d="M0.832687 176.607C33.3248 189.509 68.4149 192.274 105.342 178.025C138.301 165.307 164.016 140.892 178.886 104.053C193.9 66.8568 190.807 36.5446 177.606 -0.169991C163.924 -38.2249 141.745 -57.9173 104.383 -73.3931C67.0212 -88.869 38.1912 -88.869 0.829308 -73.3931C-36.5324 -57.9173 -56.9183 -37.5318 -72.3938 -0.169991C-87.8689 37.1908 -87.8686 66.0195 -72.3938 103.38C-56.9179 140.744 -36.7543 161.682 0.832687 176.607Z"
                      fill="#3C586E"/>
            </g>
            <path id="blob4" style="mix-blend-mode:multiply"
                  d="M983.51 531.725C978.32 534.391 973.419 537.587 968.887 541.262C966.202 543.168 964.252 545.937 963.361 549.107C962.47 552.277 962.693 555.656 963.991 558.682C965.636 563.516 967.766 568.17 970.349 572.574C973.963 578.276 977.151 584.237 979.886 590.408C984.627 601.263 985.698 613.368 982.939 624.887C980.18 636.407 973.74 646.712 964.595 654.241C948.192 668.387 928.864 673.633 907.692 673.092C891.855 672.36 876.2 669.406 861.184 664.318C855.632 662.58 850.101 660.769 844.59 658.882C828.696 653.415 814.295 656.88 801.389 667.148C793.187 673.633 785.091 680.266 777.102 687.048C763.273 698.778 748.046 701.416 731.643 693.723C718.91 688.107 707.511 679.858 698.196 669.519C688.882 659.18 681.863 646.985 677.601 633.737C673.759 622.361 673.973 610.006 678.205 598.769C680.492 592.669 683.125 586.704 686.089 580.903C689.145 574.882 691.862 568.695 694.227 562.37C696.577 556.121 697.284 549.373 696.283 542.772C695.281 536.172 692.603 529.938 688.505 524.668C681.402 514.555 672.54 505.801 662.342 498.823C654.274 493.733 646.855 487.68 640.248 480.798C603.055 439.472 621.397 381.139 663.741 361.27C681.566 352.269 701.984 349.806 721.438 354.308C722.138 354.467 722.837 354.531 723.505 354.722C743.5 360.062 761.652 355.389 778.882 344.899C789.245 338.541 799.068 331.516 808.732 324.236C820.774 314.664 834.234 307.027 848.628 301.602C850.119 300.949 851.661 300.418 853.237 300.012C881.212 294.958 906.961 299.44 929.086 318.355C935.299 323.828 939.245 331.423 940.149 339.654C942.406 357.773 952.865 370.076 966.471 380.757C978.137 389.976 990.345 398.686 999.977 410.131C1017.37 430.698 1025.41 454.413 1021.21 481.339C1017.78 504.577 1004.36 521.107 983.51 531.725Z"
                  fill="url(#paint0_linear)"/>
            <path id="blob3" style="mix-blend-mode:multiply"
                  d="M931.458 378.296C930.976 384.15 931.105 390.038 931.843 395.865C932.061 399.185 933.405 402.332 935.653 404.785C937.902 407.238 940.92 408.85 944.209 409.355C949.264 410.467 954.418 411.07 959.594 411.153C966.415 411.069 973.232 411.498 979.989 412.438C991.832 414.133 1002.8 419.644 1011.23 428.136C1019.66 436.627 1025.08 447.636 1026.69 459.491C1030.13 481.075 1024.38 500.507 1012.65 518.397C1003.64 531.61 992.832 543.501 980.535 553.727C976.07 557.549 971.606 561.371 967.045 565.097C953.876 575.921 949.251 590.053 951.211 606.626C952.431 617.139 953.834 627.621 955.418 638.07C958.148 656.153 952.206 670.638 936.982 680.659C925.38 688.607 912.226 694.008 898.386 696.504C884.546 699.001 870.334 698.537 856.686 695.144C844.895 692.385 834.414 685.648 827.009 676.066C822.988 670.857 819.257 665.432 815.832 659.814C812.274 653.988 808.403 648.359 804.237 642.952C800.123 637.633 794.718 633.453 788.534 630.811C782.35 628.169 775.594 627.152 768.906 627.856C756.445 628.594 744.217 631.564 732.805 636.625C724.138 640.845 714.993 644.004 705.569 646.035C650.293 656.024 609.888 609.292 615.284 562.335C617.04 542.233 625.778 523.381 639.983 509.05C640.465 508.568 640.915 507.99 641.428 507.509C656.62 493.152 662.273 475.069 662.402 454.674C662.402 442.437 661.631 430.232 660.507 418.059C658.689 402.624 659.274 387 662.241 371.744C662.472 370.121 662.837 368.521 663.333 366.958C673.836 340.204 691.373 320.451 719.38 311.522C727.383 309.077 736.012 309.718 743.565 313.321C760.331 320.997 776.519 318.46 792.867 312.518C806.999 307.379 820.97 301.533 835.906 299.317C862.821 295.302 887.552 300.923 908.397 318.909C926.351 334.422 933.546 354.721 931.458 378.296Z"
                  fill="url(#paint1_linear)"/>
            <path id="blob1" style="mix-blend-mode:multiply"
                  d="M601.012 564.274C597.64 552.693 595.789 540.722 595.505 528.663C595.367 509.608 600.915 490.946 611.439 475.061C615.33 468.743 619.712 462.74 624.545 457.109C638.46 441.763 641.58 424.067 638.386 404.242C636.747 395.434 635.656 386.532 635.119 377.588C634.433 364.699 638.063 351.948 645.435 341.352C665.995 311.982 704.47 290.909 747.461 300.381C764.654 304.122 778.1 312.143 790.966 327.475C792.985 329.881 793.931 331.379 795.83 333.881C797.73 336.383 798.62 337.929 800.695 340.288C815.173 356.742 831.093 364.629 853.929 358.057C866.351 354.042 878.162 348.334 889.026 341.095C900.04 334.414 910.173 326.741 921.481 320.72C951.806 304.639 986.353 308.054 1010.69 330.596C1028.71 347.209 1040.84 369.23 1045.24 393.338C1046.33 398.606 1046.91 403.966 1046.97 409.345C1047.19 423.81 1041.95 437.826 1032.28 448.591C1021.58 460.332 1008.89 470.089 994.797 477.411C989.253 480.532 983.783 483.652 978.092 486.81C972.159 489.933 967.317 494.788 964.209 500.729C961.101 506.67 959.873 513.417 960.69 520.072C961.36 530.276 962.585 540.436 964.362 550.507C967.634 570.502 966.379 590.976 960.69 610.422C958.147 620.331 954.807 630.018 950.704 639.389C944.257 654.411 934.082 667.539 921.143 677.529C908.204 687.519 892.929 694.041 876.764 696.478C840.749 702.903 811.562 689.87 789.204 661.27C782.742 653.01 780.603 643.044 770.627 635.865C760.838 628.82 752.726 630.047 741.256 626.319C729.786 622.592 723.897 615.687 711.886 616.774C705.018 617.395 700.872 620.445 695.108 622.281C690.503 623.8 685.807 625.027 681.047 625.952C673.9 627.529 666.502 627.589 659.331 626.128C652.16 624.668 645.375 621.718 639.414 617.471C620.792 604.769 607.206 585.948 601.012 564.274Z"
                  fill="url(#paint2_linear)"/>
            <path id="blob2" style="mix-blend-mode:multiply"
                  d="M1042.49 491.319C1042.35 502.549 1040.77 513.715 1037.77 524.539C1032.69 541.55 1024.56 554.877 1008.99 567.979C1005.9 570.579 1003.95 571.76 1000.72 574.183C997.492 576.605 995.523 577.766 992.451 580.386C977.326 593.282 968.287 605.301 965.758 623.723C964.836 631.996 963.398 640.204 961.452 648.297C958.567 659.966 951.882 670.343 942.449 677.793C916.166 698.299 876.178 706.707 840.462 686.576C826.211 678.578 815.163 665.9 809.19 650.69C807.276 646.076 805.772 641.291 803.995 636.608C796.407 615.897 783.488 606.703 761.409 606.361C749.263 606.574 739.356 608.69 725.557 611.898C718.767 613.476 715.058 614.752 708.331 616.58C701.604 618.409 697.996 620.207 691.105 621.262C658.854 626.205 629.893 614.94 614.342 588.281C602.835 568.576 598.037 545.668 600.671 523.001C601.139 518.025 602.078 513.104 603.474 508.305C607.256 495.343 615.803 484.293 627.398 477.374C640.054 469.837 653.936 464.585 668.411 461.857C674.222 460.593 680.032 459.362 685.842 458.029C691.974 456.862 697.605 453.856 701.988 449.412C706.372 444.968 709.299 439.295 710.382 433.148C712.563 423.917 714.229 414.572 715.372 405.156C717.933 386.428 724.66 368.513 735.058 352.728C740.021 344.587 745.633 336.86 751.839 329.624C773.679 305.152 801.021 295.07 833.148 298.864C866.984 302.931 887.758 322.573 901.504 353.992C903.796 359.23 904.441 362.418 906.323 367.817C908.205 373.216 908.613 376.514 911.142 381.642C921.099 401.829 934.212 413.735 958.41 414.624C963.878 414.829 969.347 414.624 974.815 414.282C979.379 414.157 983.945 414.329 988.486 414.795C995.266 415.341 1001.86 417.302 1007.83 420.551C1013.81 423.801 1019.03 428.267 1023.18 433.661C1036.14 450.042 1042.97 470.436 1042.49 491.319Z"
                  fill="url(#paint3_linear)"/>
        </g>
    </g>
    <defs>
        <linearGradient id="paint0_linear" x1="-183850" y1="365244" x2="-156664"
                        y2="409227" gradientUnits="userSpaceOnUse">
            <stop stop-color="#007AB5"/>
            <stop offset="1" stop-color="#33338E"/>
        </linearGradient>
        <linearGradient id="paint1_linear" x1="614.738" y1="498.066"
                        x2="1027.72" y2="498.066"
                        gradientUnits="userSpaceOnUse">
            <stop stop-color="#007AB5"/>
            <stop offset="1" stop-color="#33338E"/>
        </linearGradient>
        <linearGradient id="paint2_linear" x1="-587476" y1="66311.2"
                        x2="-595309" y2="101201" gradientUnits="userSpaceOnUse">
            <stop stop-color="#22B5CC"/>
            <stop offset="0.46" stop-color="#6E5ACC"/>
            <stop offset="1" stop-color="#33338E"/>
        </linearGradient>
        <linearGradient id="paint3_linear" x1="275.795" y1="734.859"
                        x2="434.414" y2="486.113"
                        gradientUnits="userSpaceOnUse">
            <stop stop-color="#22B5CC"/>
            <stop offset="0.46" stop-color="#6E5ACC"/>
            <stop offset="1" stop-color="#33338E"/>
        </linearGradient>
        <clipPath id="clip0">
            <rect width="1600" height="1000" fill="white"/>
        </clipPath>
    </defs>
</svg>
