<svg width="528" height="253" viewBox="0 0 528 253" fill="none"
     xmlns="http://www.w3.org/2000/svg">

    <g id="Node.js">
        <g id="IconBox">
            <g id="Holders">
                <g id="circle">
                    <circle id="thin" cx="268" cy="127.5" r="123.5"
                            stroke="#83CD29" stroke-width="3"
                            stroke-linecap="round" stroke-linejoin="round"
                            stroke-dasharray="1 1"/>
                </g>
            </g>
        </g>
        <g id="Node Js">
            <path id="Vector"
                  d="M343.598 73.1207L272.372 31.7626C267.88 29.2041 262.031 29.2041 257.503 31.7626L185.516 73.1207C180.88 75.7875 177.599 80.7995 177.599 86.1605V168.767C177.599 174.128 180.965 179.141 185.601 181.823L204.62 192.625C213.711 197.103 216.924 197.103 221.06 197.103C234.52 197.103 242.209 188.964 242.209 174.767V93.2142C242.209 92.0626 241.609 90.3488 240.479 90.3488H231.396C230.246 90.3488 227.672 92.0626 227.672 93.2126V174.766C227.672 181.059 221.979 187.321 211.341 182.002L191.689 170.674C191.004 170.303 190.521 169.555 190.521 168.767V86.1605C190.521 85.382 191.418 84.6002 192.107 84.2012L263.862 42.9142C264.533 42.5346 265.518 42.5346 266.187 42.9142L337.066 84.1915C337.745 84.6002 337.506 85.3577 337.506 86.1605V168.767C337.506 169.555 337.801 170.322 337.131 170.702L265.922 212.013C265.311 212.38 264.554 212.38 263.885 212.013L245.622 201.112C245.071 200.792 244.417 200.677 243.888 200.973C238.807 203.853 237.87 204.236 233.104 205.888C231.931 206.297 230.201 207.006 233.766 209.004L257.668 223.144C259.957 224.468 262.557 225.156 265.174 225.156C267.826 225.156 270.424 224.468 272.712 223.144L343.597 181.823C348.233 179.122 350.429 174.128 350.429 168.767V86.1605C350.429 80.7995 348.233 75.8004 343.598 73.1207ZM287.29 155.677C268.35 155.677 264.177 150.452 262.787 141.033C262.625 140.019 261.764 138.806 260.732 138.806H251.475C250.33 138.806 249.409 140.195 249.409 141.335C249.409 153.395 255.966 168.006 287.291 168.006C309.968 168.006 322.969 159.195 322.969 143.601C322.969 128.14 312.523 124.083 290.532 121.172C268.303 118.234 266.045 116.75 266.045 111.542C266.045 107.249 267.957 101.523 284.416 101.523C299.123 101.523 304.544 104.679 306.774 114.592C306.965 115.524 307.816 116.193 308.777 116.193H318.071C318.643 116.193 319.189 115.962 319.59 115.553C319.977 115.114 320.182 114.563 320.131 113.972C318.692 96.9018 307.351 88.9468 284.415 88.9468C264.013 88.9468 251.842 97.5624 251.842 112.004C251.842 127.669 263.951 131.998 283.536 133.934C306.965 136.231 308.787 139.655 308.787 144.264C308.787 152.267 302.362 155.677 287.29 155.677Z"
                  fill="#83CD29"/>
        </g>
    </g>
</svg>
