<svg width="63" height="63" viewBox="0 0 63 63" fill="none"
     xmlns="http://www.w3.org/2000/svg">
    <rect width="63" height="63" fill="#E5E5E5"/>
    <g id="skype">
        <path d="M27.2765 27.292C27.5219 27.8271 27.9615 28.249 28.5065 28.4722C29.1514 28.7583 29.8207 28.9858 30.5065 29.1523C30.7264 29.2021 30.9565 29.2622 31.1765 29.332C32.1642 29.6113 33.1356 29.9453 34.0864 30.332C34.3436 30.4038 34.5979 30.4849 34.8488 30.5752C35.1879 30.6978 35.5209 30.8369 35.8464 30.9922C36.5609 31.3018 37.2045 31.7544 37.7375 32.3218C38.2706 32.8892 38.682 33.5596 38.9464 34.292C39.173 35.0469 39.225 35.8433 39.0985 36.6211C38.972 37.3989 38.6704 38.1377 38.2164 38.7822C37.4147 39.8999 36.3119 40.7671 35.0365 41.2822C33.1813 42.0366 31.1393 42.2031 29.1864 41.7598C27.2335 41.3164 25.4637 40.2837 24.1165 38.8022C23.9622 38.6274 23.8438 38.4243 23.7681 38.2036C23.714 38.0464 23.6824 37.8818 23.674 37.7163C23.6707 37.6504 23.671 37.584 23.6752 37.5176C23.6896 37.2847 23.7496 37.0576 23.8519 36.8481C23.9542 36.6387 24.0968 36.4512 24.2715 36.2969C24.4462 36.1426 24.6494 36.0244 24.8699 35.9487C25.0903 35.873 25.3235 35.8413 25.556 35.856C25.7887 35.8701 26.0162 35.9302 26.2256 36.0327C26.3263 36.082 26.4219 36.1401 26.5111 36.207C26.5555 36.2402 26.5984 36.2754 26.6395 36.313C26.6876 36.3569 26.7334 36.4033 26.7765 36.4521C27.6296 37.373 28.7411 38.0146 29.9652 38.293C31.1893 38.5713 32.469 38.4736 33.6365 38.0122C34.2841 37.7573 34.8507 37.3325 35.2765 36.7822C35.4215 36.5845 35.5226 36.3584 35.5725 36.1187C35.6226 35.8789 35.6205 35.6309 35.5665 35.3921C35.321 34.8569 34.8813 34.4351 34.3364 34.2119C33.691 33.9272 33.0219 33.6997 32.3364 33.5322L31.6665 33.3521C30.6782 33.0742 29.7067 32.7407 28.7565 32.3521C28.1519 32.1836 27.5629 31.9629 26.9965 31.6919C26.2753 31.3887 25.6244 30.9399 25.0841 30.374C24.5439 29.8076 24.126 29.1367 23.8564 28.4023C23.6301 27.6489 23.5781 26.854 23.7046 26.0781C23.8312 25.3018 24.1327 24.5645 24.5864 23.9219C25.3854 22.8018 26.4891 21.9341 27.7665 21.4219C29.6216 20.6675 31.6636 20.501 33.6166 20.9443C35.5695 21.3882 37.3392 22.4204 38.6865 23.9023C38.9712 24.2554 39.1102 24.7041 39.0751 25.1567C39.04 25.6089 38.8334 26.0312 38.4976 26.3364C38.1617 26.6416 37.7219 26.8066 37.2682 26.7988C36.8146 26.7905 36.3811 26.6094 36.0565 26.292C35.2057 25.3711 34.0959 24.729 32.8733 24.4502C31.6506 24.1719 30.3723 24.27 29.2064 24.7319C28.5562 24.9819 27.9883 25.4077 27.5665 25.9619C27.4275 26.1509 27.3298 26.3672 27.2798 26.5962C27.2299 26.8252 27.2288 27.0625 27.2765 27.292Z"
              fill="url(#paint0_linear)"/>
        <path fill-rule="evenodd" clip-rule="evenodd"
              d="M39.7865 51.0225C37.8491 51.0225 35.9446 50.5229 34.2565 49.5723C33.3171 49.7207 32.3674 49.7944 31.4165 49.7925C26.5293 49.7847 21.8446 47.8389 18.3898 44.3818C14.9349 40.9253 12.9918 36.2397 12.9865 31.3525C12.9866 30.8911 13.0032 30.4302 13.0363 29.9702C13.0713 29.4824 13.1248 28.9961 13.1965 28.5122C11.9939 26.3643 11.5256 23.8818 11.8632 21.4434C12.2007 19.0049 13.3253 16.7432 15.0662 15.002C16.807 13.2612 19.0687 12.1367 21.5074 11.7993C23.9462 11.4614 26.4283 11.9297 28.5765 13.1323C29.5167 12.9927 30.4659 12.9229 31.4165 12.9224C36.3037 12.9277 40.9894 14.8706 44.4462 18.3257C47.9028 21.7803 49.8485 26.4653 49.8564 31.3525C49.8582 32.3066 49.7847 33.2598 49.6365 34.2026C50.6021 35.9209 51.1007 37.8623 51.0831 39.8335C51.0654 41.8047 50.5321 43.7368 49.5359 45.4375C48.5398 47.1387 47.1157 48.5493 45.4053 49.5288C43.6948 50.5088 41.7577 51.0234 39.7865 51.0225ZM46.0565 46.0225C47.4731 44.6147 48.3702 42.7681 48.601 40.7847C48.8317 38.8008 48.3823 36.7974 47.3265 35.1025L47.0864 34.7026L47.1665 34.2422C47.5854 31.936 47.4927 29.5659 46.8945 27.2993C46.2964 25.0332 45.2075 22.9258 43.7051 21.1265C42.2025 19.3276 40.3231 17.8804 38.1996 16.8877C36.0762 15.895 33.7605 15.3813 31.4165 15.3823C30.4574 15.3848 29.5002 15.4717 28.5565 15.6426L28.1064 15.7222L27.7065 15.4722C26.0074 14.4292 24.0066 13.9888 22.0266 14.2222C20.0466 14.4561 18.2031 15.3496 16.7933 16.7593C15.3837 18.1689 14.4899 20.0127 14.2565 21.9927C14.0229 23.9727 14.4633 25.9736 15.5065 27.6724L15.7565 28.0723L15.6765 28.5322C15.2147 31.0767 15.3765 33.6948 16.1478 36.1626C16.9192 38.6309 18.2772 40.875 20.1056 42.7031C21.934 44.5317 24.1782 45.8896 26.6462 46.6611C29.1141 47.4326 31.7323 47.5942 34.2765 47.1323L34.7365 47.0522L35.1365 47.2925C36.8354 48.3428 38.8402 48.7861 40.8236 48.5498C42.8069 48.314 44.6516 47.4121 46.0565 45.9922V46.0225Z"
              fill="url(#paint1_linear)"/>
        <path fill-rule="evenodd" clip-rule="evenodd"
              d="M19.4065 62.2925H43.4065C48.4457 62.2925 53.2783 60.2905 56.8416 56.7275C60.4048 53.1646 62.4065 48.3315 62.4065 43.2925V19.2925C62.4065 14.2534 60.4048 9.42041 56.8416 5.85742C53.2783 2.29443 48.4457 0.29248 43.4065 0.29248H19.4065C14.3761 0.305664 9.55615 2.31348 6.00378 5.875C2.45142 9.43701 0.456543 14.2622 0.456543 19.2925V43.2925C0.456543 48.3228 2.45142 53.1479 6.00378 56.71C9.55615 60.2715 14.3761 62.2793 19.4065 62.2925ZM7.63904 7.59521C10.7604 4.47363 14.9923 2.71777 19.4065 2.7124H43.4065C47.8225 2.71533 52.057 4.46973 55.1804 7.59131C58.304 10.7129 60.0613 14.9463 60.0665 19.3623V43.3623C60.0613 47.7783 58.304 52.0117 55.1804 55.1333C52.057 58.2549 47.8225 60.0098 43.4065 60.0127H19.4065C14.9923 60.0073 10.7604 58.2515 7.63904 55.1299C4.5177 52.0088 2.76184 47.7769 2.75659 43.3623V19.3623C2.76184 14.9482 4.5177 10.7163 7.63904 7.59521Z"
              fill="url(#paint2_linear)"/>
    </g>
    <defs>
        <linearGradient id="paint0_linear" x1="8758.49" y1="1632.88"
                        x2="6536.74" y2="3854.46"
                        gradientUnits="userSpaceOnUse">
            <stop stop-color="#66E8FF"/>
            <stop offset="1" stop-color="#66ADFF"/>
        </linearGradient>
        <linearGradient id="paint1_linear" x1="8758.49" y1="1632.88"
                        x2="6536.74" y2="3854.46"
                        gradientUnits="userSpaceOnUse">
            <stop stop-color="#66E8FF"/>
            <stop offset="1" stop-color="#66ADFF"/>
        </linearGradient>
        <linearGradient id="paint2_linear" x1="8758.49" y1="1632.88"
                        x2="6536.74" y2="3854.46"
                        gradientUnits="userSpaceOnUse">
            <stop stop-color="#66E8FF"/>
            <stop offset="1" stop-color="#66ADFF"/>
        </linearGradient>
    </defs>
</svg>
