<svg xmlns="http://www.w3.org/2000/svg" xmlns:xlink="http://www.w3.org/1999/xlink" viewBox="0 0 800 800">
  <defs>
    <linearGradient id="linear-gradient" x1="299.04" y1="335.04" x2="385.72" y2="248.37" gradientTransform="translate(140.49 -104.63) rotate(22.5)" gradientUnits="userSpaceOnUse">
      <stop offset="0" stop-color="#fbe18a"/>
      <stop offset="0.21" stop-color="#fcbb45"/>
      <stop offset="0.38" stop-color="#f75274"/>
      <stop offset="0.52" stop-color="#d53692"/>
      <stop offset="0.74" stop-color="#8f39ce"/>
      <stop offset="1" stop-color="#5b4fe9"/>
    </linearGradient>
    <linearGradient id="New_Gradient_Swatch" data-name="New Gradient Swatch" x1="677.55" y1="543.42" x2="766.11" y2="464.89" gradientTransform="matrix(1, 0, 0, 1, 0, 0)" xlink:href="#linear-gradient"/>
    <linearGradient id="New_Gradient_Swatch-2" data-name="New Gradient Swatch" x1="680.22" y1="329.81" x2="784.69" y2="240.86" gradientTransform="matrix(1, 0, 0, 1, 0, 0)" xlink:href="#linear-gradient"/>
  </defs>
  <g id="Design">
    <g>
      <path d="M320.06,73l-.07-.47-.21-.54-.19-.43-.54-.86-.21-.26-.22-.21-.18-.25-.21-.26-.18-.25-.22-.25-.21-.22-.26-.21-.21-.22-.43-.5-.18-.22-.26-.29-.18-.14-.25-.25-.65-.76-.25-.32L314.2,65l-.22-.4-.14-.32-.11-.29-.11-.32-.22-.58-.07-.32,0-.29v-.32l0-.36v-.47l0-.43,0-.36,0-.33.14-.65.15-.32.1-.32.15-.29.18-.33.18-.25.21-.29.22-.25.47-.47.25-.21.29-.18.57-.29.33-.14.86-.33.4-.11.65-.14h.72l.57,0h.36l.47,0,.4,0,.71.14.33.11.29.14.32.15.76.46.28.22.26.22.18.21.21.25.22.29.25.36.22.4.1.32.08.33,0,.36.07.43v1.11l0,.33-.07.32-.15.29-.25.18-.29.14-.32,0-.29,0-.32-.08-.29-.18-.25-.36-.11-.39,0-.36v-.69l0-.32-.11-.29-.11-.32-.14-.29-.18-.29-.22-.25-.25-.22-.25-.18-.29-.18-.29-.1-.32-.11-.29,0-1-.11h-.32l-.36,0-.65.22-.58.36-.25.21-.25.25-.18.26-.18.32-.11.29-.14.32-.11.33-.07.36,0,.32v.68l0,.33.07.32.07.29.15.32.1.29.18.33L317,64l.21.39.37.58.86,1,.18.25.72.72.86,1,.47.46.18.26.4.5.21.25.22.29.18.25.14.29.18.29.29.57.14.33.15.29.11.32.1.29.08.32,0,.33.07.32,0,.32,0,.36-.07.65-.14.65,0,.32,0,.29-.08.33-.1.32-.15.29-.14.32L322,78l-.22.33-.21.25-.26.25-.18.14-.29.26-.18.18-.57.43-.58.29-.28.18-.36.14-.29.11-.26.07-.32.11-.36.07-.32,0-.25.07L316,81h-.9l-1-.11h-.25l-.36-.07-.5-.11-.76-.25-.29-.15-.25-.18-.36-.21-.57-.44-.58-.57-.22-.25-.36-.51-.18-.28-.18-.26-.21-.64-.07-.33-.11-.43-.11-.47-.07-.32,0-.33v-.68l0-.29v-.65l0-.32.22-1,.11-.43.11-.47.1-.33.29-.32.51-.22h.54l.46.11.29.22.18.32v.43l0,.36-.08.33-.1.32,0,.33-.07.32v1l.11,1,.07.32.32,1,.18.28.22.33.11.18.25.29.21.21.26.22.28.18.26.18.28.18.33.14.29.11.36.07.32,0h.43l1-.07.43,0,.32-.11.58-.21.29-.15.29-.18.29-.32.32-.33.22-.28.21-.36.22-.4.14-.36.15-.43.14-.54.07-.47,0-.36,0-.47,0-.43Z"/>
      <path d="M336.26,79l-.5.44-.58.36-.28.14-.58.36-.29.14-.65.22-.36.11-.64.11-.22.07-.36.07-.29,0h-.32l-.4,0h-.32l-.65-.07-.4-.11-.32-.11-.25-.1-.33-.11-.28-.15-.58-.36-.25-.21-.43-.5L326.8,79l-.15-.29-.18-.29-.21-.65-.15-.64-.07-.65,0-.36,0-.33v-1l.07-.33.07-.29.08-.32.1-.65.08-.36.07-.32.11-.29.1-.32.15-.33.14-.29.11-.32.18-.43.22-.43.18-.29.21-.29.18-.25.22-.25.36-.58.21-.25.47-.47.51-.43.25-.18.29-.22.32-.21.4-.26.39-.21.29-.15.36-.14.22-.07.39-.15.22-.07.36-.11.32-.07.36,0,.33,0h.82l.58.07.47.07.32.08.33.1.28.15.65.39.4.22.25.22.18.21.21.25.22.29.43.79.11.33,0,.32,0,.29.15.65v1.26l-.08.43,0,.4,0,.36-.21,1.08-.15.5-.11.36-.14.36-.14.4-.11.32-.22.4-.32.64-.18.4,0,.25.29,0h.22l.4,0,.25,0,.32-.08.36-.14.25-.14.58-.36.25-.22.47-.47.43-.5.18-.25.18-.29.18-.25.29-.58.32-.61.11-.22.22-.32.32-.18.43.07.29.32,0,.4-.11.32-.43.87-.18.25-.36.58-.15.28-.18.26-.21.28-.18.26-.22.21L342,77l-.21.21-.26.22-.25.18-.29.21-.25.15-.57.29-.33.14-.28.07-1.3.14-.4,0-.32,0-.29-.07-.29,0-.25.1-.25.18ZM329.14,75l0,.43,0,.36,0,.47.07.58.15.57.25.54.25.36.29.25.4.19.54.14h.46l.36,0,.36-.07.33-.14.29-.15.32-.18.29-.18.25-.21.29-.22.14-.25v-.22l-.14-.25-.18-.29-.07-.32.07-.43.14-.43.25-.22.29-.18.33,0,.32.08.25.07.22,0,.14-.21.11-.29.43-1.3.22-1,.07-.47.11-.61.07-1.22,0-.58-.14-.61-.22-.54-.25-.36-.29-.22-.43-.18-.54-.11-.47,0h-.36l-.28.07-.33.11-.36.21-.29.18-.32.22-.36.29-.25.21-.25.26-.18.25-.22.25-.18.29-.36.5-.18.29-.72,1.44-.11.32-.07.29-.22.65-.07.29-.11.32,0,.33v.32Z"/>
      <path d="M347.39,80.91l-.29,0-.32-.07-.33-.11-.43-.18-.4-.21-.32-.18-.36-.29-.32-.33-.26-.21-.21-.25-.22-.22-.14-.29-.18-.32-.18-.43-.18-.4-.11-.32-.11-.47-.07-.43,0-.36,0-.33v-.64l0-.29,0-.33,0-.36.07-.43.11-.47.1-.32.08-.32.25-.76.18-.4.18-.32.57-1.15.18-.29.36-.5.51-.54.11-.15.25-.29.25-.21.22-.22.25-.21.25-.18.29-.22.25-.18.29-.14.29-.18.25-.15.29-.14.39-.18.76-.22.39-.11.33-.07.32,0,.36,0h.61l.33,0,.47.07.54.14.46.15.33.1.25.15.25.18.25.21.22.26.21.21.15.33.14.39.11.43,0,.36,0,.44-.11.46-.11.33-.14.29-.18.28-.25.36-.25.33-.22.25-.25.22-.29.14-.47.07h-.57l-.58-.14-.36-.25v-.36l.18-.33.25-.39.22-.33.14-.32.08-.29.07-.32V68.6l-.07-.33-.26-.36-.36-.25-.32-.11-.32,0-.33,0-.43.08-.43.14-.33.14-.25.18-.29.22-.25.18-.29.22-.28.32-.26.25-.25.33-.32.39-.22.4-.14.32L347,71l-.15.25-.14.29-.11.32-.11.29-.1.33-.11.46-.11.44-.07.36-.07.43,0,.47,0,.36v.46l0,.58.11.5.11.36.36.72.21.29.22.22.25.21.4.18.43.18.32.08.47.07h.79l.83-.07.32-.08.4-.11.32-.14.4-.21.4-.18.86-.54.36-.29.32-.29.51-.43.43-.51.21-.21.44-.51.36-.5.21-.32.11-.22.25-.4.22-.36.14-.32.25-.47.36-.25.47.07.29.33v.39l-.11.29-.14.29-.15.32-.18.36-.25.4-.29.39-.28.44-.54.79-.22.29-.18.25-.25.25-.65.76-.18.25-.22.21-.25.22-.5.36-.22.18-.25.18-.32.25-.29.18-.29.14-.29.19-.43.17-.43.15-.4.11-.43.07-.43.11-.65.1-1,.11-.65-.07Z"/>
      <path d="M365.46,72.88v.4l-.11.32-.29.58-.32.54-.18.32-.14.29-.22.32-.11.22-.18.32-.18.29-.18.25-.21.29-.18.25-.36.58-.65.75-.43.47-.26.26-.21.25-.25.21-.8.61-.25.19-.32.14-.33.11-.28.07-.65.14h-.61l-.4,0-.29-.11-.32-.11-.29-.18-.25-.22-.18-.25-.18-.29-.15-.32-.07-.29-.07-.32,0-.33v-.32l.08-.65.07-.32.11-.32.14-.65.11-.29.07-.32.11-.33.11-.29.32-1,0-.29.07-.32.11-.32.07-.33.07-.29.22-.64.1-.44.11-.46.22-.65.07-.33.07-.25.07-.32.15-.36.11-.29.21-1,.11-.33.11-.43.14-.47.11-.32.14-.29.22-.18.32-.14.29,0,.36,0,.65.07.58.22.18.25v.32l-.08.33-.1.43-.11.47-.22.64-.07.29-.07.33-.11.36-.11.43-.36,1.08-.07.32-.14.47-.26.76-.07.32-.07.29-.07.32-.25.61-.08.33-.25.9-.21.65-.08.32-.1.47-.11.57-.07.62.07.54.29.39.39.11.33,0,.32-.14.25-.18.29-.22,1.19-1.18.21-.26.18-.25.22-.29.36-.57.22-.25.14-.22.18-.29.22-.32.14-.33.29-.61.43-.86.18-.29.32-.18.47.07Zm-5.8-11,.18-.29.29-.25.29-.18.36-.11.32-.07h.36l.33.07.29.18.25.22.25.25.18.29.11.32,0,.33V63l-.1.32-.18.29-.22.29-.25.21-.29.22-.32.14-.36.08-.33,0-.36-.07-.57-.36-.22-.26-.18-.28-.07-.33,0-.32,0-.32.07-.36Z"/>
      <path d="M381.91,73.85l-.07.18-.18.36-.18.26-.15.28-.14.33-.15.29-.36.57-.18.25-.17.29-.15.29-.18.29-.21.25-.22.29-.22.25-.39.5-.22.26-.21.21-1,.86-.29.18-.32.19-.4.17-.43.19-.33.1-.32.07h-.36l-.43,0-.43-.11-.33-.11-.25-.18-.25-.21-.25-.36-.26-.4-.1-.32-.11-.44,0-.46v-.36l0-.47,0-.43-.1-.07-.18.25-.36.57-.36.51-.22.25-.18.25-.22.25-.18.26-.25.21-.21.22-.26.21-.25.18-.29.18-.39.25-.54.26-.58.18-.47.1L367,81l-.36,0-.44-.07-.43-.11-.32-.11-.29-.1-.25-.19-.5-.43-.18-.25-.19-.29-.21-.39-.22-.54-.1-.47,0-.36-.07-.47,0-.57v-.47l0-.36,0-.47.08-.43.1-.36.11-.43.11-.47.11-.33.14-.28.11-.33.86-1.73.18-.28.18-.26.18-.28.36-.51.22-.25.47-.54.14-.14.25-.29.51-.43.32-.33.4-.29.5-.39.29-.18.25-.18.32-.15.44-.18.39-.21.36-.18.43-.15.44-.1.36-.11.9-.07.32,0h.43l.72,0,.83.07.79.14.33.07.39.11,1.44.65.25.22.26.18.25.21.21.25.08.4-.15.5-.39.44-.4.25L378,69l-.29-.1-.28-.22-.33-.18-.29-.18-.25-.11-.29-.14-.32-.15-.29-.07-.61-.14-.36-.11-.36-.07h-.72l-.25,0-.36,0-.47.11-.9.32-.36.18-.36.22-.25.18-.29.18-.25.18-.25.21-.29.26-.15.14-.25.29-.21.25-.18.25-.43.51-.19.25-.18.29-.43.86-.18.29-.21.65-.15.32-.14.29-.22,1-.1.36-.11,1v1l0,.36.11.32.14.29.18.29.22.21.32.15.44.07.47,0,.32-.11.57-.29.51-.43.21-.22.26-.21.21-.26.18-.25.22-.25.18-.25.39-.54.18-.25.54-.87.22-.39.25-.47.15-.22.43-.93.14-.33.07-.25.15-.32.11-.29.1-.33.15-.39.21-.72.15-.4.11-.36.21-.32L375,69l.33-.07.32,0,.32.07.58.29.29.18.14.22,0,.32-.11.29-.07.32-.11.33-.14.65-.11.32-.07.29-.22.65-.07.36,0,.21-.11.43-.07.33-.14.61-.11.43-.07.36-.07.4-.11.54-.11.61,0,.54,0,.47.18.29.36.17.54,0,.43-.14.33-.18.5-.36.25-.25.43-.47.44-.51.36-.5.18-.29.21-.29.07-.21.58-.87.14-.28.18-.29.72-1.44.33-.18.43.07.29.36,0,.36-.14.32Z"/>
      <path d="M392.21,63.34l-.18.33-.29.57-.18.4-.25.39-.18.26-.18.28-.18.26-.18.32-.15.22-.18.28L390,67l-.32.36-.33.32-.14.18-.25.29-.47.47-.22.25-.39.43-.26.22-.28.29-.4.28-.54.47-.29.18-.79.51-.25.1-.29.18-.4.33-.25.32-.14.29-.07.4-.11.64v.22l-.07.36-.08.32,0,.36v.76l0,.47v.72l.07.39,0,.22.07.36.15.32.14.29.22.25.28.18.29.11.36.07h.61l.29,0,.33-.11.43-.18.39-.22.29-.21.36-.29.33-.32.43-.4.29-.25.21-.29.15-.18.21-.29.15-.25.21-.32.15-.18.21-.33.29-.54.18-.29.22-.32.18-.32.18-.36.32-.47.36-.29.47.07.29.36v.36l-.11.33-.15.28-.18.29-.14.33-.14.28-.11.29-.18.29-.15.25-.18.29-.21.32-.07.18-.18.33-.22.29-.36.5-.25.32L390,78l-.25.32-.21.25-.29.36-.33.29-.25.25-.21.18-.26.22-.32.18-.29.14-.32.15-.29.14-.29.11-.32.14-.43.15-.72.14-.44,0-.39,0h-.22l-.36,0-.32-.07-.29-.11-.32-.1-.29-.15-.29-.18-.25-.21-.22-.22-.21-.25-.15-.29L381.3,79l-.11-.29-.07-.32L381,78.1l0-.32-.07-.36V77.2l-.07-.39,0-.33v-.32l0-.33,0-.36v-.21l0-.47L381,74l0-.43v-.33l.07-.32.07-.36.25-1.19.11-.43.11-.65.07-.18.11-.43.07-.22.14-.54.11-.47.07-.32.11-.43.15-.51,0-.25.15-.5.14-.47.11-.25.14-.47.15-.43.14-.32.36-.94.07-.22.22-.5.25-.58.18-.43.14-.32.11-.22.18-.32.25-.61.18-.36.18-.33.22-.32.29-.47.47-.65.21-.29.47-.46.14-.18.26-.26.25-.18.57-.39.4-.25.4-.18.32-.11.32-.07h.65l.36.07.22,0,.36.11.29.15.5.43.18.29.25.36.18.43.15.32.14.43.07.47v.65l-.07,1-.14.65-.11.29-.07.36-.29.86-.15.29Zm-6,1-.5,1.51-.08.33-.1.32-.15.47-.25.75-.11.36,0,.22-.11.36-.11.32-.07.36.07.22.22-.14.36-.29,1.47-1.48.18-.25.18-.29.22-.32.14-.15.22-.32L388,66l.25-.36.25-.4.18-.29.15-.25.18-.25.29-.58.14-.36.11-.21.14-.36.15-.33.07-.32.11-.32.1-.4.15-.4.11-.39.14-.4,0-.36,0-.32V59l-.07-.28-.11-.29-.25-.18-.29-.07-.32.07-.33.25-.25.22-.18.21-.18.25-.18.29-.36.54-.18.33-.14.32-.15.29-.14.32-.14.29-.15.32-.11.29-.14.4-.22.54-.14.32Z"/>
      <path d="M423.49,55.71l.43.15.4.18.28.18.51.43.36.5.11.29.1.32.08.4.14.72,0,.4V60l0,.32-.07.44,0,.46,0,.22,0,0,.15-.18.18-.29.18-.25.21-.26.18-.25.22-.25.25-.22.18-.25.22-.25.68-.68.25-.22.68-.61.37-.29.46-.36.25-.22.51-.36.29-.18,1.22-.46.47-.15.43-.07h1.33l.65.14.32.11.58.29.25.18.25.25.22.25.18.26.14.28.11.33.07.29.08.32,0,.32,0,.36v.65l0,.33v.36l0,.21,0,.4,0,.32-.07.33-.07.25-.07.36-.18.93-.07.33-.22.64-.07.33-.11.32-.07.29-.22.65-.07.29-.07.32-.22.65-.07.29-.22.64-.07.33-.07.29-.11.32-.07.32-.11.33-.11.29-.07.32-.11.32-.07.33-.07.29-.07.32-.11.32-.11.29-.11.33-.1.28-.22,1,0,.32-.07.36-.11.47-.07.43-.07.4-.07.46-.07.44,0,.36v.64l0,.33v.32l0,.33,0,.36,0,.32.08.29.1.32.18.32.08.22.21.33.22.25.21.21.29.22.25.18.29.32.11.51-.18.54-.32.46-.47.33-.54.07-.47-.07-.32-.11-.29-.18-.25-.14-.22-.18-.25-.18-.29-.26-.25-.32-.11-.14-.25-.36-.43-.8-.11-.35-.07-.22-.11-.36,0-.32,0-.29-.11-1v-.65l0-.36v-.33l0-.32.07-.43.07-.47v-.36l.08-.65.1-.47.07-.5.18-.76.08-.43.11-.36,0-.32.07-.33.11-.43.25-.75.18-.65.11-.43.11-.33.07-.32.07-.43.11-.36.15-.4.1-.36.15-.4.14-.5.11-.43.11-.36.1-.29.11-.32.11-.29.22-.65.07-.32.11-.36.07-.33.07-.25.07-.32.11-.33.14-.64.08-.36.07-.65v-.69l-.07-.64-.08-.33-.14-.29-.22-.25-.28-.21-.29-.11-.36,0-.43.07-.44.11-.32.15-.29.14-.54.36-.28.18-.26.18-.47.47-.5.43-.22.18-.46.47-.18.25-.25.22-.36.5-.22.25-.18.25-.25.26-.44.5-.39.57-.11.19-.21.28-.36.47-.22.32-.25.44-.25.36-.15.32-.11.29-.21.65-.07.32-.11.47-.11.43-.32,1-.08.29-.1.32-.22,1,0,.28-.1.33-.08.32-.1.33-.08.28-.1.33-.15.65-.11.36-.1.46-.11.4-.11.36-.11.43-.11.47-.1.32-.15.65-.11.36-.1.29-.15.58-.14.64-.11.33-.11.28-.21.65-.18.43-.33.47-.47.33-.57.18-.61,0-.54-.11-.44-.18-.1-.28,0-.29.07-.33.15-.46.11-.44.14-.32.11-.32.11-.29.1-.32.08-.29.1-.33.08-.32.1-.32.08-.33.07-.29.11-.36.14-.43.11-.43.07-.36.07-.32.07-.29.08-.33.1-.32.11-.29.22-1,.11-.32.07-.33.11-.47.1-.43.11-.36.11-.47.11-.43.07-.32.22-.65.07-.29.14-.65.11-.32.07-.32.07-.29.36-1.62.08-.29.21-.65.11-.29.11-.32.07-.32.11-.65.07-.36.07-.32L423,61l0-.33v-1l0-.33-.07-.32-.11-.33-.18-.25-.25-.25-.29-.18-.28-.11-.33,0-.36,0-.32,0-.4.18-.39.21-.33.15-.25.18-.5.43-.29.25-.36.29-.29.25-.29.29-.57.65-.26.25-.36.5-.25.29-.14.18-.29.4-.29.36-.5.64-.29.36-.22.29-.25.4-.32.47-.25.39-.15.33-.18.28-.14.29-.15.43-.1.44-.07.32-.15.47-.25.75-.14.47-.11.58-.11.47-.4,1.18-.1.36-.11.44-.11.46-.11.33-.11.29-.1.32L411,74l-.11.43-.22.65-.07.32-.21.87-.18.57-.11.36-.07.29-.11.32-.11.29-.07.33-.11.28-.11.33-.11.29-.1.32-.18.43-.29.47-.47.29-.58.07-.61-.07-.54-.22-.36-.36-.07-.4,0-.32.21-.65.11-.29.11-.32.14-.65.11-.28L407,77l.15-.39.07-.18.11-.4.07-.29.07-.32.11-.33.11-.28.1-.33.15-.29.11-.32.07-.32.07-.36.11-.44.14-.46.07-.33.22-.65.11-.28.11-.33.21-1,.11-.29.11-.32.07-.33.11-.32.07-.29.07-.32.22-.65.07-.29.07-.32.11-.33.11-.28.14-.65.22-.65.11-.29.07-.32.11-.33.07-.32.11-.29.21-1,.14-.32.08-.33.07-.28.22-.65.1-.29L412,60l.07-.33,0-.21-.07,0-.18.14-1.26,1.08-.51.36-.28.18-.58.29-.29.18-.25.18-.29.15-.32.14-.29.11-.29.18-.29.14-.32.18-.4.22-.39.18-.33.14-.28.18-.33.18-.18.11-.32.25-.25.18-.44.5-.18.26-.14.28-.14.65,0,.33v.68l.11.36.14.29.22.29.25.21.32.15.33.1.36.22.18.5-.15.54-.21.36-.29.15h-.32l-.29,0-.4-.07-.47-.11-.43-.11-.29-.1-.28-.15-.29-.18-.29-.21-.32-.33-.29-.36-.22-.29-.14-.32-.07-.32-.11-.44-.07-.46v-.69l.07-.29.07-.32.25-.75.22-.4.18-.33.29-.36.28-.32.29-.21.25-.18.26-.22.25-.18.32-.18.4-.18.39-.22.36-.18.4-.18.76-.25.57-.29.9-.39.72-.33.4-.14.32-.14.29-.15.61-.32.36-.22L410,59l.28-.21.29-.18.29-.22.5-.43.22-.18.25-.22.25-.18.26-.21.64-.76.18-.29.26-.21.28-.18.33-.08h.36l.36,0,.36.11.28.18.29.21.11.29,0,.33-.22,1-.11.29-.11.32-.1.29-.08.32-.11.33-.07.32-.07.29-.21,1-.11.29,0,.18.11-.07.25-.29.11-.22.22-.32.43-.51.21-.21.29-.33.32-.32.26-.29.5-.43.22-.22.25-.21.21-.22.22-.25.25-.18.25-.22.33-.18.18-.1.32-.22.29-.18.25-.18.33-.11.43-.18.36-.11.36-.07.36,0h1.26Z"/>
      <path d="M449.63,72l-.18.25-.44.5-.5.44-.25.18-.33.18-.21.07-.36.21-.22.11-.32.15-.36.1-.33.11-.32,0-.36.07-.4,0-.43.07-.32,0H444l-.64-.07-.65,0-.33,0-1-.22h-.25l-.18.15-.07.25v.32l0,.36v.62l0,.36.07.28.22.65.36.58.21.25.22.22.57.35.36.11.33.11.25,0,.32.07.33,0h.36l.32,0,.94-.18.32-.07.33-.11.28-.11.62-.25.57-.29.51-.39.25-.18.25-.22.5-.47.44-.5.18-.25.21-.29.36-.51.18-.28.15-.29.18-.29.14-.29.18-.25.14-.29.15-.32.14-.29.18-.29.25-.18h.33l.32.22.18.32,0,.33-.14.32-.18.4-.22.39-.17.4-.22.39-.22.36-.36.58-.1.22-.22.32-.36.5-.22.26-.21.21-.22.25-.25.29-.11.15-.25.28-.22.26-.5.43-.36.28-.32.29-.58.36-.9.4-.29.11-.32.1-.47.08-.43.1-.76.08-.47,0-.39,0h-.33L442,80.94l-.29-.07-.32-.11-.33-.14-.29-.14-.57-.33-.29-.14-.25-.22-.25-.25-.15-.18-.25-.29-.22-.25-.17-.29-.15-.25-.14-.32-.11-.29-.11-.32L438,77l-.07-.29-.07-.32-.11-1v-.69l0-.32v-.32l.22-1,.11-.28.07-.33.11-.32.07-.33.11-.32.14-.4.18-.43.18-.32.22-.4.25-.36.14-.32.18-.25.22-.26.54-.57.54-.54.29-.25.32-.26.36-.25.32-.25.36-.22.36-.18.33-.14.47-.22.75-.25.65-.14.47-.07h.79l.47.07.57.11.47.1.33.11.32.15.29.14.21.14.51.44.21.25.22.36.18.43.11.32.07.33,0,.32v.43l0,.47,0,.36-.1.43-.15.44-.14.36-.11.18-.18.32Zm-4.4-4.32-.5.21-.43.22-.29.18-.5.43-.33.33-.29.32-.25.29-.25.39-.25.36-.18.33-.22.39-.14.44-.15.32-.1.29,0,.25.18.18.47.11.72,0,.36,0h1l.36-.07.32-.07.36-.15.22-.07.36-.18.25-.18.25-.22.25-.25.25-.21.22-.29.18-.25.14-.29.18-.33.22-.64.07-.36,0-.33,0-.36-.14-.32-.22-.25-.29-.22-.32-.14-.32-.08-.33,0-.36.07Z"/>
      <path d="M454,69.07l.25-.26.44-.5.75-.65.25-.18.29-.21.25-.18.29-.15.33-.14.54-.29.32-.18.65-.22.29-.1.64-.15.33,0,.36,0,.65-.07h.82l.47.07.4.07.25,0,.21-.11.15-.25.07-.33.22-.64.07-.29.11-.32.25-.62.11-.36.07-.21.14-.36.07-.29.22-.65.11-.29.36-1.08.18-.43.21-.65.11-.28.15-.36.07-.22.29-.65.1-.29.33-.61.14-.29.33-.25.39-.14h.36l.33,0,.36.08.21.07.36.11.25.18.11.28-.07.29-.07.33-.15.32-.14.29-.11.29-.11.32-.18.43-.14.43-.14.4-.44,1.15-.14.43-.18.44-.11.32-.11.29-.25.75-.18.44-.11.36L466,65.14l-.07.33-.11.28-.11.33-.11.29-.11.32-.1.29-.07.32-.08.29-.07.32-.11.33-.11.29-.1.32-.07.32-.08.29-.07.33-.11.32-.11.47-.14.47-.07.21-.11.4L464,72l-.07.43-.08.47-.21,1,0,.33-.07.32-.07.47-.07.43,0,.33-.07.32,0,.32v.33l0,.36,0,.47.11.43.11.32.22.22.28.1.33,0,.29-.07.32-.11.29-.18.65-.57.25-.26.36-.5.36-.58.5-.72.18-.28.15-.29.18-.33.36-.79.18-.32.14-.25.14-.33.18-.39.4-.29.43.07.25.36v.47l-.18.43-.18.36-.21.4-.22.46-.14.22-.43.86-.22.33-.47.75-.36.58-.18.25-.21.29-.18.25-.22.22-.25.21-.25.29-.15.15-.25.28-.25.22-.29.18-.25.14-.29.15-.94.32-.32.07h-.29l-.32,0-.33,0-.32-.07-.29-.14-.28-.18-.22-.18-.25-.26-.36-.5-.15-.29-.1-.32-.08-.29-.1-1v-.68l-.08,0-.18.25-.18.29-.32.58-.18.25-.22.25-.39.5-.22.22-.75.65-.33.25-.36.29-.32.21-.29.15-.36.1-.83.18-.36.08-.32,0-.29,0-.32,0-.33-.07-.29-.07-.32-.15-.25-.14-.29-.22-.32-.32-.33-.29-.18-.29-.14-.28-.11-.33-.22-.57-.1-.33,0-.32,0-.43V76.7l0-.33v-.32l0-.36,0-.43.07-.47.07-.32.11-.36,0-.22.11-.36.1-.32.33-.87.11-.32.28-.58.22-.39.18-.4.22-.36.14-.18.22-.29.36-.5Zm7.35-1.26-.69,0h-.32l-.33.07-.36.08-.21.07-.36.14-.33.11-.32.14-.29.18-.25.18-.25.22-.25.25-.51.43-.21.22-.22.25-.43.54-.18.25-.18.33-.43.79-.18.29-.11.29-.11.32-.11.29-.14.32-.22.87-.11.32-.07.47,0,.43,0,.36.07.47.07.57.08.47.1.33.18.25.22.21.25.22.33.14.43.08.43,0,.36-.15.22-.1.32-.18.25-.18.43-.43.26-.29.21-.25.25-.26.18-.25.18-.29.22-.32.25-.43.25-.33.15-.28.14-.33.11-.29.14-.32.18-.43.18-.4.15-.32.11-.29.5-1.51.14-.47.29-1.15.11-.47.11-.36.07-.4L461.9,68l-.25-.14Z"/>
      <path d="M477,72.88v.4l-.11.32-.28.58-.33.54-.18.32-.14.29-.22.32-.11.22-.18.32-.18.29-.18.25-.21.29-.18.25-.36.58-.65.75-.43.47-.25.26-.22.25-.25.21-.79.61-.26.19-.32.14-.32.11-.29.07-.65.14h-.61l-.4,0-.29-.11-.32-.11-.29-.18-.25-.22-.18-.25-.18-.29-.14-.32-.08-.29-.07-.32,0-.33v-.32l.07-.65.07-.32.11-.32.14-.65.11-.29.07-.32.11-.33.11-.29.32-1,0-.29.07-.32.11-.32.07-.33.07-.29.22-.64.11-.44.1-.46.22-.65.07-.33.07-.25.08-.32.14-.36.11-.29.21-1,.11-.33.11-.43.14-.47.11-.32.15-.29.21-.18.33-.14.28,0,.36,0,.65.07.58.22.18.25v.32l-.07.33-.11.43-.11.47-.22.64-.07.29-.07.33-.11.36-.11.43-.36,1.08-.07.32-.14.47-.25.76-.08.32-.07.29-.07.32-.25.61-.07.33-.26.9-.21.65-.07.32-.11.47-.11.57-.07.62.07.54.29.39.39.11.33,0,.32-.14.25-.18.29-.22,1.19-1.18.21-.26.19-.25.21-.29.36-.57.22-.25.14-.22.18-.29.22-.32.14-.33.29-.61.43-.86.18-.29.32-.18.47.07Zm-5.79-11,.18-.29.28-.25.29-.18.36-.11.33-.07H473l.32.07.29.18.25.22.25.25.18.29.11.32,0,.33V63l-.1.32-.18.29-.22.29-.25.21-.29.22-.32.14-.36.08-.33,0-.36-.07-.57-.36-.22-.26-.18-.28-.07-.33,0-.32,0-.32.07-.36Z"/>
      <path d="M493.47,73.85l-.07.18-.18.36-.18.26-.14.28-.15.33-.14.29-.36.57-.18.25-.18.29-.15.29-.18.29-.21.25-.22.29-.21.25-.4.5-.22.26-.21.21-1,.86-.29.18-.32.19-.4.17-.43.19-.32.1-.33.07h-.36l-.43,0-.43-.11-.33-.11-.25-.18-.25-.21-.25-.36-.25-.4-.11-.32-.11-.44,0-.46v-.36l0-.47,0-.43-.11-.07-.18.25-.36.57-.36.51-.22.25-.18.25-.21.25-.18.26-.25.21-.22.22-.25.21-.25.18-.29.18-.4.25-.54.26-.57.18-.47.1-.65.08-.36,0-.43-.07-.43-.11-.33-.11-.29-.1-.25-.19L476,80l-.18-.25-.18-.29L475.4,79l-.21-.54-.11-.47,0-.36L475,77.2l0-.57v-.47l0-.36,0-.47.07-.43.11-.36.1-.43.11-.47.11-.33.14-.28.11-.33.87-1.73.18-.28.18-.26.18-.28.36-.51.21-.25.47-.54.14-.14.26-.29.5-.43.32-.33.4-.29.5-.39.29-.18.25-.18.33-.15.43-.18.39-.21.36-.18.44-.15.43-.1.36-.11.9-.07.32,0h.43l.72,0,.83.07.79.14.33.07.39.11,1.44.65.26.22.25.18.25.21.22.25.07.4-.15.5-.39.44-.4.25-.29,0-.28-.1-.29-.22-.33-.18-.28-.18-.26-.11-.28-.14-.33-.15-.29-.07-.61-.14-.36-.11-.36-.07h-.72l-.25,0-.36,0-.47.11-.9.32-.36.18-.36.22-.25.18-.29.18-.25.18-.25.21-.29.26-.14.14-.26.29-.21.25-.18.25-.43.51-.18.25-.18.29-.43.86-.19.29-.21.65-.14.32-.15.29-.21,1-.11.36-.11,1v1l0,.36.1.32.15.29.18.29.21.21.33.15.43.07.47,0,.32-.11.58-.29.5-.43.22-.22.25-.21.21-.26.19-.25.21-.25.18-.25L483,76l.18-.25.54-.87.21-.39.25-.47.15-.22.43-.93.14-.33.08-.25.14-.32.11-.29.11-.33.14-.39.22-.72.14-.4.11-.36.21-.32.36-.18.33-.07.32,0,.33.07.57.29.29.18.14.22,0,.32-.11.29-.07.32-.11.33-.14.65-.11.32-.07.29-.22.65-.07.36,0,.21-.1.43-.08.33-.14.61-.11.43-.07.36L487,76l-.11.54-.11.61,0,.54,0,.47.18.29.36.17.54,0,.43-.14.33-.18.5-.36.25-.25.44-.47.43-.51.36-.5.18-.29.21-.29.08-.21.57-.87.15-.28L492,74l.72-1.44.32-.18.43.07.29.36,0,.36-.14.32Z"/>
    </g>
    <g>
      <path d="M333,101.65v.28l0,.13-.07.08-.07,0-.11,0h-.25l-1.22-.06h-.82l-1,.06-.64,0h-.82l-.5,0h-.32l-.12,0-.08,0-.05-.06,0-.13v-.18l.06-.42v-.16l0-.59v-.17l0-.59v-.17l0-1.34v-.18l0-1.34V96.6l0-.58v-.94l0-.33v-.26l0-.14,0-.07.08,0,.12,0h.09l.16,0,.54,0H329l.08,0,.05.08v1l0,.64v.18l0,.64v.17l0,.64v.18l0,.64v.17l-.06,1.45v.17l0,0,.06.05.13,0,.37,0,.33,0h.18l1.58,0H332l.37,0h.35l.13,0,.07.07,0,.08v.91Z"/>
      <path d="M344.17,98.11v.18l0,.25,0,.16-.07.33,0,.26,0,.16,0,.18,0,.16-.11.23-.08.16-.29.49-.1.15-.11.14-.11.12-.18.19-.12.11-.14.11-.14.1-.19.13-.15.09-.16.08-.16.07-.22.09-.16,0-.35.11-.19.06-.18,0-.18,0-.19,0h-.78l-.38,0-.36-.05-.15,0-.17,0-.59-.2-.18-.06-.18-.07-.36-.16-.16-.09-.17-.1-.14-.11-.14-.12-.13-.14-.13-.14-.29-.3-.11-.13-.11-.14-.09-.15-.09-.22-.16-.49-.07-.23,0-.17,0-.17,0-.17,0-.24v-.93l0-.18,0-.19.05-.19.05-.18.06-.17.06-.17.08-.26.08-.17,0-.1.09-.17.15-.24.11-.15.06-.09.13-.13.19-.16.14-.11.14-.1.33-.22.15-.09.15-.08.15-.08.23-.1.16,0,.16-.06.17,0,.42-.08.16,0,.55-.07.35,0,.33,0h.27l.19,0,.18,0,.19,0,.19,0,.17,0,.17,0,.16.06.23.09.16.06.36.21.14.1.15.11.18.17.12.12.13.12.09.13.16.21.09.14.07.14.09.15.12.22.09.14.08.16.05.16L344,97l.06.33,0,.19,0,.19Zm-2.68,1.43.1-.15.11-.25.06-.16.06-.25,0-.17,0-.26v-.55l-.07-.33,0-.16-.12-.24-.09-.14-.15-.2-.11-.12-.17-.18-.12-.1-.29-.16-.15-.07-.18,0-.17,0-.35,0h-.41l-.17,0-.28.07-.18.07-.25.13-.16.1-.17.15-.12.14-.12.16-.09.15,0,.06-.09.23-.06.17,0,.07,0,.16,0,.15v.66l0,.18v.1l0,.16,0,.08.06.15,0,.09.09.16.05.08.13.16.06.07.13.14.22.18.16.1.17.09.17.07.23.07.16,0,.28,0h.19l.27,0,.18,0,.24-.06.15-.06.25-.16.13-.1.17-.17.11-.12Z"/>
      <path d="M355,97.66v.19l0,.71v1l0,.47v.77l-.07.11-.09.14-.1.14-.18.19-.14.12-.06.07-.15.1-.07,0-.15.09-.22.11-.16.06-.15.06-.26.08-.16,0-.18,0-.16,0-.26,0-.15,0-.17,0-.44.06h-.16l-.34,0-.25,0-.18,0-.18,0-.16,0-.39-.11-.16-.05-.17,0-.22-.08-.14-.08-.22-.12-.13-.1-.15-.1-.13-.11-.13-.09-.12-.11-.18-.18-.11-.13-.12-.17-.1-.15-.27-.5-.08-.17-.07-.17-.06-.17-.06-.19,0-.18,0-.18,0-.18-.05-.24,0-.18v-.33l0-.49,0-.09,0-.19,0-.18.06-.18.05-.19.06-.17.05-.17.08-.17.08-.19.07-.16.15-.19.09-.14.13-.14.12-.13.13-.12.29-.24.14-.11.13-.1.13-.09.36-.21.17-.1.19-.08.18,0,.18-.05.41-.06.32-.05.16,0,.17,0,.25,0h.17l.25,0H352l.25,0,.16,0,.24,0,.17,0,.24.08.16.06.4.19.16.1.15.1.05,0,.12.08.12.09.06,0,.12.09.07.06.06.08v.07l0,.08-.07.1-.1.14-.11.12-.3.31-.2.18-.13.11-.12.08-.09.07-.07,0h-.09l-.12-.07-.14-.1-.14-.09-.16-.09-.17-.07-.18-.07-.19,0-.18,0-.52,0h-.25l-.29,0-.18,0-.33.15-.14.1-.14.11-.12.12-.11.14-.1.15-.09.15-.07.17-.05.17-.05.17-.06.33,0,.17,0,.19v.19l0,.26,0,.18.05.25.06.18.11.26.08.15.13.2.11.13.2.19.14.11.22.12.16.07.33.08.19,0h.36l.18,0,.17,0,.59-.14.18-.07.16-.07.11-.08,0-.07v-.12l0-.1v-.16l0-.33v-.19l0-.06-.12,0h-.27l-.17,0-.25,0h-.61l-.37-.07-.07,0,0,0,0-.14v-.54l0-.33,0-.16v-.23l0-.12.06-.06.13,0,.27,0h.7l.71,0,.88.06h.18l.45-.06h.26l.17,0,.08,0,0,.07,0,.15Z"/>
      <path d="M367,98.11v.18l0,.25,0,.16-.07.33,0,.26,0,.16,0,.18,0,.16-.11.23-.08.16-.29.49-.1.15L366,101l-.11.12-.18.19-.12.11-.14.11-.13.1-.2.13-.15.09-.16.08-.15.07-.22.09-.17,0-.35.11-.19.06-.17,0-.19,0-.19,0h-.78l-.37,0-.37-.05-.15,0-.17,0-.59-.2-.18-.06-.18-.07-.35-.16-.17-.09-.16-.1-.15-.11-.14-.12-.13-.14-.12-.14-.3-.3-.11-.13-.11-.14-.09-.15-.09-.22-.16-.49-.07-.23,0-.17,0-.17,0-.17,0-.24v-.93l0-.18,0-.19,0-.19.05-.18.06-.17.06-.17.08-.26.08-.17,0-.1.09-.17.15-.24.11-.15.06-.09.13-.13.19-.16.14-.11.14-.1.33-.22.15-.09.15-.08.16-.08.23-.1.15,0,.17-.06.16,0,.42-.08.16,0,.55-.07.36,0,.33,0h.26l.19,0,.18,0,.19,0,.19,0,.17,0,.17,0,.16.06.24.09.15.06.36.21.15.1.14.11.19.17.12.12.12.12.1.13.15.21.09.14.08.14.08.15.12.22.09.14.08.16,0,.16.06.25.07.33,0,.19,0,.19Zm-2.68,1.43.1-.15.11-.25.06-.16.06-.25,0-.17,0-.26v-.55l-.07-.33,0-.16-.12-.24-.09-.14-.15-.2-.11-.12-.17-.18-.12-.1-.28-.16-.16-.07-.17,0L363,96l-.35,0h-.41l-.17,0-.28.07-.18.07-.25.13-.15.1-.18.15-.12.14-.12.16-.09.15,0,.06-.1.23-.06.17,0,.07,0,.16,0,.15,0,.16v.5l0,.18v.1l0,.16,0,.08.06.15,0,.09.09.16.06.08.12.16.06.07.14.14.22.18.15.1.18.09.16.07.23.07.17,0,.27,0h.19l.27,0,.18,0,.24-.06.16-.06.24-.16.13-.1.18-.17.11-.12Z"/>
      <path d="M384,101.17l-.09.09-.2.17-.13.1-.21.16-.13.08-.22.12-.14.08-.25.12-.17.06-.19,0-.18,0-.28.06-.38,0h-.2l-.28,0h-.76l-.18,0-.19,0-.19,0-.16-.06-.5-.13-.24-.09-.14-.06-.21-.13-.13-.09-.15-.1-.15-.1-.29-.24-.13-.14-.12-.14-.12-.16-.1-.16-.09-.15-.07-.16-.11-.23-.17-.46-.08-.22-.11-.33,0-.16v-.79l0-.37v-.18l0-.16,0-.24,0-.17.05-.16.06-.16.07-.22.08-.15.08-.17.09-.16.1-.17.09-.15.11-.14.13-.16.13-.14.13-.12L378,95l.13-.11.36-.24.14-.09.15-.09.33-.15.19-.07.18-.06.37-.08.19,0,.18,0,.35,0,.24,0h.4l.41,0,.16,0,.25,0,.38.11.16.07.24.14.15.09.29.2.34.24.12.09.07,0,.08.08,0,.09v.08l-.07.09-.1.12-.12.12-.12.12-.12.09-.12.13-.19.22-.12.13-.06,0-.1.09-.07,0h-.08l-.08,0-.12-.06-.21-.16-.14-.07-.24-.11-.15-.06-.25-.07-.16,0-.28,0h-.17l-.25,0-.17,0-.24.07-.17.07-.14,0-.22.11-.16.11-.07.07-.14.14-.09.16L379,97l-.08.15-.06.17-.06.17,0,.19,0,.17,0,.33v.17l0,.28v.16l0,.26.06.16.07.19.09.16.17.24.12.14.21.17.14.1.22.11.16.07.25.06.17,0H381l.15,0,.09,0,.17,0,.27-.1.18-.08.16-.08.15-.07.2-.13.15-.11.11-.08.06,0,.1,0,.12.08.12.11.05.06.11.12.17.22.12.13.29.35.1.13.06,0,.05.1Z"/>
      <path d="M395.11,98.11v.18l0,.25,0,.16L395,99l0,.26,0,.16,0,.18,0,.16-.11.23-.08.16-.29.49-.1.15-.11.14-.11.12-.18.19-.12.11-.14.11-.14.1-.19.13-.15.09-.16.08-.16.07-.22.09-.16,0-.35.11-.19.06-.18,0-.18,0-.19,0h-.78l-.37,0-.37-.05-.15,0-.17,0-.59-.2-.18-.06-.18-.07-.36-.16-.16-.09-.17-.1-.14-.11-.14-.12-.13-.14-.13-.14-.29-.3-.11-.13-.11-.14-.09-.15-.09-.22-.16-.49-.07-.23,0-.17,0-.17,0-.17,0-.24v-.93l0-.18,0-.19.05-.19.05-.18.06-.17.06-.17.08-.26.08-.17,0-.1.09-.17.15-.24.11-.15.06-.09.13-.13.19-.16.14-.11.14-.1.33-.22.15-.09.15-.08.15-.08.24-.1.15,0,.16-.06.17,0,.42-.08.16,0,.55-.07.35,0,.33,0h.27l.19,0,.18,0,.19,0,.19,0,.17,0,.17,0,.16.06.23.09.16.06.36.21.14.1.15.11.18.17.13.12.12.12.1.13.15.21.09.14.07.14.09.15.12.22.09.14.08.16.05.16L395,97l.06.33,0,.19,0,.19Zm-2.68,1.43.1-.15.11-.25.06-.16.06-.25,0-.17,0-.26v-.55l-.07-.33,0-.16-.12-.24-.09-.14-.15-.2-.11-.12-.17-.18-.12-.1-.29-.16-.15-.07-.18,0-.17,0-.35,0h-.41l-.17,0-.28.07-.18.07-.25.13-.15.1-.18.15-.12.14-.12.16-.09.15,0,.06-.1.23-.06.17,0,.07,0,.16,0,.15v.66l0,.18v.1l0,.16,0,.08.06.15,0,.09.09.16.05.08.13.16.06.07.13.14.22.18.16.1.17.09.17.07.23.07.16,0,.28,0h.19l.27,0,.18,0,.24-.06.15-.06.25-.16.13-.1.17-.17.11-.12Z"/>
      <path d="M404.55,101.65v.28l0,.13-.06.08-.08,0-.11,0H404l-1.22-.06H402l-1,.06-.64,0h-.81l-.51,0h-.31l-.12,0-.08,0-.06-.06,0-.13v-.18l.06-.42v-.16l-.05-.59v-.17l0-.59v-.17l0-1.34v-.18l-.05-1.34v-1.7l0-.33v-.26l0-.14.05-.07.08,0,.12,0h.08l.17,0,.54,0h1.07l.07,0,.06.08v1l0,.64v.18l0,.64v.17l0,.64v.18l0,.64v.17l-.06,1.45v.17l0,0,.05.05.14,0,.37,0,.33,0h.18l1.58,0h.18l.37,0h.34l.13,0,.08.07,0,.08v.12l0,.61v.18Z"/>
      <path d="M414.05,101.65v.28l0,.13-.07.08-.07,0-.12,0h-.24l-1.22-.06h-.82l-1,.06-.64,0H409l-.5,0h-.32l-.12,0-.08,0-.05-.06,0-.13v-.18l.06-.42v-.16l0-.59v-.17l0-.59v-.17l0-1.34v-.18l0-1.34V96.6l0-.58v-.94l0-.33v-.26l0-.14,0-.07.08,0,.12,0h.09l.16,0,.54,0h1.07l.08,0,.05.08v1l0,.64v.18l0,.64v.17l0,.64v.18l0,.64v.17l-.06,1.45v.17l0,0,.06.05.13,0,.37,0,.33,0h.18l1.58,0H413l.37,0h.34l.14,0,.07.07,0,.08v.91Z"/>
      <path d="M423.82,101.13v.18l-.05.59V102l0,.07,0,0-1.45,0H422l-.59,0h-.17l-.57,0h-.94l-.57,0H419l-.94,0-.38,0-.13,0-.08-.06,0-.07,0-.12,0-.26v-.5l0-.59v-.93l0-.58v-.18l0-.59v-.94l0-.58v-.18l0-.58v-.44l0-.33v-.17l0-.57v-.15l0-.09.05-.05h.09l.14,0,.72,0,.67,0h.18l.66.05h.17l.66-.05h.18l1.49,0h.19l.37,0h.28l.15,0,.07,0,0,.08,0,.14v.3l0,.27v.8l0,.13,0,.07-.06.05-.13,0h-.26l-1,0h-.17l-.57,0h-.17l-.57,0-.5,0h-.25l-.11,0-.06.05v.07l0,.12,0,.27v.48l0,.08.05,0,.12,0,.35,0,.35,0h1l1.23-.06.34,0,.12,0,.07.06,0,.06v.12l0,.19v.55l0,.25,0,.33,0,.14,0,.07-.08.06-.11,0H423l-.49,0-.18,0-.88.06-.7,0h-.18l-.44,0-.19,0h-.13l-.05,0,0,.08v.16l0,.28v.52l0,.08,0,0h.12l.6,0h.18l.59,0,.78,0h.18l.78,0h.16l.17,0,.4,0,.06,0,0,.07v.12Z"/>
      <path d="M434.33,101.17l-.09.09-.2.17-.13.1-.21.16-.13.08-.22.12-.15.08-.25.12-.16.06-.19,0-.19,0-.27.06-.39,0h-.2l-.27,0h-.76l-.19,0-.19,0-.18,0-.17-.06-.49-.13-.24-.09-.15-.06-.21-.13-.13-.09-.14-.1-.16-.1-.28-.24-.13-.14-.12-.14-.13-.16-.09-.16-.09-.15-.08-.16-.11-.23-.16-.46-.08-.22-.11-.33,0-.16v-.79l0-.37v-.18l0-.16.05-.24,0-.17.06-.16.05-.16.08-.22.07-.15.08-.17.09-.16.1-.17.1-.15.11-.14.12-.16.13-.14.13-.12.15-.12.13-.11.35-.24.14-.09.16-.09.33-.15.18-.07.18-.06.37-.08.19,0,.19,0,.34,0,.24,0h.41l.41,0,.15,0,.25,0,.39.11.15.07.24.14.16.09.28.2.34.24.13.09.06,0,.08.08,0,.09v.08l-.07.09-.09.12-.13.12-.12.12-.12.09-.12.13-.19.22-.12.13-.05,0-.1.09-.08,0h-.08l-.07,0-.12-.06-.21-.16-.15-.07-.24-.11-.15-.06-.24-.07-.17,0-.27,0h-.18l-.24,0-.18,0-.24.07-.16.07-.15,0-.22.11-.15.11-.08.07-.13.14-.1.16-.08.14-.07.15-.07.17-.05.17,0,.19,0,.17,0,.33v.61l.06.26.05.16.08.19.09.16.16.24.12.14.21.17.14.1.22.11.17.07.24.06.18,0h.51l.16,0,.09,0,.16,0,.28-.1.17-.08.17-.08.14-.07.21-.13.14-.11.11-.08.07,0,.1,0,.12.08.12.11,0,.06.11.12.18.22.11.13.3.35.09.13.06,0,.06.1Z"/>
      <path d="M444,95.09v.76l0,.14,0,.07-.06.06-.14,0h-.17l-.33,0H443l-.5,0h-.18l-.27,0h-.25l-.11,0,0,.07v.14l-.05.65v.18l.05.66V98l-.05.66v.18l0,.65v1l0,.65v.16l.06.5V102l0,.14-.06,0-.14,0h-.21l-.28,0h-.18l-.5,0h-.17l-.5,0h-.13l-.07,0,0-.12v-.18l0-.47,0-.17V98.68l-.05-.66V97l0-.65v-.15l0-.09-.11,0H439l-.35,0h-.2l-.29,0h-.88l-.13,0-.06,0-.05-.07,0-.11V95.6l0-.33v-.16l0-.42v-.18l0-.14.05-.08.06,0,.11,0h.26l.4,0h.18l.64,0h.17l.65,0h.18l.81,0H443l.36,0h.19l.08,0,.14,0,.07,0,.06.08,0,.13v.24Z"/>
      <path d="M449.54,100.42v.18l-.05.59v.9l0,.06-.09,0H448l-.54,0-.07,0,0,0V102l0-.27v-.51l0-.59v-.18l0-.59v-.18l0-.61V95l0-.61,0-.12.07,0h.2l.16,0,.26,0h.18l.51,0h.68l.12,0,0,.06v.12l0,.29,0,.18v3.39l0,.6v1Z"/>
      <path d="M461.75,98.11v.18l0,.25,0,.16-.06.33,0,.26,0,.16,0,.18,0,.16-.11.23-.08.16-.3.49-.1.15-.11.14-.11.12-.17.19-.12.11-.15.11-.13.1-.2.13-.14.09-.16.08-.16.07-.22.09-.16,0-.36.11-.18.06-.18,0-.19,0-.18,0h-.78l-.38,0-.36-.05-.16,0-.16,0-.59-.2-.18-.06-.19-.07-.35-.16-.16-.09-.17-.1-.14-.11-.15-.12-.13-.14-.12-.14-.3-.3-.11-.13-.11-.14-.08-.15-.09-.22-.17-.49-.06-.23,0-.17,0-.17,0-.17,0-.24v-.93l0-.18,0-.19,0-.19.06-.18.05-.17.07-.17.08-.26.07-.17,0-.1.09-.17.15-.24.11-.15.05-.09.14-.13.18-.16.15-.11.14-.1.33-.22.14-.09.16-.08.15-.08.23-.1.16,0,.16-.06.17,0,.41-.08.17,0,.55-.07.35,0,.33,0H458l.18,0,.19,0,.19,0,.18,0,.18,0,.17,0,.16.06.23.09.16.06.36.21.14.1.14.11.19.17.12.12.12.12.1.13.16.21.08.14.08.14.09.15.12.22.09.14.08.16.05.16.06.25.06.33,0,.19,0,.19Zm-2.69,1.43.1-.15.11-.25.07-.16.05-.25,0-.17,0-.26v-.55l-.07-.33,0-.16-.13-.24-.08-.14-.16-.2-.11-.12-.16-.18-.12-.1-.29-.16-.15-.07-.18,0-.18,0-.35,0H457l-.17,0-.29.07-.17.07-.25.13-.16.1-.17.15-.13.14-.12.16-.08.15,0,.06-.1.23-.05.17,0,.07,0,.16,0,.15v.66l0,.18v.1l.05.16,0,.08.05.15.05.09.09.16,0,.08.12.16.07.07.13.14.22.18.15.1.18.09.17.07.23.07.16,0,.28,0h.18l.28,0,.17,0,.25-.06.15-.06.24-.16.13-.1.18-.17.11-.12Z"/>
      <path d="M472.52,96v1.81l0,.64v.17l0,1.45v.47l0,.52v.8l-.05.13-.09.12-.11.08-.09,0H472l-.56,0h-.63l-.14,0-.13,0-.13-.1-.1-.15-.17-.32-.1-.14-.43-.54-.11-.13-.43-.53-.09-.14-.39-.57-.1-.13-.43-.53-.11-.13-.41-.54-.09-.09-.08,0,0,.13,0,.55v.91l0,.61v.18l0,.61v.18l.07.44v.18l0,.14-.08.08-.08,0-.13,0h-.95l-.46,0h-.34l-.12,0-.09-.05,0-.08,0-.11v-.24l0-.37v-.17l0-.59v-.17l0-1.34v-.18l0-.58v-.94l0-.58V96.6l0-.58v-.18l0-.59v-.6l0-.16,0-.12,0-.08.06,0,.12,0,.33,0,.33,0h1l.05,0,.07.1.46.5.11.13.41.53.11.13.41.54.11.13.39.55.1.13.42.53.11.13.4.55.08.08h.09l.08-.06v-.12l-.08-.46v-.17l0-.48v-.17l0-.67V96l0-.67v-.18l0-.41v-.27l0-.14.05-.09.07-.05.14,0h.28l.5,0h.17l.38,0h.42l.12,0,.07,0,.07.08,0,.15v.29l0,.34,0,.17Z"/>
    </g>
    <g>
      <polygon points="498.16 644.49 486.14 644.35 485.44 656.35 474.28 651.88 469.3 662.82 460.5 654.62 451.9 663.02 446.67 652.2 435.62 656.92 434.64 644.94 422.63 645.36 426.05 633.83 414.7 629.88 422.05 620.37 412.89 612.58 423.19 606.37 417.46 595.8 429.3 593.72 427.78 581.8 439.57 584.14 442.46 572.47 452.61 578.91 459.52 569.08 466.66 578.75 476.65 572.08 479.81 583.68 491.55 581.06 490.3 593.02 502.19 594.82 496.71 605.52 507.14 611.49 498.16 619.49 505.73 628.83 494.47 633.04 498.16 644.49" fill="#4d52ff"/>
      <polygon points="498.16 745.49 486.14 745.35 485.44 757.35 474.28 752.88 469.3 763.82 460.5 755.62 451.9 764.02 446.67 753.2 435.62 757.92 434.64 745.94 422.63 746.36 426.05 734.83 414.7 730.88 422.05 721.37 412.89 713.58 423.19 707.37 417.46 696.8 429.3 694.72 427.78 682.8 439.57 685.14 442.46 673.47 452.61 679.91 459.52 670.08 466.66 679.75 476.65 673.08 479.81 684.68 491.55 682.06 490.3 694.02 502.19 695.82 496.71 706.52 507.14 712.49 498.16 720.49 505.73 729.83 494.47 734.04 498.16 745.49" fill="#4d52ff"/>
      <polygon points="626.16 644.49 614.14 644.35 613.44 656.35 602.28 651.88 597.3 662.82 588.5 654.62 579.9 663.02 574.67 652.2 563.62 656.92 562.64 644.94 550.63 645.36 554.05 633.83 542.7 629.88 550.05 620.37 540.89 612.58 551.18 606.37 545.46 595.8 557.3 593.72 555.78 581.8 567.57 584.14 570.46 572.47 580.61 578.91 587.52 569.08 594.66 578.75 604.65 572.08 607.81 583.68 619.54 581.06 618.3 593.02 630.18 594.82 624.71 605.52 635.14 611.49 626.16 619.49 633.73 628.83 622.47 633.04 626.16 644.49" fill="#4d52ff"/>
      <polygon points="626.16 745.49 614.14 745.35 613.44 757.35 602.28 752.88 597.3 763.82 588.5 755.62 579.9 764.02 574.67 753.2 563.62 757.92 562.64 745.94 550.63 746.36 554.05 734.83 542.7 730.88 550.05 721.37 540.89 713.58 551.18 707.37 545.46 696.8 557.3 694.72 555.78 682.8 567.57 685.14 570.46 673.47 580.61 679.91 587.52 670.08 594.66 679.75 604.65 673.08 607.81 684.68 619.54 682.06 618.3 694.02 630.18 695.82 624.71 706.52 635.14 712.49 626.16 720.49 633.73 729.83 622.47 734.04 626.16 745.49" fill="#4d52ff"/>
      <polygon points="752.16 644.49 740.14 644.35 739.44 656.35 728.28 651.88 723.3 662.82 714.5 654.62 705.9 663.02 700.67 652.2 689.62 656.92 688.64 644.94 676.63 645.36 680.05 633.83 668.7 629.88 676.05 620.37 666.89 612.58 677.18 606.37 671.46 595.8 683.3 593.72 681.78 581.8 693.57 584.14 696.46 572.47 706.61 578.91 713.52 569.08 720.66 578.75 730.65 572.08 733.81 583.68 745.54 581.06 744.3 593.02 756.18 594.82 750.71 605.52 761.14 611.49 752.16 619.49 759.73 628.83 748.47 633.04 752.16 644.49" fill="#4d52ff"/>
      <polygon points="752.16 745.49 740.14 745.35 739.44 757.35 728.28 752.88 723.3 763.82 714.5 755.62 705.9 764.02 700.67 753.2 689.62 757.92 688.64 745.94 676.63 746.36 680.05 734.83 668.7 730.88 676.05 721.37 666.89 713.58 677.18 707.37 671.46 696.8 683.3 694.72 681.78 682.8 693.57 685.14 696.46 673.47 706.61 679.91 713.52 670.08 720.66 679.75 730.65 673.08 733.81 684.68 745.54 682.06 744.3 694.02 756.18 695.82 750.71 706.52 761.14 712.49 752.16 720.49 759.73 729.83 748.47 734.04 752.16 745.49" fill="#4d52ff"/>
      <circle cx="79.46" cy="300.59" r="40.11" transform="translate(-231.12 314.97) rotate(-77.84)" fill="#3cf"/>
      <g>
        <path d="M103.82,285.12a20.59,20.59,0,0,1-5,1.43c.81-.14,2-1.6,2.47-2.18a9.35,9.35,0,0,0,1.66-3c0-.09.08-.19,0-.26a.32.32,0,0,0-.27,0,25.15,25.15,0,0,1-5.92,2.27.4.4,0,0,1-.41-.11,5.23,5.23,0,0,0-.52-.53A10.46,10.46,0,0,0,93,281a10.19,10.19,0,0,0-4.4-.71A10.66,10.66,0,0,0,81,284.2a10.22,10.22,0,0,0-2,4,10.91,10.91,0,0,0-.1,4.26c0,.23,0,.27-.21.23-8.14-1.21-14.89-4.12-20.37-10.36-.23-.28-.36-.28-.56,0-2.4,3.59-1.23,9.36,1.76,12.2a16.38,16.38,0,0,0,1.25,1.1,10.43,10.43,0,0,1-3.93-1.1c-.23-.15-.35-.06-.37.21a5.79,5.79,0,0,0,.06,1.16A10.46,10.46,0,0,0,63,304.28a6.52,6.52,0,0,0,1.3.4,11.85,11.85,0,0,1-3.85.12c-.28-.06-.39.08-.28.35,1.69,4.63,5.36,6,8.1,6.79.36.06.73.06,1.1.15,0,0,0,0-.07.06-.91,1.39-4.06,2.42-5.53,2.93a19.68,19.68,0,0,1-8.4,1.08c-.45-.07-.54-.06-.67,0s0,.18.13.3c.58.38,1.16.71,1.75,1a27.57,27.57,0,0,0,5.62,2.24c10.09,2.79,21.46.74,29-6.79,6-5.91,8-14.06,8-22.23,0-.32.38-.49.6-.66a19.7,19.7,0,0,0,3.94-4.11,1.19,1.19,0,0,0,.24-.79v0C104,285,104,285,103.82,285.12Z" fill="#fff"/>
        <path d="M69.27,321Z" fill="#fff" fill-rule="evenodd"/>
        <path d="M70.93,321.06c0-.09.88,0,0,0C70.93,321,71,321.06,70.93,321.06Z" fill="#fff" fill-rule="evenodd"/>
        <path d="M88.41,280.56a.2.2,0,0,1-.21,0Z" fill="#fff" fill-rule="evenodd"/>
      </g>
      <circle cx="205.94" cy="300.59" r="40.11" transform="translate(-133.92 431.96) rotate(-76.72)" fill="#3c5a99"/>
      <path d="M205.12,302.86c0-.19-.05-.38-.08-.57a7.94,7.94,0,0,1,.51-3.48l.57.49c1.25,1,.2,2.39.48,3.56h-1.48Z" fill="#a2b1ce"/>
      <path d="M206.83,299.91c-.26.66-.52,1.31-.79,2-.35-.69-2.26-1.38,0-2.07Z" fill="#e8ecf3"/>
      <path d="M205.17,298.8h1c.16.51.32,1,.49,1.53-.55.36,0,.68,0,1l-.53.53a1,1,0,0,0-.5,1C204.64,301.62,205.35,300.16,205.17,298.8Z" fill="#a7b5d1"/>
      <path d="M199.29,301v24.57a.64.64,0,0,0,.64.64h9.12a.64.64,0,0,0,.64-.64v-25h6.62a.64.64,0,0,0,.64-.58l.63-7.53a.64.64,0,0,0-.64-.69h-7.25V286.5a2.27,2.27,0,0,1,2.27-2.26h5.1a.64.64,0,0,0,.64-.64v-7.52a.64.64,0,0,0-.64-.64h-8.62a9.15,9.15,0,0,0-9.15,9.15v7.25h-4.56a.64.64,0,0,0-.64.64V300a.64.64,0,0,0,.64.64h4.56Z" fill="#fff" fill-rule="evenodd"/>
      <circle cx="333.24" cy="300.84" r="40.11" transform="translate(-89.76 150.43) rotate(-22.5)" fill="url(#linear-gradient)"/>
      <circle cx="205.94" cy="200.31" r="40.11" transform="translate(-81.32 204.29) rotate(-45)" fill="#60fc7c"/>
      <g>
        <path d="M205.94,174.72a25.58,25.58,0,0,0-21.5,39.46l-3.89,8.56a2.23,2.23,0,0,0,2,3.16,2.06,2.06,0,0,0,.6-.08l10.71-2.94a25.59,25.59,0,1,0,12.05-48.16Zm0,46.71a21.12,21.12,0,0,1-10.64-2.87,2.22,2.22,0,0,0-1.12-.31,2.33,2.33,0,0,0-.59.08l-7,1.92,2.44-5.37a2.23,2.23,0,0,0-.23-2.23,21.12,21.12,0,1,1,17.14,8.78Z" fill="#fff" fill-rule="evenodd"/>
        <path d="M215.78,204.14c-1.07-.64-2.47-1.35-3.73-.84-1,.4-1.59,1.92-2.22,2.69a.92.92,0,0,1-1.2.26A16.91,16.91,0,0,1,200.2,199a1,1,0,0,1,.14-1.41,5.76,5.76,0,0,0,1.53-2.49,5.46,5.46,0,0,0-.69-2.94c-.51-1.09-1.07-2.65-2.17-3.27a3,3,0,0,0-3.23.48,6.57,6.57,0,0,0-2.28,5.2,7.69,7.69,0,0,0,.21,1.65,13.53,13.53,0,0,0,1.58,3.64q.77,1.31,1.65,2.52a25.68,25.68,0,0,0,7.17,6.65,21.27,21.27,0,0,0,4.47,2.12c1.75.58,3.31,1.18,5.2.83a6.3,6.3,0,0,0,4.71-3.51,3,3,0,0,0,.22-1.79C218.44,205.47,216.77,204.74,215.78,204.14Z" fill="#fff" fill-rule="evenodd"/>
      </g>
      <circle cx="332.62" cy="200.31" r="40.11" transform="translate(-44.22 293.87) rotate(-45)" fill="red"/>
      <path d="M358,193.88A10.88,10.88,0,0,0,347.12,183H318.88A10.88,10.88,0,0,0,308,193.88v13.24A10.88,10.88,0,0,0,318.88,218h28.24A10.88,10.88,0,0,0,358,207.12Zm-17.81,7.29-11.26,6.17c-.49.27-.93-.09-.93-.64V194c0-.56.45-.92.94-.64l11.34,6.5A.74.74,0,0,1,340.19,201.17Z" fill="#fff"/>
      <circle cx="79.06" cy="200.31" r="40.11" transform="translate(-134.72 226.26) rotate(-75.38)" fill="#fefb01"/>
      <path d="M51.38,215v-.87a2.29,2.29,0,0,1,1.31-.88c4.57-.91,7.62-3.81,9.92-7.63,1.94-3.21,1.63-4-1.94-5.21-.2-.07-.41-.13-.61-.22a7.48,7.48,0,0,1-2.18-1.2c-1.59-1.39-.65-3.39,1.24-3.85,1.37-.33,2.57.56,3.91.72.89.12,1.25-.18,1.14-1.14a45.35,45.35,0,0,1-.16-7.37,12.48,12.48,0,0,1,6.43-10.58,16.25,16.25,0,0,1,17.42,0,12.42,12.42,0,0,1,6.4,9.56,42.26,42.26,0,0,1,0,8.34c-.09,1.21.15,1.43,1.35,1.15,1.48-.34,2.72-1.11,4.26-.43a2.32,2.32,0,0,1,1.52,2,2.21,2.21,0,0,1-.84,1.59,8.69,8.69,0,0,1-2.5,1.32c-.67.27-1.37.48-2,.78-1.35.63-1.73,1.47-1.1,2.8,2.18,4.62,5.39,8.12,10.58,9.34a2.4,2.4,0,0,1,1.52.92V215a4,4,0,0,1-2.37,1.94,10.71,10.71,0,0,1-3.12.89A2.37,2.37,0,0,0,99,220.11c-.22,1.49-.66,1.7-2.18,1.57-.36,0-.72-.09-1.07-.15-3-.53-5.77-.23-8.22,1.74a14.56,14.56,0,0,1-1.52,1c-4.17,2.71-8.43,3-12.78.48-1.19-.69-2.32-1.49-3.47-2.24a7.58,7.58,0,0,0-3.12-1.14,19.84,19.84,0,0,0-5.28.32c-.91.1-1.78-.16-1.83-1.09-.12-2.25-1.5-2.8-3.39-3a9.29,9.29,0,0,1-2.58-.8A3.84,3.84,0,0,1,51.38,215Z" fill="#fff"/>
      <circle cx="79.46" cy="507.06" r="40.11" transform="translate(-432.96 477.96) rotate(-77.84)" fill="#333033"/>
      <g>
        <path d="M103.82,491.59a20.13,20.13,0,0,1-5,1.42c.81-.13,2-1.59,2.47-2.18a9.2,9.2,0,0,0,1.66-3c0-.09.08-.2,0-.26a.32.32,0,0,0-.27,0,25.6,25.6,0,0,1-5.92,2.27.4.4,0,0,1-.41-.11,5.23,5.23,0,0,0-.52-.53A10.46,10.46,0,0,0,93,487.44a10.19,10.19,0,0,0-4.4-.71A10.66,10.66,0,0,0,81,490.67a10.22,10.22,0,0,0-2,4,10.86,10.86,0,0,0-.1,4.25c0,.24,0,.27-.21.24-8.14-1.21-14.89-4.12-20.37-10.37-.23-.27-.36-.27-.56,0-2.4,3.6-1.23,9.37,1.76,12.21.4.38.81.75,1.25,1.1a10.43,10.43,0,0,1-3.93-1.1c-.23-.15-.35-.07-.37.2a5.85,5.85,0,0,0,.06,1.17A10.46,10.46,0,0,0,63,510.75a6.52,6.52,0,0,0,1.3.4,11.85,11.85,0,0,1-3.85.12c-.28-.06-.39.08-.28.35,1.69,4.63,5.36,6,8.1,6.78.36.07.73.07,1.1.15,0,0,0,0-.07.07-.91,1.39-4.06,2.42-5.53,2.93a19.68,19.68,0,0,1-8.4,1.08c-.45-.07-.54-.06-.67,0s0,.18.13.3c.58.38,1.16.71,1.75,1a27.57,27.57,0,0,0,5.62,2.24c10.09,2.79,21.46.74,29-6.79,6-5.91,8-14.06,8-22.23,0-.32.38-.49.6-.66a19.7,19.7,0,0,0,3.94-4.11,1.19,1.19,0,0,0,.24-.79v0C104,491.46,104,491.5,103.82,491.59Z" fill="#fff"/>
        <path d="M69.27,527.23Z" fill="#fff" fill-rule="evenodd"/>
        <path d="M70.93,527.27c0-.08.88,0,0,0C70.93,527.23,71,527.27,70.93,527.27Z" fill="#fff" fill-rule="evenodd"/>
        <path d="M88.41,486.77a.2.2,0,0,1-.21,0Z" fill="#fff" fill-rule="evenodd"/>
      </g>
      <circle cx="205.94" cy="507.06" r="40.11" transform="translate(-334.87 590.99) rotate(-76.72)" fill="#333033"/>
      <path d="M205.12,507.41c0-.19-.05-.38-.08-.58a7.89,7.89,0,0,1,.51-3.47l.57.49c1.25,1,.2,2.39.48,3.56h-1.48Z" fill="#a2b1ce"/>
      <path d="M206.83,506.13c-.26.65-.52,1.31-.79,2-.35-.69-2.26-1.38,0-2.07Z" fill="#e8ecf3"/>
      <path d="M205.17,507.41h1c.16.51.32,1,.49,1.53-.55.36,0,.68,0,1l-.53.53a1,1,0,0,0-.5,1C204.64,510.24,205.35,508.77,205.17,507.41Z" fill="#a7b5d1"/>
      <path d="M199.29,507.26v24.56a.64.64,0,0,0,.64.64h9.12a.64.64,0,0,0,.64-.64v-25h6.62a.65.65,0,0,0,.64-.59l.63-7.52a.65.65,0,0,0-.64-.7h-7.25v-5.33a2.27,2.27,0,0,1,2.27-2.27h5.1a.64.64,0,0,0,.64-.64v-7.52a.64.64,0,0,0-.64-.64h-8.62a9.15,9.15,0,0,0-9.15,9.15v7.25h-4.56a.64.64,0,0,0-.64.64v7.53a.64.64,0,0,0,.64.64h4.56Z" fill="#fff" fill-rule="evenodd"/>
      <circle cx="205.94" cy="406.86" r="40.11" transform="translate(-227.38 264.79) rotate(-45)" fill="#333033"/>
      <g>
        <path d="M205.94,381.27a25.58,25.58,0,0,0-21.5,39.46l-3.89,8.56a2.23,2.23,0,0,0,2,3.16,2.06,2.06,0,0,0,.6-.08l10.71-2.94a25.59,25.59,0,1,0,12.05-48.16Zm0,46.71a21.12,21.12,0,0,1-10.64-2.87,2.22,2.22,0,0,0-1.12-.31,2.33,2.33,0,0,0-.59.08l-7,1.92,2.44-5.37a2.23,2.23,0,0,0-.23-2.23A21.12,21.12,0,1,1,205.94,428Z" fill="#fff" fill-rule="evenodd"/>
        <path d="M215.78,410.69c-1.07-.64-2.47-1.35-3.73-.84-1,.4-1.59,1.92-2.22,2.69a.92.92,0,0,1-1.2.26,16.91,16.91,0,0,1-8.43-7.22,1,1,0,0,1,.14-1.41,5.76,5.76,0,0,0,1.53-2.49,5.46,5.46,0,0,0-.69-2.94c-.51-1.09-1.07-2.65-2.17-3.27a3,3,0,0,0-3.23.48,6.57,6.57,0,0,0-2.28,5.2,7.69,7.69,0,0,0,.21,1.65,13.53,13.53,0,0,0,1.58,3.64q.77,1.31,1.65,2.52a25.68,25.68,0,0,0,7.17,6.65,21.27,21.27,0,0,0,4.47,2.12c1.75.58,3.31,1.18,5.2.83a6.3,6.3,0,0,0,4.71-3.51,3,3,0,0,0,.22-1.79C218.44,412,216.77,411.29,215.78,410.69Z" fill="#fff" fill-rule="evenodd"/>
      </g>
      <circle cx="79.06" cy="406.86" r="40.11" transform="translate(-334.58 380.68) rotate(-75.38)" fill="#333033"/>
      <path d="M51.38,421.51v-.87a2.29,2.29,0,0,1,1.31-.88c4.57-.91,7.62-3.81,9.92-7.63,1.94-3.21,1.63-3.95-1.94-5.21-.2-.07-.41-.13-.61-.22a7.48,7.48,0,0,1-2.18-1.2c-1.59-1.39-.65-3.39,1.24-3.85,1.37-.33,2.57.56,3.91.72.89.12,1.25-.18,1.14-1.14a45.35,45.35,0,0,1-.16-7.37,12.48,12.48,0,0,1,6.43-10.58,16.25,16.25,0,0,1,17.42,0,12.42,12.42,0,0,1,6.4,9.56,42.26,42.26,0,0,1,0,8.34c-.09,1.21.15,1.43,1.35,1.15,1.48-.34,2.72-1.11,4.26-.43a2.32,2.32,0,0,1,1.52,2,2.21,2.21,0,0,1-.84,1.59A8.69,8.69,0,0,1,98,406.8c-.67.27-1.37.48-2,.78-1.35.64-1.73,1.47-1.1,2.8,2.18,4.62,5.39,8.12,10.58,9.34a2.4,2.4,0,0,1,1.52.92v.87a4,4,0,0,1-2.37,1.94,10.71,10.71,0,0,1-3.12.89A2.37,2.37,0,0,0,99,426.66c-.22,1.49-.66,1.7-2.18,1.57-.36,0-.72-.09-1.07-.15-3-.53-5.77-.23-8.22,1.74a14.56,14.56,0,0,1-1.52,1c-4.17,2.71-8.43,3-12.78.48-1.19-.69-2.32-1.49-3.47-2.24A7.58,7.58,0,0,0,66.63,428a19.84,19.84,0,0,0-5.28.32c-.91.1-1.78-.16-1.83-1.09-.12-2.25-1.5-2.8-3.39-3a9.29,9.29,0,0,1-2.58-.8A3.84,3.84,0,0,1,51.38,421.51Z" fill="#fff"/>
      <circle cx="79.46" cy="713.69" r="40.11" transform="translate(-634.96 641.08) rotate(-77.84)" fill="#a5a5a5"/>
      <g>
        <path d="M103.82,698.22a20.59,20.59,0,0,1-5,1.43c.81-.14,2-1.6,2.47-2.18a9.35,9.35,0,0,0,1.66-3c0-.09.08-.19,0-.26a.32.32,0,0,0-.27,0,25.15,25.15,0,0,1-5.92,2.27.4.4,0,0,1-.41-.11,5.23,5.23,0,0,0-.52-.53A10.46,10.46,0,0,0,93,694.07a10.19,10.19,0,0,0-4.4-.71A10.66,10.66,0,0,0,81,697.3a10.22,10.22,0,0,0-2,4,10.91,10.91,0,0,0-.1,4.26c0,.23,0,.26-.21.23-8.14-1.21-14.89-4.12-20.37-10.36-.23-.28-.36-.28-.56,0-2.4,3.59-1.23,9.36,1.76,12.2a16.38,16.38,0,0,0,1.25,1.1,10.43,10.43,0,0,1-3.93-1.1c-.23-.15-.35-.06-.37.21a5.79,5.79,0,0,0,.06,1.16A10.46,10.46,0,0,0,63,717.38a6.52,6.52,0,0,0,1.3.4,11.85,11.85,0,0,1-3.85.12c-.28-.06-.39.08-.28.35,1.69,4.63,5.36,6,8.1,6.79.36.06.73.06,1.1.15,0,0,0,0-.07.06-.91,1.39-4.06,2.42-5.53,2.93a19.68,19.68,0,0,1-8.4,1.08c-.45-.07-.54-.06-.67,0s0,.18.13.3c.58.38,1.16.71,1.75,1a27.57,27.57,0,0,0,5.62,2.24c10.09,2.79,21.46.74,29-6.79,6-5.91,8-14.06,8-22.23,0-.32.38-.49.6-.66a19.7,19.7,0,0,0,3.94-4.11,1.19,1.19,0,0,0,.24-.79v0C104,698.09,104,698.13,103.82,698.22Z" fill="#fff"/>
        <path d="M69.27,733.86Z" fill="#fff" fill-rule="evenodd"/>
        <path d="M70.93,733.9c0-.08.88,0,0,0C70.93,733.86,71,733.9,70.93,733.9Z" fill="#fff" fill-rule="evenodd"/>
        <path d="M88.41,693.4a.17.17,0,0,1-.21,0Z" fill="#fff" fill-rule="evenodd"/>
      </g>
      <circle cx="205.94" cy="713.69" r="40.11" transform="translate(-535.97 750.15) rotate(-76.72)" fill="#a5a5a5"/>
      <path d="M205.12,715.71c0-.19-.05-.39-.08-.58a7.89,7.89,0,0,1,.51-3.47l.57.49c1.25,1,.2,2.38.48,3.55l-.48,0Z" fill="#a2b1ce"/>
      <path d="M206.83,712.76c-.26.66-.52,1.31-.79,2-.35-.69-2.26-1.37,0-2.07Z" fill="#e8ecf3"/>
      <path d="M205.17,711.64l1,0c.16.5.32,1,.49,1.52-.55.36,0,.68,0,1l-.53.53a1,1,0,0,0-.5,1C204.64,714.47,205.35,713,205.17,711.64Z" fill="#a7b5d1"/>
      <path d="M199.29,713.89v24.56a.64.64,0,0,0,.64.64h9.12a.63.63,0,0,0,.64-.64v-25h6.62a.65.65,0,0,0,.64-.59l.63-7.52a.64.64,0,0,0-.64-.69h-7.25v-5.34a2.27,2.27,0,0,1,2.27-2.27h5.1a.64.64,0,0,0,.64-.64v-7.52a.64.64,0,0,0-.64-.64h-8.62a9.15,9.15,0,0,0-9.15,9.15v7.26h-4.56a.64.64,0,0,0-.64.64v7.52a.64.64,0,0,0,.64.64h4.56Z" fill="#fff" fill-rule="evenodd"/>
      <circle cx="205.94" cy="613.41" r="40.11" transform="translate(-373.43 325.29) rotate(-45)" fill="#a5a5a5"/>
      <g>
        <path d="M205.94,587.82a25.58,25.58,0,0,0-21.5,39.46l-3.89,8.56a2.23,2.23,0,0,0,2,3.16,2.06,2.06,0,0,0,.6-.08L193.89,636a25.59,25.59,0,1,0,12.05-48.16Zm0,46.71a21.12,21.12,0,0,1-10.64-2.87,2.22,2.22,0,0,0-1.12-.31,2.33,2.33,0,0,0-.59.08l-7,1.92L189,628a2.23,2.23,0,0,0-.23-2.23,21.12,21.12,0,1,1,17.14,8.78Z" fill="#fff" fill-rule="evenodd"/>
        <path d="M215.78,617.24c-1.07-.64-2.47-1.35-3.73-.84-1,.4-1.59,1.92-2.22,2.69a.92.92,0,0,1-1.2.26,16.91,16.91,0,0,1-8.43-7.22,1,1,0,0,1,.14-1.41,5.76,5.76,0,0,0,1.53-2.49,5.46,5.46,0,0,0-.69-2.94c-.51-1.09-1.07-2.65-2.17-3.27a3,3,0,0,0-3.23.48,6.57,6.57,0,0,0-2.28,5.2,7.69,7.69,0,0,0,.21,1.65,13.53,13.53,0,0,0,1.58,3.64q.77,1.31,1.65,2.52a25.68,25.68,0,0,0,7.17,6.65,21.27,21.27,0,0,0,4.47,2.12c1.75.58,3.31,1.18,5.2.83a6.3,6.3,0,0,0,4.71-3.51,3,3,0,0,0,.22-1.79C218.44,618.57,216.77,617.84,215.78,617.24Z" fill="#fff" fill-rule="evenodd"/>
      </g>
      <circle cx="79.06" cy="613.41" r="40.11" transform="translate(-534.45 535.1) rotate(-75.38)" fill="#a5a5a5"/>
      <path d="M51.38,628.06v-.87a2.29,2.29,0,0,1,1.31-.88c4.57-.91,7.62-3.81,9.92-7.63,1.94-3.21,1.63-3.95-1.94-5.21-.2-.07-.41-.13-.61-.22a7.48,7.48,0,0,1-2.18-1.2c-1.59-1.39-.65-3.39,1.24-3.85,1.37-.33,2.57.56,3.91.72.89.12,1.25-.18,1.14-1.14a45.35,45.35,0,0,1-.16-7.37,12.48,12.48,0,0,1,6.43-10.58,16.25,16.25,0,0,1,17.42-.05,12.42,12.42,0,0,1,6.4,9.56,42.26,42.26,0,0,1,0,8.34c-.09,1.21.15,1.43,1.35,1.15,1.48-.34,2.72-1.11,4.26-.43a2.32,2.32,0,0,1,1.52,2,2.21,2.21,0,0,1-.84,1.59,8.69,8.69,0,0,1-2.5,1.32c-.67.27-1.37.48-2,.78-1.35.63-1.73,1.47-1.1,2.8,2.18,4.62,5.39,8.12,10.58,9.34a2.44,2.44,0,0,1,1.52.92v.87a4,4,0,0,1-2.37,1.94,10.71,10.71,0,0,1-3.12.89A2.37,2.37,0,0,0,99,633.21c-.22,1.48-.66,1.7-2.18,1.57-.36,0-.72-.09-1.07-.15-3-.53-5.77-.23-8.22,1.74a16.37,16.37,0,0,1-1.52,1c-4.17,2.7-8.43,3-12.78.47-1.19-.69-2.32-1.49-3.47-2.24a7.58,7.58,0,0,0-3.12-1.14,19.84,19.84,0,0,0-5.28.32c-.91.1-1.78-.16-1.83-1.09-.12-2.25-1.5-2.8-3.39-3a9.29,9.29,0,0,1-2.58-.8A3.84,3.84,0,0,1,51.38,628.06Z" fill="#fff"/>
      <g>
        <circle cx="347.44" cy="286.87" r="3.12" fill="#fff"/>
        <path d="M333.59,287.75a13.09,13.09,0,1,0,13.09,13.09A13.11,13.11,0,0,0,333.59,287.75Zm0,21.48a8.39,8.39,0,1,1,8.38-8.39A8.39,8.39,0,0,1,333.59,309.23Z" fill="#fff"/>
        <path d="M344,327.42H322.76a16,16,0,0,1-16-16V290.23a16,16,0,0,1,16-16H344a16,16,0,0,1,16,16v21.22A16,16,0,0,1,344,327.42Zm-21.22-48.15a11,11,0,0,0-11,11v21.22a11,11,0,0,0,11,11H344a11,11,0,0,0,11-11V290.23a11,11,0,0,0-11-11Z" fill="#fff"/>
      </g>
      <circle cx="333.24" cy="507.84" r="40.11" transform="translate(-168.98 166.18) rotate(-22.5)" fill="#333033"/>
      <circle cx="332.62" cy="407.31" r="40.11" transform="translate(-190.59 354.5) rotate(-45)" fill="#333033"/>
      <path d="M358,400.88A10.88,10.88,0,0,0,347.12,390H318.88A10.88,10.88,0,0,0,308,400.88v13.24A10.88,10.88,0,0,0,318.88,425h28.24A10.88,10.88,0,0,0,358,414.12Zm-17.81,7.29-11.26,6.17c-.49.27-.93-.09-.93-.64V401c0-.56.45-.92.94-.64l11.34,6.5A.74.74,0,0,1,340.19,408.17Z" fill="#fff"/>
      <g>
        <circle cx="347.44" cy="493.87" r="3.12" fill="#fff"/>
        <path d="M333.59,494.75a13.09,13.09,0,1,0,13.09,13.09A13.11,13.11,0,0,0,333.59,494.75Zm0,21.48a8.39,8.39,0,1,1,8.38-8.39A8.39,8.39,0,0,1,333.59,516.23Z" fill="#fff"/>
        <path d="M344,534.42H322.76a16,16,0,0,1-16-16V497.23a16,16,0,0,1,16-16H344a16,16,0,0,1,16,16v21.22A16,16,0,0,1,344,534.42Zm-21.22-48.15a11,11,0,0,0-11,11v21.22a11,11,0,0,0,11,11H344a11,11,0,0,0,11-11V497.23a11,11,0,0,0-11-11Z" fill="#fff"/>
      </g>
      <circle cx="333.24" cy="713.84" r="40.11" transform="translate(-247.81 181.86) rotate(-22.5)" fill="#a5a5a5"/>
      <circle cx="332.62" cy="613.31" r="40.11" transform="translate(-336.25 414.83) rotate(-45)" fill="#a5a5a5"/>
      <path d="M358,606.88A10.88,10.88,0,0,0,347.12,596H318.88A10.88,10.88,0,0,0,308,606.88v13.24A10.88,10.88,0,0,0,318.88,631h28.24A10.88,10.88,0,0,0,358,620.12Zm-17.81,7.29-11.26,6.17c-.49.27-.93-.09-.93-.64V607c0-.56.45-.92.94-.64l11.34,6.5A.74.74,0,0,1,340.19,614.17Z" fill="#fff"/>
      <g>
        <circle cx="347.44" cy="699.87" r="3.12" fill="#fff"/>
        <path d="M333.59,700.75a13.09,13.09,0,1,0,13.09,13.09A13.11,13.11,0,0,0,333.59,700.75Zm0,21.48a8.39,8.39,0,1,1,8.38-8.39A8.39,8.39,0,0,1,333.59,722.23Z" fill="#fff"/>
        <path d="M344,740.42H322.76a16,16,0,0,1-16-16V703.23a16,16,0,0,1,16-16H344a16,16,0,0,1,16,16v21.22A16,16,0,0,1,344,740.42Zm-21.22-48.15a11,11,0,0,0-11,11v21.22a11,11,0,0,0,11,11H344a11,11,0,0,0,11-11V703.23a11,11,0,0,0-11-11Z" fill="#fff"/>
      </g>
      <g>
        <path d="M484.82,702.12a20.59,20.59,0,0,1-5,1.43c.81-.14,2-1.6,2.47-2.18a9.35,9.35,0,0,0,1.66-3c0-.09.08-.19,0-.26a.32.32,0,0,0-.27,0,25.15,25.15,0,0,1-5.92,2.27.4.4,0,0,1-.41-.11,5.23,5.23,0,0,0-.52-.53A10.46,10.46,0,0,0,474,698a10.19,10.19,0,0,0-4.4-.71A10.66,10.66,0,0,0,462,701.2a10.22,10.22,0,0,0-2,4,10.91,10.91,0,0,0-.1,4.26c0,.23,0,.26-.21.23-8.14-1.21-14.89-4.12-20.37-10.36-.23-.28-.36-.28-.56,0-2.4,3.59-1.23,9.36,1.76,12.2a16.38,16.38,0,0,0,1.25,1.1,10.43,10.43,0,0,1-3.93-1.1c-.23-.15-.35-.06-.37.21a5.79,5.79,0,0,0,.06,1.16,10.46,10.46,0,0,0,6.44,8.33,6.52,6.52,0,0,0,1.3.4,11.85,11.85,0,0,1-3.85.12c-.28-.06-.39.08-.28.35,1.69,4.63,5.36,6,8.1,6.79.36.06.73.06,1.1.15,0,0,0,0-.07.06-.91,1.39-4.06,2.42-5.53,2.93a19.68,19.68,0,0,1-8.4,1.08c-.45-.07-.54-.06-.67,0s0,.18.13.3c.58.38,1.16.71,1.75,1a27.57,27.57,0,0,0,5.62,2.24c10.09,2.79,21.46.74,29-6.79,6-5.91,8-14.06,8-22.23,0-.32.38-.49.6-.66a19.7,19.7,0,0,0,3.94-4.11,1.19,1.19,0,0,0,.24-.79v0C485,702,485,702,484.82,702.12Z" fill="#fff"/>
        <path d="M450.27,738Z" fill="#fff" fill-rule="evenodd"/>
        <path d="M451.93,738.06c0-.09.88,0,0,0C451.93,738,452,738.06,451.93,738.06Z" fill="#fff" fill-rule="evenodd"/>
        <path d="M469.41,697.56a.2.2,0,0,1-.21,0Z" fill="#fff" fill-rule="evenodd"/>
      </g>
      <path d="M586.12,719.86c0-.19,0-.38-.08-.57a7.94,7.94,0,0,1,.51-3.48l.57.49c1.25,1,.2,2.39.48,3.56h-1.48Z" fill="#a2b1ce"/>
      <path d="M587.83,716.91c-.26.66-.52,1.31-.79,2-.35-.69-2.26-1.38,0-2.07Z" fill="#e8ecf3"/>
      <path d="M586.17,715.8h1c.16.51.32,1,.49,1.53-.55.36,0,.68,0,1-.17.18-.35.36-.53.53a1,1,0,0,0-.5,1C585.64,718.62,586.35,717.16,586.17,715.8Z" fill="#a7b5d1"/>
      <path d="M580.29,718v24.57a.64.64,0,0,0,.64.64h9.12a.64.64,0,0,0,.64-.64v-25h6.62a.64.64,0,0,0,.64-.58l.63-7.53a.64.64,0,0,0-.64-.69h-7.25V703.5a2.27,2.27,0,0,1,2.27-2.26h5.1a.64.64,0,0,0,.64-.64v-7.52a.64.64,0,0,0-.64-.64h-8.62a9.15,9.15,0,0,0-9.15,9.15v7.25h-4.56a.64.64,0,0,0-.64.64V717a.64.64,0,0,0,.64.64h4.56Z" fill="#fff" fill-rule="evenodd"/>
      <g>
        <path d="M588.94,589.72a25.58,25.58,0,0,0-21.5,39.46l-3.89,8.56a2.23,2.23,0,0,0,2,3.16,2.06,2.06,0,0,0,.6-.08l10.71-2.94a25.59,25.59,0,1,0,12.05-48.16Zm0,46.71a21.12,21.12,0,0,1-10.64-2.87,2.22,2.22,0,0,0-1.12-.31,2.33,2.33,0,0,0-.59.08l-7,1.92,2.44-5.37a2.23,2.23,0,0,0-.23-2.23,21.12,21.12,0,1,1,17.14,8.78Z" fill="#fff" fill-rule="evenodd"/>
        <path d="M598.78,619.14c-1.07-.64-2.47-1.35-3.73-.84-1,.4-1.59,1.92-2.22,2.69a.92.92,0,0,1-1.2.26A16.91,16.91,0,0,1,583.2,614a1,1,0,0,1,.14-1.41,5.76,5.76,0,0,0,1.53-2.49,5.46,5.46,0,0,0-.69-2.94c-.51-1.09-1.07-2.65-2.17-3.27a3,3,0,0,0-3.23.48,6.57,6.57,0,0,0-2.28,5.2,7.69,7.69,0,0,0,.21,1.65,13.53,13.53,0,0,0,1.58,3.64q.76,1.3,1.65,2.52a25.68,25.68,0,0,0,7.17,6.65,21.27,21.27,0,0,0,4.47,2.12c1.75.58,3.31,1.18,5.2.83a6.3,6.3,0,0,0,4.71-3.51,3,3,0,0,0,.22-1.79C601.44,620.47,599.77,619.74,598.78,619.14Z" fill="#fff" fill-rule="evenodd"/>
      </g>
      <path d="M739,610.88A10.88,10.88,0,0,0,728.12,600H699.88A10.88,10.88,0,0,0,689,610.88v13.24A10.88,10.88,0,0,0,699.88,635h28.24A10.88,10.88,0,0,0,739,624.12Zm-17.81,7.29-11.26,6.17c-.49.27-.93-.09-.93-.64V611c0-.56.45-.92.94-.64l11.34,6.5A.74.74,0,0,1,721.19,618.17Z" fill="#fff"/>
      <path d="M432.38,632v-.87a2.29,2.29,0,0,1,1.31-.88c4.57-.91,7.62-3.81,9.92-7.63,1.94-3.21,1.63-4-1.94-5.21-.2-.07-.41-.13-.61-.22a7.48,7.48,0,0,1-2.18-1.2c-1.59-1.39-.65-3.39,1.24-3.85,1.37-.33,2.57.56,3.91.72.89.12,1.25-.18,1.14-1.14a45.35,45.35,0,0,1-.16-7.37,12.48,12.48,0,0,1,6.43-10.58,16.25,16.25,0,0,1,17.42-.05,12.42,12.42,0,0,1,6.4,9.56,42.26,42.26,0,0,1,0,8.34c-.09,1.21.15,1.43,1.35,1.15,1.48-.34,2.72-1.11,4.26-.43a2.32,2.32,0,0,1,1.52,2,2.21,2.21,0,0,1-.84,1.59,8.69,8.69,0,0,1-2.5,1.32c-.67.27-1.37.48-2,.78-1.35.64-1.73,1.47-1.1,2.8,2.18,4.62,5.39,8.12,10.58,9.34a2.44,2.44,0,0,1,1.52.92V632a4,4,0,0,1-2.37,1.94,10.71,10.71,0,0,1-3.12.89,2.37,2.37,0,0,0-2.53,2.32c-.22,1.48-.66,1.7-2.18,1.57-.36,0-.72-.09-1.07-.15-3-.53-5.77-.23-8.22,1.74a16.37,16.37,0,0,1-1.52,1.05c-4.17,2.7-8.43,3-12.78.47-1.19-.69-2.32-1.49-3.47-2.24a7.58,7.58,0,0,0-3.12-1.14,19.84,19.84,0,0,0-5.28.32c-.91.1-1.78-.16-1.83-1.09-.12-2.25-1.5-2.8-3.39-3a9.29,9.29,0,0,1-2.58-.8A3.84,3.84,0,0,1,432.38,632Z" fill="#fff"/>
      <circle cx="460.46" cy="300.06" r="40.11" transform="translate(62.63 679.26) rotate(-76.72)" fill="none" stroke="#3cf" stroke-miterlimit="10" stroke-width="4"/>
      <g>
        <path d="M484.82,284.59a20.13,20.13,0,0,1-5,1.42c.81-.13,2-1.59,2.47-2.18a9.2,9.2,0,0,0,1.66-3c0-.09.08-.2,0-.26a.32.32,0,0,0-.27,0,25.6,25.6,0,0,1-5.92,2.27.4.4,0,0,1-.41-.11,5.23,5.23,0,0,0-.52-.53,10.46,10.46,0,0,0-2.87-1.76,10.19,10.19,0,0,0-4.4-.71,10.66,10.66,0,0,0-7.55,3.94,10.22,10.22,0,0,0-2,4,10.86,10.86,0,0,0-.1,4.25c0,.24,0,.27-.21.24-8.14-1.21-14.89-4.12-20.37-10.37-.23-.27-.36-.27-.56,0-2.4,3.6-1.23,9.37,1.76,12.21.4.38.81.75,1.25,1.1a10.43,10.43,0,0,1-3.93-1.1c-.23-.15-.35-.07-.37.2a5.85,5.85,0,0,0,.06,1.17,10.46,10.46,0,0,0,6.44,8.33,6.52,6.52,0,0,0,1.3.4,11.85,11.85,0,0,1-3.85.12c-.28-.06-.39.08-.28.35,1.69,4.63,5.36,6,8.1,6.78.36.07.73.07,1.1.15,0,0,0,0-.07.07-.91,1.39-4.06,2.42-5.53,2.93a20,20,0,0,1-8.4,1.08c-.45-.07-.54-.06-.67,0s0,.18.13.3c.58.38,1.16.71,1.75,1a27.57,27.57,0,0,0,5.62,2.24c10.09,2.79,21.46.74,29-6.79,6-5.91,8-14.06,8-22.23,0-.32.38-.49.6-.66a19.7,19.7,0,0,0,3.94-4.11,1.19,1.19,0,0,0,.24-.79v0C485,284.46,485,284.5,484.82,284.59Z" fill="#3cf"/>
        <path d="M450.27,320.23Z" fill="#fff" fill-rule="evenodd"/>
        <path d="M451.93,320.27c0-.08.88,0,0,0C451.93,320.23,452,320.27,451.93,320.27Z" fill="#fff" fill-rule="evenodd"/>
        <path d="M469.41,279.77a.2.2,0,0,1-.21,0Z" fill="#fff" fill-rule="evenodd"/>
      </g>
      <circle cx="586.94" cy="300.06" r="40.11" transform="matrix(0.23, -0.97, 0.97, 0.23, 160.06, 802.36)" fill="none" stroke="#3c5a99" stroke-miterlimit="10" stroke-width="4"/>
      <path d="M586.12,300.41c0-.19,0-.38-.08-.58a7.89,7.89,0,0,1,.51-3.47l.57.49c1.25,1,.2,2.39.48,3.56h-1.48Z" fill="#a2b1ce"/>
      <path d="M587.83,299.13c-.26.65-.52,1.31-.79,2-.35-.69-2.26-1.38,0-2.07Z" fill="#e8ecf3"/>
      <path d="M586.17,300.41h1c.16.51.32,1,.49,1.53-.55.36,0,.68,0,1l-.53.53a1,1,0,0,0-.5,1C585.64,303.24,586.35,301.77,586.17,300.41Z" fill="#a7b5d1"/>
      <path d="M580.29,300.26v24.56a.64.64,0,0,0,.64.64h9.12a.63.63,0,0,0,.64-.64v-25h6.62a.65.65,0,0,0,.64-.59l.63-7.52a.65.65,0,0,0-.64-.7h-7.25v-5.33a2.27,2.27,0,0,1,2.27-2.27h5.1a.64.64,0,0,0,.64-.64v-7.52a.64.64,0,0,0-.64-.64h-8.62a9.15,9.15,0,0,0-9.15,9.15v7.25h-4.56a.64.64,0,0,0-.64.64v7.53a.64.64,0,0,0,.64.64h4.56Z" fill="#3c5a99" fill-rule="evenodd"/>
      <circle cx="586.94" cy="199.86" r="40.11" transform="translate(30.59 473.57) rotate(-45)" fill="none" stroke="#60fc7c" stroke-miterlimit="10" stroke-width="4"/>
      <g>
        <path d="M588.94,172.27a25.58,25.58,0,0,0-21.5,39.46l-3.89,8.56a2.23,2.23,0,0,0,2,3.16,2.06,2.06,0,0,0,.6-.08l10.71-2.94a25.59,25.59,0,1,0,12.05-48.16Zm0,46.71a21.12,21.12,0,0,1-10.64-2.87,2.22,2.22,0,0,0-1.12-.31,2.33,2.33,0,0,0-.59.08l-7,1.92,2.44-5.37a2.23,2.23,0,0,0-.23-2.23A21.12,21.12,0,1,1,588.94,219Z" fill="#60fc7c" fill-rule="evenodd"/>
        <path d="M598.78,201.69c-1.07-.64-2.47-1.35-3.73-.84-1,.4-1.59,1.92-2.22,2.69a.92.92,0,0,1-1.2.26,16.91,16.91,0,0,1-8.43-7.22,1,1,0,0,1,.14-1.41,5.76,5.76,0,0,0,1.53-2.49,5.46,5.46,0,0,0-.69-2.94c-.51-1.09-1.07-2.65-2.17-3.27a3,3,0,0,0-3.23.48,6.57,6.57,0,0,0-2.28,5.2,7.69,7.69,0,0,0,.21,1.65,13.53,13.53,0,0,0,1.58,3.64q.76,1.31,1.65,2.52a25.68,25.68,0,0,0,7.17,6.65,21.27,21.27,0,0,0,4.47,2.12c1.75.58,3.31,1.18,5.2.83a6.3,6.3,0,0,0,4.71-3.51,3,3,0,0,0,.22-1.79C601.44,203,599.77,202.29,598.78,201.69Z" fill="#60fc7c" fill-rule="evenodd"/>
      </g>
      <circle cx="460.06" cy="199.86" r="40.11" transform="translate(159.85 601.7) rotate(-76.72)" fill="none" stroke="#fefb01" stroke-miterlimit="10" stroke-width="4"/>
      <path d="M432.38,214.51v-.87a2.29,2.29,0,0,1,1.31-.88c4.57-.91,7.62-3.81,9.92-7.63,1.94-3.21,1.63-3.95-1.94-5.21-.2-.07-.41-.13-.61-.22a7.48,7.48,0,0,1-2.18-1.2c-1.59-1.39-.65-3.39,1.24-3.85,1.37-.33,2.57.56,3.91.72.89.12,1.25-.18,1.14-1.14a45.35,45.35,0,0,1-.16-7.37,12.48,12.48,0,0,1,6.43-10.58,16.25,16.25,0,0,1,17.42-.05,12.42,12.42,0,0,1,6.4,9.56,42.26,42.26,0,0,1,0,8.34c-.09,1.21.15,1.43,1.35,1.15,1.48-.34,2.72-1.11,4.26-.43a2.32,2.32,0,0,1,1.52,2,2.21,2.21,0,0,1-.84,1.59,8.69,8.69,0,0,1-2.5,1.32c-.67.27-1.37.48-2,.78-1.35.64-1.73,1.47-1.1,2.8,2.18,4.62,5.39,8.12,10.58,9.34a2.4,2.4,0,0,1,1.52.92v.87a4,4,0,0,1-2.37,1.94,10.71,10.71,0,0,1-3.12.89,2.37,2.37,0,0,0-2.53,2.32c-.22,1.49-.66,1.7-2.18,1.57-.36,0-.72-.09-1.07-.15-3-.53-5.77-.23-8.22,1.74a14.56,14.56,0,0,1-1.52,1c-4.17,2.71-8.43,3-12.78.48-1.19-.69-2.32-1.49-3.47-2.24a7.58,7.58,0,0,0-3.12-1.14,19.84,19.84,0,0,0-5.28.32c-.91.1-1.78-.16-1.83-1.09-.12-2.25-1.5-2.8-3.39-3a9.29,9.29,0,0,1-2.58-.8A3.84,3.84,0,0,1,432.38,214.51Z" fill="#fefb01"/>
      <g>
        <circle cx="728.44" cy="703.87" r="3.12" fill="#fff"/>
        <path d="M714.59,704.75a13.09,13.09,0,1,0,13.09,13.09A13.11,13.11,0,0,0,714.59,704.75Zm0,21.48a8.39,8.39,0,1,1,8.38-8.39A8.39,8.39,0,0,1,714.59,726.23Z" fill="#fff"/>
        <path d="M725,744.42H703.76a16,16,0,0,1-16-16V707.23a16,16,0,0,1,16-16H725a16,16,0,0,1,16,16v21.22A16,16,0,0,1,725,744.42Zm-21.22-48.15a11,11,0,0,0-11,11v21.22a11,11,0,0,0,11,11H725a11,11,0,0,0,11-11V707.23a11,11,0,0,0-11-11Z" fill="#fff"/>
      </g>
      <path d="M491,438.41h0a5.13,5.13,0,0,0-5.18,4.83h0a5.13,5.13,0,0,1-7,4.46h0a5.12,5.12,0,0,0-6.57,2.64h0A5.14,5.14,0,0,1,464,452h0A5.13,5.13,0,0,0,457,452h0a5.13,5.13,0,0,1-8.2-1.43h0a5.15,5.15,0,0,0-6.64-2.49h0a5.13,5.13,0,0,1-7.13-4.3h0a5.13,5.13,0,0,0-5.29-4.71h0a5.13,5.13,0,0,1-5.09-6.59h0a5.13,5.13,0,0,0-3.23-6.3h0a5.13,5.13,0,0,1-2.37-8h0a5.14,5.14,0,0,0-.73-7.05h0a5.12,5.12,0,0,1,.67-8.29h0a5.15,5.15,0,0,0,1.86-6.84h0a5.12,5.12,0,0,1,3.62-7.49h0a5.15,5.15,0,0,0,4.21-5.71h0a5.12,5.12,0,0,1,6.09-5.67h0a5.13,5.13,0,0,0,6-3.8h0a5.13,5.13,0,0,1,7.73-3.1h0a5.13,5.13,0,0,0,6.95-1.38h0a5.13,5.13,0,0,1,8.33-.1h0a5.11,5.11,0,0,0,7,1.22h0a5.13,5.13,0,0,1,7.8,2.92h0a5.12,5.12,0,0,0,6.06,3.66h0a5.14,5.14,0,0,1,6.22,5.54h0a5.13,5.13,0,0,0,4.34,5.6h0a5.13,5.13,0,0,1,3.79,7.41h0a5.13,5.13,0,0,0,2,6.79h0a5.13,5.13,0,0,1,.86,8.28h0a5.13,5.13,0,0,0-.57,7.06h0a5.13,5.13,0,0,1-2.19,8h0a5.13,5.13,0,0,0-3.08,6.37h0A5.14,5.14,0,0,1,491,438.41Z" fill="#fefb01"/>
      <path d="M491,539.41h0a5.13,5.13,0,0,0-5.18,4.83h0a5.13,5.13,0,0,1-7,4.46h0a5.12,5.12,0,0,0-6.57,2.64h0A5.14,5.14,0,0,1,464,553h0A5.13,5.13,0,0,0,457,553h0a5.13,5.13,0,0,1-8.2-1.43h0a5.15,5.15,0,0,0-6.64-2.49h0a5.13,5.13,0,0,1-7.13-4.3h0a5.13,5.13,0,0,0-5.29-4.71h0a5.13,5.13,0,0,1-5.09-6.59h0a5.13,5.13,0,0,0-3.23-6.3h0a5.13,5.13,0,0,1-2.37-8h0a5.14,5.14,0,0,0-.73-7h0a5.12,5.12,0,0,1,.67-8.29h0a5.15,5.15,0,0,0,1.86-6.84h0a5.12,5.12,0,0,1,3.62-7.49h0a5.15,5.15,0,0,0,4.21-5.71h0a5.13,5.13,0,0,1,6.09-5.68h0a5.13,5.13,0,0,0,6-3.8h0a5.13,5.13,0,0,1,7.73-3.1h0a5.13,5.13,0,0,0,6.95-1.38h0a5.13,5.13,0,0,1,8.33-.1h0a5.11,5.11,0,0,0,7,1.22h0a5.13,5.13,0,0,1,7.8,2.92h0a5.12,5.12,0,0,0,6.06,3.66h0a5.14,5.14,0,0,1,6.22,5.54h0a5.13,5.13,0,0,0,4.34,5.6h0a5.13,5.13,0,0,1,3.79,7.41h0a5.13,5.13,0,0,0,2,6.79h0a5.13,5.13,0,0,1,.86,8.28h0a5.13,5.13,0,0,0-.57,7.06h0a5.13,5.13,0,0,1-2.19,8h0a5.13,5.13,0,0,0-3.08,6.37h0A5.14,5.14,0,0,1,491,539.41Z" fill="#3cf"/>
      <path d="M619,438.41h0a5.13,5.13,0,0,0-5.18,4.83h0a5.13,5.13,0,0,1-7,4.46h0a5.12,5.12,0,0,0-6.57,2.64h0A5.14,5.14,0,0,1,592,452h0A5.13,5.13,0,0,0,585,452h0a5.13,5.13,0,0,1-8.2-1.43h0a5.15,5.15,0,0,0-6.64-2.49h0a5.13,5.13,0,0,1-7.13-4.3h0a5.13,5.13,0,0,0-5.29-4.71h0a5.13,5.13,0,0,1-5.09-6.59h0a5.13,5.13,0,0,0-3.23-6.3h0a5.13,5.13,0,0,1-2.37-8h0a5.14,5.14,0,0,0-.73-7.05h0a5.12,5.12,0,0,1,.67-8.29h0a5.15,5.15,0,0,0,1.86-6.84h0a5.12,5.12,0,0,1,3.62-7.49h0a5.15,5.15,0,0,0,4.21-5.71h0a5.12,5.12,0,0,1,6.09-5.67h0a5.13,5.13,0,0,0,6-3.8h0a5.13,5.13,0,0,1,7.73-3.1h0a5.13,5.13,0,0,0,7-1.38h0a5.13,5.13,0,0,1,8.33-.1h0a5.11,5.11,0,0,0,7,1.22h0a5.13,5.13,0,0,1,7.8,2.92h0a5.12,5.12,0,0,0,6.06,3.66h0a5.14,5.14,0,0,1,6.22,5.54h0a5.13,5.13,0,0,0,4.34,5.6h0a5.13,5.13,0,0,1,3.79,7.41h0a5.13,5.13,0,0,0,2,6.79h0a5.13,5.13,0,0,1,.86,8.28h0a5.13,5.13,0,0,0-.57,7.06h0a5.13,5.13,0,0,1-2.19,8h0a5.13,5.13,0,0,0-3.08,6.37h0A5.14,5.14,0,0,1,619,438.41Z" fill="#60fc7c"/>
      <path d="M619,539.41h0a5.13,5.13,0,0,0-5.18,4.83h0a5.13,5.13,0,0,1-7,4.46h0a5.12,5.12,0,0,0-6.57,2.64h0A5.14,5.14,0,0,1,592,553h0A5.13,5.13,0,0,0,585,553h0a5.13,5.13,0,0,1-8.2-1.43h0a5.15,5.15,0,0,0-6.64-2.49h0a5.13,5.13,0,0,1-7.13-4.3h0a5.13,5.13,0,0,0-5.29-4.71h0a5.13,5.13,0,0,1-5.09-6.59h0a5.13,5.13,0,0,0-3.23-6.3h0a5.13,5.13,0,0,1-2.37-8h0a5.14,5.14,0,0,0-.73-7h0a5.12,5.12,0,0,1,.67-8.29h0a5.15,5.15,0,0,0,1.86-6.84h0a5.12,5.12,0,0,1,3.62-7.49h0a5.15,5.15,0,0,0,4.21-5.71h0a5.13,5.13,0,0,1,6.09-5.68h0a5.13,5.13,0,0,0,6-3.8h0a5.13,5.13,0,0,1,7.73-3.1h0a5.13,5.13,0,0,0,7-1.38h0a5.13,5.13,0,0,1,8.33-.1h0a5.11,5.11,0,0,0,7,1.22h0a5.13,5.13,0,0,1,7.8,2.92h0a5.12,5.12,0,0,0,6.06,3.66h0a5.14,5.14,0,0,1,6.22,5.54h0a5.13,5.13,0,0,0,4.34,5.6h0a5.13,5.13,0,0,1,3.79,7.41h0a5.13,5.13,0,0,0,2,6.79h0a5.13,5.13,0,0,1,.86,8.28h0a5.13,5.13,0,0,0-.57,7.06h0a5.13,5.13,0,0,1-2.19,8h0a5.13,5.13,0,0,0-3.08,6.37h0A5.14,5.14,0,0,1,619,539.41Z" fill="#3c5a99"/>
      <path d="M745,438.41h0a5.13,5.13,0,0,0-5.18,4.83h0a5.13,5.13,0,0,1-7,4.46h0a5.12,5.12,0,0,0-6.57,2.64h0A5.14,5.14,0,0,1,718,452h0A5.13,5.13,0,0,0,711,452h0a5.13,5.13,0,0,1-8.2-1.43h0a5.15,5.15,0,0,0-6.64-2.49h0a5.13,5.13,0,0,1-7.13-4.3h0a5.13,5.13,0,0,0-5.29-4.71h0a5.13,5.13,0,0,1-5.09-6.59h0a5.13,5.13,0,0,0-3.23-6.3h0a5.13,5.13,0,0,1-2.37-8h0a5.14,5.14,0,0,0-.73-7.05h0a5.12,5.12,0,0,1,.67-8.29h0a5.15,5.15,0,0,0,1.86-6.84h0a5.12,5.12,0,0,1,3.62-7.49h0a5.15,5.15,0,0,0,4.21-5.71h0a5.12,5.12,0,0,1,6.09-5.67h0a5.13,5.13,0,0,0,6-3.8h0a5.13,5.13,0,0,1,7.73-3.1h0a5.13,5.13,0,0,0,7-1.38h0a5.13,5.13,0,0,1,8.33-.1h0a5.11,5.11,0,0,0,7,1.22h0a5.13,5.13,0,0,1,7.8,2.92h0a5.12,5.12,0,0,0,6.06,3.66h0a5.14,5.14,0,0,1,6.22,5.54h0a5.13,5.13,0,0,0,4.34,5.6h0a5.13,5.13,0,0,1,3.79,7.41h0a5.13,5.13,0,0,0,2,6.79h0a5.13,5.13,0,0,1,.86,8.28h0a5.13,5.13,0,0,0-.57,7.06h0a5.13,5.13,0,0,1-2.19,8h0a5.13,5.13,0,0,0-3.08,6.37h0A5.14,5.14,0,0,1,745,438.41Z" fill="red"/>
      <path d="M745,539.41h0a5.13,5.13,0,0,0-5.18,4.83h0a5.13,5.13,0,0,1-7,4.46h0a5.12,5.12,0,0,0-6.57,2.64h0A5.14,5.14,0,0,1,718,553h0A5.13,5.13,0,0,0,711,553h0a5.13,5.13,0,0,1-8.2-1.43h0a5.15,5.15,0,0,0-6.64-2.49h0a5.13,5.13,0,0,1-7.13-4.3h0a5.13,5.13,0,0,0-5.29-4.71h0a5.13,5.13,0,0,1-5.09-6.59h0a5.13,5.13,0,0,0-3.23-6.3h0a5.13,5.13,0,0,1-2.37-8h0a5.14,5.14,0,0,0-.73-7h0a5.12,5.12,0,0,1,.67-8.29h0a5.15,5.15,0,0,0,1.86-6.84h0a5.12,5.12,0,0,1,3.62-7.49h0a5.15,5.15,0,0,0,4.21-5.71h0a5.13,5.13,0,0,1,6.09-5.68h0a5.13,5.13,0,0,0,6-3.8h0a5.13,5.13,0,0,1,7.73-3.1h0a5.13,5.13,0,0,0,7-1.38h0a5.13,5.13,0,0,1,8.33-.1h0a5.11,5.11,0,0,0,7,1.22h0a5.13,5.13,0,0,1,7.8,2.92h0a5.12,5.12,0,0,0,6.06,3.66h0a5.14,5.14,0,0,1,6.22,5.54h0a5.13,5.13,0,0,0,4.34,5.6h0a5.13,5.13,0,0,1,3.79,7.41h0a5.13,5.13,0,0,0,2,6.79h0a5.13,5.13,0,0,1,.86,8.28h0a5.13,5.13,0,0,0-.57,7.06h0a5.13,5.13,0,0,1-2.19,8h0a5.13,5.13,0,0,0-3.08,6.37h0A5.14,5.14,0,0,1,745,539.41Z" fill="url(#New_Gradient_Swatch)"/>
      <g>
        <path d="M484.82,496.12a20.59,20.59,0,0,1-5,1.43c.81-.14,2-1.6,2.47-2.18a9.35,9.35,0,0,0,1.66-3c0-.09.08-.19,0-.26a.32.32,0,0,0-.27,0,25.15,25.15,0,0,1-5.92,2.27.4.4,0,0,1-.41-.11,5.23,5.23,0,0,0-.52-.53A10.46,10.46,0,0,0,474,492a10.19,10.19,0,0,0-4.4-.71A10.66,10.66,0,0,0,462,495.2a10.22,10.22,0,0,0-2,4,10.91,10.91,0,0,0-.1,4.26c0,.23,0,.26-.21.23-8.14-1.21-14.89-4.12-20.37-10.36-.23-.28-.36-.28-.56,0-2.4,3.59-1.23,9.36,1.76,12.2a16.38,16.38,0,0,0,1.25,1.1,10.43,10.43,0,0,1-3.93-1.1c-.23-.15-.35-.06-.37.21a5.79,5.79,0,0,0,.06,1.16,10.46,10.46,0,0,0,6.44,8.33,6.52,6.52,0,0,0,1.3.4,11.85,11.85,0,0,1-3.85.12c-.28-.06-.39.08-.28.35,1.69,4.63,5.36,6,8.1,6.79.36.06.73.06,1.1.15,0,0,0,0-.07.06-.91,1.39-4.06,2.42-5.53,2.93a19.68,19.68,0,0,1-8.4,1.08c-.45-.07-.54-.06-.67,0s0,.18.13.3c.58.38,1.16.71,1.75,1a27.57,27.57,0,0,0,5.62,2.24c10.09,2.79,21.46.74,29-6.79,6-5.91,8-14.06,8-22.23,0-.32.38-.49.6-.66a19.7,19.7,0,0,0,3.94-4.11,1.19,1.19,0,0,0,.24-.79v0C485,496,485,496,484.82,496.12Z" fill="#fff"/>
        <path d="M450.27,532Z" fill="#fff" fill-rule="evenodd"/>
        <path d="M451.93,532.06c0-.09.88,0,0,0C451.93,532,452,532.06,451.93,532.06Z" fill="#fff" fill-rule="evenodd"/>
        <path d="M469.41,491.56a.2.2,0,0,1-.21,0Z" fill="#fff" fill-rule="evenodd"/>
      </g>
      <path d="M586.12,513.86c0-.19,0-.38-.08-.57a7.94,7.94,0,0,1,.51-3.48l.57.49c1.25,1,.2,2.39.48,3.56h-1.48Z" fill="#a2b1ce"/>
      <path d="M587.83,510.91c-.26.66-.52,1.31-.79,2-.35-.69-2.26-1.38,0-2.07Z" fill="#e8ecf3"/>
      <path d="M586.17,509.8h1c.16.51.32,1,.49,1.53-.55.36,0,.68,0,1-.17.18-.35.36-.53.53a1,1,0,0,0-.5,1C585.64,512.62,586.35,511.16,586.17,509.8Z" fill="#a7b5d1"/>
      <path d="M580.29,512v24.57a.64.64,0,0,0,.64.64h9.12a.64.64,0,0,0,.64-.64v-25h6.62a.64.64,0,0,0,.64-.58l.63-7.53a.64.64,0,0,0-.64-.69h-7.25V497.5a2.27,2.27,0,0,1,2.27-2.26h5.1a.64.64,0,0,0,.64-.64v-7.52a.64.64,0,0,0-.64-.64h-8.62a9.15,9.15,0,0,0-9.15,9.15v7.25h-4.56a.64.64,0,0,0-.64.64V511a.64.64,0,0,0,.64.64h4.56Z" fill="#fff" fill-rule="evenodd"/>
      <g>
        <path d="M588.94,383.72a25.58,25.58,0,0,0-21.5,39.46l-3.89,8.56a2.23,2.23,0,0,0,2,3.16,2.06,2.06,0,0,0,.6-.08l10.71-2.94a25.59,25.59,0,1,0,12.05-48.16Zm0,46.71a21.12,21.12,0,0,1-10.64-2.87,2.22,2.22,0,0,0-1.12-.31,2.33,2.33,0,0,0-.59.08l-7,1.92,2.44-5.37a2.23,2.23,0,0,0-.23-2.23,21.12,21.12,0,1,1,17.14,8.78Z" fill="#fff" fill-rule="evenodd"/>
        <path d="M598.78,413.14c-1.07-.64-2.47-1.35-3.73-.84-1,.4-1.59,1.92-2.22,2.69a.92.92,0,0,1-1.2.26A16.91,16.91,0,0,1,583.2,408a1,1,0,0,1,.14-1.41,5.76,5.76,0,0,0,1.53-2.49,5.46,5.46,0,0,0-.69-2.94c-.51-1.09-1.07-2.65-2.17-3.27a3,3,0,0,0-3.23.48,6.57,6.57,0,0,0-2.28,5.2,7.69,7.69,0,0,0,.21,1.65,13.53,13.53,0,0,0,1.58,3.64q.76,1.31,1.65,2.52a25.68,25.68,0,0,0,7.17,6.65,21.27,21.27,0,0,0,4.47,2.12c1.75.58,3.31,1.18,5.2.83a6.3,6.3,0,0,0,4.71-3.51,3,3,0,0,0,.22-1.79C601.44,414.47,599.77,413.74,598.78,413.14Z" fill="#fff" fill-rule="evenodd"/>
      </g>
      <path d="M739,404.88A10.88,10.88,0,0,0,728.12,394H699.88A10.88,10.88,0,0,0,689,404.88v13.24A10.88,10.88,0,0,0,699.88,429h28.24A10.88,10.88,0,0,0,739,418.12Zm-17.81,7.29-11.26,6.17c-.49.27-.93-.09-.93-.64V405c0-.56.45-.92.94-.64l11.34,6.5A.74.74,0,0,1,721.19,412.17Z" fill="#fff"/>
      <path d="M432.38,426v-.87a2.29,2.29,0,0,1,1.31-.88c4.57-.91,7.62-3.81,9.92-7.63,1.94-3.21,1.63-3.95-1.94-5.21-.2-.07-.41-.13-.61-.22a7.48,7.48,0,0,1-2.18-1.2c-1.59-1.39-.65-3.39,1.24-3.85,1.37-.33,2.57.56,3.91.72.89.12,1.25-.18,1.14-1.14a45.35,45.35,0,0,1-.16-7.37,12.48,12.48,0,0,1,6.43-10.58,16.25,16.25,0,0,1,17.42-.05,12.42,12.42,0,0,1,6.4,9.56,42.26,42.26,0,0,1,0,8.34c-.09,1.21.15,1.43,1.35,1.15,1.48-.34,2.72-1.11,4.26-.43a2.32,2.32,0,0,1,1.52,2,2.21,2.21,0,0,1-.84,1.59,8.69,8.69,0,0,1-2.5,1.32c-.67.27-1.37.48-2,.78-1.35.64-1.73,1.47-1.1,2.8,2.18,4.62,5.39,8.12,10.58,9.34a2.44,2.44,0,0,1,1.52.92V426a4,4,0,0,1-2.37,1.94,10.71,10.71,0,0,1-3.12.89,2.37,2.37,0,0,0-2.53,2.32c-.22,1.48-.66,1.7-2.18,1.57-.36,0-.72-.09-1.07-.15-3-.53-5.77-.23-8.22,1.74a16.37,16.37,0,0,1-1.52,1.05c-4.17,2.7-8.43,3-12.78.47-1.19-.69-2.32-1.49-3.47-2.24a7.58,7.58,0,0,0-3.12-1.14,19.84,19.84,0,0,0-5.28.32c-.91.1-1.78-.16-1.83-1.09-.12-2.25-1.5-2.8-3.39-3a9.29,9.29,0,0,1-2.58-.8A3.84,3.84,0,0,1,432.38,426Z" fill="#fff"/>
      <g>
        <circle cx="728.44" cy="497.87" r="3.12" fill="#fff"/>
        <path d="M714.59,498.75a13.09,13.09,0,1,0,13.09,13.09A13.11,13.11,0,0,0,714.59,498.75Zm0,21.48a8.39,8.39,0,1,1,8.38-8.39A8.39,8.39,0,0,1,714.59,520.23Z" fill="#fff"/>
        <path d="M725,538.42H703.76a16,16,0,0,1-16-16V501.23a16,16,0,0,1,16-16H725a16,16,0,0,1,16,16v21.22A16,16,0,0,1,725,538.42Zm-21.22-48.15a11,11,0,0,0-11,11v21.22a11,11,0,0,0,11,11H725a11,11,0,0,0,11-11V501.23a11,11,0,0,0-11-11Z" fill="#fff"/>
      </g>
      <circle cx="713.62" cy="200.31" r="40.11" transform="translate(67.37 563.28) rotate(-45)" fill="none" stroke="red" stroke-miterlimit="10" stroke-width="4"/>
      <path d="M739,193.88A10.88,10.88,0,0,0,728.12,183H699.88A10.88,10.88,0,0,0,689,193.88v13.24A10.88,10.88,0,0,0,699.88,218h28.24A10.88,10.88,0,0,0,739,207.12Zm-17.81,7.29-11.26,6.17c-.49.27-.93-.09-.93-.64V194c0-.56.45-.92.94-.64l11.34,6.5A.74.74,0,0,1,721.19,201.17Z" fill="red"/>
      <path d="M714.24,343a42.11,42.11,0,1,1,42.11-42.11A42.15,42.15,0,0,1,714.24,343Zm0-80.22a38.11,38.11,0,1,0,38.11,38.11A38.15,38.15,0,0,0,714.24,262.73Zm14.2,21a3.12,3.12,0,1,0,3.12,3.11A3.11,3.11,0,0,0,728.44,283.76Zm-13.85,4a13.09,13.09,0,1,0,13.09,13.09A13.11,13.11,0,0,0,714.59,287.75Zm0,21.48a8.39,8.39,0,1,1,8.38-8.39A8.39,8.39,0,0,1,714.59,309.23ZM741,290a16,16,0,0,0-16-16H704a16,16,0,0,0-16,16V311a16,16,0,0,0,16,16H725a16,16,0,0,0,16-16ZM736,311a11,11,0,0,1-11,11H704a11,11,0,0,1-11-11V290a11,11,0,0,1,11-11H725a11,11,0,0,1,11,11Z" fill="url(#New_Gradient_Swatch-2)"/>
    </g>
  </g>
</svg>
