<svg width="501" height="501" viewBox="0 0 501 501" fill="none" xmlns="http://www.w3.org/2000/svg">
<g id="SpingLoader">
<path id="Vector" d="M5.83643 250.295C5.83643 385.605 115.527 495.295 250.836 495.295C386.146 495.295 495.836 385.605 495.836 250.295C495.836 114.985 386.146 5.2948 250.836 5.2948C115.527 5.2948 5.83643 114.985 5.83643 250.295Z" fill="url(#paint0_linear)"/>
<path id="Subtract" fill-rule="evenodd" clip-rule="evenodd" d="M500.836 250.295C500.836 112.224 388.908 0.2948 250.836 0.2948C112.765 0.2948 0.836426 112.224 0.836426 250.295C0.836426 388.366 112.765 500.295 250.836 500.295C388.908 500.295 500.836 388.366 500.836 250.295ZM252.836 50.7948C252.836 49.4141 251.717 48.2948 250.336 48.2948C248.956 48.2948 247.836 49.4141 247.836 50.7948V75.2975C247.836 76.4065 248.739 77.3038 249.848 77.2976C250.177 77.2957 250.507 77.2948 250.836 77.2948C251.941 77.2948 252.836 76.3994 252.836 75.2948V50.7948ZM262.623 51.1333C262.691 49.7542 261.628 48.5813 260.249 48.5136C258.87 48.4459 257.697 49.5089 257.629 50.888L256.427 75.3581C256.373 76.4664 257.231 77.4073 258.34 77.4546C258.669 77.4686 258.998 77.4836 259.327 77.4995C260.43 77.5528 261.367 76.7025 261.421 75.5999L262.623 51.1333ZM242.346 77.4995C243.45 77.4461 244.301 76.5075 244.247 75.4037L243.045 50.9369C242.977 49.5579 241.804 48.4949 240.425 48.5627C239.046 48.6304 237.983 49.8032 238.051 51.1823L239.253 75.651C239.308 76.758 240.252 77.6097 241.359 77.55L241.796 77.5269C241.979 77.5175 242.163 77.5083 242.346 77.4995ZM272.381 51.9516C272.517 50.5774 271.513 49.3538 270.138 49.2185C268.764 49.0832 267.541 50.0874 267.405 51.4615L265.005 75.8347C264.896 76.9394 265.708 77.9214 266.813 78.0226C266.99 78.0388 267.167 78.0553 267.344 78.072L267.797 78.1155C268.896 78.2224 269.873 77.4192 269.981 76.3209L272.381 51.9516ZM233.876 78.1155C234.976 78.0084 235.781 77.0289 235.673 75.9286L233.272 51.5594C233.137 50.1853 231.913 49.1812 230.539 49.3165C229.165 49.4518 228.161 50.6754 228.297 52.0495L230.697 76.4207C230.805 77.5234 231.79 78.3276 232.892 78.214C233.22 78.1803 233.548 78.1474 233.876 78.1155ZM282.088 53.2475C282.29 51.8817 281.347 50.6103 279.982 50.4078C278.616 50.2052 277.345 51.1481 277.142 52.5139L273.55 76.7298C273.387 77.8278 274.149 78.8483 275.249 79.0036C275.575 79.0497 275.901 79.0967 276.227 79.1446C277.319 79.3052 278.335 78.551 278.496 77.4593L282.088 53.2475ZM225.446 79.1445C226.54 78.9837 227.296 77.9659 227.134 76.8723L223.542 52.6606C223.34 51.2948 222.068 50.3519 220.702 50.5545C219.337 50.7571 218.394 52.0285 218.596 53.3942L222.188 77.6074C222.35 78.7036 223.373 79.4586 224.469 79.2912C224.657 79.2624 224.845 79.2339 225.034 79.2057L225.446 79.1445ZM291.719 55.0184C291.988 53.6642 291.109 52.348 289.754 52.0786C288.4 51.8093 287.084 52.6887 286.815 54.0429L282.041 78.0433C281.824 79.1318 282.536 80.1885 283.625 80.3976L284.065 80.4824C284.242 80.5168 284.419 80.5516 284.596 80.5866C285.679 80.8008 286.73 80.0974 286.945 79.0149L291.719 55.0184ZM217.077 80.5865C218.162 80.3721 218.866 79.3185 218.651 78.2344L213.878 54.238C213.608 52.8838 212.292 52.0044 210.938 52.2737C209.584 52.5431 208.704 53.8593 208.974 55.2135L213.747 79.2115C213.963 80.2985 215.022 81.0024 216.108 80.7811C216.431 80.7154 216.754 80.6505 217.077 80.5865ZM301.251 57.2595C301.587 55.9202 300.773 54.5625 299.434 54.227C298.094 53.8915 296.737 54.7053 296.401 56.0446L290.457 79.7736C290.188 80.8501 290.846 81.9403 291.924 82.2029C292.244 82.281 292.564 82.3599 292.884 82.4396C293.955 82.7071 295.04 82.0561 295.308 80.9852L301.251 57.2595ZM208.79 82.4395C209.862 82.1718 210.514 81.0852 210.245 80.0132L204.302 56.2876C203.967 54.9483 202.609 54.1345 201.27 54.47C199.93 54.8055 199.116 56.1632 199.452 57.5025L205.395 81.2302C205.665 82.3054 206.757 82.9565 207.831 82.6818C208.15 82.6001 208.47 82.5194 208.79 82.4395ZM310.662 59.9658C311.063 58.6445 310.317 57.2485 308.996 56.8477C307.674 56.447 306.278 57.1931 305.878 58.5144L298.778 81.9183C298.456 82.9798 299.06 84.1007 300.123 84.4162C300.298 84.4683 300.474 84.5206 300.649 84.5732L301.07 84.7001C302.127 85.0203 303.243 84.4233 303.564 83.3666L310.662 59.9658ZM200.603 84.7C201.66 84.3797 202.258 83.2627 201.937 82.2054L194.839 58.8046C194.438 57.4834 193.042 56.7372 191.72 57.138C190.399 57.5388 189.653 58.9348 190.054 60.2561L197.153 83.6591C197.475 84.7202 198.599 85.3169 199.658 84.9893C199.854 84.9289 200.049 84.8687 200.245 84.809L200.603 84.7ZM319.929 63.1306C320.394 61.8305 319.718 60.3996 318.418 59.9344C317.118 59.4693 315.687 60.1461 315.221 61.4461L306.983 84.4718C306.609 85.516 307.157 86.6648 308.203 87.0325C308.514 87.1417 308.824 87.2518 309.135 87.3629C310.175 87.735 311.32 87.1935 311.692 86.1534L319.929 63.1306ZM192.539 87.3627C193.579 86.9906 194.12 85.8458 193.748 84.8058L185.51 61.783C185.045 60.483 183.614 59.8062 182.314 60.2714C181.014 60.7365 180.337 62.1675 180.802 63.4675L189.041 86.493C189.415 87.5373 190.567 88.0781 191.609 87.6984C191.918 87.5857 192.228 87.4738 192.539 87.3627ZM329.03 66.7462C329.558 65.4706 328.952 64.0082 327.677 63.4798C326.401 62.9514 324.939 63.5572 324.41 64.8328L315.051 87.4278C314.627 88.4522 315.117 89.6262 316.143 90.045C316.448 90.1696 316.753 90.2949 317.058 90.4211C318.078 90.8443 319.249 90.3598 319.671 89.3391L329.03 66.7462ZM184.615 90.421C185.636 89.998 186.12 88.8282 185.697 87.808L176.339 65.2155C175.811 63.9398 174.348 63.3341 173.073 63.8625C171.797 64.3909 171.191 65.8533 171.72 67.1289L181.079 89.7245C181.504 90.7495 182.681 91.2331 183.704 90.8022C184.007 90.6743 184.311 90.5472 184.615 90.421ZM337.942 70.804C338.532 69.5559 337.999 68.0655 336.751 67.4752C335.503 66.8849 334.012 67.4182 333.422 68.6663L322.963 90.7789C322.489 91.781 322.921 92.9774 323.925 93.4463C324.224 93.5857 324.522 93.7259 324.82 93.867C325.819 94.3401 327.012 93.9137 327.484 92.9147L337.942 70.804ZM176.853 93.8668C177.851 93.3941 178.277 92.2023 177.805 91.2043L167.347 69.0938C166.757 67.8457 165.267 67.3124 164.019 67.9027C162.77 68.4931 162.237 69.9835 162.827 71.2316L173.287 93.3454C173.761 94.3484 174.961 94.7735 175.961 94.2926C176.258 94.1499 176.555 94.0079 176.853 93.8668ZM346.644 75.2943C347.295 74.0767 346.835 72.5619 345.618 71.9111C344.4 71.2602 342.885 71.7197 342.234 72.9373L330.7 94.5158C330.178 95.4934 330.55 96.7094 331.53 97.2271C331.821 97.381 332.112 97.5358 332.403 97.6913C333.377 98.2132 334.59 97.8458 335.111 96.8711L346.644 75.2943ZM169.27 97.6912C170.243 97.17 170.61 95.9589 170.09 94.9854L158.557 73.4087C157.906 72.191 156.391 71.7315 155.174 72.3824C153.956 73.0332 153.496 74.548 154.147 75.7657L165.682 97.3458C166.205 98.3244 167.425 98.69 168.4 98.1605C168.69 98.0033 168.98 97.8468 169.27 97.6912ZM355.115 80.2062C355.825 79.0219 355.441 77.4864 354.256 76.7766C353.072 76.0668 351.537 76.4514 350.827 77.6357L338.244 98.629C337.674 99.5796 337.986 100.812 338.939 101.378C339.223 101.546 339.506 101.714 339.788 101.884C340.736 102.453 341.965 102.146 342.534 101.198L355.115 80.2062ZM161.885 101.884C162.831 101.316 163.138 100.088 162.571 99.1414L149.989 78.1497C149.279 76.9654 147.743 76.5808 146.559 77.2907C145.375 78.0005 144.99 79.5359 145.7 80.7202L158.284 101.715C158.854 102.667 160.091 102.972 161.039 102.395C161.32 102.224 161.602 102.054 161.885 101.884ZM363.336 85.5278C364.103 84.3798 363.794 82.8272 362.646 82.0602C361.498 81.2931 359.945 81.6019 359.178 82.75L345.576 103.107C344.96 104.029 345.211 105.275 346.136 105.887C346.294 105.992 346.453 106.097 346.611 106.202L346.959 106.434C347.877 107.049 349.12 106.803 349.734 105.884L363.336 85.5278ZM154.714 106.434C155.632 105.82 155.878 104.579 155.265 103.661L141.663 83.3054C140.896 82.1574 139.344 81.8486 138.196 82.6157C137.048 83.3828 136.739 84.9352 137.506 86.0832L151.109 106.442C151.726 107.365 152.976 107.609 153.894 106.986C154.167 106.802 154.44 106.617 154.714 106.434ZM371.285 91.2463C372.107 90.1373 371.875 88.5715 370.766 87.749C369.657 86.9266 368.091 87.1588 367.269 88.2678L352.68 107.939C352.019 108.83 352.209 110.087 353.102 110.743L353.419 110.976C353.579 111.094 353.738 111.212 353.898 111.33C354.785 111.989 356.038 111.804 356.697 110.916L371.285 91.2463ZM147.775 111.33C148.662 110.672 148.847 109.42 148.189 108.533L133.601 88.8635C132.779 87.7545 131.213 87.5222 130.104 88.3447C128.995 89.1672 128.763 90.733 129.585 91.842L144.175 111.515C144.836 112.406 146.097 112.589 146.983 111.922C147.247 111.724 147.511 111.526 147.775 111.33ZM378.944 97.348C379.82 96.2807 379.665 94.7054 378.597 93.8295C377.53 92.9536 375.955 93.1088 375.079 94.176L359.538 113.113C358.835 113.969 358.963 115.235 359.823 115.934C360.079 116.142 360.334 116.35 360.589 116.559C361.443 117.261 362.704 117.137 363.405 116.283L378.944 97.348ZM141.084 116.559C141.937 115.858 142.061 114.599 141.361 113.745L125.821 94.8104C124.945 93.7431 123.37 93.5879 122.303 94.4638C121.235 95.3397 121.08 96.9151 121.956 97.9825L137.498 116.92C138.202 117.777 139.469 117.898 140.322 117.189C140.575 116.978 140.83 116.768 141.084 116.559ZM386.294 103.818C387.222 102.795 387.144 101.214 386.121 100.287C385.098 99.3597 383.517 99.4373 382.59 100.46L366.136 118.615C365.391 119.436 365.457 120.707 366.282 121.447C366.528 121.667 366.772 121.888 367.017 122.109C367.835 122.851 369.1 122.789 369.842 121.971L386.294 103.818ZM134.656 122.109C135.475 121.367 135.537 120.102 134.795 119.284L118.343 101.132C117.415 100.109 115.834 100.031 114.811 100.958C113.788 101.886 113.711 103.467 114.638 104.49L131.092 122.644C131.837 123.466 133.109 123.525 133.926 122.775C134.169 122.552 134.412 122.33 134.656 122.109ZM393.318 110.641C394.295 109.665 394.295 108.082 393.318 107.106C392.342 106.129 390.759 106.129 389.783 107.106L372.457 124.432C371.673 125.216 371.676 126.488 372.465 127.268C372.699 127.5 372.933 127.732 373.166 127.965C373.947 128.746 375.213 128.746 375.994 127.965L393.318 110.641ZM128.507 127.965C129.288 127.184 129.288 125.918 128.507 125.137L111.183 107.813C110.206 106.836 108.624 106.836 107.647 107.813C106.671 108.789 106.671 110.372 107.647 111.348L124.974 128.675C125.758 129.459 127.03 129.455 127.81 128.666C128.042 128.432 128.274 128.198 128.507 127.965ZM400 117.801C401.023 116.873 401.1 115.292 400.173 114.269C399.246 113.246 397.665 113.169 396.642 114.096L378.487 130.551C377.665 131.295 377.606 132.567 378.356 133.384C378.579 133.627 378.801 133.871 379.022 134.115C379.764 134.933 381.029 134.995 381.847 134.253L400 117.801ZM122.651 134.115C123.393 133.296 123.331 132.031 122.512 131.289L104.36 114.837C103.337 113.91 101.756 113.987 100.829 115.01C99.9014 116.033 99.979 117.614 101.002 118.542L119.156 134.996C119.978 135.74 121.248 135.674 121.989 134.849C122.208 134.603 122.429 134.359 122.651 134.115ZM406.321 125.279C407.388 124.403 407.543 122.828 406.668 121.761C405.792 120.693 404.216 120.538 403.149 121.414L384.211 136.956C383.354 137.66 383.233 138.927 383.942 139.78C384.153 140.034 384.363 140.288 384.572 140.543C385.273 141.396 386.533 141.519 387.386 140.819L406.321 125.279ZM117.101 140.542C117.802 139.689 117.679 138.428 116.824 137.727L97.8896 122.187C96.8223 121.311 95.247 121.467 94.3711 122.534C93.4952 123.601 93.6504 125.176 94.7176 126.052L113.654 141.593C114.511 142.297 115.777 142.169 116.476 141.308C116.582 141.177 116.689 141.045 116.796 140.914L117.101 140.542ZM412.268 133.059C413.377 132.237 413.609 130.671 412.787 129.562C411.964 128.453 410.399 128.221 409.29 129.043L389.617 143.634C388.725 144.295 388.543 145.555 389.209 146.442C389.407 146.705 389.605 146.969 389.801 147.234C390.46 148.12 391.711 148.305 392.598 147.647L412.268 133.059ZM111.872 147.234C112.531 146.346 112.345 145.093 111.458 144.434L91.7881 129.846C90.6791 129.024 89.1133 129.256 88.2908 130.365C87.4683 131.474 87.7005 133.04 88.8095 133.862L108.481 148.452C109.371 149.112 110.629 148.922 111.284 148.029C111.479 147.763 111.675 147.498 111.872 147.234ZM417.826 141.121C418.974 140.354 419.283 138.802 418.516 137.654C417.749 136.506 416.196 136.197 415.048 136.964L394.895 150.43C393.859 151.122 393.584 152.526 394.284 153.558C394.422 153.762 394.56 153.967 394.697 154.173C395.311 155.09 396.552 155.336 397.47 154.723L417.826 141.121ZM106.976 154.172C107.591 153.254 107.344 152.011 106.425 151.397L86.0694 137.796C84.9214 137.029 83.3689 137.337 82.6018 138.485C81.8347 139.633 82.1435 141.186 83.2915 141.953L103.649 155.555C104.57 156.171 105.817 155.92 106.428 154.996C106.61 154.721 106.792 154.446 106.976 154.172ZM422.982 149.447C424.166 148.737 424.551 147.201 423.841 146.017C423.131 144.833 421.596 144.448 420.411 145.158L399.416 157.742C398.464 158.313 398.159 159.549 398.736 160.497C398.907 160.779 399.078 161.061 399.247 161.343C399.816 162.289 401.043 162.596 401.99 162.029L422.982 149.447ZM102.426 161.343C102.995 160.396 102.688 159.166 101.739 158.598L80.7478 146.016C79.5636 145.306 78.0281 145.691 77.3183 146.875C76.6084 148.059 76.993 149.595 78.1773 150.305L99.1706 162.887C100.121 163.457 101.354 163.145 101.919 162.192C102.087 161.908 102.256 161.625 102.426 161.343ZM427.723 158.015C428.94 157.364 429.4 155.849 428.749 154.632C428.098 153.414 426.583 152.954 425.366 153.605L403.785 165.14C402.807 165.663 402.441 166.883 402.971 167.858C403.128 168.148 403.284 168.438 403.44 168.729C403.961 169.702 405.172 170.068 406.146 169.548L427.723 158.015ZM98.2329 168.729C98.7547 167.754 98.3874 166.541 97.4126 166.02L75.8359 154.487C74.6182 153.837 73.1035 154.296 72.4526 155.514C71.8018 156.731 72.2613 158.246 73.4789 158.897L95.0573 170.431C96.0349 170.953 97.251 170.581 97.7688 169.601C97.9226 169.31 98.0774 169.019 98.2329 168.729ZM432.038 166.805C433.286 166.215 433.819 164.725 433.229 163.477C432.638 162.229 431.148 161.695 429.9 162.286L407.786 172.745C406.783 173.219 406.358 174.419 406.839 175.419C406.981 175.716 407.123 176.014 407.264 176.312C407.737 177.309 408.929 177.735 409.927 177.263L432.038 166.805ZM94.4084 176.311C94.8816 175.313 94.4552 174.12 93.4562 173.647L71.3459 163.19C70.0977 162.599 68.6074 163.133 68.017 164.381C67.4266 165.629 67.9599 167.119 69.2081 167.71L91.3206 178.168C92.3226 178.642 93.519 178.21 93.9878 177.206C94.1272 176.907 94.2676 176.609 94.4084 176.311ZM435.916 175.797C437.192 175.269 437.797 173.806 437.269 172.531C436.741 171.255 435.278 170.649 434.003 171.178L411.407 180.537C410.382 180.962 409.898 182.14 410.329 183.162C410.457 183.465 410.584 183.769 410.71 184.074C411.133 185.094 412.303 185.578 413.323 185.155L435.916 175.797ZM90.9626 184.074C91.3858 183.053 90.9013 181.883 89.8805 181.46L67.288 172.102C66.0124 171.573 64.5499 172.179 64.0216 173.455C63.4932 174.73 64.099 176.193 65.3746 176.721L87.9695 186.08C88.9938 186.505 90.1679 186.015 90.5867 184.988C90.7112 184.683 90.8364 184.378 90.9626 184.074ZM439.348 184.968C440.648 184.503 441.325 183.072 440.86 181.772C440.395 180.472 438.964 179.796 437.664 180.261L414.638 188.499C413.594 188.873 413.053 190.025 413.433 191.067C413.546 191.377 413.657 191.687 413.768 191.997C414.141 193.037 415.285 193.578 416.325 193.206L439.348 184.968ZM87.9043 191.997C88.2766 190.957 87.7352 189.812 86.6952 189.44L63.6725 181.202C62.3725 180.737 60.9415 181.414 60.4763 182.714C60.0111 184.014 60.6879 185.445 61.988 185.91L85.0134 194.149C86.0576 194.522 87.2064 193.975 87.574 192.928C87.6833 192.618 87.7935 192.307 87.9043 191.997ZM442.327 194.297C443.648 193.896 444.394 192.5 443.993 191.179C443.592 189.858 442.196 189.111 440.875 189.512L417.472 196.611C416.411 196.933 415.814 198.057 416.142 199.116C416.239 199.431 416.336 199.746 416.431 200.061C416.751 201.119 417.868 201.716 418.926 201.395L442.327 194.297ZM85.2417 200.061C85.5618 199.005 84.9649 197.888 83.9081 197.568L60.5076 190.469C59.1864 190.068 57.7903 190.814 57.3895 192.136C56.9887 193.457 57.7349 194.853 59.0562 195.254L82.4599 202.353C83.5215 202.675 84.6423 202.072 84.9578 201.008C85.0515 200.692 85.1462 200.377 85.2417 200.061ZM444.844 203.76C446.183 203.425 446.997 202.067 446.661 200.728C446.326 199.389 444.968 198.575 443.629 198.91L419.901 204.854C418.826 205.123 418.175 206.215 418.449 207.289L418.552 207.694C418.599 207.878 418.646 208.063 418.692 208.248C418.959 209.32 420.046 209.972 421.118 209.703L444.844 203.76ZM82.9812 208.248C83.2486 207.177 82.5976 206.091 81.5267 205.823L57.8013 199.88C56.462 199.545 55.1043 200.359 54.7688 201.698C54.4333 203.037 55.2471 204.395 56.5864 204.73L80.3152 210.674C81.3917 210.944 82.4819 210.286 82.7446 209.207C82.8225 208.887 82.9014 208.567 82.9812 208.248ZM446.893 213.336C448.247 213.066 449.127 211.75 448.858 210.396C448.588 209.042 447.272 208.163 445.918 208.432L421.92 213.206C420.833 213.422 420.129 214.48 420.35 215.566C420.416 215.889 420.481 216.212 420.545 216.535C420.759 217.62 421.813 218.325 422.897 218.109L446.893 213.336ZM81.1282 216.535C81.3424 215.453 80.6389 214.401 79.5564 214.186L55.5602 209.413C54.206 209.143 52.8898 210.023 52.6205 211.377C52.3511 212.731 53.2306 214.047 54.5847 214.317L78.0917 218.992C79.4521 219.263 80.7728 218.374 81.0344 217.012L81.1282 216.535ZM448.471 223C449.836 222.798 450.779 221.526 450.577 220.161C450.374 218.795 449.103 217.852 447.737 218.055L423.524 221.646C422.428 221.809 421.673 222.832 421.84 223.927C421.89 224.252 421.939 224.578 421.987 224.905C422.148 225.998 423.165 226.754 424.259 226.592L448.471 223ZM79.6863 224.904C79.8468 223.813 79.0926 222.797 78.0009 222.635L53.7896 219.044C52.4238 218.841 51.1524 219.784 50.9498 221.15C50.7472 222.516 51.6902 223.787 53.056 223.99L77.2712 227.582C78.3693 227.744 79.3899 226.982 79.5452 225.883C79.5913 225.556 79.6382 225.23 79.6863 224.904ZM449.572 232.731C450.946 232.595 451.95 231.372 451.815 229.998C451.679 228.624 450.456 227.62 449.082 227.755L424.711 230.155C423.608 230.264 422.804 231.248 422.917 232.351C422.951 232.678 422.984 233.006 423.016 233.334C423.123 234.435 424.102 235.239 425.202 235.131L449.572 232.731ZM78.6572 233.334C78.7641 232.236 77.9609 231.258 76.8626 231.15L52.4934 228.75C51.1193 228.615 49.8957 229.619 49.7604 230.993C49.6251 232.367 50.6293 233.591 52.0033 233.726L76.3765 236.126C77.4811 236.235 78.463 235.424 78.5642 234.318C78.5942 233.99 78.6252 233.662 78.6572 233.334ZM450.194 242.503C451.573 242.436 452.636 241.263 452.569 239.884C452.501 238.505 451.328 237.442 449.949 237.509L425.48 238.711C424.373 238.766 423.522 239.71 423.581 240.817C423.599 241.146 423.616 241.475 423.632 241.804C423.685 242.908 424.624 243.76 425.728 243.705L450.194 242.503ZM78.0283 242.071C78.0886 240.821 77.1249 239.758 75.8752 239.697L51.6752 238.508C50.2962 238.44 49.1233 239.503 49.0555 240.882C48.9878 242.262 50.0508 243.434 51.4299 243.502L75.8999 244.704C77.0081 244.759 77.9489 243.901 77.9961 242.792C78.0063 242.551 78.0173 242.311 78.0283 242.071ZM77.8391 249.306C77.8453 248.197 76.9481 247.295 75.8391 247.295H51.3364C49.9557 247.295 48.8364 248.414 48.8364 249.795C48.8364 251.175 49.9557 252.295 51.3364 252.295H75.8364C76.941 252.295 77.8364 251.399 77.8364 250.295C77.8364 249.965 77.8374 249.635 77.8391 249.306ZM452.836 249.795C452.836 248.414 451.717 247.295 450.336 247.295H425.834C424.725 247.295 423.827 248.197 423.834 249.306C423.835 249.635 423.836 249.965 423.836 250.295C423.836 251.399 424.732 252.295 425.836 252.295H450.336C451.717 252.295 452.836 251.175 452.836 249.795ZM77.9961 257.798C77.9489 256.689 77.0081 255.831 75.8999 255.885L51.4296 257.087C50.0506 257.155 48.9875 258.328 49.0553 259.707C49.1231 261.086 50.2959 262.149 51.675 262.081L76.1415 260.879C77.2441 260.825 78.0943 259.888 78.041 258.785C78.0251 258.456 78.0103 258.127 77.9961 257.798ZM452.569 260.706C452.637 259.327 451.574 258.154 450.195 258.086L425.728 256.884C424.624 256.83 423.685 257.681 423.632 258.785C423.616 259.115 423.599 259.444 423.581 259.773C423.522 260.879 424.373 261.824 425.48 261.878L449.949 263.08C451.328 263.148 452.501 262.085 452.569 260.706ZM78.5642 266.271C78.463 265.166 77.4811 264.354 76.3765 264.463L52.003 266.864C50.629 266.999 49.6248 268.223 49.7601 269.597C49.8954 270.971 51.119 271.975 52.4931 271.84L76.8626 269.439C77.9609 269.331 78.7641 268.354 78.6572 267.255C78.6252 266.928 78.5942 266.599 78.5642 266.271ZM451.815 270.592C451.95 269.218 450.946 267.994 449.572 267.859L425.202 265.459C424.102 265.35 423.123 266.155 423.016 267.255L422.969 267.726C422.952 267.897 422.935 268.068 422.917 268.239C422.804 269.341 423.608 270.326 424.711 270.434L449.082 272.835C450.456 272.97 451.68 271.966 451.815 270.592ZM79.5452 274.707C79.3899 273.608 78.3693 272.845 77.2712 273.008L53.0557 276.6C51.6899 276.803 50.747 278.074 50.9496 279.44C51.1522 280.806 52.4236 281.748 53.7893 281.546L78.0009 277.954C79.0926 277.793 79.8468 276.777 79.6863 275.685C79.6382 275.359 79.5913 275.033 79.5452 274.707ZM450.577 280.429C450.78 279.063 449.837 277.792 448.471 277.589L424.259 273.998C423.165 273.835 422.148 274.591 421.987 275.685C421.939 276.011 421.89 276.337 421.84 276.663C421.673 277.758 422.428 278.781 423.524 278.943L447.737 282.535C449.103 282.738 450.374 281.795 450.577 280.429ZM80.9392 283.084C80.7301 281.994 79.6734 281.283 78.5848 281.499L54.5846 286.273C53.2304 286.542 52.351 287.859 52.6204 289.213C52.8898 290.567 54.2059 291.446 55.5601 291.177L79.5564 286.404C80.6389 286.188 81.3424 285.137 81.1282 284.054C81.0642 283.731 81.0012 283.408 80.9392 283.084ZM448.858 290.193C449.127 288.839 448.248 287.523 446.893 287.254L422.897 282.48C421.813 282.265 420.759 282.97 420.545 284.054C420.481 284.377 420.416 284.7 420.35 285.023C420.129 286.109 420.833 287.168 421.92 287.384L445.918 292.158C447.272 292.427 448.588 291.548 448.858 290.193ZM82.7446 291.382C82.4819 290.304 81.3917 289.646 80.3153 289.915L56.5864 295.859C55.2471 296.195 54.4333 297.552 54.7688 298.892C55.1043 300.231 56.462 301.045 57.8013 300.709L81.5267 294.767C82.5976 294.498 83.2486 293.413 82.9812 292.342C82.9014 292.022 82.8225 291.702 82.7446 291.382ZM446.661 299.862C446.997 298.522 446.183 297.165 444.844 296.829L421.118 290.886C420.046 290.618 418.959 291.27 418.692 292.342C418.612 292.662 418.531 292.981 418.449 293.3C418.175 294.374 418.826 295.467 419.901 295.736L443.629 301.679C444.968 302.015 446.326 301.201 446.661 299.862ZM84.9578 299.581C84.6423 298.518 83.5214 297.914 82.4599 298.236L59.0559 305.336C57.7347 305.737 56.9885 307.133 57.3893 308.454C57.7901 309.775 59.1861 310.521 60.5073 310.12L83.9081 303.022C84.9649 302.701 85.5618 301.585 85.2417 300.528C85.1462 300.213 85.0515 299.897 84.9578 299.581ZM443.993 309.411C444.394 308.09 443.648 306.693 442.327 306.293L418.926 299.194C417.869 298.873 416.751 299.471 416.431 300.528C416.336 300.844 416.239 301.159 416.142 301.473C415.814 302.533 416.411 303.656 417.472 303.978L440.875 311.077C442.196 311.478 443.592 310.732 443.993 309.411ZM87.574 307.661C87.2064 306.615 86.0576 306.067 85.0134 306.441L61.9878 314.68C60.6879 315.145 60.0111 316.576 60.4762 317.876C60.9413 319.176 62.3723 319.853 63.6723 319.387L86.6952 311.15C87.7352 310.778 88.2766 309.633 87.9043 308.593C87.7935 308.283 87.6833 307.972 87.574 307.661ZM440.86 318.817C441.325 317.517 440.649 316.086 439.349 315.621L416.325 307.383C415.285 307.011 414.141 307.553 413.768 308.593C413.714 308.746 413.658 308.899 413.603 309.053C413.547 309.209 413.49 309.366 413.433 309.522C413.053 310.564 413.594 311.716 414.638 312.09L437.664 320.329C438.964 320.794 440.395 320.117 440.86 318.817ZM90.7217 315.932C90.2284 314.723 88.8461 314.146 87.64 314.646L65.3746 323.868C64.099 324.397 63.4932 325.859 64.0216 327.135C64.5499 328.41 66.0124 329.016 67.288 328.488L89.8805 319.13C90.9013 318.707 91.3858 317.536 90.9626 316.516C90.8818 316.321 90.8015 316.127 90.7217 315.932ZM437.269 328.059C437.797 326.783 437.191 325.321 435.916 324.792L413.566 315.535C412.411 315.056 411.088 315.604 410.609 316.758C410.549 316.904 410.488 317.049 410.427 317.194L410.329 317.428C409.898 318.45 410.382 319.628 411.407 320.052L434.002 329.412C435.278 329.94 436.74 329.334 437.269 328.059ZM93.9878 323.384C93.519 322.379 92.3226 321.948 91.3206 322.422L69.2082 332.88C67.96 333.47 67.4268 334.961 68.0171 336.209C68.6074 337.457 70.0978 337.99 71.3459 337.4L93.4564 326.943C94.4554 326.47 94.8819 325.277 94.4087 324.278C94.2676 323.981 94.1272 323.682 93.9878 323.384ZM433.229 337.113C433.819 335.865 433.286 334.374 432.038 333.784L409.927 323.327C408.929 322.854 407.737 323.28 407.264 324.278C407.123 324.576 406.981 324.873 406.838 325.17C406.358 326.17 406.783 327.371 407.786 327.845L429.9 338.304C431.148 338.894 432.638 338.361 433.229 337.113ZM97.7688 330.988C97.2511 330.008 96.0351 329.636 95.0576 330.159L73.4792 341.693C72.2615 342.344 71.802 343.858 72.4529 345.076C73.1037 346.294 74.6185 346.753 75.8361 346.102L97.4128 334.569C98.3875 334.048 98.7548 332.835 98.2329 331.861C98.0774 331.571 97.9226 331.28 97.7688 330.988ZM428.749 345.958C429.4 344.74 428.94 343.225 427.723 342.575L406.146 331.042C405.172 330.521 403.961 330.888 403.44 331.861L403.29 332.14L403.169 332.366L402.971 332.731C402.441 333.707 402.807 334.926 403.785 335.449L425.366 346.984C426.583 347.635 428.098 347.176 428.749 345.958ZM101.919 338.398C101.354 337.444 100.121 337.133 99.1706 337.702L78.1776 350.285C76.9933 350.995 76.6086 352.53 77.3185 353.715C78.0283 354.899 79.5638 355.284 80.7481 354.574L101.74 341.992C102.688 341.424 102.995 340.194 102.426 339.247C102.256 338.964 102.087 338.681 101.919 338.398ZM423.841 354.573C424.551 353.388 424.166 351.853 422.982 351.143L401.99 338.561C401.043 337.993 399.815 338.3 399.247 339.247C399.134 339.435 399.02 339.623 398.907 339.811C398.236 340.914 398.591 342.353 399.699 343.017L420.411 355.432C421.595 356.141 423.131 355.757 423.841 354.573ZM106.428 345.594C105.817 344.67 104.57 344.419 103.649 345.034L83.2918 358.637C82.1438 359.404 81.835 360.956 82.602 362.104C83.3691 363.252 84.9216 363.561 86.0697 362.794L106.425 349.193C107.344 348.579 107.591 347.336 106.976 346.417C106.793 346.143 106.61 345.869 106.428 345.594ZM418.516 362.936C419.283 361.788 418.974 360.235 417.826 359.468L397.47 345.867C396.552 345.254 395.311 345.5 394.697 346.417C394.514 346.691 394.329 346.964 394.145 347.237C393.522 348.156 393.766 349.406 394.689 350.022L415.048 363.625C416.196 364.393 417.748 364.084 418.516 362.936ZM111.285 352.561C110.629 351.667 109.371 351.478 108.481 352.138L88.8098 366.727C87.7008 367.55 87.4685 369.115 88.291 370.224C89.1135 371.333 90.6793 371.566 91.7883 370.743L111.458 356.155C112.345 355.497 112.531 354.243 111.872 353.356C111.675 353.092 111.48 352.827 111.285 352.561ZM412.787 371.028C413.609 369.919 413.377 368.353 412.268 367.53L392.598 352.942C391.711 352.285 390.459 352.47 389.801 353.356C389.605 353.621 389.407 353.885 389.209 354.148C388.543 355.035 388.725 356.295 389.617 356.956L409.289 371.546C410.398 372.369 411.964 372.137 412.787 371.028ZM116.476 359.282C115.777 358.421 114.511 358.293 113.654 358.996L94.7179 374.537C93.6506 375.413 93.4954 376.988 94.3713 378.056C95.2472 379.123 96.8225 379.278 97.8898 378.402L116.825 362.863C117.679 362.162 117.803 360.901 117.101 360.047C116.993 359.916 116.885 359.784 116.778 359.653L116.476 359.282ZM406.667 378.829C407.543 377.761 407.388 376.186 406.321 375.31L387.386 359.771C386.532 359.07 385.273 359.194 384.572 360.047C384.414 360.239 384.256 360.431 384.097 360.623C383.302 361.579 383.438 362.999 384.399 363.788L403.149 379.175C404.216 380.051 405.791 379.896 406.667 378.829ZM121.989 365.741C121.248 364.915 119.978 364.849 119.156 365.594L101.002 382.048C99.9793 382.975 99.9016 384.556 100.829 385.579C101.756 386.602 103.337 386.68 104.36 385.753L122.512 369.301C123.331 368.559 123.393 367.293 122.651 366.475C122.429 366.231 122.208 365.986 121.989 365.741ZM400.173 386.32C401.1 385.297 401.022 383.716 399.999 382.789L381.847 366.337C381.029 365.595 379.764 365.657 379.022 366.475C378.801 366.719 378.579 366.962 378.356 367.205C377.606 368.023 377.665 369.294 378.487 370.039L396.642 386.494C397.665 387.421 399.246 387.343 400.173 386.32ZM127.81 371.923C127.03 371.135 125.758 371.131 124.974 371.915L107.647 389.241C106.671 390.218 106.671 391.8 107.647 392.777C108.624 393.753 110.207 393.753 111.183 392.777L128.207 375.753C129.154 374.806 129.154 373.271 128.207 372.324L127.81 371.923ZM393.318 393.484C394.295 392.508 394.295 390.925 393.318 389.948L375.994 372.624C375.213 371.843 373.947 371.843 373.166 372.624C372.933 372.857 372.699 373.09 372.465 373.322C371.676 374.101 371.673 375.374 372.457 376.158L389.783 393.484C390.759 394.46 392.342 394.46 393.318 393.484ZM133.926 377.814C133.108 377.065 131.837 377.123 131.092 377.945L114.638 396.1C113.71 397.123 113.788 398.704 114.811 399.631C115.834 400.558 117.415 400.481 118.342 399.458L134.795 381.305C135.536 380.487 135.474 379.223 134.656 378.481C134.412 378.259 134.169 378.037 133.926 377.814ZM386.121 400.303C387.144 399.375 387.222 397.794 386.295 396.771L369.842 378.619C369.1 377.8 367.835 377.738 367.017 378.48L366.662 378.801C366.536 378.915 366.409 379.029 366.283 379.143C365.457 379.883 365.391 381.153 366.136 381.975L382.59 400.129C383.517 401.152 385.098 401.23 386.121 400.303ZM140.322 383.4C139.469 382.691 138.201 382.812 137.497 383.67L121.956 402.607C121.08 403.675 121.235 405.25 122.302 406.126C123.37 407.002 124.945 406.847 125.821 405.779L141.36 386.844C142.061 385.991 141.937 384.731 141.084 384.03C140.829 383.821 140.575 383.611 140.322 383.4ZM378.598 406.76C379.665 405.884 379.82 404.309 378.944 403.242L363.405 384.307C362.704 383.452 361.443 383.329 360.589 384.03C360.334 384.239 360.079 384.448 359.823 384.656C358.963 385.354 358.835 386.62 359.538 387.477L375.079 406.414C375.955 407.481 377.53 407.636 378.598 406.76ZM146.983 388.668C146.096 388.001 144.836 388.184 144.175 389.075L129.585 408.748C128.762 409.857 128.995 411.422 130.104 412.245C131.213 413.067 132.778 412.835 133.601 411.726L148.189 392.056C148.847 391.17 148.661 389.918 147.775 389.259C147.51 389.063 147.247 388.866 146.983 388.668ZM370.766 412.84C371.875 412.018 372.108 410.452 371.285 409.343L356.697 389.673C356.039 388.786 354.785 388.6 353.898 389.259C353.634 389.456 353.368 389.651 353.103 389.847C352.209 390.502 352.02 391.76 352.68 392.65L367.269 412.322C368.092 413.431 369.657 413.663 370.766 412.84ZM153.894 393.603C152.976 392.98 151.726 393.225 151.109 394.147L137.506 414.506C136.739 415.654 137.048 417.207 138.195 417.974C139.344 418.741 140.896 418.432 141.663 417.284L155.264 396.928C155.878 396.011 155.631 394.769 154.714 394.155C154.44 393.972 154.167 393.788 153.894 393.603ZM362.646 418.529C363.794 417.762 364.103 416.21 363.336 415.062L349.734 394.706C349.12 393.787 347.877 393.54 346.959 394.155C346.685 394.338 346.411 394.521 346.136 394.703C345.211 395.314 344.96 396.561 345.576 397.482L359.179 417.84C359.946 418.988 361.498 419.296 362.646 418.529ZM161.039 398.194C160.091 397.617 158.854 397.923 158.284 398.874L145.7 419.869C144.99 421.054 145.375 422.589 146.559 423.299C147.743 424.009 149.279 423.624 149.988 422.44L162.57 401.448C163.138 400.501 162.831 399.274 161.885 398.706L161.533 398.494C161.368 398.394 161.203 398.294 161.039 398.194ZM354.257 423.813C355.441 423.103 355.825 421.568 355.116 420.383L342.534 399.392C341.965 398.444 340.736 398.136 339.788 398.705C339.506 398.875 339.223 399.044 338.939 399.212C337.986 399.777 337.674 401.01 338.244 401.96L350.827 422.954C351.537 424.138 353.072 424.523 354.257 423.813ZM168.619 402.548C167.523 401.953 166.152 402.364 165.564 403.464L154.147 424.824C153.496 426.042 153.956 427.556 155.173 428.207C156.391 428.858 157.906 428.399 158.557 427.181L170.09 405.604C170.61 404.631 170.243 403.419 169.27 402.898L168.887 402.692L168.619 402.548ZM345.618 428.679C346.835 428.028 347.295 426.513 346.644 425.295L335.239 403.958C334.647 402.851 333.27 402.434 332.163 403.026C331.953 403.139 331.741 403.251 331.53 403.363C330.55 403.88 330.178 405.096 330.7 406.074L342.234 427.652C342.885 428.87 344.4 429.329 345.618 428.679ZM175.961 406.297C174.961 405.816 173.761 406.241 173.286 407.244L162.827 429.358C162.237 430.606 162.77 432.097 164.018 432.687C165.267 433.277 166.757 432.744 167.347 431.496L177.805 409.385C178.277 408.387 177.851 407.195 176.853 406.723C176.555 406.582 176.258 406.44 175.961 406.297ZM336.751 433.114C337.999 432.524 338.532 431.034 337.942 429.785L327.484 407.675C327.012 406.676 325.819 406.249 324.82 406.723C324.522 406.864 324.224 407.004 323.926 407.143C322.921 407.612 322.49 408.809 322.963 409.811L333.422 431.923C334.012 433.171 335.503 433.705 336.751 433.114ZM184.005 409.914C182.816 409.413 181.447 409.976 180.954 411.167L171.72 433.461C171.191 434.736 171.797 436.199 173.073 436.727C174.348 437.255 175.811 436.65 176.339 435.374L185.697 412.781C186.12 411.761 185.635 410.592 184.615 410.169C184.412 410.084 184.208 409.999 184.005 409.914ZM327.677 437.11C328.952 436.581 329.558 435.119 329.03 433.843L319.671 411.251C319.249 410.23 318.078 409.745 317.058 410.169C316.753 410.295 316.449 410.42 316.143 410.545C315.117 410.963 314.627 412.137 315.051 413.162L324.41 435.757C324.939 437.032 326.401 437.638 327.677 437.11ZM191.609 412.891C190.567 412.512 189.415 413.052 189.041 414.096L180.802 437.122C180.337 438.422 181.014 439.853 182.314 440.318C183.614 440.783 185.045 440.107 185.51 438.807L193.748 415.784C194.12 414.744 193.579 413.599 192.539 413.227C192.229 413.116 191.918 413.004 191.609 412.891ZM318.418 440.655C319.718 440.19 320.394 438.759 319.929 437.459L311.691 414.436C311.319 413.396 310.174 412.855 309.135 413.227C308.824 413.338 308.514 413.448 308.203 413.557C307.157 413.925 306.609 415.074 306.983 416.118L315.221 439.144C315.687 440.444 317.118 441.12 318.418 440.655ZM199.658 415.6C198.599 415.273 197.475 415.869 197.153 416.931L190.054 440.333C189.653 441.655 190.399 443.051 191.721 443.452C193.042 443.852 194.438 443.106 194.839 441.785L201.937 418.384C202.258 417.327 201.661 416.21 200.603 415.89C200.43 415.837 200.258 415.785 200.086 415.732L199.658 415.6ZM308.996 443.742C310.317 443.341 311.063 441.945 310.662 440.624L303.564 417.223C303.243 416.166 302.127 415.569 301.07 415.889C300.755 415.985 300.439 416.08 300.123 416.173C299.059 416.489 298.456 417.61 298.778 418.671L305.878 442.075C306.278 443.397 307.674 444.143 308.996 443.742ZM207.831 417.908C206.757 417.633 205.665 418.284 205.395 419.36L199.452 443.087C199.116 444.426 199.93 445.784 201.27 446.12C202.609 446.455 203.967 445.641 204.302 444.302L210.245 420.576C210.514 419.504 209.862 418.418 208.79 418.15C208.47 418.07 208.15 417.989 207.831 417.908ZM299.434 446.363C300.773 446.027 301.587 444.669 301.251 443.33L295.308 419.604C295.04 418.534 293.955 417.883 292.884 418.15C292.564 418.23 292.244 418.309 291.924 418.387C290.846 418.649 290.188 419.739 290.457 420.816L296.401 444.545C296.737 445.884 298.094 446.698 299.434 446.363ZM216.108 419.809C215.022 419.587 213.964 420.291 213.747 421.378L208.974 445.376C208.704 446.73 209.584 448.046 210.938 448.316C212.292 448.585 213.608 447.706 213.878 446.352L218.651 422.355C218.867 421.271 218.162 420.217 217.077 420.003C216.754 419.939 216.431 419.874 216.108 419.809ZM289.754 448.511C291.109 448.242 291.988 446.926 291.719 445.571L286.945 421.575C286.73 420.492 285.679 419.789 284.596 420.003C284.273 420.067 283.949 420.13 283.625 420.192C282.535 420.401 281.824 421.458 282.041 422.546L286.815 446.547C287.084 447.901 288.4 448.78 289.754 448.511ZM224.649 421.326C223.454 421.143 222.339 421.967 222.161 423.162L218.597 447.195C218.394 448.561 219.337 449.832 220.703 450.035C222.068 450.238 223.34 449.295 223.542 447.929L227.079 424.09C227.271 422.791 226.373 421.581 225.073 421.39L224.649 421.326ZM279.982 450.182C281.347 449.979 282.29 448.708 282.088 447.342L278.496 423.13C278.334 422.039 277.319 421.285 276.227 421.445C275.901 421.493 275.575 421.54 275.248 421.586C274.149 421.741 273.387 422.762 273.55 423.86L277.142 448.076C277.344 449.442 278.616 450.384 279.982 450.182ZM232.892 422.376C231.79 422.262 230.805 423.066 230.697 424.169L228.297 448.54C228.161 449.914 229.165 451.138 230.54 451.273C231.914 451.408 233.137 450.404 233.273 449.03L235.673 424.661C235.781 423.56 234.976 422.581 233.876 422.474C233.548 422.442 233.22 422.409 232.892 422.376ZM270.138 451.371C271.512 451.236 272.517 450.012 272.381 448.638L269.981 424.269C269.873 423.17 268.895 422.367 267.797 422.474C267.469 422.506 267.141 422.537 266.813 422.567C265.707 422.668 264.896 423.65 265.005 424.755L267.405 449.128C267.541 450.502 268.764 451.506 270.138 451.371ZM241.359 423.04C240.252 422.98 239.308 423.832 239.253 424.938L238.051 449.407C237.984 450.786 239.047 451.959 240.426 452.027C241.805 452.095 242.978 451.032 243.045 449.653L244.247 425.186C244.301 424.082 243.45 423.143 242.346 423.09C242.147 423.081 241.948 423.071 241.75 423.06L241.359 423.04ZM260.249 452.076C261.628 452.008 262.691 450.835 262.623 449.456L261.421 424.99C261.367 423.887 260.43 423.037 259.327 423.09C258.998 423.106 258.669 423.121 258.339 423.135C257.231 423.182 256.372 424.123 256.427 425.232L257.629 449.702C257.697 451.081 258.87 452.144 260.249 452.076ZM249.848 423.292C248.739 423.286 247.836 424.183 247.836 425.292V449.795C247.836 451.175 248.956 452.295 250.336 452.295C251.717 452.295 252.836 451.175 252.836 449.795V425.295C252.836 424.19 251.941 423.295 250.836 423.295C250.507 423.295 250.177 423.294 249.848 423.292Z" fill="#2F2E2E"/>
</g>
<defs>
<linearGradient id="paint0_linear" x1="5.83643" y1="250.295" x2="495.836" y2="250.295" gradientUnits="userSpaceOnUse">
<stop stop-color="#ED6CCD"/>
<stop offset="1" stop-color="#005184"/>
</linearGradient>
</defs>
</svg>
