<svg width="76" height="115" viewBox="0 0 76 115" fill="none"
     xmlns="http://www.w3.org/2000/svg">
    <g id="Frame 2">

        <g id="sunCloudRain">
            <g id="sun">
                <path id="Vector"
                      d="M41.1638 21.3653C41.1638 23.98 40.3884 26.5359 38.9358 28.71C37.4832 30.884 35.4185 32.5784 33.0028 33.579C30.5872 34.5796 27.9291 34.8414 25.3647 34.3313C22.8002 33.8212 20.4447 32.5621 18.5958 30.7133C16.747 28.8644 15.4879 26.5089 14.9778 23.9444C14.4677 21.38 14.7295 18.7219 15.7301 16.3063C16.7307 13.8906 18.4251 11.8259 20.5991 10.3733C22.7731 8.92067 25.3291 8.14533 27.9438 8.14533C29.6802 8.14401 31.3999 8.48506 33.0044 9.14896C34.6089 9.81286 36.0668 10.7866 37.2946 12.0144C38.5225 13.2423 39.4962 14.7002 40.1601 16.3047C40.824 17.9092 41.1651 19.6289 41.1638 21.3653V21.3653Z"
                      fill="#FFC800"/>
                <path id="Vector_2"
                      d="M41.1638 21.3653C41.1638 23.1009 40.8218 24.8195 40.1573 26.4229C39.4928 28.0262 38.5189 29.4829 37.2911 30.7097C36.0634 31.9365 34.606 32.9094 33.0021 33.5726C31.3982 34.2359 29.6794 34.5766 27.9438 34.5753V34.5753C24.5019 34.4806 21.2327 33.0468 18.8317 30.5788C16.4307 28.1109 15.0873 24.8035 15.0873 21.3603C15.0873 17.9171 16.4307 14.6098 18.8317 12.1418C21.2327 9.67384 24.5019 8.24002 27.9438 8.14532V8.14532C31.4499 8.14532 34.8125 9.53814 37.2917 12.0174C39.771 14.4966 41.1638 17.8592 41.1638 21.3653V21.3653Z"
                      fill="#FFC800"/>
                <path id="Vector_3"
                      d="M27.9438 34.5753V8.14532C29.7098 8.09674 31.4676 8.40261 33.1134 9.04488C34.7592 9.68715 36.2596 10.6528 37.5259 11.8847C38.7922 13.1166 39.7987 14.5899 40.486 16.2174C41.1732 17.8449 41.5273 19.5936 41.5273 21.3603C41.5273 23.127 41.1732 24.8757 40.486 26.5033C39.7987 28.1308 38.7922 29.604 37.5259 30.8359C36.2596 32.0679 34.7592 33.0335 33.1134 33.6758C31.4676 34.318 29.7098 34.6239 27.9438 34.5753V34.5753Z"
                      fill="#FFDC00"/>
                <g id="sunRays">
                    <g id="Group">
                        <path id="Vector_4"
                              d="M39.314 30.7197C40.4034 29.4164 41.2594 27.9346 41.844 26.3397C43.4914 27.8853 44.8851 29.6806 45.974 31.6597C43.7186 31.6956 41.4714 31.3784 39.314 30.7197V30.7197Z"
                              fill="#FFC800"/>
                        <path id="Vector_5"
                              d="M33.114 35.0497C33.9188 34.7657 34.6954 34.4075 35.434 33.9797C36.1719 33.5551 36.8713 33.0665 37.524 32.5197C38.165 34.6874 38.4752 36.9394 38.444 39.1997C36.4649 38.098 34.6672 36.6982 33.114 35.0497V35.0497Z"
                              fill="#FFC800"/>
                        <path id="Vector_6"
                              d="M25.5568 35.7338C26.9737 35.9792 28.4185 36.0197 29.8468 35.8538C30.3168 35.7938 30.6268 35.7238 30.6268 35.7238C30.1091 37.9167 29.2521 40.0154 28.0868 41.9438C26.9311 40.0153 26.0779 37.9209 25.5568 35.7338Z"
                              fill="#FFC800"/>
                        <path id="Vector_7"
                              d="M18.7168 32.5237C20.0169 33.6202 21.4994 34.4799 23.0968 35.0637C21.5559 36.712 19.7637 38.1059 17.7868 39.1937C17.7435 36.9353 18.0574 34.6842 18.7168 32.5237V32.5237Z"
                              fill="#FFC800"/>
                        <path id="Vector_8"
                              d="M14.4069 26.3237C14.692 27.1249 15.0502 27.8982 15.4769 28.6337C15.9016 29.3717 16.3901 30.0711 16.9369 30.7237C14.7692 31.3648 12.5172 31.675 10.2569 31.6437C11.3623 29.6701 12.7616 27.8762 14.4069 26.3237Z"
                              fill="#FFC800"/>
                        <path id="Vector_9"
                              d="M13.7269 18.8038C13.575 19.6417 13.5047 20.4923 13.5169 21.3438C13.5177 21.9249 13.5477 22.5056 13.6069 23.0838C13.6669 23.5638 13.7369 23.8738 13.7369 23.8738C11.5366 23.3545 9.43114 22.4941 7.49689 21.3238C9.43182 20.1688 11.5331 19.3189 13.7269 18.8038V18.8038Z"
                              fill="#FFC800"/>
                        <path id="Vector_10"
                              d="M16.9368 11.9437C16.7523 12.1327 16.588 12.3405 16.4468 12.5637C15.5893 13.7059 14.9146 14.9743 14.4468 16.3237C12.7924 14.7821 11.3948 12.9862 10.3068 11.0037C12.5523 10.9694 14.7894 11.2865 16.9368 11.9437Z"
                              fill="#FFC800"/>
                        <path id="Vector_11"
                              d="M23.1369 7.6337C21.5354 8.21268 20.0466 9.06535 18.7369 10.1537C18.096 7.98939 17.7859 5.74068 17.8169 3.4837C19.7897 4.59036 21.5833 5.98958 23.1369 7.6337V7.6337Z"
                              fill="#FFC800"/>
                        <path id="Vector_12"
                              d="M30.6669 6.94376C29.2578 6.71895 27.8249 6.68532 26.4069 6.84376C25.9369 6.91376 25.6269 6.98376 25.6269 6.98376C26.1375 4.77914 26.9948 2.66955 28.1669 0.733765C29.307 2.66665 30.1498 4.76009 30.6669 6.94376V6.94376Z"
                              fill="#FFC800"/>
                        <path id="Vector_13"
                              d="M37.524 10.1597C36.2259 9.06034 34.7429 8.20031 33.144 7.61975C34.6805 5.9749 36.4655 4.58129 38.434 3.48975C38.4841 5.74715 38.177 7.99827 37.524 10.1597V10.1597Z"
                              fill="#FFC800"/>
                        <path id="Vector_14"
                              d="M41.864 16.3597C41.5774 15.556 41.2193 14.7795 40.7941 14.0397C40.3634 13.2961 39.8752 12.5873 39.334 11.9197C41.4994 11.2849 43.7478 10.9782 46.0041 11.0097C44.9029 12.9923 43.5069 14.7962 41.864 16.3597Z"
                              fill="#FFC800"/>
                        <path id="Vector_15"
                              d="M42.524 23.9197C42.6711 23.0812 42.7414 22.231 42.734 21.3797C42.734 20.7397 42.654 20.1097 42.644 19.6297C42.634 19.1497 42.514 18.8497 42.514 18.8497C44.7127 19.369 46.8177 20.2258 48.754 21.3897C46.8208 22.5505 44.7191 23.404 42.524 23.9197V23.9197Z"
                              fill="#FFC800"/>
                    </g>
                    <g id="Group_2">
                        <path id="Vector_16"
                              d="M45.9468 31.6737C43.6916 31.7176 41.4437 31.4037 39.2868 30.7437C40.3797 29.4429 41.236 27.9604 41.8168 26.3637C43.4642 27.9055 44.858 29.6975 45.9468 31.6737V31.6737Z"
                              fill="#FFC800"/>
                        <path id="Vector_17"
                              d="M38.4069 39.2238C36.4314 38.1211 34.6371 36.7215 33.0869 35.0738C33.8908 34.7918 34.6674 34.437 35.4069 34.0138C36.142 33.5809 36.8409 33.0893 37.4969 32.5438C38.1287 34.7132 38.4353 36.9644 38.4069 39.2238Z"
                              fill="#FFC800"/>
                        <path id="Vector_18"
                              d="M30.643 35.7668C30.1345 37.9626 29.2769 40.0626 28.103 41.9868C28.103 41.9868 28.103 41.9868 28.103 41.9868C26.948 40.0518 26.0981 37.9505 25.583 35.7568C26.4222 35.8704 27.2666 35.9405 28.113 35.9668C29.023 35.9668 29.303 35.8868 29.873 35.8868C30.443 35.8868 30.643 35.7668 30.643 35.7668Z"
                              fill="#FFC800"/>
                        <path id="Vector_19"
                              d="M18.733 32.5668C20.0331 33.6633 21.5156 34.523 23.113 35.1068C21.572 36.7551 19.7799 38.149 17.803 39.2368C17.7597 36.9784 18.0736 34.7273 18.733 32.5668V32.5668Z"
                              fill="#FFC800"/>
                        <path id="Vector_20"
                              d="M14.423 26.3668C14.7081 27.168 15.0663 27.9412 15.493 28.6768C15.9177 29.4148 16.4062 30.1142 16.953 30.7668C14.7853 31.4079 12.5333 31.7181 10.273 31.6868C11.3784 29.7132 12.7777 27.9193 14.423 26.3668Z"
                              fill="#FFC800"/>
                        <path id="Vector_21"
                              d="M13.743 18.8469C13.5911 19.6848 13.5208 20.5354 13.533 21.3869C13.5338 21.968 13.5638 22.5487 13.623 23.1269C13.683 23.6069 13.753 23.9169 13.753 23.9169C11.5527 23.3976 9.44725 22.5372 7.513 21.3669C9.44793 20.2119 11.5493 19.3619 13.743 18.8469V18.8469Z"
                              fill="#FFC800"/>
                        <path id="Vector_22"
                              d="M16.953 11.9868C16.7685 12.1758 16.6042 12.3836 16.463 12.6068C15.6055 13.749 14.9308 15.0174 14.463 16.3668C12.8086 14.8252 11.411 13.0292 10.323 11.0468C12.5685 11.0125 14.8056 11.3296 16.953 11.9868Z"
                              fill="#FFC800"/>
                        <path id="Vector_23"
                              d="M23.153 7.67686C21.5515 8.25584 20.0627 9.1085 18.753 10.1969C18.1122 8.03254 17.802 5.78383 17.833 3.52686C19.8058 4.63352 21.5995 6.03273 23.153 7.67686V7.67686Z"
                              fill="#FFC800"/>
                        <path id="Vector_24"
                              d="M30.683 6.98677C29.8271 6.8734 28.966 6.80331 28.103 6.77678C27.223 6.77678 26.943 6.86677 26.393 6.87677C25.843 6.88677 25.603 7.00677 25.603 7.00677C26.1151 4.83098 26.9583 2.7467 28.103 0.826775V0.756775C29.2728 2.69115 30.1427 4.79168 30.683 6.98677V6.98677Z"
                              fill="#FFC800"/>
                        <path id="Vector_25"
                              d="M37.4969 10.1837C36.1988 9.08427 34.7158 8.22423 33.1169 7.64367C34.6555 6.00113 36.4401 4.60782 38.4069 3.51367C38.4619 5.77135 38.1547 8.02325 37.4969 10.1837Z"
                              fill="#FFC800"/>
                        <path id="Vector_26"
                              d="M45.9868 11.0637C44.8734 13.032 43.4749 14.8247 41.8368 16.3837C41.5502 15.58 41.1921 14.8035 40.7668 14.0637C40.3374 13.3193 39.8492 12.6104 39.3068 11.9437C41.4759 11.3131 43.7284 11.0164 45.9868 11.0637V11.0637Z"
                              fill="#FFC800"/>
                        <path id="Vector_27"
                              d="M42.7069 21.3637C42.7069 20.7237 42.6269 20.1037 42.6169 19.6137C42.6069 19.1237 42.4869 18.8337 42.4869 18.8337C44.683 19.3512 46.785 20.2081 48.7169 21.3737C46.7906 22.5501 44.6917 23.4173 42.4969 23.9437C42.6464 23.092 42.7167 22.2283 42.7069 21.3637V21.3637Z"
                              fill="#FFC800"/>
                    </g>
                    <path id="Vector_28"
                          d="M30.6831 6.98685C29.8272 6.87348 28.9661 6.80339 28.1031 6.77686V0.846855V0.776855C29.2711 2.70503 30.1409 4.79868 30.6831 6.98685Z"
                          fill="#FFDC00"/>
                    <path id="Vector_29"
                          d="M29.8631 35.9068C30.3331 35.8368 30.6431 35.7668 30.6431 35.7668C30.1346 37.9627 29.277 40.0627 28.1031 41.9868V35.9868C29.0131 35.9868 29.2931 35.9068 29.8631 35.9068Z"
                          fill="#FFDC00"/>
                    <path id="Vector_30"
                          d="M37.5031 32.5869C38.1383 34.7558 38.4483 37.007 38.4231 39.2669C36.4476 38.1642 34.6533 36.7646 33.1031 35.1169C33.9071 34.8349 34.6836 34.48 35.4231 34.0569C36.1548 33.6235 36.8504 33.1319 37.5031 32.5869V32.5869Z"
                          fill="#FFDC00"/>
                    <path id="Vector_31"
                          d="M37.5131 10.2268C36.2151 9.12742 34.732 8.26739 33.1331 7.68682C34.6717 6.04428 36.4564 4.65097 38.4231 3.55682C38.4782 5.8145 38.1709 8.06641 37.5131 10.2268Z"
                          fill="#FFDC00"/>
                    <path id="Vector_32"
                          d="M45.963 31.7169C43.7078 31.7608 41.4599 31.4469 39.303 30.7869C40.396 29.486 41.2523 28.0036 41.833 26.4069C43.4804 27.9486 44.8742 29.7407 45.963 31.7169V31.7169Z"
                          fill="#FFDC00"/>
                    <path id="Vector_33"
                          d="M40.7831 14.1068C40.3536 13.3624 39.8654 12.6535 39.3231 11.9868C41.4906 11.3461 43.7431 11.0392 46.0031 11.0768C44.8896 13.0451 43.4912 14.8378 41.8531 16.3968C41.5648 15.6033 41.2067 14.837 40.7831 14.1068V14.1068Z"
                          fill="#FFDC00"/>
                    <path id="Vector_34"
                          d="M42.723 21.4068C42.723 20.7668 42.643 20.1468 42.633 19.6568C42.623 19.1668 42.503 18.8768 42.503 18.8768C44.6991 19.3943 46.8011 20.2513 48.733 21.4168C46.8067 22.5932 44.7079 23.4604 42.513 23.9868C42.6625 23.1352 42.7328 22.2715 42.723 21.4068V21.4068Z"
                          fill="#FFDC00"/>
                </g>
                <path id="Vector_35"
                      d="M39.7038 21.3653H38.2438C38.2425 20.0145 37.975 18.6772 37.4565 17.4298C36.938 16.1824 36.1788 15.0495 35.2222 14.0957C34.2657 13.1419 33.1305 12.386 31.8816 11.8712C30.6327 11.3563 29.2946 11.0927 27.9438 11.0953V9.59534C31.0637 9.59799 34.0548 10.8392 36.26 13.0462C38.4651 15.2532 39.7038 18.2455 39.7038 21.3653V21.3653Z"
                      fill="white"/>
            </g>
            <path id="Vector_36"
                  d="M75.2953 39.1005C75.2847 42.1524 74.0656 45.0759 71.9048 47.2312C69.7439 49.3864 66.8173 50.5979 63.7653 50.6005H15.5453C14.0212 50.593 12.519 50.2373 11.1534 49.5605C9.78788 48.8837 8.5951 47.9036 7.66621 46.6953C6.73732 45.487 6.0969 44.0823 5.79391 42.5887C5.49091 41.095 5.53334 39.5518 5.91796 38.077C6.30258 36.6023 7.01921 35.2349 8.0131 34.0795C9.00699 32.924 10.2518 32.011 11.6525 31.4103C13.0532 30.8095 14.5727 30.5369 16.0949 30.6132C17.6171 30.6895 19.1017 31.1127 20.4353 31.8505C20.1903 31.1806 20.0618 30.4738 20.0553 29.7605C20.0379 28.4646 20.4336 27.1968 21.1852 26.141C21.9367 25.0851 23.005 24.2961 24.2352 23.8882C25.4654 23.4804 26.7935 23.475 28.027 23.8728C29.2604 24.2705 30.3352 25.0508 31.0953 26.1005C31.3498 22.4024 32.9339 18.9213 35.555 16.3002C38.1761 13.6791 41.6572 12.095 45.3553 11.8405C45.7053 11.8405 46.0453 11.8405 46.3553 11.8405C50.4317 11.8405 54.3411 13.4598 57.2235 16.3423C60.106 19.2247 61.7253 23.1341 61.7253 27.2105C61.7253 27.4005 61.7253 27.5905 61.7253 27.7805C62.4084 27.6565 63.1011 27.5929 63.7953 27.5905C66.8454 27.5958 69.7689 28.8105 71.9247 30.9682C74.0805 33.1258 75.2927 36.0504 75.2953 39.1005V39.1005Z"
                  fill="#00AAC8"/>
            <path id="Vector_37"
                  d="M75.2953 39.1005C75.2847 42.1525 74.0656 45.0759 71.9047 47.2312C69.7439 49.3864 66.8172 50.5979 63.7653 50.6005H45.3053V11.8505C45.6553 11.8505 45.9953 11.8505 46.3053 11.8505C50.3817 11.8505 54.2911 13.4699 57.1735 16.3523C60.056 19.2347 61.6753 23.1441 61.6753 27.2205C61.6753 27.4105 61.6753 27.6005 61.6753 27.7905C62.3584 27.6665 63.051 27.6029 63.7453 27.6005C65.259 27.5966 66.7586 27.891 68.1584 28.4669C69.5582 29.0428 70.8308 29.889 71.9035 30.957C72.9761 32.025 73.8278 33.2939 74.4098 34.6912C74.9918 36.0885 75.2927 37.5869 75.2953 39.1005V39.1005Z"
                  fill="#00B4D2"/>
            <path id="Vector_38"
                  d="M57.9953 27.2205H56.4953C56.4953 24.5206 55.4228 21.9313 53.5136 20.0222C51.6045 18.1131 49.0152 17.0405 46.3153 17.0405C45.9953 17.0405 45.6853 17.0405 45.3753 17.0405L45.2353 15.5505C45.5941 15.5139 45.9546 15.4972 46.3153 15.5005C47.8521 15.5018 49.3736 15.8062 50.7927 16.3961C52.2118 16.9861 53.5007 17.85 54.5855 18.9386C55.6704 20.0272 56.5299 21.3189 57.115 22.7401C57.7001 24.1612 57.9992 25.6837 57.9953 27.2205V27.2205Z"
                  fill="white"/>
            <g id="bigRainDrops">
                <g id="bigRainDrop">
                    <path id="Vector_39"
                          d="M59.8053 58.0106C59.8053 59.9334 59.0414 61.7774 57.6818 63.1371C56.3222 64.4967 54.4781 65.2606 52.5553 65.2606C50.6325 65.2606 48.7884 64.4967 47.4288 63.1371C46.0691 61.7774 45.3053 59.9334 45.3053 58.0106C45.3053 54.0106 52.5553 43.7606 52.5553 43.7606C52.5553 43.7606 59.8053 54.0106 59.8053 58.0106Z"
                          fill="#96DCF0"/>
                    <path id="Vector_40"
                          d="M59.8053 58.0106C59.8027 59.9326 59.038 61.7751 57.6789 63.1342C56.3198 64.4932 54.4773 65.2579 52.5553 65.2606V43.7606C52.5553 43.7606 59.8053 54.0106 59.8053 58.0106Z"
                          fill="#A0E6FA"/>
                    <path id="Vector_41"
                          d="M52.5553 63.2606V62.2606C53.6817 62.2579 54.7611 61.8093 55.5576 61.0128C56.354 60.2164 56.8027 59.1369 56.8053 58.0106H57.8053C57.8027 59.4021 57.2487 60.736 56.2647 61.7199C55.2807 62.7039 53.9469 63.2579 52.5553 63.2606V63.2606Z"
                          fill="white"/>
                </g>
                <g id="bigRainDrop_2">
                    <path id="Vector_42"
                          d="M25.1036 48.5748C25.1036 50.4976 24.3398 52.3416 22.9801 53.7013C21.6205 55.0609 19.7765 55.8248 17.8536 55.8248C15.9308 55.8248 14.0868 55.0609 12.7271 53.7013C11.3675 52.3416 10.6036 50.4976 10.6036 48.5748C10.6036 44.5748 17.8536 34.3248 17.8536 34.3248C17.8536 34.3248 25.1036 44.5748 25.1036 48.5748Z"
                          fill="#96DCF0"/>
                    <path id="Vector_43"
                          d="M25.1036 48.5748C25.101 50.4968 24.3363 52.3393 22.9772 53.6984C21.6182 55.0574 19.7756 55.8221 17.8536 55.8248V34.3248C17.8536 34.3248 25.1036 44.5748 25.1036 48.5748Z"
                          fill="#A0E6FA"/>
                    <path id="Vector_44"
                          d="M17.8536 53.8248V52.8248C18.98 52.8221 20.0595 52.3735 20.8559 51.577C21.6524 50.7806 22.101 49.7011 22.1036 48.5748H23.1036C23.101 49.9663 22.547 51.3002 21.563 52.2842C20.579 53.2682 19.2452 53.8221 17.8536 53.8248V53.8248Z"
                          fill="white"/>
                </g>
                <g id="bigRainDrop_3">
                    <path id="Vector_45"
                          d="M35.4646 70.3292C35.4646 72.252 34.7007 74.0961 33.3411 75.4557C31.9815 76.8154 30.1374 77.5792 28.2146 77.5792C26.2918 77.5792 24.4477 76.8154 23.0881 75.4557C21.7284 74.0961 20.9646 72.252 20.9646 70.3292C20.9646 66.3292 28.2146 56.0792 28.2146 56.0792C28.2146 56.0792 35.4646 66.3292 35.4646 70.3292Z"
                          fill="#96DCF0"/>
                    <path id="Vector_46"
                          d="M35.4646 70.3292C35.462 72.2512 34.6973 74.0938 33.3382 75.4528C31.9791 76.8119 30.1366 77.5766 28.2146 77.5792V56.0792C28.2146 56.0792 35.4646 66.3292 35.4646 70.3292Z"
                          fill="#A0E6FA"/>
                    <path id="Vector_47"
                          d="M28.2146 75.5792V74.5792C29.341 74.5766 30.4204 74.128 31.2169 73.3315C32.0133 72.535 32.462 71.4556 32.4646 70.3292H33.4646C33.462 71.7208 32.908 73.0546 31.924 74.0386C30.94 75.0226 29.6062 75.5766 28.2146 75.5792V75.5792Z"
                          fill="white"/>
                </g>
                <g id="bigRainDrop_4">
                    <path id="Vector_48"
                          d="M72.546 82.0306C72.546 83.9535 71.7821 85.7975 70.4225 87.1572C69.0628 88.5168 67.2188 89.2806 65.296 89.2806C63.3731 89.2806 61.5291 88.5168 60.1694 87.1572C58.8098 85.7975 58.046 83.9535 58.046 82.0306C58.046 78.0306 65.296 67.7806 65.296 67.7806C65.296 67.7806 72.546 78.0306 72.546 82.0306Z"
                          fill="#96DCF0"/>
                    <path id="Vector_49"
                          d="M72.546 82.0306C72.5433 83.9526 71.7786 85.7952 70.4196 87.1542C69.0605 88.5133 67.218 89.278 65.296 89.2806V67.7806C65.296 67.7806 72.546 78.0306 72.546 82.0306Z"
                          fill="#A0E6FA"/>
                    <path id="Vector_50"
                          d="M65.296 87.2806V86.2806C66.4223 86.278 67.5018 85.8294 68.2982 85.0329C69.0947 84.2365 69.5433 83.157 69.546 82.0306H70.546C70.5433 83.4222 69.9893 84.756 69.0053 85.74C68.0213 86.724 66.6875 87.278 65.296 87.2806V87.2806Z"
                          fill="white"/>
                </g>
                <g id="bigRainDrop_5">
                    <path id="Vector_51"
                          d="M21.5498 93.1235C21.5498 95.0463 20.786 96.8904 19.4263 98.25C18.0667 99.6096 16.2226 100.373 14.2998 100.373C12.377 100.373 10.5329 99.6096 9.17328 98.25C7.81364 96.8904 7.0498 95.0463 7.0498 93.1235C7.0498 89.1235 14.2998 78.8735 14.2998 78.8735C14.2998 78.8735 21.5498 89.1235 21.5498 93.1235Z"
                          fill="#96DCF0"/>
                    <path id="Vector_52"
                          d="M21.5498 93.1235C21.5472 95.0455 20.7825 96.888 19.4234 98.2471C18.0643 99.6061 16.2218 100.371 14.2998 100.373V78.8735C14.2998 78.8735 21.5498 89.1235 21.5498 93.1235Z"
                          fill="#A0E6FA"/>
                    <path id="Vector_53"
                          d="M14.2998 98.3735V97.3735C15.4262 97.3708 16.5056 96.9222 17.3021 96.1258C18.0985 95.3293 18.5472 94.2498 18.5498 93.1235H19.5498C19.5472 94.515 18.9932 95.8489 18.0092 96.8329C17.0252 97.8169 15.6914 98.3708 14.2998 98.3735V98.3735Z"
                          fill="white"/>
                </g>
            </g>
            <g id="smallRainDrops">
                <g id="smallRainDrop">
                    <path id="Vector_54"
                          d="M40.8753 50.8306C40.8268 51.7486 40.428 52.6131 39.761 53.2458C39.094 53.8785 38.2097 54.2312 37.2903 54.2312C36.371 54.2312 35.4867 53.8785 34.8197 53.2458C34.1527 52.6131 33.7538 51.7486 33.7053 50.8306C33.7053 48.8306 37.2953 43.8306 37.2953 43.8306C37.2953 43.8306 40.8753 48.8506 40.8753 50.8306Z"
                          fill="#96DCF0"/>
                    <path id="Vector_55"
                          d="M40.8753 50.8305C40.8753 51.78 40.4981 52.6906 39.8267 53.362C39.1554 54.0333 38.2448 54.4105 37.2953 54.4105V43.7805C37.2953 43.7805 40.8753 48.8505 40.8753 50.8305Z"
                          fill="#A0E6FA"/>
                </g>
                <g id="smallRainDrop_2">
                    <path id="Vector_56"
                          d="M7.4969 72.4518C7.4484 73.3698 7.04954 74.2343 6.38254 74.867C5.71554 75.4997 4.83125 75.8524 3.91191 75.8524C2.99257 75.8524 2.10827 75.4997 1.44127 74.867C0.774271 74.2343 0.375408 73.3698 0.326904 72.4518C0.326904 70.4518 3.9169 65.4518 3.9169 65.4518C3.9169 65.4518 7.4969 70.4718 7.4969 72.4518Z"
                          fill="#96DCF0"/>
                    <path id="Vector_57"
                          d="M7.49687 72.4517C7.49687 73.4012 7.1197 74.3118 6.44832 74.9832C5.77694 75.6546 4.86635 76.0317 3.91687 76.0317V65.4017C3.91687 65.4017 7.49687 70.4717 7.49687 72.4517Z"
                          fill="#A0E6FA"/>
                </g>
                <g id="smallRainDrop_3">
                    <path id="Vector_58"
                          d="M36.3605 110.753C36.312 111.671 35.9132 112.535 35.2462 113.168C34.5792 113.801 33.6949 114.153 32.7756 114.153C31.8562 114.153 30.9719 113.801 30.3049 113.168C29.6379 112.535 29.2391 111.671 29.1906 110.753C29.1906 108.753 32.7805 103.753 32.7805 103.753C32.7805 103.753 36.3605 108.773 36.3605 110.753Z"
                          fill="#96DCF0"/>
                    <path id="Vector_59"
                          d="M36.3605 110.753C36.3605 111.702 35.9833 112.613 35.312 113.284C34.6406 113.955 33.73 114.333 32.7805 114.333V103.703C32.7805 103.703 36.3605 108.773 36.3605 110.753Z"
                          fill="#A0E6FA"/>
                </g>
                <g id="smallRainDrop_4">
                    <path id="Vector_60"
                          d="M72.9236 61.5494C72.8751 62.4674 72.4762 63.3319 71.8092 63.9646C71.1422 64.5973 70.2579 64.95 69.3386 64.95C68.4193 64.95 67.535 64.5973 66.868 63.9646C66.201 63.3319 65.8021 62.4674 65.7536 61.5494C65.7536 59.5494 69.3436 54.5494 69.3436 54.5494C69.3436 54.5494 72.9236 59.5694 72.9236 61.5494Z"
                          fill="#96DCF0"/>
                    <path id="Vector_61"
                          d="M72.9236 61.5493C72.9236 62.4988 72.5464 63.4094 71.875 64.0808C71.2036 64.7522 70.293 65.1293 69.3436 65.1293V54.4993C69.3436 54.4993 72.9236 59.5693 72.9236 61.5493Z"
                          fill="#A0E6FA"/>
                </g>
            </g>
        </g>
    </g>
</svg>
