<svg width="91" height="118" viewBox="0 0 91 118" fill="none" xmlns="http://www.w3.org/2000/svg">
<path d="M39.8809 117.012C34.5049 117.012 29.5129 116.052 24.9049 114.132C20.2969 112.212 16.6009 109.284 13.8169 105.348C11.1289 101.508 9.78491 96.8043 9.78491 91.2363C9.78491 84.4203 11.6569 79.5243 15.4009 76.5483C19.1449 73.4763 23.4169 71.9403 28.2169 71.9403C25.6249 74.7243 23.6569 77.7963 22.3129 81.1563C20.9689 84.5163 20.2969 87.8763 20.2969 91.2363C20.2969 96.9963 22.1689 101.796 25.9129 105.636C29.7529 109.476 35.2249 111.396 42.3289 111.396C46.8409 111.396 51.1129 110.58 55.1449 108.948C59.2729 107.316 62.6329 104.916 65.2249 101.748C67.8169 98.5803 69.1129 94.7883 69.1129 90.3723C69.1129 86.5323 68.1529 83.1723 66.2329 80.2923C64.3129 77.3163 61.9129 74.8203 59.0329 72.8043C56.1529 70.6923 52.3129 68.1963 47.5129 65.3163C42.6169 62.4363 38.6809 59.9403 35.7049 57.8283C32.8249 55.6203 30.3769 52.9803 28.3609 49.9083C26.3449 46.8363 25.3369 43.2843 25.3369 39.2523C25.3369 33.6843 27.0649 27.9243 30.5209 21.9723C33.9769 15.9243 38.8249 10.8843 45.0649 6.85232C51.4009 2.82032 58.5049 0.804321 66.3769 0.804321C71.6569 0.804321 75.4969 2.10032 77.8969 4.69232C80.2969 7.28432 81.4969 10.7883 81.4969 15.2043C81.4969 20.0043 80.3449 25.3803 78.0409 31.3323C75.7369 37.2843 73.1929 42.4683 70.4089 46.8843C67.2409 46.2123 65.6569 44.1483 65.6569 40.6923C65.6569 38.8683 65.9929 36.8043 66.6649 34.5003C67.4329 32.1963 68.4889 29.3163 69.8329 25.8603C71.2729 22.1163 72.3289 19.0923 73.0009 16.7883C73.7689 14.3883 74.1529 12.2763 74.1529 10.4523C74.1529 8.43632 73.5289 6.90032 72.2809 5.84432C71.1289 4.78832 69.0649 4.26032 66.0889 4.26032C60.4249 4.26032 55.1449 6.03632 50.2489 9.58832C45.4489 13.0443 41.6089 17.2683 38.7289 22.2603C35.8489 27.2523 34.4089 31.8123 34.4089 35.9403C34.4089 39.0123 35.2249 41.7483 36.8569 44.1483C38.5849 46.5483 40.6969 48.6603 43.1929 50.4843C45.6889 52.2123 49.0969 54.2763 53.4169 56.6763C58.6009 59.6523 62.7769 62.3403 65.9449 64.7403C69.1129 67.0443 71.8009 70.0203 74.0089 73.6683C76.3129 77.2203 77.4649 81.4443 77.4649 86.3403C77.4649 92.6763 75.5929 98.1483 71.8489 102.756C68.2009 107.364 63.4969 110.868 57.7369 113.268C51.9769 115.764 46.0249 117.012 39.8809 117.012Z" fill="black"/>
<path d="M27.569 117.012C24.593 117.012 21.761 116.148 19.073 114.42C16.481 112.692 15.185 109.716 15.185 105.492C15.185 102.9 15.713 99.5883 16.769 95.5563C17.825 91.4283 19.505 85.7163 21.809 78.4203C25.553 66.5163 28.385 56.5323 30.305 48.4683C32.321 40.3083 33.329 32.4843 33.329 24.9963C33.329 20.4843 33.185 16.8843 32.897 14.1963C32.609 11.5083 31.841 9.30032 30.593 7.57232C29.345 5.74832 27.377 4.83632 24.689 4.83632C21.425 4.83632 18.641 6.13232 16.337 8.72432C14.129 11.2203 12.497 14.3403 11.441 18.0843C10.385 21.8283 9.85696 25.4763 9.85696 29.0283C9.85696 32.1963 10.289 34.7883 11.153 36.8043C7.60096 36.8043 5.00896 35.8443 3.37696 33.9243C1.74496 32.0043 0.928955 29.5083 0.928955 26.4363C0.928955 22.5003 2.12896 18.5643 4.52896 14.6283C7.02496 10.5963 10.289 7.28432 14.321 4.69232C18.449 2.10032 22.769 0.804321 27.281 0.804321C33.137 0.804321 37.553 3.10832 40.529 7.71632C43.505 12.2283 44.993 18.4683 44.993 26.4363C44.993 33.4443 44.033 40.8363 42.113 48.6123C40.193 56.3883 37.457 65.7483 33.905 76.6923C31.409 84.2763 29.537 90.4203 28.289 95.1243C27.041 99.8283 26.417 103.764 26.417 106.932C26.417 108.756 26.705 110.148 27.281 111.108C27.857 112.068 28.913 112.548 30.449 112.548C35.729 112.548 42.449 107.508 50.609 97.4283C58.769 87.3483 65.873 75.4443 71.921 61.7163C78.065 47.9883 81.137 36.1323 81.137 26.1483C81.137 21.6363 80.417 18.2283 78.977 15.9243C77.633 13.5243 75.713 11.9403 73.217 11.1723C74.561 8.96432 75.953 7.33232 77.393 6.27632C78.833 5.12432 80.225 4.54832 81.569 4.54832C83.873 4.54832 85.889 5.94032 87.617 8.72432C89.441 11.5083 90.353 15.4443 90.353 20.5323C90.353 30.8043 86.753 43.7163 79.553 59.2683C72.353 74.7243 63.761 88.2123 53.777 99.7323C43.889 111.252 35.153 117.012 27.569 117.012Z" fill="black"/>
<path d="M35.489 116.94C30.401 116.94 25.793 115.5 21.665 112.62C17.633 109.836 14.417 105.756 12.017 100.38C9.71304 94.9084 8.56104 88.5243 8.56104 81.2283C8.56104 69.2283 11.585 56.9403 17.633 44.3643C23.681 31.7883 31.313 21.4203 40.529 13.2603C49.841 5.00435 58.913 0.876343 67.745 0.876343C72.833 0.876343 76.577 2.41234 78.977 5.48434C81.473 8.55634 82.721 12.4443 82.721 17.1483C82.721 20.5083 82.145 23.8203 80.993 27.0844C79.841 30.3483 78.257 33.0363 76.241 35.1483C74.321 37.1643 72.257 38.1724 70.049 38.1724C68.129 38.1724 66.641 37.0683 65.585 34.8603C67.025 33.9003 68.609 32.1243 70.337 29.5323C72.161 26.9403 73.697 24.1083 74.945 21.0363C76.193 17.9643 76.817 15.2283 76.817 12.8283C76.817 10.5243 76.097 8.70035 74.657 7.35635C73.313 5.91635 71.153 5.19635 68.177 5.19635C61.553 5.19635 54.449 9.51635 46.865 18.1563C39.281 26.7963 32.897 37.3563 27.713 49.8363C22.625 62.3163 20.081 73.7404 20.081 84.1084C20.081 92.6524 21.857 99.4204 25.409 104.412C29.057 109.5 33.713 112.044 39.377 112.044C44.177 112.044 48.689 109.788 52.913 105.276C57.137 100.764 60.593 95.1003 63.281 88.2843C66.065 81.4683 67.697 74.8444 68.177 68.4124C62.609 67.1644 57.665 66.5403 53.345 66.5403L44.561 66.6843C45.713 61.6923 48.977 59.1963 54.353 59.1963C56.657 59.1963 58.961 59.5323 61.265 60.2043C63.665 60.8763 66.929 61.9324 71.057 63.3723C73.457 64.4283 76.001 65.2923 78.689 65.9643L77.681 70.5723C74.321 79.4043 72.017 86.5084 70.769 91.8844C69.521 97.1644 68.897 101.772 68.897 105.708C68.897 107.244 68.993 109.452 69.185 112.332C69.377 114.252 69.473 115.788 69.473 116.94C64.289 114.924 61.697 111.468 61.697 106.572C61.697 104.46 62.033 102.252 62.705 99.9483C54.545 111.276 45.473 116.94 35.489 116.94Z" fill="black"/>
</svg>
