<svg width="142" height="140" viewBox="0 0 142 140" fill="none" xmlns="http://www.w3.org/2000/svg">
<rect width="142" height="140" fill="#E5E5E5"/>
<g id="twitter">
<rect x="0.60022" width="141.399" height="140" rx="12" fill="#6EBEDF"/>
<path id="rainbow" d="M69.3729 60.0746C72.956 49.5806 77.3353 42.78 82.3739 37.8501C86.1339 34.1706 88.074 33.0031 85.8674 37.0537C86.8421 36.3207 88.2453 35.3454 89.3332 34.8244C95.4303 32.1252 94.9979 34.3879 90.797 36.8134C102.261 32.9647 101.864 37.8657 89.7381 40.3068C99.6527 40.4821 110.193 46.4019 113.226 58.9938C113.645 60.7365 113.143 60.5709 115.045 60.8866C119.151 61.5686 123.014 61.5267 126.78 60.4043C126.373 63.0094 122.706 64.7021 116.984 65.8204C114.865 66.2344 114.43 66.1256 116.971 66.6619C120.099 67.3221 123.599 67.493 127.3 67.3303C124.417 70.4433 119.823 72.0351 114.14 72.1003C110.586 84.279 102.464 93.0001 92.1849 98.474C68.05 111.328 32.9174 109.463 15.3 86.1024C26.8601 94.6142 43.9863 96.4892 56.7059 84.6252C48.3735 84.6269 46.2157 78.7717 52.8216 75.6086C46.5657 75.5486 42.589 73.6921 40.255 70.3296C39.3686 69.0532 39.3596 68.9551 40.8047 67.9753C42.3944 66.8973 44.5598 66.418 46.7969 66.2565C40.3225 64.5177 36.3631 61.3429 34.9924 57.0863C34.5387 55.6784 34.4681 55.7498 35.9952 55.3861C37.4877 55.0308 39.4091 54.8411 41.1318 54.7615C36.0468 51.8671 33.0077 48.3201 32.2341 44.3984C31.5045 40.6971 32.2556 41.6468 35.2102 42.7072C48.4147 47.4477 61.5787 52.5381 69.3729 60.0746Z" fill="white"/>
<path id="Subtract" fill-rule="evenodd" clip-rule="evenodd" d="M68.0486 54.9951C59.6329 48.5291 47.6296 43.9821 36.2239 39.8873C35.7766 39.7268 35.4785 39.6066 35.1689 39.4817C34.9562 39.3959 34.7379 39.3079 34.4618 39.2029C34.1977 39.1026 33.848 38.9763 33.4819 38.8879C33.1583 38.8097 32.5084 38.6787 31.7552 38.8285C30.8172 39.0151 29.9733 39.5868 29.4661 40.4817C29.0561 41.2052 28.9911 41.9253 28.9776 42.3262C28.9504 43.1316 29.114 44.0855 29.2908 44.9823C29.8792 47.965 31.4398 50.6231 33.7283 52.9401C33.2686 53.151 32.6004 53.5664 32.1472 54.3582C31.4802 55.5238 31.7518 56.6693 31.8208 56.9605L31.8234 56.9718C31.8925 57.2636 32.0116 57.6268 32.093 57.875L32.0933 57.8761L32.094 57.8781L32.0945 57.8795C32.1103 57.9278 32.1246 57.9716 32.1369 58.0095C33.2033 61.3206 35.4125 63.9546 38.4839 65.9427C38.3165 66.0669 38.1491 66.1989 37.9957 66.3347C37.6545 66.6368 36.9664 67.3083 36.7259 68.3991C36.4733 69.5447 36.8587 70.4668 37.0853 70.916C37.2935 71.3287 37.5795 71.7402 37.7692 72.0132L37.7906 72.0439C39.8143 74.9595 42.7052 76.8526 46.3938 77.8258C45.8079 79.2939 45.7604 80.9053 46.3825 82.4366C47.037 84.0475 48.2615 85.258 49.8256 86.1033C39.1363 92.562 26.3145 90.4906 17.0789 83.6902C15.8795 82.8071 14.2138 82.9377 13.1666 83.9969C12.1195 85.0561 12.008 86.7232 12.9049 87.9124C31.684 112.813 68.6029 114.436 93.595 101.126C103.904 95.6359 112.27 86.9893 116.367 75.0054C121.636 74.5853 126.298 72.8314 129.501 69.3722C130.327 68.4797 130.533 67.1764 130.022 66.0727C129.619 65.2041 128.835 64.5944 127.927 64.4001C128.829 63.4716 129.519 62.3131 129.744 60.8719C129.903 59.8545 129.53 58.8266 128.754 58.149C127.979 57.4714 126.91 57.2388 125.924 57.5329C122.855 58.4476 119.639 58.5505 116.074 58.0157C113.695 48.5187 107.46 42.4531 100.271 39.4829L100.296 39.4625L100.325 39.4392C100.856 39.0045 101.83 38.1004 102.07 36.7178C102.214 35.8876 102.068 34.977 101.538 34.1839C101.053 33.4581 100.399 33.0586 99.9047 32.8411C98.9686 32.4296 97.9258 32.3708 97.079 32.3974C96.9104 32.4028 96.7362 32.4121 96.5565 32.4254C95.9751 31.3097 94.8929 30.8472 94.2244 30.701C93.4697 30.5359 92.7387 30.6124 92.215 30.7027C91.1472 30.8868 89.8315 31.337 88.3047 32.0032C86.9724 31.1448 85.5701 31.6516 85.3395 31.735L85.3383 31.7354C84.4365 32.0614 83.537 32.7683 82.8955 33.303C82.1327 33.9388 81.2427 34.7633 80.2757 35.7096C75.5557 40.3278 71.4669 46.3866 68.0486 54.9951ZM40.3712 65.899C40.1354 66.0302 39.9054 66.1711 39.6823 66.3224C39.3396 66.5548 38.96 66.8152 38.6586 67.0821C38.3683 67.3392 37.874 67.8349 37.7024 68.6131C37.5228 69.428 37.7927 70.0969 37.9781 70.4644C38.154 70.813 38.4049 71.1743 38.6034 71.4601L38.6123 71.4729C40.683 74.4559 43.7627 76.326 47.8709 77.1395C47.8312 77.201 47.7926 77.2629 47.7551 77.3253C46.8697 78.8004 46.6703 80.487 47.309 82.059C48.0554 83.8962 49.735 85.1915 51.9377 85.9227C40.5507 93.8635 26.4397 91.8235 16.4859 84.4943C15.6863 83.9055 14.5759 83.9926 13.8778 84.6987C13.1797 85.4049 13.1054 86.5163 13.7033 87.3091C32.0952 111.696 68.4186 113.4 93.125 100.242C103.42 94.7594 111.706 86.0929 115.631 74.0525C121.011 73.7427 125.658 72.0489 128.767 68.6916C129.318 68.0966 129.455 67.2277 129.114 66.4919C128.773 65.7561 128.022 65.299 127.212 65.3347C126.429 65.3691 125.66 65.3879 124.904 65.39C126.769 64.3854 128.414 62.9042 128.756 60.716C128.862 60.0378 128.613 59.3525 128.096 58.9008C127.579 58.449 126.867 58.294 126.209 58.4901C122.805 59.5044 119.262 59.562 115.373 58.916L115.253 58.8963C115.229 58.7818 115.202 58.6582 115.17 58.5278C112.735 48.4202 105.808 42.2916 98.0484 39.7201C98.6831 39.3871 99.2392 39.0343 99.6916 38.6641C100.184 38.2614 100.91 37.5548 101.085 36.5457C101.188 35.9485 101.083 35.3018 100.707 34.7384C100.36 34.22 99.8859 33.924 99.5023 33.7553C98.7704 33.4336 97.9059 33.3707 97.1104 33.3957C96.7361 33.4075 96.3278 33.441 95.8862 33.4971C95.8813 33.4742 95.8761 33.4512 95.8705 33.4281C95.5878 32.2627 94.6136 31.8085 94.0107 31.6767C93.4414 31.5522 92.8593 31.6051 92.385 31.6869C91.394 31.8578 90.1024 32.2991 88.5236 32.9981C88.5054 33.0061 88.4873 33.0145 88.4694 33.023C88.3702 33.0706 88.2694 33.1209 88.1674 33.1736C88.1333 33.1386 88.0974 33.104 88.0596 33.07C87.0725 32.1834 85.9025 32.5936 85.6783 32.6747C84.9638 32.9329 84.1888 33.5256 83.5358 34.0699C82.8018 34.6817 81.9331 35.4856 80.9752 36.423C76.1475 41.1465 71.9645 47.4422 68.4905 56.6203C60.2144 49.8352 47.8386 45.1184 35.8858 40.8272C35.4309 40.664 35.0973 40.5298 34.7689 40.3976C34.5565 40.3122 34.3462 40.2276 34.1066 40.1365C33.8514 40.0396 33.5498 39.9318 33.2472 39.8587C32.973 39.7925 32.4912 39.7005 31.9503 39.8081C31.2862 39.9402 30.6943 40.3414 30.3361 40.9736C30.0427 41.4913 29.9883 42.0223 29.977 42.3587C29.9542 43.0339 30.0933 43.8816 30.272 44.7879C30.9131 48.038 32.8174 50.9264 35.6927 53.4055C35.6388 53.4178 35.585 53.4303 35.5318 53.443L35.3943 53.4755C35.1028 53.5442 34.7665 53.6235 34.5028 53.7107L34.5018 53.711C34.2595 53.7911 33.4748 54.0505 33.0151 54.8537C32.5451 55.675 32.7382 56.4936 32.7966 56.7405C32.8545 56.9855 32.9545 57.2909 33.037 57.5431C33.0454 57.5686 33.0535 57.5935 33.0615 57.6178C33.0709 57.6468 33.0801 57.6749 33.0887 57.7018C34.2139 61.1959 36.7379 63.9295 40.3712 65.899Z" fill="white"/>
</g>
</svg>
