<svg id="Layer_1" data-name="Layer 1" xmlns="http://www.w3.org/2000/svg" viewBox="0 0 450 400">
  <g>
    <path d="M74.72,53.48A19.23,19.23,0,1,1,55.49,34.25,19.23,19.23,0,0,1,74.72,53.48Z" fill="#ffc800"/>
    <g>
      <path d="M71.75,67.14a21.21,21.21,0,0,0,3.69-6.37,31.26,31.26,0,0,1,6,7.73A31.39,31.39,0,0,1,71.75,67.14Z" fill="#ffc800"/>
      <path d="M62.73,73.44a19.25,19.25,0,0,0,3.36-1.55,21.54,21.54,0,0,0,3-2.12,32.75,32.75,0,0,1,1.33,9.71A32.35,32.35,0,0,1,62.73,73.44Z" fill="#ffc800"/>
      <path d="M51.78,74.41a21.92,21.92,0,0,0,6.24.17c.68-.09,1.14-.19,1.14-.19a31.09,31.09,0,0,1-3.71,9.08A31.86,31.86,0,0,1,51.78,74.41Z" fill="#ffc800"/>
      <path d="M41.82,69.74a21.2,21.2,0,0,0,6.38,3.68,30.8,30.8,0,0,1-7.74,6A31.45,31.45,0,0,1,41.82,69.74Z" fill="#ffc800"/>
      <path d="M35.52,60.71a20.64,20.64,0,0,0,1.56,3.37,22.23,22.23,0,0,0,2.12,3,32.75,32.75,0,0,1-9.71,1.33A32.46,32.46,0,0,1,35.52,60.71Z" fill="#ffc800"/>
      <path d="M34.56,49.76a20.31,20.31,0,0,0-.31,3.7c-.06.93.12,1.85.13,2.54s.19,1.14.19,1.14a31.33,31.33,0,0,1-9.08-3.7A32,32,0,0,1,34.56,49.76Z" fill="#ffc800"/>
      <path d="M39.23,39.81a6.11,6.11,0,0,0-.72.9,20.45,20.45,0,0,0-3,5.48,31,31,0,0,1-6-7.74A31.18,31.18,0,0,1,39.23,39.81Z" fill="#ffc800"/>
      <path d="M48.25,33.51a21.43,21.43,0,0,0-6.4,3.68,33,33,0,0,1-1.34-9.72A32.54,32.54,0,0,1,48.25,33.51Z" fill="#ffc800"/>
      <path d="M59.21,32.54A21.91,21.91,0,0,0,53,32.37c-.69.09-1.14.19-1.14.19a31,31,0,0,1,3.7-9.08A32,32,0,0,1,59.21,32.54Z" fill="#ffc800"/>
      <path d="M69.16,37.22a21.11,21.11,0,0,0-6.38-3.69,31.09,31.09,0,0,1,7.74-6A31.54,31.54,0,0,1,69.16,37.22Z" fill="#ffc800"/>
      <path d="M75.46,46.24a20.43,20.43,0,0,0-1.55-3.37,22.58,22.58,0,0,0-2.13-3A32.8,32.8,0,0,1,81.5,38.5,32.45,32.45,0,0,1,75.46,46.24Z" fill="#ffc800"/>
      <path d="M76.42,57.19a19.32,19.32,0,0,0,.31-3.7c.06-.92-.12-1.84-.13-2.54s-.19-1.14-.19-1.14a31.47,31.47,0,0,1,9.08,3.7A32,32,0,0,1,76.42,57.19Z" fill="#ffc800"/>
    </g>
    <path d="M74.72,53.47A19.22,19.22,0,0,1,55.49,72.7h0a19.23,19.23,0,0,1,0-38.46h0A19.23,19.23,0,0,1,74.72,53.47Z" fill="#ffc800"/>
    <g>
      <path d="M81.45,68.5a31,31,0,0,1-9.69-1.36,21,21,0,0,0,3.68-6.37A30.85,30.85,0,0,1,81.45,68.5Z" fill="#ffc800"/>
      <path d="M70.47,79.48a32.46,32.46,0,0,1-7.74-6,20.88,20.88,0,0,0,3.36-1.55,21.87,21.87,0,0,0,3-2.13A33.15,33.15,0,0,1,70.47,79.48Z" fill="#ffc800"/>
      <path d="M59.15,74.39a30.9,30.9,0,0,1-3.69,9.06s0,0,0,0a31.86,31.86,0,0,1-3.67-9.06c1.76.2,2.89.29,3.68.3,1.32,0,1.73-.11,2.55-.12A10.94,10.94,0,0,0,59.15,74.39Z" fill="#ffc800"/>
      <path d="M41.82,69.74a21.2,21.2,0,0,0,6.38,3.68,30.8,30.8,0,0,1-7.74,6A31.45,31.45,0,0,1,41.82,69.74Z" fill="#ffc800"/>
      <path d="M35.52,60.71a20.64,20.64,0,0,0,1.56,3.37,22.23,22.23,0,0,0,2.12,3,32.75,32.75,0,0,1-9.71,1.33A32.46,32.46,0,0,1,35.52,60.71Z" fill="#ffc800"/>
      <path d="M34.56,49.76a20.31,20.31,0,0,0-.31,3.7c-.06.93.12,1.85.13,2.54s.19,1.14.19,1.14a31.33,31.33,0,0,1-9.08-3.7A32,32,0,0,1,34.56,49.76Z" fill="#ffc800"/>
      <path d="M39.23,39.81a6.11,6.11,0,0,0-.72.9,20.45,20.45,0,0,0-3,5.48,31,31,0,0,1-6-7.74A31.18,31.18,0,0,1,39.23,39.81Z" fill="#ffc800"/>
      <path d="M48.25,33.51a21.43,21.43,0,0,0-6.4,3.68,33,33,0,0,1-1.34-9.72A32.54,32.54,0,0,1,48.25,33.51Z" fill="#ffc800"/>
      <path d="M59.21,32.54a35.7,35.7,0,0,0-3.75-.31c-1.28,0-1.69.13-2.5.14s-1.14.19-1.14.19a31.47,31.47,0,0,1,3.64-9l.07-.11A32.2,32.2,0,0,1,59.21,32.54Z" fill="#ffc800"/>
      <path d="M69.15,37.22a21.12,21.12,0,0,0-6.37-3.7,32.19,32.19,0,0,1,7.73-6A30.92,30.92,0,0,1,69.15,37.22Z" fill="#ffc800"/>
      <path d="M81.5,38.5a32.76,32.76,0,0,1-6,7.74,20.43,20.43,0,0,0-1.55-3.37,23.59,23.59,0,0,0-2.13-3A32.8,32.8,0,0,1,81.5,38.5Z" fill="#ffc800"/>
      <path d="M76.73,53.5c0-.94-.11-1.85-.13-2.55s-.19-1.14-.19-1.14a31.47,31.47,0,0,1,9.08,3.7,31.67,31.67,0,0,1-9.07,3.68A19.34,19.34,0,0,0,76.73,53.5Z" fill="#ffc800"/>
    </g>
    <path d="M59.21,32.54a35.7,35.7,0,0,0-3.75-.31V23.58l.07-.11A32.2,32.2,0,0,1,59.21,32.54Z" fill="#ffdc00"/>
    <path d="M58,74.59a10.94,10.94,0,0,0,1.14-.2,30.9,30.9,0,0,1-3.69,9.06V74.71C56.78,74.75,57.19,74.6,58,74.59Z" fill="#ffdc00"/>
    <path d="M55.49,72.7h0V34.24h0a19.23,19.23,0,0,1,0,38.46Z" fill="#ffdc00"/>
    <path d="M69.14,69.77a33.15,33.15,0,0,1,1.33,9.71,32.46,32.46,0,0,1-7.74-6,20.88,20.88,0,0,0,3.36-1.55A21.87,21.87,0,0,0,69.14,69.77Z" fill="#ffdc00"/>
    <path d="M69.15,37.22a21.12,21.12,0,0,0-6.37-3.7,32.19,32.19,0,0,1,7.73-6A30.92,30.92,0,0,1,69.15,37.22Z" fill="#ffdc00"/>
    <path d="M81.45,68.5a31,31,0,0,1-9.69-1.36,21,21,0,0,0,3.68-6.37A30.85,30.85,0,0,1,81.45,68.5Z" fill="#ffdc00"/>
    <path d="M73.91,42.87a23.59,23.59,0,0,0-2.13-3A32.8,32.8,0,0,1,81.5,38.5a32.76,32.76,0,0,1-6,7.74A20.43,20.43,0,0,0,73.91,42.87Z" fill="#ffdc00"/>
    <path d="M76.73,53.5c0-.94-.11-1.85-.13-2.55s-.19-1.14-.19-1.14a31.47,31.47,0,0,1,9.08,3.7,31.67,31.67,0,0,1-9.07,3.68A19.34,19.34,0,0,0,76.73,53.5Z" fill="#ffdc00"/>
    <path d="M72.51,53.47h-2a15,15,0,0,0-15-15l0-2h0A17,17,0,0,1,72.51,53.47Z" fill="#fff"/>
    <path d="M66.6,53.47A11.11,11.11,0,0,1,55.49,64.59h0a11.12,11.12,0,0,1,0-22.23h0A11.11,11.11,0,0,1,66.6,53.47Z" fill="#ffc800"/>
    <path d="M55.46,42.36V64.59a11.12,11.12,0,0,1,0-22.23Z" fill="#ffdc00"/>
  </g>
  <g>
    <g>
      <path d="M163.92,237.07a13.22,13.22,0,1,1-13.22-13.21A13.22,13.22,0,0,1,163.92,237.07Z" fill="#ffc800"/>
      <g>
        <path d="M161.88,246.46a14.4,14.4,0,0,0,2.53-4.38,21.52,21.52,0,0,1,4.13,5.32A21.08,21.08,0,0,1,161.88,246.46Z" fill="#ffc800"/>
        <path d="M155.68,250.8a14.65,14.65,0,0,0,2.31-1.07,15.47,15.47,0,0,0,2.09-1.46A22.46,22.46,0,0,1,161,255,22.39,22.39,0,0,1,155.68,250.8Z" fill="#ffc800"/>
        <path d="M148.15,251.46a15,15,0,0,0,4.29.12l.78-.13a21.87,21.87,0,0,1-2.54,6.24A22,22,0,0,1,148.15,251.46Z" fill="#ffc800"/>
        <path d="M141.31,248.25a14.53,14.53,0,0,0,4.38,2.53,21.33,21.33,0,0,1-5.31,4.13A21.37,21.37,0,0,1,141.31,248.25Z" fill="#ffc800"/>
        <path d="M137,242.05a13.78,13.78,0,0,0,1.07,2.31,14.57,14.57,0,0,0,1.46,2.09,22.46,22.46,0,0,1-6.68.92A22.08,22.08,0,0,1,137,242.05Z" fill="#ffc800"/>
        <path d="M136.32,234.52a13.18,13.18,0,0,0-.21,2.54c0,.64.08,1.27.09,1.75s.13.78.13.78a21.66,21.66,0,0,1-6.24-2.54A22,22,0,0,1,136.32,234.52Z" fill="#ffc800"/>
        <path d="M139.53,227.68a4.43,4.43,0,0,0-.49.62,13.78,13.78,0,0,0-2,3.76,21.18,21.18,0,0,1-4.14-5.31A21.25,21.25,0,0,1,139.53,227.68Z" fill="#ffc800"/>
        <path d="M145.73,223.35a14.91,14.91,0,0,0-4.4,2.53,22.46,22.46,0,0,1-.92-6.68A22.39,22.39,0,0,1,145.73,223.35Z" fill="#ffc800"/>
        <path d="M153.26,222.69a15,15,0,0,0-4.29-.12c-.47.06-.78.13-.78.13a21.32,21.32,0,0,1,2.54-6.24A22.37,22.37,0,0,1,153.26,222.69Z" fill="#ffc800"/>
        <path d="M160.09,225.9a14.48,14.48,0,0,0-4.38-2.53,21.78,21.78,0,0,1,5.32-4.14A21.38,21.38,0,0,1,160.09,225.9Z" fill="#ffc800"/>
        <path d="M164.43,232.1a14.25,14.25,0,0,0-1.07-2.31,16.49,16.49,0,0,0-1.46-2.09,22.41,22.41,0,0,1,6.67-.92A22.19,22.19,0,0,1,164.43,232.1Z" fill="#ffc800"/>
        <path d="M165.09,239.63a14.11,14.11,0,0,0,.21-2.54c0-.64-.08-1.27-.09-1.75s-.13-.79-.13-.79a21.88,21.88,0,0,1,6.24,2.55A22.37,22.37,0,0,1,165.09,239.63Z" fill="#ffc800"/>
      </g>
      <path d="M163.92,237.07a13.22,13.22,0,0,1-13.22,13.22h0a13.22,13.22,0,0,1,0-26.43h0A13.22,13.22,0,0,1,163.92,237.07Z" fill="#ffc800"/>
      <g>
        <path d="M168.54,247.4a21.08,21.08,0,0,1-6.66-.94,14.28,14.28,0,0,0,2.53-4.38A21.71,21.71,0,0,1,168.54,247.4Z" fill="#ffc800"/>
        <path d="M161,255a22.39,22.39,0,0,1-5.32-4.15,14.25,14.25,0,0,0,2.31-1.07,14.57,14.57,0,0,0,2.09-1.46A22.86,22.86,0,0,1,161,255Z" fill="#ffc800"/>
        <path d="M153.22,251.45a21,21,0,0,1-2.54,6.22v0a21.94,21.94,0,0,1-2.52-6.23c1.21.14,2,.2,2.53.21.91,0,1.19-.08,1.76-.09S153.22,251.45,153.22,251.45Z" fill="#ffc800"/>
        <path d="M141.31,248.25a14.53,14.53,0,0,0,4.38,2.53,21.33,21.33,0,0,1-5.31,4.13A21.37,21.37,0,0,1,141.31,248.25Z" fill="#ffc800"/>
        <path d="M137,242.05a13.78,13.78,0,0,0,1.07,2.31,14.57,14.57,0,0,0,1.46,2.09,22.46,22.46,0,0,1-6.68.92A22.08,22.08,0,0,1,137,242.05Z" fill="#ffc800"/>
        <path d="M136.32,234.52a13.18,13.18,0,0,0-.21,2.54c0,.64.08,1.27.09,1.75s.13.78.13.78a21.66,21.66,0,0,1-6.24-2.54A22,22,0,0,1,136.32,234.52Z" fill="#ffc800"/>
        <path d="M139.53,227.68a4.43,4.43,0,0,0-.49.62,13.78,13.78,0,0,0-2,3.76,21.18,21.18,0,0,1-4.14-5.31A21.25,21.25,0,0,1,139.53,227.68Z" fill="#ffc800"/>
        <path d="M145.73,223.35a14.91,14.91,0,0,0-4.4,2.53,22.46,22.46,0,0,1-.92-6.68A22.39,22.39,0,0,1,145.73,223.35Z" fill="#ffc800"/>
        <path d="M153.26,222.69c-1.24-.15-2-.21-2.58-.22-.88,0-1.16.09-1.72.1s-.78.13-.78.13a21.6,21.6,0,0,1,2.5-6.17l0-.07A22.07,22.07,0,0,1,153.26,222.69Z" fill="#ffc800"/>
        <path d="M160.09,225.9a14.91,14.91,0,0,0-4.38-2.54,22.2,22.2,0,0,1,5.32-4.13A21.09,21.09,0,0,1,160.09,225.9Z" fill="#ffc800"/>
        <path d="M168.58,226.78a22.39,22.39,0,0,1-4.15,5.32,13.87,13.87,0,0,0-1.07-2.31,15.47,15.47,0,0,0-1.46-2.09A22.46,22.46,0,0,1,168.58,226.78Z" fill="#ffc800"/>
        <path d="M165.3,237.09c0-.64-.08-1.27-.09-1.75s-.13-.79-.13-.79a21.88,21.88,0,0,1,6.24,2.55,22.07,22.07,0,0,1-6.23,2.53A14.11,14.11,0,0,0,165.3,237.09Z" fill="#ffc800"/>
      </g>
      <path d="M153.26,222.69c-1.24-.15-2-.21-2.58-.22v-5.94l0-.07A22.07,22.07,0,0,1,153.26,222.69Z" fill="#ffdc00"/>
      <path d="M152.44,251.58c.47-.06.78-.13.78-.13a21,21,0,0,1-2.54,6.22v-6C151.59,251.7,151.87,251.59,152.44,251.58Z" fill="#ffdc00"/>
      <path d="M150.7,250.29h0V223.86h0a13.22,13.22,0,1,1,0,26.43Z" fill="#ffdc00"/>
      <path d="M160.08,248.27A22.86,22.86,0,0,1,161,255a22.39,22.39,0,0,1-5.32-4.15,14.25,14.25,0,0,0,2.31-1.07A14.57,14.57,0,0,0,160.08,248.27Z" fill="#ffdc00"/>
      <path d="M160.09,225.9a14.91,14.91,0,0,0-4.38-2.54,22.2,22.2,0,0,1,5.32-4.13A21.09,21.09,0,0,1,160.09,225.9Z" fill="#ffdc00"/>
      <path d="M168.54,247.4a21.08,21.08,0,0,1-6.66-.94,14.28,14.28,0,0,0,2.53-4.38A21.71,21.71,0,0,1,168.54,247.4Z" fill="#ffdc00"/>
      <path d="M163.36,229.79a15.47,15.47,0,0,0-1.46-2.09,22.46,22.46,0,0,1,6.68-.92,22.39,22.39,0,0,1-4.15,5.32A13.87,13.87,0,0,0,163.36,229.79Z" fill="#ffdc00"/>
      <path d="M165.3,237.09c0-.64-.08-1.27-.09-1.75s-.13-.79-.13-.79a21.88,21.88,0,0,1,6.24,2.55,22.07,22.07,0,0,1-6.23,2.53A14.11,14.11,0,0,0,165.3,237.09Z" fill="#ffdc00"/>
      <path d="M162.46,237.07H161a10.27,10.27,0,0,0-10.26-10.26v-1.5h0A11.77,11.77,0,0,1,162.46,237.07Z" fill="#fff"/>
    </g>
    <path d="M206.2,255.64a11.52,11.52,0,0,1-11.53,11.52H146.45a10,10,0,1,1,0-20,9.87,9.87,0,0,1,4.89,1.28,6.34,6.34,0,0,1-.38-2.09,6.11,6.11,0,0,1,11-3.66,15.35,15.35,0,0,1,14.26-14.26c.34,0,.69,0,1,0a15.37,15.37,0,0,1,15.37,15.37c0,.2,0,.38,0,.58a10.92,10.92,0,0,1,2.07-.2A11.53,11.53,0,0,1,206.2,255.64Z" fill="#00aac8"/>
    <path d="M206.2,255.64a11.52,11.52,0,0,1-11.53,11.52H176.21V228.41c.34,0,.69,0,1,0a15.37,15.37,0,0,1,15.37,15.37c0,.2,0,.38,0,.58a10.92,10.92,0,0,1,2.07-.2A11.53,11.53,0,0,1,206.2,255.64Z" fill="#00b4d2"/>
    <path d="M188.9,243.78h-1.5a10.19,10.19,0,0,0-10.18-10.18c-.32,0-.63,0-.94.05l-.14-1.5c.36,0,.72-.05,1.08-.05A11.69,11.69,0,0,1,188.9,243.78Z" fill="#fff"/>
  </g>
  <g>
    <g>
      <path d="M163.92,41.41A13.22,13.22,0,1,1,150.7,28.19,13.21,13.21,0,0,1,163.92,41.41Z" fill="#ffc800"/>
      <g>
        <path d="M161.88,50.8a14.74,14.74,0,0,0,2.53-4.38,21.52,21.52,0,0,1,4.13,5.32A21.63,21.63,0,0,1,161.88,50.8Z" fill="#ffc800"/>
        <path d="M155.68,55.13A13.78,13.78,0,0,0,158,54.06a14.57,14.57,0,0,0,2.09-1.46,22.46,22.46,0,0,1,.92,6.68A22.08,22.08,0,0,1,155.68,55.13Z" fill="#ffc800"/>
        <path d="M148.15,55.79a15,15,0,0,0,4.29.12c.47-.06.78-.13.78-.13A21.64,21.64,0,0,1,150.68,62,22,22,0,0,1,148.15,55.79Z" fill="#ffc800"/>
        <path d="M141.31,52.58a14.53,14.53,0,0,0,4.38,2.54,21.38,21.38,0,0,1-5.31,4.13A21.44,21.44,0,0,1,141.31,52.58Z" fill="#ffc800"/>
        <path d="M137,46.38a13.87,13.87,0,0,0,1.07,2.31,14.57,14.57,0,0,0,1.46,2.09,22.46,22.46,0,0,1-6.68.92A22.29,22.29,0,0,1,137,46.38Z" fill="#ffc800"/>
        <path d="M136.32,38.86a13.18,13.18,0,0,0-.21,2.54,17.32,17.32,0,0,0,.09,1.74c.06.48.13.79.13.79a21.67,21.67,0,0,1-6.24-2.55A21.94,21.94,0,0,1,136.32,38.86Z" fill="#ffc800"/>
        <path d="M139.53,32a3.78,3.78,0,0,0-.49.62,13.78,13.78,0,0,0-2,3.76,21.24,21.24,0,0,1-4.14-5.32A21.53,21.53,0,0,1,139.53,32Z" fill="#ffc800"/>
        <path d="M145.73,27.69a14.71,14.71,0,0,0-4.4,2.52,22.41,22.41,0,0,1-.92-6.67A22.39,22.39,0,0,1,145.73,27.69Z" fill="#ffc800"/>
        <path d="M153.26,27A15.86,15.86,0,0,0,149,26.9c-.47.07-.78.14-.78.14a21.38,21.38,0,0,1,2.54-6.25A22.37,22.37,0,0,1,153.26,27Z" fill="#ffc800"/>
        <path d="M160.09,30.24a14.36,14.36,0,0,0-4.38-2.54A21.52,21.52,0,0,1,161,23.57,21.42,21.42,0,0,1,160.09,30.24Z" fill="#ffc800"/>
        <path d="M164.43,36.44a14.28,14.28,0,0,0-1.07-2.32A16.49,16.49,0,0,0,161.9,32a22.59,22.59,0,0,1,6.67-.91A22.4,22.4,0,0,1,164.43,36.44Z" fill="#ffc800"/>
        <path d="M165.09,44a14,14,0,0,0,.21-2.54c0-.64-.08-1.27-.09-1.75s-.13-.78-.13-.78a21.87,21.87,0,0,1,6.24,2.54A21.78,21.78,0,0,1,165.09,44Z" fill="#ffc800"/>
      </g>
      <path d="M163.92,41.41A13.21,13.21,0,0,1,150.7,54.62h0a13.22,13.22,0,0,1,0-26.43h0A13.22,13.22,0,0,1,163.92,41.41Z" fill="#ffc800"/>
      <g>
        <path d="M168.54,51.73a21.34,21.34,0,0,1-6.66-.93,14.53,14.53,0,0,0,2.53-4.38A21.45,21.45,0,0,1,168.54,51.73Z" fill="#ffc800"/>
        <path d="M161,59.28a22.08,22.08,0,0,1-5.32-4.15A14,14,0,0,0,158,54.07a15.83,15.83,0,0,0,2.09-1.47A22.86,22.86,0,0,1,161,59.28Z" fill="#ffc800"/>
        <path d="M153.22,55.78A21.07,21.07,0,0,1,150.68,62s0,0,0,0a21.94,21.94,0,0,1-2.52-6.23,24.53,24.53,0,0,0,2.53.21c.91,0,1.19-.08,1.76-.08S153.22,55.78,153.22,55.78Z" fill="#ffc800"/>
        <path d="M141.31,52.58a14.53,14.53,0,0,0,4.38,2.54,21.38,21.38,0,0,1-5.31,4.13A21.44,21.44,0,0,1,141.31,52.58Z" fill="#ffc800"/>
        <path d="M137,46.38a13.87,13.87,0,0,0,1.07,2.31,14.57,14.57,0,0,0,1.46,2.09,22.46,22.46,0,0,1-6.68.92A22.29,22.29,0,0,1,137,46.38Z" fill="#ffc800"/>
        <path d="M136.32,38.86a13.18,13.18,0,0,0-.21,2.54,17.32,17.32,0,0,0,.09,1.74c.06.48.13.79.13.79a21.67,21.67,0,0,1-6.24-2.55A21.94,21.94,0,0,1,136.32,38.86Z" fill="#ffc800"/>
        <path d="M139.53,32a3.78,3.78,0,0,0-.49.62,13.78,13.78,0,0,0-2,3.76,21.24,21.24,0,0,1-4.14-5.32A21.53,21.53,0,0,1,139.53,32Z" fill="#ffc800"/>
        <path d="M145.73,27.69a14.71,14.71,0,0,0-4.4,2.52,22.41,22.41,0,0,1-.92-6.67A22.39,22.39,0,0,1,145.73,27.69Z" fill="#ffc800"/>
        <path d="M153.26,27a25.65,25.65,0,0,0-2.58-.21c-.88,0-1.16.09-1.71.1s-.79.13-.79.13a21.84,21.84,0,0,1,2.5-6.18l0-.07A22.37,22.37,0,0,1,153.26,27Z" fill="#ffc800"/>
        <path d="M160.09,30.24a14.36,14.36,0,0,0-4.38-2.54A21.71,21.71,0,0,1,161,23.57,21.13,21.13,0,0,1,160.09,30.24Z" fill="#ffc800"/>
        <path d="M168.58,31.12a22.93,22.93,0,0,1-4.15,5.32,14.28,14.28,0,0,0-1.07-2.32A16.14,16.14,0,0,0,161.9,32,22.26,22.26,0,0,1,168.58,31.12Z" fill="#ffc800"/>
        <path d="M165.3,41.42c0-.64-.08-1.26-.09-1.75s-.13-.78-.13-.78a21.69,21.69,0,0,1,6.23,2.54A21.6,21.6,0,0,1,165.09,44,14,14,0,0,0,165.3,41.42Z" fill="#ffc800"/>
      </g>
      <path d="M153.26,27a25.65,25.65,0,0,0-2.58-.21V20.86l0-.07A22.37,22.37,0,0,1,153.26,27Z" fill="#ffdc00"/>
      <path d="M152.44,55.92c.47-.07.78-.14.78-.14A21.07,21.07,0,0,1,150.68,62V56C151.59,56,151.87,55.92,152.44,55.92Z" fill="#ffdc00"/>
      <path d="M150.7,54.62h0V28.19h0a13.22,13.22,0,1,1,0,26.43Z" fill="#ffdc00"/>
      <path d="M160.08,52.6a22.86,22.86,0,0,1,.92,6.68,22.08,22.08,0,0,1-5.32-4.15A14,14,0,0,0,158,54.07,15.83,15.83,0,0,0,160.08,52.6Z" fill="#ffdc00"/>
      <path d="M160.09,30.24a14.36,14.36,0,0,0-4.38-2.54A21.71,21.71,0,0,1,161,23.57,21.13,21.13,0,0,1,160.09,30.24Z" fill="#ffdc00"/>
      <path d="M168.54,51.73a21.34,21.34,0,0,1-6.66-.93,14.53,14.53,0,0,0,2.53-4.38A21.45,21.45,0,0,1,168.54,51.73Z" fill="#ffdc00"/>
      <path d="M163.36,34.12A16.14,16.14,0,0,0,161.9,32a22.26,22.26,0,0,1,6.68-.91,22.93,22.93,0,0,1-4.15,5.32A14.28,14.28,0,0,0,163.36,34.12Z" fill="#ffdc00"/>
      <path d="M165.3,41.42c0-.64-.08-1.26-.09-1.75s-.13-.78-.13-.78a21.69,21.69,0,0,1,6.23,2.54A21.6,21.6,0,0,1,165.09,44,14,14,0,0,0,165.3,41.42Z" fill="#ffdc00"/>
      <path d="M162.46,41.41H161A10.28,10.28,0,0,0,150.7,31.14v-1.5h0A11.77,11.77,0,0,1,162.46,41.41Z" fill="#fff"/>
    </g>
    <path d="M206.2,60A11.54,11.54,0,0,1,194.67,71.5H146.45a10,10,0,1,1,4.89-18.75,6.25,6.25,0,0,1-.38-2.09A6.1,6.1,0,0,1,162,47a15.35,15.35,0,0,1,14.26-14.26c.35,0,.69,0,1,0a15.37,15.37,0,0,1,15.37,15.37c0,.19,0,.38,0,.57a11.81,11.81,0,0,1,2.07-.19A11.52,11.52,0,0,1,206.2,60Z" fill="#00aac8"/>
    <path d="M206.2,60A11.54,11.54,0,0,1,194.67,71.5H176.21V32.75c.35,0,.69,0,1,0a15.37,15.37,0,0,1,15.37,15.37c0,.19,0,.38,0,.57a11.81,11.81,0,0,1,2.07-.19A11.52,11.52,0,0,1,206.2,60Z" fill="#00b4d2"/>
    <path d="M188.9,48.12h-1.5a10.18,10.18,0,0,0-10.18-10.18c-.32,0-.63,0-.94,0l-.14-1.49a9.76,9.76,0,0,1,1.08-.05A11.69,11.69,0,0,1,188.9,48.12Z" fill="#fff"/>
    <g>
      <path d="M190.71,78.91a7.25,7.25,0,0,1-14.5,0c0-4,7.25-14.25,7.25-14.25S190.71,74.91,190.71,78.91Z" fill="#96dcf0"/>
      <path d="M190.71,78.91a7.26,7.26,0,0,1-7.25,7.25V64.66S190.71,74.91,190.71,78.91Z" fill="#a0e6fa"/>
      <path d="M183.46,84.16v-1a4.26,4.26,0,0,0,4.25-4.25h1A5.26,5.26,0,0,1,183.46,84.16Z" fill="#fff"/>
    </g>
    <path d="M171.78,71.73a3.59,3.59,0,0,1-7.17,0c0-2,3.59-7,3.59-7S171.78,69.75,171.78,71.73Z" fill="#96dcf0"/>
    <path d="M171.78,71.73a3.58,3.58,0,0,1-3.58,3.58V64.68S171.78,69.75,171.78,71.73Z" fill="#a0e6fa"/>
  </g>
  <g>
    <path d="M306.57,64.42a25.75,25.75,0,1,1-23.31-36.7,26.1,26.1,0,0,1,4.18.34,21.05,21.05,0,1,0,19.13,36.36Z" fill="#ffdc64"/>
    <path d="M271.89,48.37a21,21,0,0,0,2.85,10.57L263.6,70.08a25.74,25.74,0,0,1,19.66-42.36,26.1,26.1,0,0,1,4.18.34A21.06,21.06,0,0,0,271.89,48.37Z" fill="#ffe664"/>
    <path d="M283.26,76.22a22.77,22.77,0,0,1-22.74-22.75h2a20.77,20.77,0,0,0,20.74,20.75Z" fill="#fff"/>
    <polygon points="291.72 49.01 300.3 50.43 291.72 51.84 290.31 60.43 288.89 51.84 280.31 50.43 288.89 49.01 290.31 40.43 291.72 49.01" fill="#ffe664"/>
    <polygon points="301.73 37.98 306.03 38.68 301.73 39.39 301.03 43.68 300.32 39.39 296.03 38.68 300.32 37.98 301.03 33.68 301.73 37.98" fill="#ffe664"/>
  </g>
  <g>
    <g>
      <path d="M385.09,58.38a20.45,20.45,0,1,1,3.25-32.49,16.75,16.75,0,0,0-19.21,6.65,16.73,16.73,0,0,0,16,25.84Z" fill="#ffdc64"/>
      <path d="M369.13,32.54a16.58,16.58,0,0,0-2.74,8.26l-12.27,2.51a20.46,20.46,0,0,1,31.59-19.48,20.61,20.61,0,0,1,2.63,2.06A16.75,16.75,0,0,0,369.13,32.54Z" fill="#ffe664"/>
      <path d="M364.47,56a18.1,18.1,0,0,1-5.12-25l1.33.88a16.51,16.51,0,0,0,4.66,22.84Z" fill="#fff"/>
    </g>
    <path d="M424.09,60.33a11.52,11.52,0,0,1-11.53,11.52H364.34a10,10,0,1,1,0-20,9.87,9.87,0,0,1,4.89,1.28,6.35,6.35,0,0,1-.38-2.1,6.1,6.1,0,0,1,11-3.65A15.35,15.35,0,0,1,394.1,33.1c.35,0,.69,0,1,0a15.38,15.38,0,0,1,15.37,15.37c0,.2,0,.38,0,.57a11.81,11.81,0,0,1,2.07-.19A11.53,11.53,0,0,1,424.09,60.33Z" fill="#00aac8"/>
    <path d="M424.09,60.33a11.52,11.52,0,0,1-11.53,11.52H394.1V33.1c.35,0,.69,0,1,0a15.38,15.38,0,0,1,15.37,15.37c0,.2,0,.38,0,.57a11.81,11.81,0,0,1,2.07-.19A11.53,11.53,0,0,1,424.09,60.33Z" fill="#00b4d2"/>
    <path d="M406.79,48.47h-1.5a10.19,10.19,0,0,0-10.18-10.18c-.32,0-.63,0-.94.05l-.14-1.5c.36,0,.72-.05,1.08-.05A11.69,11.69,0,0,1,406.79,48.47Z" fill="#fff"/>
    <g>
      <path d="M408.6,79.27a7.25,7.25,0,0,1-14.5,0c0-4,7.25-14.26,7.25-14.26S408.6,75.26,408.6,79.27Z" fill="#96dcf0"/>
      <path d="M408.6,79.27a7.25,7.25,0,0,1-7.25,7.24V65S408.6,75.26,408.6,79.27Z" fill="#a0e6fa"/>
      <path d="M401.35,84.51v-1a4.25,4.25,0,0,0,4.25-4.24h1A5.25,5.25,0,0,1,401.35,84.51Z" fill="#fff"/>
    </g>
    <path d="M389.67,72.08a3.59,3.59,0,0,1-7.17,0c0-2,3.59-7,3.59-7S389.67,70.1,389.67,72.08Z" fill="#96dcf0"/>
    <path d="M389.67,72.08a3.58,3.58,0,0,1-3.58,3.58V65S389.67,70.1,389.67,72.08Z" fill="#a0e6fa"/>
    <polygon points="420.75 35.91 427.19 36.97 420.75 38.03 419.69 44.47 418.63 38.03 412.19 36.97 418.63 35.91 419.69 29.47 420.75 35.91" fill="#ffe664"/>
    <polygon points="409.31 27.51 413.6 28.22 409.31 28.93 408.6 33.22 407.89 28.93 403.6 28.22 407.89 27.51 408.6 23.22 409.31 27.51" fill="#ffe664"/>
  </g>
  <g>
    <path d="M201.39,329.38H152.14a2.5,2.5,0,0,1,0-5h49.25a2.5,2.5,0,0,1,0,5Z" fill="#aaa"/>
    <path d="M200.51,329.32c0,.54,0,1.07-.06,1.58-1.41,20-29.84,19.49-36.86,28.35a7,7,0,0,0-1.46,5.62c.88,6,8.13,7.88,4.63,18.13,0-4.66-7.44-7.44-15.2-11.72-8.41-4.64-17.17-11-17.17-23.53,0-10.55,9.11-15.5,14.08-17.42a24.92,24.92,0,0,1,3.14-1Z" fill="#dcdcdc"/>
    <g>
      <path d="M189.26,336.58H149a.5.5,0,0,1,0-1h40.25a.5.5,0,0,1,0,1Z" fill="#c8c8c8"/>
      <path d="M159.08,340H141a.5.5,0,0,1,0-1h18.13a.5.5,0,1,1,0,1Z" fill="#c8c8c8"/>
      <path d="M170.26,347.69H149a.51.51,0,0,1-.5-.5.5.5,0,0,1,.5-.5h21.25a.5.5,0,0,1,.5.5A.5.5,0,0,1,170.26,347.69Z" fill="#c8c8c8"/>
      <path d="M160.89,356.66H141a.5.5,0,0,1,0-1h19.94a.5.5,0,0,1,0,1Z" fill="#c8c8c8"/>
      <path d="M157,360.56H146.86a.5.5,0,0,1-.5-.5.5.5,0,0,1,.5-.5H157a.5.5,0,0,1,.5.5A.5.5,0,0,1,157,360.56Z" fill="#c8c8c8"/>
    </g>
    <path d="M200.51,329.32c0,.54,0,1.07-.06,1.58a2.46,2.46,0,0,1-.94.18H150.26a2.52,2.52,0,0,1-1.79-.75,24.92,24.92,0,0,1,3.14-1Z" fill="#c8c8c8"/>
    <path d="M203.89,326.87a2.49,2.49,0,0,1-2.5,2.5H152.13a2.5,2.5,0,0,1,0-5h49.26A2.5,2.5,0,0,1,203.89,326.87Z" fill="#e1e1e1"/>
    <path d="M203.89,326.87a2.49,2.49,0,0,1-2.5,2.5H176.76v-5h24.63A2.5,2.5,0,0,1,203.89,326.87Z" fill="#ebebeb"/>
    <path d="M195.57,333c-2,8.09-11,11.45-19.81,14.69l-.94.35.7,1.87.93-.35c9.42-3.47,19.15-7.07,21.18-16.53v0Z" fill="#fff"/>
  </g>
  <g>
    <g>
      <path d="M275.36,285.25a2.5,2.5,0,0,1-2.5-2.5v-55a2.5,2.5,0,0,1,5,0v55A2.5,2.5,0,0,1,275.36,285.25Z" fill="#ebebeb"/>
      <g>
        <path d="M275.36,247a2.5,2.5,0,0,1-1.77-.74l-9.87-9.87a2.5,2.5,0,1,1,3.53-3.54l9.88,9.88a2.51,2.51,0,0,1-1.77,4.27Z" fill="#ebebeb"/>
        <path d="M275.36,247a2.51,2.51,0,0,1-1.77-4.27l9.88-9.88A2.5,2.5,0,1,1,287,236.4l-9.87,9.87A2.5,2.5,0,0,1,275.36,247Z" fill="#ebebeb"/>
      </g>
      <g>
        <path d="M265.49,278.28a2.5,2.5,0,0,1-1.77-4.27l9.87-9.87a2.5,2.5,0,1,1,3.54,3.53l-9.88,9.88A2.45,2.45,0,0,1,265.49,278.28Z" fill="#ebebeb"/>
        <path d="M285.24,278.28a2.49,2.49,0,0,1-1.77-.73l-9.88-9.88a2.5,2.5,0,0,1,3.54-3.53L287,274a2.5,2.5,0,0,1,0,3.54A2.45,2.45,0,0,1,285.24,278.28Z" fill="#ebebeb"/>
      </g>
    </g>
    <path d="M302.86,257.75h-55a2.5,2.5,0,0,1,0-5h55a2.5,2.5,0,0,1,0,5Z" fill="#ebebeb"/>
    <g>
      <path d="M286.1,257.75a2.5,2.5,0,0,1-1.76-4.27l9.87-9.87a2.5,2.5,0,1,1,3.54,3.53L287.87,257A2.53,2.53,0,0,1,286.1,257.75Z" fill="#ebebeb"/>
      <path d="M296,267.62a2.49,2.49,0,0,1-1.77-.73L284.34,257a2.5,2.5,0,0,1,3.53-3.54l9.88,9.88a2.5,2.5,0,0,1-1.77,4.26Z" fill="#ebebeb"/>
    </g>
    <g>
      <path d="M264.7,257.75a2.49,2.49,0,0,1-1.76-.73l-9.88-9.88a2.5,2.5,0,0,1,3.54-3.53l9.87,9.87a2.5,2.5,0,0,1,0,3.54A2.53,2.53,0,0,1,264.7,257.75Z" fill="#ebebeb"/>
      <path d="M254.83,267.62a2.5,2.5,0,0,1-1.77-4.26l9.88-9.88a2.5,2.5,0,1,1,3.53,3.54l-9.87,9.87A2.49,2.49,0,0,1,254.83,267.62Z" fill="#ebebeb"/>
    </g>
    <g>
      <circle cx="275.36" cy="255.25" r="5.5" fill="#fff"/>
      <path d="M275.36,263.25a8,8,0,1,1,8-8A8,8,0,0,1,275.36,263.25Zm0-11a3,3,0,1,0,3,3A3,3,0,0,0,275.36,252.25Z" fill="#ebebeb"/>
    </g>
    <path d="M302.86,252.75H292.14l5.61-5.61a2.5,2.5,0,1,0-3.54-3.53l-9.14,9.14H283a8.09,8.09,0,0,0-5.1-5.1v-2.11L287,236.4a2.5,2.5,0,1,0-3.53-3.54l-5.61,5.61V227.75a2.5,2.5,0,0,0-2.5-2.5v27a3,3,0,1,1,0,6v27a2.5,2.5,0,0,0,2.5-2.5V271.94l5.61,5.61a2.49,2.49,0,0,0,1.77.73,2.45,2.45,0,0,0,1.76-.73,2.5,2.5,0,0,0,0-3.54l-9.14-9.14v-2a8.05,8.05,0,0,0,5.1-5.09h2.11l9.14,9.14a2.5,2.5,0,1,0,3.54-3.53l-5.61-5.61h10.72a2.5,2.5,0,0,0,0-5Z" fill="#f5f5f5"/>
    <g>
      <path d="M303.74,239.37a1.5,1.5,0,0,1-1.5-1.5v-22a1.5,1.5,0,0,1,3,0v22A1.5,1.5,0,0,1,303.74,239.37Z" fill="#ebebeb"/>
      <path d="M314.74,228.37h-22a1.5,1.5,0,0,1,0-3h22a1.5,1.5,0,0,1,0,3Z" fill="#ebebeb"/>
      <path d="M311.52,236.15a1.49,1.49,0,0,1-1.06-.44L294.9,220.16A1.5,1.5,0,0,1,297,218l15.56,15.56a1.51,1.51,0,0,1,0,2.12A1.53,1.53,0,0,1,311.52,236.15Z" fill="#ebebeb"/>
      <path d="M296,236.15a1.51,1.51,0,0,1-1.06-.44,1.49,1.49,0,0,1,0-2.12L310.46,218a1.5,1.5,0,1,1,2.12,2.13L297,235.71A1.51,1.51,0,0,1,296,236.15Z" fill="#ebebeb"/>
      <path d="M305.24,237.87v-7.38l5.22,5.22a1.49,1.49,0,0,0,1.06.44,1.53,1.53,0,0,0,1.06-.44,1.51,1.51,0,0,0,0-2.12l-5.22-5.22h7.38a1.5,1.5,0,0,0,0-3h-7.38l5.22-5.21a1.5,1.5,0,1,0-2.12-2.13l-5.22,5.22v-7.38a1.5,1.5,0,0,0-1.5-1.5v25A1.5,1.5,0,0,0,305.24,237.87Z" fill="#f5f5f5"/>
    </g>
  </g>
  <g>
    <path d="M90.37,153.39a11.52,11.52,0,0,1-11.53,11.53H30.63a10,10,0,1,1,0-20,9.84,9.84,0,0,1,4.88,1.28,6.29,6.29,0,0,1-.37-2.09,6.1,6.1,0,0,1,11-3.65,15.34,15.34,0,0,1,14.26-14.26c.35,0,.7,0,1,0A15.39,15.39,0,0,1,76.81,141.5c0,.19,0,.37,0,.57a11,11,0,0,1,2.07-.2A11.53,11.53,0,0,1,90.37,153.39Z" fill="#00aac8"/>
    <path d="M90.37,153.39a11.52,11.52,0,0,1-11.53,11.53H60.38V126.17c.35,0,.7,0,1,0A15.39,15.39,0,0,1,76.81,141.5c0,.19,0,.37,0,.57a11,11,0,0,1,2.07-.2A11.53,11.53,0,0,1,90.37,153.39Z" fill="#00b4d2"/>
    <path d="M73.08,141.53h-1.5A10.2,10.2,0,0,0,61.4,131.35c-.32,0-.64,0-.95.05l-.14-1.5c.36,0,.72-.05,1.09-.05A11.69,11.69,0,0,1,73.08,141.53Z" fill="#fff"/>
  </g>
  <g>
    <path d="M425.46,254.46A11.52,11.52,0,0,1,413.93,266H365.71a10,10,0,1,1,0-20,9.87,9.87,0,0,1,4.89,1.28,6.35,6.35,0,0,1-.38-2.1,6.1,6.1,0,0,1,11-3.65,15.35,15.35,0,0,1,14.26-14.26c.35,0,.69,0,1,0a15.37,15.37,0,0,1,15.37,15.37c0,.2,0,.38,0,.57a11.81,11.81,0,0,1,2.07-.19A11.53,11.53,0,0,1,425.46,254.46Z" fill="#00aac8"/>
    <path d="M425.46,254.46A11.52,11.52,0,0,1,413.93,266H395.47V227.23c.35,0,.69,0,1,0a15.37,15.37,0,0,1,15.37,15.37c0,.2,0,.38,0,.57a11.81,11.81,0,0,1,2.07-.19A11.53,11.53,0,0,1,425.46,254.46Z" fill="#00b4d2"/>
    <path d="M408.16,242.6h-1.5a10.19,10.19,0,0,0-10.18-10.18c-.32,0-.63,0-.94,0L395.4,231c.36,0,.72-.05,1.08-.05A11.69,11.69,0,0,1,408.16,242.6Z" fill="#fff"/>
    <g>
      <path d="M410,273.4a7.25,7.25,0,0,1-14.5,0c0-4,7.25-14.26,7.25-14.26S410,269.39,410,273.4Z" fill="#96dcf0"/>
      <path d="M410,273.4a7.25,7.25,0,0,1-7.25,7.24v-21.5S410,269.39,410,273.4Z" fill="#a0e6fa"/>
      <path d="M402.72,278.64v-1A4.25,4.25,0,0,0,407,273.4h1A5.25,5.25,0,0,1,402.72,278.64Z" fill="#fff"/>
    </g>
    <path d="M391,266.21a3.58,3.58,0,0,1-7.16,0c0-2,3.58-7,3.58-7S391,264.23,391,266.21Z" fill="#96dcf0"/>
    <path d="M391,266.21a3.58,3.58,0,0,1-3.58,3.58V259.17S391,264.23,391,266.21Z" fill="#a0e6fa"/>
  </g>
  <g>
    <g>
      <path d="M316.93,154a11.54,11.54,0,0,1-11.53,11.53H257.19a10,10,0,1,1,0-20,9.86,9.86,0,0,1,4.88,1.27,6.3,6.3,0,0,1-.38-2.09,6.1,6.1,0,0,1,11-3.65,15.35,15.35,0,0,1,14.26-14.26c.35,0,.69,0,1.05,0a15.37,15.37,0,0,1,15.37,15.37c0,.19,0,.38,0,.57a11.81,11.81,0,0,1,2.07-.19A11.52,11.52,0,0,1,316.93,154Z" fill="#00aac8"/>
      <path d="M316.93,154a11.54,11.54,0,0,1-11.53,11.53H286.94V126.78c.35,0,.69,0,1.05,0a15.37,15.37,0,0,1,15.37,15.37c0,.19,0,.38,0,.57a11.81,11.81,0,0,1,2.07-.19A11.52,11.52,0,0,1,316.93,154Z" fill="#00b4d2"/>
      <path d="M299.64,142.15h-1.5A10.19,10.19,0,0,0,288,132c-.31,0-.63,0-.94,0l-.14-1.49a9.76,9.76,0,0,1,1.08-.05A11.7,11.7,0,0,1,299.64,142.15Z" fill="#fff"/>
    </g>
    <g>
      <g>
        <path d="M300,181.08a.78.78,0,0,1-.78-.78V168.87a.78.78,0,1,1,1.56,0V180.3A.78.78,0,0,1,300,181.08Z" fill="#ebebeb"/>
        <path d="M305.67,175.36H294.23a.78.78,0,1,1,0-1.56h11.44a.78.78,0,1,1,0,1.56Z" fill="#ebebeb"/>
        <path d="M304,179.41a.78.78,0,0,1-.55-.23l-8.09-8.09a.78.78,0,1,1,1.1-1.1l8.09,8.09a.77.77,0,0,1,0,1.1A.78.78,0,0,1,304,179.41Z" fill="#ebebeb"/>
        <path d="M295.9,179.41a.78.78,0,0,1-.55-.23.77.77,0,0,1,0-1.1l8.09-8.09a.78.78,0,0,1,1.1,1.1l-8.09,8.09A.78.78,0,0,1,295.9,179.41Z" fill="#ebebeb"/>
      </g>
      <g>
        <path d="M282,181.08a.78.78,0,0,1-.78-.78V168.87a.78.78,0,1,1,1.56,0V180.3A.78.78,0,0,1,282,181.08Z" fill="#ebebeb"/>
        <path d="M287.75,175.36H276.31a.78.78,0,1,1,0-1.56h11.44a.78.78,0,1,1,0,1.56Z" fill="#ebebeb"/>
        <path d="M286.07,179.41a.78.78,0,0,1-.55-.23l-8.09-8.09a.78.78,0,0,1,1.11-1.1l8.09,8.09a.78.78,0,0,1,0,1.1A.82.82,0,0,1,286.07,179.41Z" fill="#ebebeb"/>
        <path d="M278,179.41a.78.78,0,0,1-.55-1.33l8.09-8.09a.78.78,0,0,1,1.11,1.1l-8.09,8.09A.82.82,0,0,1,278,179.41Z" fill="#ebebeb"/>
      </g>
      <g>
        <path d="M264.11,181.08a.78.78,0,0,1-.78-.78V168.87a.78.78,0,0,1,1.56,0V180.3A.78.78,0,0,1,264.11,181.08Z" fill="#ebebeb"/>
        <path d="M269.83,175.36H258.39a.78.78,0,0,1,0-1.56h11.44a.78.78,0,0,1,0,1.56Z" fill="#ebebeb"/>
        <path d="M268.16,179.41a.82.82,0,0,1-.56-.23l-8.09-8.09a.78.78,0,0,1,1.11-1.1l8.09,8.09a.78.78,0,0,1,0,1.1A.82.82,0,0,1,268.16,179.41Z" fill="#ebebeb"/>
        <path d="M260.07,179.41a.82.82,0,0,1-.56-.23.78.78,0,0,1,0-1.1L267.6,170a.78.78,0,0,1,1.11,1.1l-8.09,8.09A.82.82,0,0,1,260.07,179.41Z" fill="#ebebeb"/>
      </g>
    </g>
  </g>
  <g>
    <g>
      <path d="M425.46,345.08a11.54,11.54,0,0,1-11.53,11.53H365.71a10,10,0,0,1,0-20,9.87,9.87,0,0,1,4.89,1.28,6.3,6.3,0,0,1-.38-2.09,6.1,6.1,0,0,1,11-3.65,15.35,15.35,0,0,1,14.26-14.26c.35,0,.69,0,1,0a15.37,15.37,0,0,1,15.37,15.37c0,.19,0,.37,0,.57a11.81,11.81,0,0,1,2.07-.2A11.53,11.53,0,0,1,425.46,345.08Z" fill="#00aac8"/>
      <path d="M425.46,345.08a11.54,11.54,0,0,1-11.53,11.53H395.47V317.86c.35,0,.69,0,1,0a15.37,15.37,0,0,1,15.37,15.37c0,.19,0,.37,0,.57a11.81,11.81,0,0,1,2.07-.2A11.53,11.53,0,0,1,425.46,345.08Z" fill="#00b4d2"/>
      <path d="M408.16,333.23h-1.5A10.19,10.19,0,0,0,396.48,323c-.32,0-.63,0-.94,0l-.14-1.5c.36,0,.72,0,1.08,0A11.7,11.7,0,0,1,408.16,333.23Z" fill="#fff"/>
    </g>
    <path d="M388.2,360.65l5.87-17.25-13.54,21.25h10l-5.87,17.25c13-20.35,10.58-16.62,13.54-21.25Z" fill="#ffdc00"/>
    <path d="M406.42,351.88l3.3-9.68-7.61,11.93h5.59l-3.29,9.68,7.6-11.93Z" fill="#ffdc00"/>
    <polygon points="394.07 343.4 384.7 362.65 394.07 362.65 384.61 381.9 398.15 360.65 388.2 360.65 394.07 343.4" fill="#fff000"/>
  </g>
  <g>
    <g>
      <path d="M90.37,344.93a11.52,11.52,0,0,1-11.52,11.53H30.63a10,10,0,1,1,0-20,9.9,9.9,0,0,1,4.89,1.27A6.09,6.09,0,0,1,46.12,332a15.35,15.35,0,0,1,14.26-14.26c.35,0,.7,0,1,0A15.37,15.37,0,0,1,76.8,333c0,.19,0,.38,0,.57a11.92,11.92,0,0,1,2.08-.19A11.52,11.52,0,0,1,90.37,344.93Z" fill="#00aac8"/>
      <path d="M90.37,344.93a11.52,11.52,0,0,1-11.52,11.53H60.38V317.71c.35,0,.7,0,1,0A15.37,15.37,0,0,1,76.8,333c0,.19,0,.38,0,.57a11.92,11.92,0,0,1,2.08-.19A11.52,11.52,0,0,1,90.37,344.93Z" fill="#00b4d2"/>
      <path d="M73.08,333.08h-1.5A10.19,10.19,0,0,0,61.4,322.9c-.32,0-.64,0-.95,0l-.14-1.49a9.83,9.83,0,0,1,1.09-.05A11.69,11.69,0,0,1,73.08,333.08Z" fill="#fff"/>
    </g>
    <path d="M76.34,351.73l3.29-9.68L72,354h5.58l-3.29,9.68,7.6-11.93Z" fill="#ffdc00"/>
    <g>
      <path d="M60.12,360.5,66,343.25,52.44,364.5h10l-5.86,17.25c13-20.35,10.58-16.62,13.54-21.25Z" fill="#ffdc00"/>
      <polygon points="65.99 343.25 56.61 362.5 65.99 362.5 56.53 381.75 70.07 360.5 60.12 360.5 65.99 343.25" fill="#fff000"/>
    </g>
    <g>
      <path d="M48,367.27a3.59,3.59,0,0,1-7.17,0c0-2,3.59-7,3.59-7S48,365.29,48,367.27Z" fill="#96dcf0"/>
      <path d="M48,367.27a3.58,3.58,0,0,1-3.58,3.58V360.22S48,365.29,48,367.27Z" fill="#a0e6fa"/>
    </g>
    <g>
      <path d="M35.78,367.27a3.59,3.59,0,0,1-7.17,0c0-2,3.58-7,3.58-7S35.78,365.29,35.78,367.27Z" fill="#96dcf0"/>
      <path d="M35.78,367.27a3.58,3.58,0,0,1-3.59,3.58V360.22S35.78,365.29,35.78,367.27Z" fill="#a0e6fa"/>
    </g>
  </g>
  <g>
    <path d="M169.15,183.44a1.5,1.5,0,0,1-1.5-1.5V123.23a1.5,1.5,0,1,1,3,0v58.71A1.5,1.5,0,0,1,169.15,183.44Z" fill="#646464"/>
    <path d="M169.14,182.68a.9.9,0,0,1-.9-.9V123.25a.9.9,0,0,1,1.8,0v58.53A.9.9,0,0,1,169.14,182.68Z" fill="#646464"/>
    <path d="M144.58,151.26a7,7,0,0,1,4.1,1.05,8.49,8.49,0,0,1,8.18,0,8.51,8.51,0,0,1,8.19,0,8.51,8.51,0,0,1,8.19,0,8.49,8.49,0,0,1,8.18,0,8.51,8.51,0,0,1,8.19,0,7,7,0,0,1,4.1-1.05,7.24,7.24,0,0,1,4,1c-.48-14.38-13.07-25.9-28.56-25.9s-28.08,11.52-28.55,25.9A7.24,7.24,0,0,1,144.58,151.26Z" fill="#ff5000"/>
    <path d="M166.52,187c-2.09,0-4.2-1.72-4.2-5a1.58,1.58,0,0,1,3.15,0c0,1.84,1.09,2.21,1.66,1.55a2.43,2.43,0,0,0,.44-1.55v-4.2a1.58,1.58,0,0,1,3.15,0V182a5.45,5.45,0,0,1-1.2,3.6A4,4,0,0,1,166.52,187Z" fill="#505050"/>
    <path d="M169.15,126.33v24.93a7,7,0,0,1,4.09,1.05,8.49,8.49,0,0,1,8.18,0,8.51,8.51,0,0,1,8.19,0,7,7,0,0,1,4.1-1.05,7.24,7.24,0,0,1,4,1C197.22,137.86,184.63,126.34,169.15,126.33Z" fill="#ff6400"/>
    <g>
      <path d="M164.74,136.83a7.25,7.25,0,0,1-14.5,0c0-4,7.25-14.26,7.25-14.26S164.74,132.82,164.74,136.83Z" fill="#96dcf0"/>
      <path d="M164.74,136.83a7.25,7.25,0,0,1-7.25,7.24v-21.5S164.74,132.82,164.74,136.83Z" fill="#a0e6fa"/>
      <path d="M157.49,142.07v-1a4.25,4.25,0,0,0,4.25-4.24h1A5.25,5.25,0,0,1,157.49,142.07Z" fill="#fff"/>
    </g>
    <path d="M149.75,127.08a3.59,3.59,0,0,1-7.17,0c0-2,3.58-7,3.58-7S149.75,125.1,149.75,127.08Z" fill="#96dcf0"/>
    <path d="M149.75,127.08a3.58,3.58,0,0,1-3.59,3.58V120S149.75,125.1,149.75,127.08Z" fill="#a0e6fa"/>
  </g>
  <g>
    <path d="M395.78,174.06a11.4,11.4,0,1,1-11.39-11.4A11.39,11.39,0,0,1,395.78,174.06Z" fill="#96dcf0"/>
    <rect x="378.69" y="125.13" width="11.39" height="46.04" fill="#96dcf0"/>
    <path d="M390.07,125.13a5.68,5.68,0,1,1-5.68-5.68A5.68,5.68,0,0,1,390.07,125.13Z" fill="#96dcf0"/>
    <path d="M390.08,164.2V125.13h0a5.68,5.68,0,0,0-11.36,0h0V164.2a11.4,11.4,0,1,0,11.39,0Z" fill="#96dcf0"/>
    <path d="M395.78,174.06a11.39,11.39,0,0,1-11.39,11.39v-66a5.68,5.68,0,0,1,5.67,5.69h0V164.2A11.38,11.38,0,0,1,395.78,174.06Z" fill="#a0e6fa"/>
    <path d="M384.39,182.66a8.59,8.59,0,0,1-4.3-16l1.39-.81V127.92l0-2.79a2.89,2.89,0,1,1,5.77,0v2.79h0v37.89l1.4.81a8.6,8.6,0,0,1-4.3,16Z" fill="#a0e6fa"/>
    <path d="M393,174.06a8.62,8.62,0,0,0-4.3-7.44l-1.4-.81V127.92h0v-2.79a2.89,2.89,0,0,0-2.88-2.89v60.42A8.61,8.61,0,0,0,393,174.06Z" fill="#aaf0ff"/>
    <path d="M381.48,140.57v25.24l-1.39.81a8.6,8.6,0,1,0,8.6,0l-1.4-.81V140.57Z" fill="#ff5000"/>
    <path d="M393,174.06a8.62,8.62,0,0,0-4.3-7.44l-1.4-.81V140.57h-2.9v42.09A8.61,8.61,0,0,0,393,174.06Z" fill="#ff6400"/>
    <g>
      <path d="M400.17,163.41c-2.8,0-3.92-1.47-3.95-4.22V148.34h-1.74v-2.61h1.74v-6.11h3.49v6.11h2.62v2.61h-2.62v10.18c0,1.24.19,2,1.45,2a7.78,7.78,0,0,0,1.17-.14v2.84A14.47,14.47,0,0,1,400.17,163.41Z" fill="#646464"/>
      <path d="M405.69,147.79c-1.36,0-2-1-2-2.41v-3.49c0-1.45.63-2.41,2-2.41s2,1,2,2.41v3.49C407.73,146.79,407.07,147.79,405.69,147.79Zm0-1c.72,0,.88-.75.88-1.45v-3.49c0-.74-.13-1.46-.88-1.46s-.87.72-.87,1.46v3.49C404.82,146.08,405,146.83,405.69,146.83Z" fill="#646464"/>
    </g>
  </g>
  <g>
    <g>
      <path d="M316.93,344.84a11.52,11.52,0,0,1-11.53,11.52H257.19a10,10,0,1,1,0-20,9.87,9.87,0,0,1,4.88,1.28,6.35,6.35,0,0,1-.38-2.1,6.1,6.1,0,0,1,11-3.65,15.35,15.35,0,0,1,14.26-14.26c.35,0,.69,0,1.05,0a15.37,15.37,0,0,1,15.37,15.37c0,.2,0,.38,0,.57a11.81,11.81,0,0,1,2.07-.19A11.53,11.53,0,0,1,316.93,344.84Z" fill="#00aac8"/>
      <path d="M316.93,344.84a11.52,11.52,0,0,1-11.53,11.52H286.94V317.61c.35,0,.69,0,1.05,0a15.37,15.37,0,0,1,15.37,15.37c0,.2,0,.38,0,.57a11.81,11.81,0,0,1,2.07-.19A11.53,11.53,0,0,1,316.93,344.84Z" fill="#00b4d2"/>
      <path d="M299.64,333h-1.5A10.2,10.2,0,0,0,288,322.8c-.31,0-.63,0-.94.05l-.14-1.5c.36,0,.72-.05,1.08-.05A11.7,11.7,0,0,1,299.64,333Z" fill="#fff"/>
    </g>
    <g>
      <g>
        <path d="M280.43,372.92a.78.78,0,0,1-.78-.78V360.7a.78.78,0,1,1,1.56,0v11.44A.78.78,0,0,1,280.43,372.92Z" fill="#ebebeb"/>
        <path d="M286.15,367.2H274.71a.78.78,0,1,1,0-1.56h11.44a.78.78,0,1,1,0,1.56Z" fill="#ebebeb"/>
        <path d="M284.48,371.25a.82.82,0,0,1-.56-.23l-8.09-8.09a.78.78,0,0,1,1.11-1.11l8.09,8.09a.8.8,0,0,1,0,1.11A.78.78,0,0,1,284.48,371.25Z" fill="#ebebeb"/>
        <path d="M276.39,371.25a.82.82,0,0,1-.56-.23.8.8,0,0,1,0-1.11l8.09-8.09a.78.78,0,1,1,1.11,1.11L276.94,371A.78.78,0,0,1,276.39,371.25Z" fill="#ebebeb"/>
      </g>
      <g>
        <path d="M262.51,372.92a.78.78,0,0,1-.78-.78V360.7a.78.78,0,1,1,1.56,0v11.44A.78.78,0,0,1,262.51,372.92Z" fill="#ebebeb"/>
        <path d="M268.23,367.2H256.79a.78.78,0,1,1,0-1.56h11.44a.78.78,0,1,1,0,1.56Z" fill="#ebebeb"/>
        <path d="M266.56,371.25A.78.78,0,0,1,266,371l-8.09-8.09a.78.78,0,0,1,1.1-1.11l8.09,8.09a.79.79,0,0,1-.55,1.34Z" fill="#ebebeb"/>
        <path d="M258.47,371.25a.79.79,0,0,1-.55-1.34l8.09-8.09a.78.78,0,1,1,1.1,1.11L259,371A.78.78,0,0,1,258.47,371.25Z" fill="#ebebeb"/>
      </g>
    </g>
    <g>
      <path d="M306.58,359.21a7.25,7.25,0,0,1-14.5,0c0-4,7.25-14.26,7.25-14.26S306.58,355.2,306.58,359.21Z" fill="#96dcf0"/>
      <path d="M306.58,359.21a7.25,7.25,0,0,1-7.25,7.24V345S306.58,355.2,306.58,359.21Z" fill="#a0e6fa"/>
      <path d="M299.33,364.45v-1a4.25,4.25,0,0,0,4.25-4.24h1A5.25,5.25,0,0,1,299.33,364.45Z" fill="#fff"/>
    </g>
  </g>
  <g>
    <path d="M64.85,277.49a28.56,28.56,0,0,1-13.39,5.24s5.62-1.28,6.44-9.76a6.11,6.11,0,0,0-.39-2.82c-2.38-6.33-14-10.74-14-16.53,0-.17,27-10,31.12-1.8C77.61,258.13,74.58,270.36,64.85,277.49Z" fill="#e1e1e1"/>
    <path d="M78.41,245.38c-17,1.85-31.47-2.17-32.21-9a6,6,0,0,1,1-3.89c-10.48,1.73-17.95,6.29-17.95,11.65,0,6.85,12.23,12.4,27.31,12.4,14.77,0,26.79-5.32,27.29-12C82.13,244.91,80.29,245.18,78.41,245.38Z" fill="#e1e1e1"/>
    <path d="M86.54,229.3c0,6.85-13.9,12.4-31.05,12.4s-31-5.55-31-12.4,13.9-12.41,31.05-12.41S86.54,222.45,86.54,229.3Z" fill="#e1e1e1"/>
    <g>
      <path d="M83.9,244.59c-1.77.32-3.61.59-5.49.79-8.88,1-17,.33-22.92-1.46v12.62h1.12C71.38,256.55,83.4,251.23,83.9,244.59Z" fill="#ebebeb"/>
      <path d="M55.49,216.89V241.7c17.15,0,31.05-5.55,31.05-12.4S72.64,216.89,55.49,216.89Z" fill="#ebebeb"/>
    </g>
    <path d="M83.84,229.3H82c0-1.84-8.27-7.91-26.55-7.91v-1.8C73.06,219.59,83.84,225.25,83.84,229.3Z" fill="#fff"/>
  </g>
</svg>
