<svg width="301" height="301" viewBox="0 0 301 301" fill="none" xmlns="http://www.w3.org/2000/svg">
<g id="CircleDotLoader">
<path id="Intersect" d="M150.995 285.027C225.538 285.027 285.966 224.599 285.966 150.056C285.966 75.5135 225.538 15.0848 150.995 15.0848C76.4524 15.0848 16.0237 75.5135 16.0237 150.056C16.0237 224.599 76.4524 285.027 150.995 285.027Z" fill="url(#paint0_linear)"/>
<path id="Subtract" fill-rule="evenodd" clip-rule="evenodd" d="M284.617 218.14C322.219 144.342 292.877 54.0354 219.079 16.4336C145.281 -21.1682 54.9742 8.17434 17.3724 81.972C-20.2294 155.77 9.11313 246.077 82.9108 283.679C156.708 321.28 247.016 291.938 284.617 218.14ZM253.988 120.644C257.917 122.646 262.725 121.084 264.727 117.155C266.729 113.226 265.166 108.418 261.237 106.416C257.309 104.414 252.501 105.976 250.499 109.905C248.497 113.834 250.059 118.642 253.988 120.644ZM231.538 98.9168C229.536 102.846 224.729 104.408 220.8 102.406C216.871 100.404 215.309 95.5963 217.31 91.6674C219.312 87.7385 224.12 86.1763 228.049 88.1782C231.978 90.18 233.54 94.9879 231.538 98.9168ZM241.02 86.8063C244.218 88.4357 248.131 87.1642 249.761 83.9663C251.39 80.7684 250.118 76.8551 246.921 75.2257C243.723 73.5963 239.809 74.8678 238.18 78.0657C236.55 81.2636 237.822 85.1769 241.02 86.8063ZM217.82 73.8725C216.191 77.0704 212.278 78.3419 209.08 76.7125C205.882 75.0831 204.61 71.1698 206.24 67.9719C207.869 64.774 211.783 63.5025 214.98 65.1319C218.178 66.7613 219.45 70.6746 217.82 73.8725ZM213.061 59.1877C215.275 60.3158 217.984 59.4355 219.112 57.2215C220.24 55.0076 219.36 52.2984 217.146 51.1703C214.932 50.0422 212.223 50.9226 211.095 53.1365C209.967 55.3504 210.847 58.0596 213.061 59.1877ZM231.256 70.2212C230.629 71.4511 229.124 71.9401 227.894 71.3135C226.664 70.6868 226.175 69.1817 226.802 67.9517C227.429 66.7217 228.934 66.2328 230.164 66.8594C231.394 67.4861 231.883 68.9912 231.256 70.2212ZM220.039 67.6227C220.777 67.9987 221.68 67.7053 222.056 66.9673C222.432 66.2294 222.138 65.3263 221.4 64.9503C220.662 64.5743 219.759 64.8677 219.383 65.6057C219.007 66.3436 219.301 67.2467 220.039 67.6227ZM225.428 83.9879C225.178 84.4799 224.576 84.6755 224.084 84.4249C223.592 84.1742 223.396 83.5721 223.647 83.0801C223.897 82.5882 224.5 82.3926 224.992 82.6432C225.483 82.8939 225.679 83.496 225.428 83.9879ZM239.729 118.424C240.221 118.675 240.823 118.479 241.073 117.987C241.324 117.495 241.128 116.893 240.637 116.642C240.145 116.392 239.543 116.587 239.292 117.079C239.041 117.571 239.237 118.173 239.729 118.424ZM248.324 93.298C248.074 93.7899 247.472 93.9855 246.98 93.7349C246.488 93.4842 246.292 92.8822 246.543 92.3902C246.793 91.8982 247.396 91.7026 247.887 91.9533C248.379 92.2039 248.575 92.806 248.324 93.298ZM223.989 61.1782C224.235 61.3035 224.536 61.2057 224.662 60.9597C224.787 60.7137 224.689 60.4127 224.443 60.2874C224.197 60.162 223.896 60.2598 223.771 60.5058C223.646 60.7518 223.743 61.0528 223.989 61.1782ZM237.145 95.6035C237.019 95.8495 236.718 95.9473 236.472 95.822C236.226 95.6966 236.128 95.3956 236.254 95.1496C236.379 94.9036 236.68 94.8058 236.926 94.9311C237.172 95.0565 237.27 95.3575 237.145 95.6035ZM265.44 102.467C265.686 102.593 265.987 102.495 266.113 102.249C266.238 102.003 266.14 101.702 265.894 101.577C265.648 101.451 265.347 101.549 265.222 101.795C265.096 102.041 265.194 102.342 265.44 102.467ZM210.479 86.4318C210.353 86.6778 210.052 86.7756 209.806 86.6503C209.56 86.525 209.463 86.2239 209.588 85.9779C209.713 85.7319 210.014 85.6341 210.26 85.7595C210.506 85.8848 210.604 86.1858 210.479 86.4318ZM180.75 57.4031C182.964 58.5312 185.673 57.6509 186.801 55.437C187.929 53.223 187.049 50.5138 184.835 49.3858C182.621 48.2577 179.912 49.138 178.784 51.3519C177.656 53.5658 178.536 56.275 180.75 57.4031ZM170.21 43.4579C169.082 45.6718 166.373 46.5521 164.159 45.424C161.945 44.2959 161.065 41.5868 162.193 39.3728C163.321 37.1589 166.03 36.2786 168.244 37.4067C170.458 38.5348 171.338 41.2439 170.21 43.4579ZM148.347 54.1213C150.561 55.2494 153.271 54.3691 154.399 52.1551C155.527 49.9412 154.647 47.232 152.433 46.104C150.219 44.9759 147.509 45.8562 146.381 48.0701C145.253 50.284 146.133 52.9932 148.347 54.1213ZM131.517 53.5545C130.389 55.7685 127.68 56.6488 125.466 55.5207C123.252 54.3926 122.372 51.6834 123.5 49.4695C124.628 47.2556 127.337 46.3753 129.551 47.5033C131.765 48.6314 132.645 51.3406 131.517 53.5545ZM96.6425 58.0266C98.8565 59.1547 101.566 58.2744 102.694 56.0604C103.822 53.8465 102.942 51.1373 100.728 50.0092C98.5136 48.8811 95.8044 49.7615 94.6764 51.9754C93.5483 54.1893 94.4285 56.8985 96.6425 58.0266ZM59.9934 165.493C58.8654 167.707 56.1562 168.587 53.9422 167.459C51.7282 166.331 50.848 163.622 51.9761 161.408C53.1041 159.194 55.8133 158.313 58.0273 159.442C60.2413 160.57 61.1215 163.279 59.9934 165.493ZM88.7476 244.4C90.9616 245.528 93.6708 244.648 94.7988 242.434C95.9269 240.22 95.0467 237.511 92.8327 236.383C90.6187 235.255 87.9095 236.135 86.7815 238.349C85.6534 240.563 86.5336 243.272 88.7476 244.4ZM89.5407 80.0559C88.538 82.0238 86.1299 82.8063 84.1618 81.8036C82.1938 80.8008 81.4114 78.3927 82.4141 76.4247C83.4169 74.4568 85.825 73.6743 87.793 74.677C89.761 75.6798 90.5434 78.0879 89.5407 80.0559ZM65.6647 85.096C67.6327 86.0988 70.0409 85.3162 71.0436 83.3483C72.0463 81.3804 71.2639 78.9722 69.2959 77.9695C67.3279 76.9667 64.9197 77.7492 63.917 79.7172C62.9143 81.6851 63.6967 84.0932 65.6647 85.096ZM52.9099 105.121C52.1578 106.597 50.3516 107.183 48.8757 106.431C47.3999 105.679 46.8129 103.873 47.565 102.397C48.317 100.921 50.1232 100.335 51.5991 101.086C53.0749 101.838 53.6619 103.645 52.9099 105.121ZM53.6492 123.632C55.1251 124.384 56.9313 123.797 57.6834 122.321C58.4354 120.845 57.8484 119.039 56.3726 118.287C54.8967 117.535 53.0905 118.122 52.3385 119.598C51.5864 121.074 52.1734 122.88 53.6492 123.632ZM44.5076 141.585C43.8809 142.815 42.3757 143.304 41.1458 142.678C39.9159 142.051 39.4268 140.546 40.0535 139.316C40.6802 138.086 42.1854 137.597 43.4153 138.224C44.6451 138.85 45.1343 140.355 44.5076 141.585ZM49.5888 150.261C50.8186 150.888 52.3238 150.399 52.9505 149.169C53.5772 147.939 53.0881 146.434 51.8582 145.807C50.6284 145.181 49.1232 145.67 48.4965 146.9C47.8698 148.13 48.3589 149.635 49.5888 150.261ZM65.5332 105.474C64.9065 106.704 63.4013 107.193 62.1714 106.566C60.9416 105.94 60.4524 104.435 61.0791 103.205C61.7058 101.975 63.211 101.486 64.4409 102.112C65.6708 102.739 66.1599 104.244 65.5332 105.474ZM62.6732 216.257C63.9031 216.884 65.4083 216.395 66.035 215.165C66.6617 213.935 66.1726 212.43 64.9427 211.803C63.7128 211.176 62.2076 211.665 61.5809 212.895C60.9542 214.125 61.4433 215.63 62.6732 216.257ZM123.978 245.05C123.351 246.28 121.846 246.769 120.616 246.143C119.386 245.516 118.897 244.011 119.524 242.781C120.15 241.551 121.656 241.062 122.885 241.689C124.115 242.315 124.604 243.82 123.978 245.05ZM100.33 72.3287C101.56 72.9554 103.065 72.4664 103.692 71.2364C104.319 70.0064 103.829 68.5013 102.6 67.8746C101.37 67.248 99.8645 67.737 99.2378 68.9669C98.6111 70.1969 99.1002 71.702 100.33 72.3287ZM125.874 66.422C125.247 67.652 123.742 68.141 122.512 67.5144C121.282 66.8877 120.793 65.3825 121.42 64.1526C122.046 62.9226 123.552 62.4336 124.781 63.0603C126.011 63.6869 126.5 65.1921 125.874 66.422ZM113.104 45.076C114.334 45.7027 115.839 45.2137 116.466 43.9837C117.093 42.7538 116.604 41.2486 115.374 40.622C114.144 39.9953 112.639 40.4843 112.012 41.7143C111.385 42.9442 111.874 44.4494 113.104 45.076ZM141.258 50.1078C140.631 51.3377 139.126 51.8267 137.896 51.2001C136.666 50.5734 136.177 49.0682 136.804 47.8383C137.43 46.6083 138.936 46.1193 140.165 46.746C141.395 47.3726 141.884 48.8778 141.258 50.1078ZM186.473 44.1347C187.703 44.7613 189.208 44.2723 189.835 43.0424C190.461 41.8124 189.972 40.3072 188.742 39.6806C187.512 39.0539 186.007 39.5429 185.381 40.7729C184.754 42.0029 185.243 43.508 186.473 44.1347ZM44.9741 160.427C44.3474 161.657 42.8422 162.146 41.6123 161.52C40.3824 160.893 39.8933 159.388 40.52 158.158C41.1467 156.928 42.6519 156.439 43.8818 157.066C45.1117 157.692 45.6008 159.197 44.9741 160.427ZM62.29 195.471C63.2739 195.972 64.478 195.581 64.9794 194.597C65.4808 193.613 65.0894 192.409 64.1055 191.908C63.1216 191.406 61.9175 191.798 61.4161 192.782C60.9148 193.766 61.3061 194.97 62.29 195.471ZM72.3676 232.293C71.9916 233.031 71.0884 233.325 70.3505 232.949C69.6126 232.573 69.3191 231.67 69.6951 230.932C70.0712 230.194 70.9743 229.9 71.7122 230.276C72.4501 230.652 72.7436 231.555 72.3676 232.293ZM77.55 65.7656C78.288 66.1416 79.1911 65.8482 79.5671 65.1102C79.9431 64.3722 79.6497 63.4691 78.9117 63.0931C78.1738 62.7171 77.2707 63.0105 76.8947 63.7485C76.5186 64.4865 76.8121 65.3896 77.55 65.7656ZM140.048 56.1399C139.672 56.8779 138.769 57.1713 138.031 56.7953C137.293 56.4193 137 55.5162 137.376 54.7782C137.752 54.0402 138.655 53.7468 139.393 54.1228C140.131 54.4988 140.424 55.4019 140.048 56.1399ZM87.0885 229.704C87.8265 230.08 88.7296 229.786 89.1056 229.048C89.4816 228.31 89.1881 227.407 88.4502 227.031C87.7123 226.655 86.8092 226.949 86.4332 227.687C86.0571 228.425 86.3506 229.328 87.0885 229.704ZM109.486 250.991C109.235 251.483 108.633 251.679 108.141 251.428C107.649 251.178 107.453 250.575 107.704 250.084C107.955 249.592 108.557 249.396 109.049 249.647C109.541 249.897 109.736 250.499 109.486 250.991ZM155.146 40.2853C155.638 40.536 156.24 40.3404 156.491 39.8484C156.741 39.3564 156.546 38.7544 156.054 38.5037C155.562 38.253 154.96 38.4486 154.709 38.9406C154.458 39.4326 154.654 40.0347 155.146 40.2853ZM206.132 51.0099C205.881 51.5019 205.279 51.6975 204.787 51.4469C204.295 51.1962 204.1 50.5941 204.35 50.1022C204.601 49.6102 205.203 49.4146 205.695 49.6652C206.187 49.9159 206.383 50.518 206.132 51.0099ZM129.547 250.273C130.039 250.523 130.641 250.328 130.892 249.836C131.143 249.344 130.947 248.742 130.455 248.491C129.963 248.24 129.361 248.436 129.11 248.928C128.86 249.42 129.055 250.022 129.547 250.273ZM70.0218 213.893C69.7712 214.385 69.1691 214.581 68.6771 214.33C68.1852 214.079 67.9895 213.477 68.2402 212.985C68.4909 212.493 69.093 212.298 69.5849 212.548C70.0769 212.799 70.2725 213.401 70.0218 213.893ZM188.469 58.1372C188.961 58.3878 189.563 58.1922 189.813 57.7003C190.064 57.2083 189.868 56.6062 189.376 56.3555C188.884 56.1049 188.282 56.3005 188.032 56.7925C187.781 57.2844 187.977 57.8865 188.469 58.1372ZM159.337 56.3112C159.086 56.8032 158.484 56.9988 157.992 56.7481C157.5 56.4975 157.305 55.8954 157.555 55.4034C157.806 54.9114 158.408 54.7158 158.9 54.9665C159.392 55.2172 159.588 55.8192 159.337 56.3112ZM139.384 258.525C139.876 258.776 140.478 258.58 140.728 258.088C140.979 257.596 140.783 256.994 140.291 256.743C139.8 256.493 139.197 256.688 138.947 257.18C138.696 257.672 138.892 258.274 139.384 258.525ZM46.8512 191C46.6005 191.492 45.9985 191.687 45.5065 191.437C45.0146 191.186 44.8189 190.584 45.0696 190.092C45.3203 189.6 45.9223 189.404 46.4143 189.655C46.9062 189.906 47.1019 190.508 46.8512 191ZM49.8175 115.3C50.3095 115.551 50.9115 115.355 51.1622 114.863C51.4129 114.371 51.2172 113.769 50.7253 113.518C50.2333 113.268 49.6313 113.463 49.3806 113.955C49.1299 114.447 49.3256 115.049 49.8175 115.3ZM121.925 31.9238C121.674 32.4158 121.072 32.6114 120.58 32.3607C120.088 32.11 119.892 31.508 120.143 31.016C120.394 30.524 120.996 30.3284 121.488 30.5791C121.98 30.8297 122.175 31.4318 121.925 31.9238ZM169.537 53.5701C170.028 53.8207 170.631 53.6251 170.881 53.1331C171.132 52.6412 170.936 52.0391 170.444 51.7884C169.952 51.5378 169.35 51.7334 169.1 52.2253C168.849 52.7173 169.045 53.3194 169.537 53.5701ZM78.6631 81.2509C78.4125 81.7429 77.8104 81.9385 77.3184 81.6878C76.8265 81.4372 76.6308 80.8351 76.8815 80.3431C77.1322 79.8511 77.7343 79.6555 78.2262 79.9062C78.7182 80.1569 78.9138 80.7589 78.6631 81.2509ZM142.869 249.616C143.115 249.741 143.416 249.643 143.542 249.398C143.667 249.152 143.569 248.85 143.323 248.725C143.077 248.6 142.776 248.698 142.651 248.944C142.525 249.19 142.623 249.491 142.869 249.616ZM81.0579 218.907C80.9325 219.153 80.6315 219.251 80.3855 219.126C80.1395 219 80.0417 218.699 80.1671 218.453C80.2924 218.207 80.5934 218.109 80.8394 218.235C81.0854 218.36 81.1832 218.661 81.0579 218.907ZM68.164 90.1557C68.41 90.281 68.7111 90.1832 68.8364 89.9372C68.9617 89.6912 68.8639 89.3902 68.6179 89.2648C68.372 89.1395 68.0709 89.2373 67.9456 89.4833C67.8202 89.7293 67.9181 90.0303 68.164 90.1557ZM202.042 61.637C201.917 61.883 201.616 61.9808 201.37 61.8554C201.124 61.7301 201.026 61.4291 201.151 61.1831C201.277 60.9371 201.578 60.8393 201.824 60.9646C202.07 61.09 202.168 61.391 202.042 61.637ZM199.389 48.0968C199.635 48.2221 199.936 48.1243 200.062 47.8783C200.187 47.6323 200.089 47.3313 199.843 47.206C199.597 47.0806 199.296 47.1784 199.171 47.4244C199.046 47.6704 199.143 47.9715 199.389 48.0968ZM44.0469 186.375C43.9216 186.621 43.6205 186.719 43.3746 186.594C43.1286 186.468 43.0308 186.167 43.1561 185.921C43.2814 185.675 43.5825 185.578 43.8285 185.703C44.0744 185.828 44.1723 186.129 44.0469 186.375ZM155.9 258.059C156.146 258.184 156.447 258.086 156.572 257.84C156.698 257.594 156.6 257.293 156.354 257.168C156.108 257.042 155.807 257.14 155.682 257.386C155.556 257.632 155.654 257.933 155.9 258.059Z" fill="#2F2E2E"/>
</g>
<defs>
<linearGradient id="paint0_linear" x1="203.129" y1="-83.2934" x2="377.051" y2="279.128" gradientUnits="userSpaceOnUse">
<stop stop-color="#3C21D3"/>
<stop offset="1" stop-color="#FF453A"/>
</linearGradient>
</defs>
</svg>
