<svg width="528" height="251" viewBox="0 0 528 251" fill="none"
     xmlns="http://www.w3.org/2000/svg">

    <g id="React">
        <g id="IconBox">
            <g id="Holders">
                <g id="circle">
                    <circle id="thin" cx="268" cy="125.5" r="123.5"
                            stroke="#61DAFB" stroke-width="3"
                            stroke-linecap="round" stroke-linejoin="round"
                            stroke-dasharray="1 1"/>
                </g>
            </g>
        </g>
        <g id="React_2">
            <g id="reactVector">
                <g id="Group">
                    <path id="Vector"
                          d="M346.397 125.844C346.397 115.485 332.62 105.668 311.498 99.58C316.373 79.3081 314.206 63.1798 304.661 58.0162C302.461 56.805 299.888 56.2313 297.079 56.2313V63.3392C298.636 63.3392 299.888 63.6261 300.937 64.1679C305.541 66.6541 307.538 76.1207 305.981 88.2966C305.609 91.2927 304.999 94.4483 304.255 97.6675C297.62 96.1376 290.377 94.9582 282.761 94.1933C278.191 88.2966 273.452 82.9417 268.679 78.2562C279.714 68.5984 290.072 63.3073 297.113 63.3073V56.1994C287.804 56.1994 275.618 62.4467 263.297 73.2839C250.976 62.5105 238.791 56.3269 229.482 56.3269V63.4348C236.489 63.4348 246.881 68.694 257.915 78.2881C253.177 82.9736 248.438 88.2966 243.936 94.1933C236.286 94.9582 229.042 96.1376 222.408 97.6994C221.629 94.512 221.054 91.4202 220.648 88.4559C219.057 76.28 221.02 66.8135 225.59 64.2954C226.605 63.7217 227.925 63.4667 229.482 63.4667V56.3588C226.639 56.3588 224.066 56.9325 221.832 58.1437C212.321 63.3073 210.188 79.4037 215.096 99.6118C194.042 105.732 180.334 115.517 180.334 125.844C180.334 136.203 194.11 146.02 215.232 152.108C210.358 172.38 212.524 188.509 222.069 193.672C224.27 194.883 226.842 195.457 229.685 195.457C238.994 195.457 251.179 189.21 263.501 178.373C275.822 189.146 288.007 195.33 297.316 195.33C300.159 195.33 302.731 194.756 304.966 193.545C314.477 188.381 316.61 172.285 311.701 152.077C332.688 145.989 346.397 136.171 346.397 125.844ZM302.325 104.584C301.073 108.696 299.516 112.935 297.756 117.174C296.368 114.625 294.912 112.075 293.321 109.525C291.764 106.975 290.106 104.489 288.447 102.066C293.254 102.736 297.891 103.564 302.325 104.584ZM286.822 138.53C284.182 142.833 281.474 146.913 278.665 150.706C273.621 151.12 268.51 151.343 263.365 151.343C258.254 151.343 253.143 151.12 248.133 150.738C245.324 146.945 242.582 142.897 239.942 138.626C237.369 134.45 235.034 130.211 232.901 125.94C235 121.669 237.369 117.398 239.908 113.222C242.548 108.919 245.256 104.839 248.065 101.046C253.109 100.632 258.22 100.409 263.365 100.409C268.476 100.409 273.588 100.632 278.597 101.014C281.407 104.807 284.148 108.855 286.789 113.126C289.361 117.302 291.697 121.541 293.829 125.812C291.697 130.083 289.361 134.355 286.822 138.53ZM297.756 134.386C299.583 138.658 301.141 142.929 302.427 147.072C297.993 148.092 293.321 148.953 288.481 149.622C290.14 147.168 291.798 144.65 293.355 142.068C294.912 139.518 296.368 136.936 297.756 134.386ZM263.433 168.396C260.285 165.336 257.137 161.926 254.023 158.196C257.069 158.324 260.183 158.419 263.331 158.419C266.513 158.419 269.661 158.356 272.741 158.196C269.695 161.926 266.547 165.336 263.433 168.396ZM238.249 149.622C233.443 148.953 228.805 148.124 224.371 147.104C225.624 142.992 227.181 138.753 228.941 134.514C230.329 137.064 231.784 139.614 233.375 142.164C234.966 144.714 236.591 147.2 238.249 149.622ZM263.264 83.2923C266.412 86.3522 269.559 89.7628 272.674 93.492C269.627 93.3645 266.513 93.2689 263.365 93.2689C260.183 93.2689 257.035 93.3327 253.955 93.492C257.002 89.7628 260.149 86.3522 263.264 83.2923ZM238.215 102.066C236.557 104.52 234.898 107.039 233.341 109.62C231.784 112.17 230.329 114.72 228.941 117.27C227.113 112.999 225.556 108.728 224.27 104.584C228.704 103.596 233.375 102.736 238.215 102.066ZM207.582 141.972C195.599 137.159 187.848 130.848 187.848 125.844C187.848 120.84 195.599 114.497 207.582 109.716C210.493 108.537 213.675 107.485 216.958 106.497C218.888 112.744 221.426 119.246 224.574 125.908C221.46 132.538 218.955 139.008 217.06 145.224C213.709 144.236 210.527 143.152 207.582 141.972ZM225.793 187.52C221.189 185.034 219.192 175.568 220.749 163.392C221.122 160.396 221.731 157.24 222.476 154.021C229.11 155.551 236.354 156.73 243.97 157.495C248.539 163.392 253.278 168.747 258.051 173.432C247.016 183.09 236.658 188.381 229.618 188.381C228.094 188.349 226.808 188.062 225.793 187.52ZM306.083 163.232C307.673 175.408 305.71 184.875 301.141 187.393C300.125 187.967 298.805 188.222 297.248 188.222C290.241 188.222 279.85 182.962 268.815 173.368C273.554 168.683 278.293 163.36 282.794 157.463C290.444 156.698 297.688 155.519 304.322 153.957C305.101 157.176 305.71 160.268 306.083 163.232ZM319.114 141.972C316.203 143.152 313.022 144.204 309.738 145.192C307.809 138.944 305.27 132.442 302.122 125.78C305.236 119.151 307.741 112.68 309.637 106.465C312.988 107.453 316.169 108.537 319.148 109.716C331.131 114.529 338.882 120.84 338.882 125.844C338.848 130.848 331.097 137.191 319.114 141.972Z"
                          fill="#61DAFB"/>
                    <path id="Vector_2"
                          d="M263.819 140.411C272.363 140.411 279.288 133.889 279.288 125.844C279.288 117.799 272.363 111.278 263.819 111.278C255.276 111.278 248.35 117.799 248.35 125.844C248.35 133.889 255.276 140.411 263.819 140.411Z"
                          fill="#61DAFB"/>
                </g>
            </g>
        </g>
    </g>
</svg>
