<svg width="141" height="139" viewBox="0 0 141 139" fill="none" xmlns="http://www.w3.org/2000/svg">
<g id="roundLoaing">
<mask id="mask0" mask-type="alpha" maskUnits="userSpaceOnUse" x="0" y="0" width="141" height="139">
<path id="outercirlce" d="M139.684 68.818C138.993 68.818 138.435 69.3823 138.422 70.0725C137.753 106.773 107.794 136.318 70.9336 136.318C33.6544 136.318 3.4336 106.097 3.4336 68.818C3.4336 36.6651 25.9144 9.76286 56.0152 2.97211C56.6852 2.82097 57.1203 2.16365 56.9809 1.49118L56.7301 0.281017C56.7294 0.277349 56.7258 0.274992 56.7221 0.275753V0.275753C55.7434 0.478673 54.7706 0.702233 53.8042 0.946117C41.9754 3.93135 31.1137 9.96173 22.3122 18.4596C12.7901 27.6533 6.06969 39.3583 2.93063 52.2169C-0.208431 65.0754 0.362499 78.5604 4.57719 91.1076C8.79188 103.655 16.4776 114.75 26.7428 123.106C37.0079 131.462 49.4318 136.736 62.5732 138.317C75.7146 139.898 89.0349 137.72 100.989 132.037C112.943 126.354 123.041 117.398 130.111 106.209C136.646 95.8659 140.347 84.0064 140.869 71.818C140.894 71.2353 140.912 70.6519 140.922 70.0679C140.935 69.3776 140.374 68.818 139.684 68.818V68.818Z" fill="black"/>
</mask>
<g mask="url(#mask0)">
<path id="Vector" d="M-3.12769 19.4914L-3.12769 119.595C-3.12769 131.193 6.27431 140.595 17.8723 140.595H129.052C140.65 140.595 150.052 131.193 150.052 119.595V19.4913C150.052 7.89337 140.65 -1.50865 129.052 -1.50865H17.8723C6.27434 -1.50865 -3.12769 7.89337 -3.12769 19.4914Z" fill="url(#paint0_linear)"/>
</g>
<mask id="mask1" mask-type="alpha" maskUnits="userSpaceOnUse" x="5" y="3" width="131" height="126">
<path id="outter-cirlce1" d="M133.421 67.5636C133.435 68.2538 133.993 68.818 134.684 68.818V68.818C135.374 68.818 135.935 68.2583 135.922 67.568C135.91 66.984 135.891 66.4006 135.864 65.818C135.371 55.1381 132.249 44.7279 126.757 35.5195C120.751 25.4508 112.133 17.1939 101.817 11.6235C91.501 6.05304 79.8703 3.37648 68.1571 3.87729C56.4438 4.3781 45.084 8.03762 35.281 14.4682C25.478 20.8989 17.5968 29.8612 12.4721 40.4058C7.34743 50.9504 5.17013 62.6848 6.17083 74.366C7.17153 86.0472 11.313 97.2403 18.1565 106.76C24.4152 115.466 32.7208 122.475 42.3205 127.181C43.2111 127.618 44.1128 128.035 45.0251 128.431V128.431C45.0359 128.436 45.0485 128.431 45.0531 128.42L45.5395 127.3C45.8127 126.671 45.523 125.94 44.8996 125.654C23.3795 115.781 8.43362 94.0448 8.43362 68.818C8.43362 34.3002 36.4158 6.31796 70.9336 6.31796C105.032 6.31796 132.753 33.6248 133.421 67.5636Z" fill="black"/>
</mask>
<g mask="url(#mask1)">
<path id="Vector_2" d="M-5.67529 -19.6465V130.01C-5.66014 132.836 -3.7237 135.544 -0.288769 137.543C3.14616 139.541 7.80058 140.668 12.6583 140.677H133.821C138.676 140.666 143.328 139.539 146.76 137.54C150.193 135.542 152.128 132.835 152.143 130.01V-10.0367C68.5555 15.168 20.8538 0.355452 -5.67529 -19.6465Z" fill="url(#paint1_linear)"/>
</g>
<mask id="mask2" mask-type="alpha" maskUnits="userSpaceOnUse" x="10" y="8" width="121" height="120">
<path id="inner-circle3" d="M128.42 67.5638C128.435 68.254 128.993 68.818 129.684 68.818V68.818C130.374 68.818 130.935 68.2582 130.921 67.568C130.908 66.9839 130.888 66.4005 130.859 65.818C130.344 55.5296 127.187 45.5285 121.67 36.7893C115.618 27.2026 106.974 19.5268 96.739 14.6508C86.5041 9.77486 75.0972 7.8984 63.8397 9.23879C52.5822 10.5792 41.9348 15.0816 33.131 22.2244C24.3271 29.3672 17.727 38.8582 14.0954 49.5978C10.4637 60.3374 9.94906 71.8861 12.611 82.9062C15.273 93.9263 21.0027 103.967 29.1363 111.864C36.551 119.064 45.6868 124.214 55.6481 126.838C56.6118 127.092 57.5833 127.322 58.5616 127.529V127.529C58.5653 127.529 58.5689 127.527 58.5697 127.523L58.8246 126.313C58.9662 125.641 58.5331 124.982 57.8637 124.826C32.4041 118.908 13.4336 96.0785 13.4336 68.818C13.4336 37.0616 39.1772 11.318 70.9336 11.318C102.271 11.318 127.753 36.3866 128.42 67.5638Z" fill="black"/>
</mask>
<g mask="url(#mask2)">
<path id="Vector_3" d="M-6.89453 1.95956L-6.89453 136.417H138.991V1.95956H-6.89453Z" fill="url(#paint2_linear)"/>
</g>
<mask id="mask3" mask-type="alpha" maskUnits="userSpaceOnUse" x="15" y="13" width="111" height="111">
<path id="inner-circle2" d="M79.6079 17.5382C80.422 17.6749 81.2082 17.151 81.3692 16.3413L81.6596 14.8809C81.6604 14.8772 81.658 14.8736 81.6543 14.8729C80.6733 14.6779 79.689 14.5101 78.7026 14.3694C68.5103 12.915 58.092 14.3485 48.6432 18.5374C38.278 23.1325 29.5861 30.8188 23.7575 40.544C17.9289 50.2693 15.2483 61.5583 16.0828 72.8657C16.9172 84.1731 21.2258 94.9463 28.4189 103.711C35.612 112.475 45.3379 118.802 56.2654 121.826C67.1929 124.85 78.7879 124.422 89.4632 120.603C100.139 116.783 109.372 109.757 115.901 100.487C121.852 92.0368 125.29 82.0981 125.852 71.818C125.879 71.3187 125.9 70.8185 125.913 70.3178C125.936 69.4896 125.262 68.818 124.434 68.818C123.605 68.818 122.936 69.4935 122.912 70.3216C122.118 98.2999 99.2233 120.746 71.0697 120.818C70.9687 120.818 70.8678 120.818 70.7668 120.818C42.2551 120.728 19.1449 97.6923 18.9351 69.209C18.933 68.9315 18.9331 68.6541 18.9355 68.3768C19.1713 39.9895 42.1537 17.0256 70.548 16.8194C70.8193 16.8173 71.0907 16.8174 71.3621 16.8197C74.1693 16.8423 76.9235 17.0874 79.6079 17.5382Z" fill="black"/>
</mask>
<g mask="url(#mask3)">
<path id="Vector_4" d="M128.682 10.6529H10.8442V126.273H128.682V10.6529Z" fill="url(#paint3_linear)"/>
</g>
<mask id="mask4" mask-type="alpha" maskUnits="userSpaceOnUse" x="20" y="18" width="101" height="101">
<path id="inner-circle1" d="M96.3276 108.374C97.0235 107.926 97.9551 108.096 98.424 108.778C98.8927 109.459 98.7216 110.393 98.0266 110.841C97.6046 111.113 97.179 111.379 96.75 111.637C88.0785 116.866 78 119.351 67.8466 118.723C56.692 118.033 46.0902 113.625 37.7336 106.205C29.3771 98.7841 23.7475 88.7776 21.7437 77.7829C19.7399 66.7882 21.4773 55.439 26.6787 45.5474C31.8801 35.6557 40.2455 27.7918 50.4394 23.211C60.6333 18.6302 72.068 17.5967 82.9181 20.2755C93.7681 22.9543 103.408 29.1909 110.299 37.9897C116.571 45.9988 120.236 55.7105 120.843 65.818C120.873 66.3171 120.896 66.8172 120.911 67.3182C120.936 68.1462 120.262 68.818 119.433 68.818C118.605 68.818 117.936 68.1429 117.91 67.3149C117.12 42.187 96.6071 22.0326 71.3378 21.8197C71.0877 21.8175 70.8376 21.8174 70.5876 21.8192C44.9634 22.0039 24.215 42.694 23.9363 68.2957C23.9322 68.6566 23.9324 69.0177 23.9367 69.3789C24.2357 94.9482 44.9528 115.609 70.544 115.816C70.8278 115.819 71.1115 115.819 71.3949 115.816C80.5747 115.727 89.125 113.007 96.3276 108.374Z" fill="black"/>
</mask>
<g mask="url(#mask4)">
<path id="Vector_5" d="M0.191406 -9.93388L0.191406 143.117H142.036V-9.93388H0.191406Z" fill="url(#paint4_linear)"/>
</g>
</g>
<defs>
<linearGradient id="paint0_linear" x1="-43.4389" y1="122.376" x2="35.8726" y2="-53.1118" gradientUnits="userSpaceOnUse">
<stop stop-color="#3C21D3"/>
<stop offset="1" stop-color="#FF453A"/>
</linearGradient>
<linearGradient id="paint1_linear" x1="-11.3075" y1="23.0591" x2="87.9918" y2="160.085" gradientUnits="userSpaceOnUse">
<stop stop-color="#FFC010"/>
<stop offset="0.59" stop-color="#FF6D00"/>
<stop offset="0.99" stop-color="#FF5D60"/>
</linearGradient>
<linearGradient id="paint2_linear" x1="-45.2864" y1="119.179" x2="29.434" y2="-47.2328" gradientUnits="userSpaceOnUse">
<stop stop-color="#FF2FB2"/>
<stop offset="1" stop-color="#5528C8"/>
</linearGradient>
<linearGradient id="paint3_linear" x1="25.9518" y1="-19.774" x2="166.538" y2="50.0299" gradientUnits="userSpaceOnUse">
<stop stop-color="#08F5FF"/>
<stop offset="1" stop-color="#580DBF"/>
</linearGradient>
<linearGradient id="paint4_linear" x1="-37.1369" y1="123.495" x2="56.6077" y2="-54.8404" gradientUnits="userSpaceOnUse">
<stop stop-color="#08F5FF"/>
<stop offset="1" stop-color="#580DBF"/>
</linearGradient>
</defs>
</svg>
